<svg width="303" height="44" viewBox="0 0 303 44" fill="none" xmlns="http://www.w3.org/2000/svg">
<g filter="url(#filter0_di_98_2097)">
<path d="M271.125 5.21875C269.941 5.21875 268.989 5.24037 268.229 5.27217C267.155 5.31707 266.148 5.69638 265.399 6.41393C264.64 7.14087 264.219 8.14607 264.219 9.28125C264.219 10.4164 264.64 11.4216 265.399 12.1486C266.148 12.8662 267.155 13.2454 268.229 13.2903C268.989 13.3221 269.941 13.3438 271.125 13.3438C272.309 13.3438 273.261 13.3221 274.021 13.2903C275.095 13.2454 276.102 12.8662 276.851 12.1486C277.61 11.4216 278.031 10.4164 278.031 9.28125C278.031 8.14607 277.61 7.14087 276.851 6.41393C276.102 5.69638 275.095 5.31707 274.021 5.27217C273.261 5.24037 272.309 5.21875 271.125 5.21875Z" fill="#2BB3C5"/>
<path d="M271.125 14.9688C269.941 14.9688 268.989 14.9904 268.229 15.0222C267.155 15.0671 266.148 15.4463 265.399 16.1639C264.64 16.8909 264.219 17.896 264.219 19.0312C264.219 20.1665 264.64 21.1716 265.399 21.8986C266.148 22.6162 267.155 22.9954 268.229 23.0403C268.989 23.0721 269.941 23.0938 271.125 23.0938C272.309 23.0938 273.261 23.0721 274.021 23.0403C275.095 22.9954 276.102 22.6162 276.851 21.8986C277.61 21.1716 278.031 20.1665 278.031 19.0312C278.031 17.896 277.61 16.8909 276.851 16.1639C276.102 15.4463 275.095 15.0671 274.021 15.0222C273.261 14.9904 272.309 14.9688 271.125 14.9688Z" fill="#2BB3C5"/>
<path d="M286.562 5.21875C285.379 5.21875 284.427 5.24037 283.666 5.27217C282.592 5.31707 281.586 5.69638 280.836 6.41393C280.077 7.14087 279.656 8.14607 279.656 9.28125C279.656 10.4164 280.077 11.4216 280.836 12.1486C281.586 12.8662 282.592 13.2454 283.666 13.2903C284.427 13.3221 285.379 13.3438 286.562 13.3438C287.746 13.3438 288.698 13.3221 289.459 13.2903C290.533 13.2454 291.539 12.8662 292.289 12.1486C293.048 11.4216 293.469 10.4164 293.469 9.28125C293.469 8.14607 293.048 7.14087 292.289 6.41393C291.539 5.69638 290.533 5.31707 289.459 5.27217C288.698 5.24037 287.746 5.21875 286.562 5.21875Z" fill="#2BB3C5"/>
<path d="M287.952 15.0686C287.064 14.9568 286.164 14.9568 285.277 15.0696C283.768 15.2614 282.818 16.6013 282.724 18.0219C282.569 20.3764 282.348 24.4643 282.323 29.0067C282.227 28.9362 282.121 28.8591 282.005 28.7763C281.386 28.3332 280.5 27.7241 279.427 27.0585C278.225 26.3131 276.548 26.1921 275.532 27.4005C275.013 28.0178 274.497 28.8625 274.179 29.9821C273.982 30.675 274.148 31.3883 274.524 31.9554C275.65 33.6488 278.612 37.8378 282.146 40.6419C282.608 41.0091 283.159 41.2331 283.732 41.3181C287.842 41.9279 292.425 42.2127 296.601 41.4898C297.646 41.309 298.539 40.6267 298.975 39.6548C300.626 35.9778 300.866 32.5688 300.76 30.29C300.669 28.3173 299.384 26.6438 297.519 26.0137C295.706 25.4013 293.96 25.0962 292.67 24.9438C292.024 24.8675 291.49 24.8293 291.116 24.8101C291.047 24.8065 290.983 24.8037 290.925 24.8013C290.892 23.1518 290.684 20.0905 290.533 18.0386C290.428 16.6109 289.472 15.2599 287.952 15.0686Z" fill="#F0EAD4"/>
<path d="M224 22H257" stroke="#F0EAD4" stroke-width="5" stroke-linecap="round" stroke-linejoin="round" stroke-dasharray="10 10"/>
<g clip-path="url(#clip0_98_2097)">
<path fill-rule="evenodd" clip-rule="evenodd" d="M188.401 33.5664C188.97 34.1354 188.97 35.0579 188.401 35.6269L186.216 37.8124C185.647 38.3814 184.724 38.3814 184.155 37.8124C183.586 37.2434 183.586 36.3209 184.155 35.7519L186.341 33.5664C186.91 32.9974 187.832 32.9974 188.401 33.5664Z" fill="#F0EAD4"/>
<path d="M206.704 20.7997C206.92 21.0149 207.215 21.1307 207.519 21.119C207.823 21.1073 208.109 20.9693 208.307 20.7382L215.559 12.2768C216.349 11.3558 217.091 9.80763 216.285 8.2894C216.032 7.81383 215.674 7.30122 215.17 6.7971C214.666 6.29298 214.154 5.93514 213.678 5.68259C212.16 4.87636 210.612 5.61876 209.691 6.40825L201.229 13.6608C200.998 13.8589 200.86 14.1444 200.848 14.4486C200.837 14.7527 200.952 15.048 201.168 15.2632L206.704 20.7997Z" fill="#E63C36"/>
<path d="M208.644 6.76649C206.406 5.31072 203.792 6.13203 202.142 7.77599L186.721 23.1425C186.053 23.8082 185.633 24.6969 185.577 25.6621C185.503 26.937 185.395 29.3523 185.36 33.0284C185.356 33.4048 185.469 33.7918 185.712 34.1176C185.973 34.4674 186.302 34.8655 186.702 35.2656C187.102 35.6656 187.5 35.9952 187.85 36.2557C188.176 36.4983 188.563 36.6115 188.939 36.6079C192.616 36.5726 195.031 36.465 196.306 36.3911C197.271 36.3351 198.16 35.9149 198.825 35.2469L214.192 19.826C215.836 18.1762 216.657 15.562 215.201 13.3243C214.529 12.2901 213.577 11.0647 212.24 9.72769C210.903 8.39063 209.678 7.43928 208.644 6.76649Z" fill="#F0EAD4"/>
<path d="M213.032 20.9892C212.828 20.6686 212.561 20.2749 212.222 19.8142C211.272 18.5249 209.753 16.7134 207.424 14.5133C205.094 12.313 203.178 10.8807 201.819 9.98729C201.364 9.68872 200.972 9.45055 200.648 9.26416L198.049 11.8541L198.126 12.048L198.125 12.0472L198.122 12.0459L198.119 12.0446C198.119 12.0446 198.119 12.0448 198.12 12.0451L198.125 12.0472C198.134 12.0515 198.155 12.0612 198.186 12.076C198.248 12.1057 198.351 12.1573 198.495 12.2343C198.782 12.3883 199.229 12.6444 199.818 13.0314C200.996 13.8053 202.745 15.1045 204.923 17.1614C207.1 19.2183 208.474 20.8675 209.289 21.9746C209.697 22.5282 209.966 22.9471 210.127 23.2142C210.207 23.3478 210.26 23.4436 210.29 23.4995C210.305 23.5275 210.315 23.5455 210.319 23.5533L210.32 23.5559C210.337 23.5905 210.355 23.6244 210.373 23.6575L213.032 20.9892Z" fill="#E63C36"/>
<path d="M196.728 36.3427C196.587 36.1475 196.446 35.9536 196.304 35.7604C195.198 34.2573 193.591 32.2562 191.587 30.2591C189.583 28.2619 187.574 26.6605 186.066 25.5582C185.914 25.4468 185.766 25.3406 185.625 25.2397C185.601 25.3785 185.585 25.5193 185.577 25.6618C185.503 26.9368 185.395 29.352 185.36 33.0281C185.356 33.4046 185.469 33.7915 185.712 34.1173C185.973 34.4671 186.302 34.8652 186.702 35.2654C187.102 35.6653 187.5 35.995 187.85 36.2554C188.176 36.498 188.563 36.6112 188.939 36.6076C192.616 36.5724 195.031 36.4648 196.306 36.3908C196.448 36.3826 196.589 36.3664 196.728 36.3427Z" fill="#E63C36"/>
<path fill-rule="evenodd" clip-rule="evenodd" d="M196.415 7.46583C197.219 6.66172 198.395 6.1207 199.691 6.29124C200.666 6.41942 202.146 6.7222 203.419 7.48597C204.109 7.89997 204.333 8.79494 203.919 9.48494C203.505 10.1749 202.61 10.3987 201.92 9.98468C201.154 9.52497 200.139 9.2892 199.311 9.18033C199.075 9.14927 198.764 9.23747 198.475 9.52631L192.044 15.9578C191.475 16.5268 190.552 16.5268 189.983 15.9578C189.414 15.3888 189.414 14.4663 189.983 13.8973L196.415 7.46583Z" fill="#F0EAD4"/>
</g>
<path d="M144 22H177" stroke="#F0EAD4" stroke-width="5" stroke-linecap="round" stroke-linejoin="round" stroke-dasharray="10 10"/>
<path d="M93.2099 27.7651C94.254 19.5265 101.288 13.156 109.81 13.156C118.332 13.156 125.367 19.5265 126.411 27.7651H137.621C136.535 13.3546 124.499 2 109.81 2C95.122 2 83.0857 13.3546 82 27.7651H93.2099Z" fill="#FFBF10"/>
<path d="M109.81 17.8994C103.208 17.8994 97.8569 23.2509 97.8569 29.8523C97.8569 36.4537 103.208 41.8052 109.81 41.8052C116.411 41.8052 121.763 36.4537 121.763 29.8523C121.763 23.2509 116.411 17.8994 109.81 17.8994Z" fill="#F0EAD4"/>
<path d="M125.277 13.4971C125.747 13.5458 126.117 13.9157 126.165 14.3854C126.398 16.635 126.229 18.5721 126.044 19.8107C125.936 20.5282 125.147 20.8271 124.578 20.3774C124.19 20.0711 123.726 19.6883 123.214 19.235C121.079 21.2903 119.778 22.346 119.224 22.771C119.025 22.9242 118.772 22.9913 118.533 22.915C118.236 22.8205 117.811 22.6288 117.426 22.2472C117.032 21.857 116.839 21.4178 116.746 21.1172C116.675 20.8862 116.736 20.6444 116.88 20.4501C117.29 19.8965 118.333 18.5785 120.421 16.4384C119.972 15.9306 119.593 15.4697 119.289 15.0843C118.84 14.515 119.139 13.7264 119.856 13.619C121.093 13.4335 123.029 13.2642 125.277 13.4971Z" fill="#F0EAD4"/>
<path fill-rule="evenodd" clip-rule="evenodd" d="M115.83 33.5487C114.961 36.0363 112.594 37.821 109.81 37.821C107.026 37.821 104.659 36.0363 103.79 33.5487C103.438 32.5408 104.472 31.7299 105.523 31.9183C106.662 32.1224 108.171 32.3154 109.81 32.3154C111.448 32.3154 112.958 32.1224 114.097 31.9183C115.148 31.7299 116.182 32.5408 115.83 33.5487ZM107.574 26.0446C107.045 26.2763 106.429 26.0421 106.186 25.5216C106.176 25.5033 106.12 25.4115 106.024 25.3242C105.903 25.2127 105.686 25.0712 105.289 25.0712C104.892 25.0712 104.675 25.2127 104.553 25.3242C104.458 25.4115 104.402 25.5033 104.392 25.5216C104.148 26.0421 103.533 26.2763 103.004 26.0446C102.45 25.8024 102.221 25.1323 102.478 24.5985C102.544 24.4604 102.729 24.113 103.119 23.7558C103.578 23.3361 104.291 22.9463 105.289 22.9463C106.286 22.9463 106.999 23.3361 107.458 23.7558C107.849 24.113 108.033 24.4604 108.1 24.5985C108.357 25.1322 108.128 25.8024 107.574 26.0446ZM114.32 22.9463C113.323 22.9463 112.609 23.3361 112.15 23.7558C111.76 24.113 111.575 24.4604 111.509 24.5985C111.255 25.1336 111.479 25.8014 112.035 26.0446C112.564 26.2763 113.18 26.0421 113.423 25.5216C113.433 25.5033 113.489 25.4115 113.584 25.3242C113.706 25.2127 113.923 25.0712 114.32 25.0712C114.717 25.0712 114.934 25.2127 115.056 25.3242C115.151 25.4115 115.207 25.5033 115.217 25.5216C115.46 26.0421 116.076 26.2763 116.605 26.0446C117.204 25.7827 117.381 25.0663 117.095 24.5272C117.008 24.3628 116.824 24.0617 116.489 23.7558C116.03 23.3361 115.317 22.9463 114.32 22.9463Z" fill="#1863A9"/>
<path d="M121.523 29.2256C122.29 29.9928 122.171 31.3553 121.258 32.2687C120.345 33.1821 118.982 33.3006 118.215 32.5333C117.26 31.5789 116.879 30.051 116.728 28.956C116.627 28.2278 117.217 27.6373 117.945 27.7383C119.04 27.8902 120.568 28.2712 121.523 29.2256Z" fill="#1863A9"/>
<path d="M98.0974 29.2256C97.3302 29.9928 97.4486 31.3553 98.362 32.2687C99.2754 33.1821 100.638 33.3006 101.405 32.5333C102.36 31.5789 102.741 30.051 102.892 28.956C102.993 28.2278 102.403 27.6373 101.675 27.7383C100.58 27.8902 99.0518 28.2712 98.0974 29.2256Z" fill="#1863A9"/>
<path d="M42 22H75" stroke="#F0EAD4" stroke-width="5" stroke-linecap="round" stroke-linejoin="round" stroke-dasharray="10 10"/>
<path d="M19.4839 6.09277C10.4313 6.09277 3.09277 13.4313 3.09277 22.4839C3.09277 25.3887 3.84871 28.118 5.17483 30.4847C4.48799 32.3035 3.84345 34.4028 3.42154 36.5C3.17573 37.7218 4.25801 38.7566 5.46604 38.4738C7.47047 38.0046 9.50513 37.3528 11.3014 36.6897C13.7097 38.0797 16.5044 38.875 19.4839 38.875C28.5365 38.875 35.875 31.5365 35.875 22.4839C35.875 13.4313 28.5365 6.09277 19.4839 6.09277Z" fill="#F0EAD4"/>
<path fill-rule="evenodd" clip-rule="evenodd" d="M24.0937 26.0553C24.5351 25.3825 25.4384 25.1951 26.1112 25.6365C26.7839 26.078 26.9714 26.9813 26.5299 27.654C24.9302 30.0917 22.1407 31.2256 19.4838 31.2256C16.827 31.2256 14.0375 30.0917 12.4378 27.654C11.9963 26.9813 12.1837 26.078 12.8565 25.6365C13.5292 25.1951 14.4325 25.3825 14.874 26.0553C15.824 27.503 17.5876 28.3117 19.4838 28.3117C21.3801 28.3117 23.1436 27.503 24.0937 26.0553ZM14.3844 15.9272C15.1891 15.9272 15.8414 16.5795 15.8414 17.3842V18.8412C15.8414 19.6459 15.1891 20.2982 14.3844 20.2982C13.5797 20.2982 12.9274 19.6459 12.9274 18.8412V17.3842C12.9274 16.5795 13.5797 15.9272 14.3844 15.9272ZM23.1263 17.3842C23.1263 16.5795 23.7786 15.9272 24.5833 15.9272C25.388 15.9272 26.0403 16.5795 26.0403 17.3842V18.8412C26.0403 19.6459 25.388 20.2982 24.5833 20.2982C23.7786 20.2982 23.1263 19.6459 23.1263 18.8412V17.3842Z" fill="#1863A9"/>
</g>
<defs>
<filter id="filter0_di_98_2097" x="0.7" y="0.7" width="302.3" height="43.3" filterUnits="userSpaceOnUse" color-interpolation-filters="sRGB">
<feFlood flood-opacity="0" result="BackgroundImageFix"/>
<feColorMatrix in="SourceAlpha" type="matrix" values="0 0 0 0 0 0 0 0 0 0 0 0 0 0 0 0 0 0 127 0" result="hardAlpha"/>
<feOffset dx="-0.3" dy="-0.3"/>
<feGaussianBlur stdDeviation="0.5"/>
<feComposite in2="hardAlpha" operator="out"/>
<feColorMatrix type="matrix" values="0 0 0 0 1 0 0 0 0 1 0 0 0 0 1 0 0 0 0.2 0"/>
<feBlend mode="normal" in2="BackgroundImageFix" result="effect1_dropShadow_98_2097"/>
<feBlend mode="normal" in="SourceGraphic" in2="effect1_dropShadow_98_2097" result="shape"/>
<feColorMatrix in="SourceAlpha" type="matrix" values="0 0 0 0 0 0 0 0 0 0 0 0 0 0 0 0 0 0 127 0" result="hardAlpha"/>
<feOffset dx="1" dy="1"/>
<feGaussianBlur stdDeviation="0.5"/>
<feComposite in2="hardAlpha" operator="arithmetic" k2="-1" k3="1"/>
<feColorMatrix type="matrix" values="0 0 0 0 0 0 0 0 0 0 0 0 0 0 0 0 0 0 0.25 0"/>
<feBlend mode="normal" in2="shape" result="effect2_innerShadow_98_2097"/>
</filter>
<clipPath id="clip0_98_2097">
<rect width="34.9677" height="34.9677" fill="white" transform="translate(183 4)"/>
</clipPath>
</defs>
</svg>
