<svg width="67" height="66" viewBox="0 0 67 66" fill="none" xmlns="http://www.w3.org/2000/svg">
<path d="M52.5044 38.0398C49.8545 37.9436 47.5805 39.8951 47.2594 42.5188L46.6696 47.3377C46.6248 47.7038 46.3141 47.9788 45.9453 47.9788H20.8132C20.4445 47.9788 20.1336 47.7038 20.0888 47.3377L19.4992 42.5188C19.1781 39.8951 16.9039 37.9436 14.2541 38.0398C10.6131 38.1719 7.52576 38.3143 5.44638 38.4178C2.68361 38.5554 0.521687 40.8811 0.655288 43.6809C0.85032 47.768 1.35073 55.6676 2.51506 60.2914C3.3015 63.4146 6.07082 64.9116 8.70496 65.1028C12.2794 65.3624 19.4729 65.6772 33.3792 65.6772C47.2855 65.6772 54.4792 65.3624 58.0535 65.1028C60.6877 64.9116 63.4569 63.4146 64.2435 60.2914C65.4078 55.6676 65.9081 47.768 66.1033 43.6809C66.2368 40.8811 64.0749 38.5554 61.3121 38.4178C59.2327 38.3143 56.1453 38.1719 52.5044 38.0398Z" fill="#F0EAD4"/>
<path d="M33.379 0.000488281C32.2615 0.000488281 31.2286 0.0523294 30.3305 0.124793C27.9116 0.319912 26.2211 2.35534 26.129 4.68969L25.5616 19.0726C23.9928 19.1169 22.6585 19.1729 21.5278 19.2342C19.8538 19.325 18.562 20.1854 18.0144 21.4566C17.4655 22.7307 17.7341 24.2553 18.8411 25.5212C19.9754 26.8184 21.4369 28.4072 23.3048 30.3108C26.614 33.6837 29.0903 35.5872 30.7347 36.6468C32.3755 37.7039 34.3819 37.7037 36.0226 36.6465C37.6667 35.587 40.1429 33.6834 43.4526 30.311C45.3212 28.4067 46.7833 26.8174 47.9179 25.5201C49.0248 24.2543 49.2932 22.73 48.7442 21.4561C48.1966 20.1852 46.905 19.3251 45.2312 19.2344C44.1001 19.1729 42.7653 19.1169 41.1955 19.0726L40.6277 4.68921C40.5355 2.35512 38.8454 0.319853 36.4267 0.124734C35.5289 0.0523001 34.4963 0.000488281 33.379 0.000488281Z" fill="#FFBF10"/>
</svg>
