<?xml version="1.0" encoding="UTF-8"?><svg id="Layer_2" xmlns="http://www.w3.org/2000/svg" viewBox="0 0 47.04 42.07"><defs><style>.cls-1{fill:#ffbf10;}.cls-2{fill:#2bb3c5;}</style></defs><g id="Layer_1-2"><path class="cls-1" d="m22.44.33c.62-.44,1.53-.44,2.15,0l2.8,2.01c7.77,5.58,14.4,12.41,19.61,20.17l.04.05h-3.96c-.74,0-1.45.33-1.95.9-.5.57-.75,1.34-.68,2.12.35,4.03.19,10.23-.45,14.18-.18,1.12-1.33,2.31-3.08,2.31h-5.32v-10.69c0-4.69-3.62-8.49-8.08-8.49s-8.08,3.8-8.08,8.49v10.69h-5.32c-1.76,0-2.9-1.19-3.08-2.31-.64-3.95-.8-10.14-.45-14.18.07-.77-.18-1.54-.68-2.12-.5-.57-1.2-.9-1.95-.9H0l.03-.05C5.24,14.76,11.88,7.92,19.65,2.34l2.8-2.01Z"/><path class="cls-2" d="m22.44.33c.62-.44,1.53-.44,2.15,0l2.8,2.01c7.77,5.58,14.4,12.41,19.61,20.17l.04.05h-3.4c-4.44-1.73-11.73-3.92-20.12-3.92s-16.35,2.19-21.31,3.92H0l.03-.05C5.24,14.76,11.88,7.92,19.65,2.34l2.8-2.01Z"/></g></svg>