<?xml version="1.0" encoding="UTF-8"?><svg id="Layer_2" xmlns="http://www.w3.org/2000/svg" viewBox="0 0 45.17 45.17"><defs><style>.cls-1{fill:#318f30;}.cls-2,.cls-3{fill:#ffbf10;}.cls-3{fill-rule:evenodd;}</style></defs><g id="Layer_1-2"><path class="cls-3" d="m6.41,38.75c.78.78.78,2.05,0,2.83l-3,3c-.78.78-2.05.78-2.83,0-.78-.78-.78-2.05,0-2.83l3-3c.78-.78,2.05-.78,2.83,0Z"/><path class="cls-1" d="m31.54,21.23c.3.3.7.45,1.12.44.42-.02.81-.21,1.08-.52l9.96-11.61c1.08-1.26,2.1-3.39,1-5.47-.35-.65-.84-1.36-1.53-2.05-.69-.69-1.4-1.18-2.05-1.53-2.08-1.11-4.21-.09-5.47,1l-11.61,9.96c-.32.27-.51.66-.52,1.08-.02.42.14.82.44,1.12l7.6,7.6Z"/><path class="cls-2" d="m34.2,1.97c-3.07-2-6.66-.87-8.92,1.39L4.11,24.45c-.92.91-1.49,2.13-1.57,3.46-.1,1.75-.25,5.07-.3,10.11,0,.52.15,1.05.48,1.5.36.48.81,1.03,1.36,1.58.55.55,1.1,1,1.58,1.36.45.33.98.49,1.5.48,5.05-.05,8.36-.2,10.11-.3,1.32-.08,2.54-.65,3.46-1.57l21.09-21.17c2.26-2.26,3.38-5.85,1.39-8.92-.92-1.42-2.23-3.1-4.06-4.94-1.84-1.84-3.52-3.14-4.94-4.06Z"/><path class="cls-1" d="m40.23,21.49c-.28-.44-.65-.98-1.11-1.61-1.3-1.77-3.39-4.26-6.59-7.28-3.2-3.02-5.83-4.99-7.69-6.21-.62-.41-1.16-.74-1.61-.99l-3.57,3.56.11.27h0s0,0,0,0h0s0,0,0,0h0s.04.02.08.04c.08.04.23.11.42.22.39.21,1.01.56,1.82,1.09,1.62,1.06,4.02,2.85,7.01,5.67,2.99,2.82,4.87,5.09,5.99,6.61.56.76.93,1.33,1.15,1.7.11.18.18.31.22.39.02.04.03.06.04.07h0c.02.05.05.1.07.14l3.65-3.66Z"/><path class="cls-1" d="m17.84,42.57c-.19-.27-.39-.53-.58-.8-1.52-2.06-3.72-4.81-6.48-7.55-2.75-2.74-5.51-4.94-7.58-6.45-.21-.15-.41-.3-.61-.44-.03.19-.05.38-.07.58-.1,1.75-.25,5.07-.3,10.11,0,.52.15,1.05.48,1.5.36.48.81,1.03,1.36,1.58.55.55,1.1,1,1.58,1.36.45.33.98.49,1.5.48,5.05-.05,8.36-.2,10.11-.3.2-.01.39-.03.58-.07Z"/><path class="cls-3" d="m17.41,2.93c1.1-1.1,2.72-1.85,4.5-1.61,1.34.18,3.37.59,5.12,1.64.95.57,1.25,1.8.69,2.74-.57.95-1.8,1.25-2.74.69-1.05-.63-2.45-.95-3.58-1.1-.32-.04-.75.08-1.15.47l-8.83,8.83c-.78.78-2.05.78-2.83,0-.78-.78-.78-2.05,0-2.83L17.41,2.93Z"/></g></svg>