<?xml version="1.0" encoding="UTF-8"?><svg id="Layer_2" xmlns="http://www.w3.org/2000/svg" viewBox="0 0 45 45"><defs><style>.cls-1{fill:#e63c36;}.cls-2{fill:#318f30;}</style></defs><g id="Layer_1-2"><path class="cls-2" d="m0,37.5c0,1.97.07,3.33.17,4.27.2,1.99,1.8,3.13,3.55,3.19.69.02,1.6.04,2.78.04s2.1-.02,2.78-.04c1.75-.06,3.35-1.2,3.55-3.19.1-.94.17-2.3.17-4.27s-.07-3.33-.17-4.27c-.2-1.99-1.8-3.13-3.55-3.19-.69-.02-1.6-.04-2.78-.04s-2.1.02-2.78.04c-1.75.06-3.35,1.2-3.55,3.19-.1.94-.17,2.3-.17,4.27Z"/><path class="cls-2" d="m32,30.5c0,5.69.13,8.91.26,10.73.15,2.01,1.61,3.58,3.7,3.71.66.04,1.5.07,2.53.07s1.87-.03,2.53-.07c2.09-.13,3.56-1.7,3.7-3.71.13-1.81.26-5.04.26-10.73s-.13-8.91-.26-10.73c-.15-2.01-1.61-3.58-3.7-3.71-.66-.04-1.5-.07-2.53-.07s-1.87.03-2.53.07c-2.09.13-3.56,1.7-3.7,3.71-.13,1.81-.26,5.04-.26,10.73Z"/><path class="cls-2" d="m16,34.5c0,3.41.1,5.56.21,6.92.17,2.05,1.74,3.45,3.72,3.53.66.03,1.51.05,2.57.05s1.9-.02,2.57-.05c1.98-.09,3.55-1.49,3.72-3.53.11-1.35.21-3.51.21-6.92s-.1-5.56-.21-6.92c-.17-2.05-1.74-3.45-3.72-3.53-.66-.03-1.51-.05-2.57-.05s-1.9.02-2.57.05c-1.98.09-3.55,1.49-3.72,3.53-.11,1.35-.21,3.51-.21,6.92Z"/><path class="cls-1" d="m40.67.02c-1.42-.06-4.4-.07-7.8.63-2,.41-2.55,2.82-1.22,4.15l1.79,1.79c-.57.52-1.31,1.2-2.14,1.99-1.94,1.85-4.43,4.34-6.56,6.88-.03.03-.08.06-.15.06-.03,0-.06,0-.07-.02-.01,0-.02-.01-.03-.02-.91-1.27-2.11-2.9-3.38-4.47-1.23-1.53-3.44-1.92-5.13-.78-2.41,1.63-7.4,5.39-12.99,11.78-.34.39-.68.79-1.02,1.19-.71.84-.6,2.11.24,2.82.84.71,2.11.6,2.82-.24.33-.39.65-.77.98-1.14,5.21-5.96,9.85-9.48,12.09-11.01,1.17,1.46,2.29,2.97,3.15,4.17,1.6,2.24,4.86,2.25,6.57.23,2-2.38,4.37-4.76,6.26-6.56.88-.84,1.65-1.54,2.21-2.06l1.92,1.92c1.33,1.33,3.74.79,4.15-1.22.7-3.4.69-6.38.63-7.8-.05-1.26-1.05-2.25-2.3-2.3Z"/></g></svg>