<?xml version="1.0" encoding="UTF-8"?><svg id="Layer_2" xmlns="http://www.w3.org/2000/svg" viewBox="0 0 45 45"><defs><style>.cls-1{fill:#f0ead4;}.cls-1,.cls-2{fill-rule:evenodd;}.cls-3,.cls-2{fill:#ffbf10;}</style></defs><g id="Layer_1-2"><path class="cls-3" d="m22.5,0c-7.4,0-12.59.28-15.86.54C3.35.81.81,3.35.54,6.64c-.27,3.27-.54,8.46-.54,15.86s.28,12.59.54,15.86c.27,3.29,2.8,5.82,6.09,6.09,3.27.27,8.46.54,15.86.54s12.59-.28,15.86-.54c3.29-.27,5.82-2.8,6.09-6.09.27-3.27.54-8.46.54-15.86s-.28-12.59-.54-15.86c-.27-3.29-2.8-5.82-6.09-6.09-3.27-.27-8.46-.54-15.86-.54Z"/><path class="cls-1" d="m6.5,14.5c0-1.1.9-2,2-2h28c1.1,0,2,.9,2,2s-.9,2-2,2H8.5c-1.1,0-2-.9-2-2Z"/><path class="cls-1" d="m6.5,30.5c0-1.1.9-2,2-2h28c1.1,0,2,.9,2,2s-.9,2-2,2H8.5c-1.1,0-2-.9-2-2Z"/><path class="cls-1" d="m17.5,7.5c3.87,0,7,3.13,7,7s-3.13,7-7,7-7-3.13-7-7,3.13-7,7-7Z"/><path class="cls-1" d="m27.5,23.5c3.87,0,7,3.13,7,7s-3.13,7-7,7-7-3.13-7-7,3.13-7,7-7Z"/><path class="cls-2" d="m20.5,14.5c0-1.66-1.34-3-3-3s-3,1.34-3,3,1.34,3,3,3,3-1.34,3-3Z"/><path class="cls-2" d="m30.5,30.5c0-1.66-1.34-3-3-3s-3,1.34-3,3,1.34,3,3,3,3-1.34,3-3Z"/></g></svg>