<svg width="52" height="48" viewBox="0 0 52 48" fill="none" xmlns="http://www.w3.org/2000/svg">
<g opacity="0.35" filter="url(#filter0_ddi_33_9)">
<path d="M6.72417 6.63418L5.13092 4.70764L5.13092 4.70764L6.72417 6.63418ZM6.72417 37.6043L8.31743 35.6778L8.31742 35.6778L6.72417 37.6043ZM32.1006 37.6043L30.5074 35.6778L30.5074 35.6778L32.1006 37.6043ZM32.7379 38.375L31.1447 36.4484L31.1447 36.4484L32.7379 38.375ZM6.08687 38.375L7.68013 36.4484L7.68012 36.4484L6.08687 38.375ZM6.08687 5.86357L4.49361 3.93703L4.49361 3.93703L6.08687 5.86357ZM32.7379 5.86357L31.1447 7.7901L31.1447 7.7901L32.7379 5.86357ZM32.1006 6.63418L30.5074 8.56071L30.5074 8.56071L32.1006 6.63418ZM24.3685 17.3909L25.9618 19.3175L25.9618 19.3175L24.3685 17.3909ZM23.7312 16.6203L22.138 14.6938L22.138 14.6938L23.7312 16.6203ZM17.5509 21.7315L15.9577 19.8049C15.122 20.4961 14.8272 21.6472 15.2278 22.6549C15.6283 23.6627 16.633 24.2973 17.7151 24.2261L17.5509 21.7315ZM17.5479 21.734L17.3804 19.2396C16.8569 19.2747 16.3577 19.4737 15.9536 19.8083L17.5479 21.734ZM17.4807 21.8012L15.5526 20.2099L15.5526 20.2099L17.4807 21.8012ZM17.3674 22.09L14.8716 21.9461L14.8716 21.9461L17.3674 22.09ZM17.4948 22.4536L15.6363 24.1257L15.6363 24.1257L17.4948 22.4536ZM17.5239 22.4834L15.8105 24.3038L15.8105 24.3038L17.5239 22.4834ZM17.5509 22.5071L19.1442 20.5805C19.1396 20.5767 19.1349 20.5729 19.1302 20.5691L17.5509 22.5071ZM23.7312 27.6182L25.3245 25.6917L25.3245 25.6916L23.7312 27.6182ZM24.3685 26.8476L22.7753 28.7741L22.7753 28.7741L24.3685 26.8476ZM19.2557 22.6193V20.1193C18.2015 20.1193 17.2605 20.7806 16.9035 21.7726C16.5464 22.7646 16.85 23.8739 17.6625 24.5458L19.2557 22.6193ZM8.31743 8.56071C8.3081 8.56843 8.32612 8.55144 8.38102 8.53263C8.43459 8.51427 8.50696 8.5 8.59164 8.5V3.5C7.35072 3.5 6.10202 3.90454 5.13092 4.70764L8.31743 8.56071ZM8.5 8.05681C8.5 8.20472 8.46379 8.32971 8.41826 8.42072C8.37316 8.51088 8.32705 8.55276 8.31743 8.56071L5.13092 4.70764C4.14712 5.52125 3.5 6.71414 3.5 8.05681H8.5ZM8.5 36.1817V8.05681H3.5V36.1817H8.5ZM8.31742 35.6778C8.32705 35.6858 8.37316 35.7276 8.41826 35.8178C8.46379 35.9088 8.5 36.0338 8.5 36.1817H3.5C3.5 37.5244 4.14712 38.7173 5.13092 39.5309L8.31742 35.6778ZM8.59164 35.7385C8.50696 35.7385 8.43459 35.7243 8.38102 35.7059C8.32613 35.6871 8.3081 35.6701 8.31743 35.6778L5.13091 39.5309C6.10201 40.334 7.35072 40.7385 8.59164 40.7385V35.7385ZM30.2331 35.7385H8.59164V40.7385H30.2331V35.7385ZM30.5074 35.6778C30.5167 35.6701 30.4987 35.6871 30.4438 35.7059C30.3902 35.7243 30.3178 35.7385 30.2331 35.7385V40.7385C31.4741 40.7385 32.7228 40.334 33.6939 39.5309L30.5074 35.6778ZM30.3248 36.1817C30.3248 36.0338 30.361 35.9088 30.4065 35.8178C30.4516 35.7276 30.4977 35.6858 30.5074 35.6778L33.6939 39.5309C34.6777 38.7173 35.3248 37.5244 35.3248 36.1817H30.3248ZM30.3248 29.7897V36.1817H35.3248V29.7897H30.3248ZM33.3248 26.7897C31.6679 26.7897 30.3248 28.1328 30.3248 29.7897H35.3248C35.3248 30.8943 34.4294 31.7897 33.3248 31.7897V26.7897ZM36.3248 29.7897C36.3248 28.1328 34.9816 26.7897 33.3248 26.7897V31.7897C32.2202 31.7897 31.3248 30.8943 31.3248 29.7897H36.3248ZM36.3248 36.1817V29.7897H31.3248V36.1817H36.3248ZM34.3312 40.3015C35.5137 39.3235 36.3248 37.8604 36.3248 36.1817H31.3248C31.3248 36.1973 31.3221 36.2228 31.3016 36.2638C31.2797 36.3074 31.2336 36.3748 31.1447 36.4484L34.3312 40.3015ZM30.2331 41.7385C31.6836 41.7385 33.1637 41.267 34.3312 40.3015L31.1447 36.4484C30.9567 36.6038 30.6329 36.7385 30.2331 36.7385V41.7385ZM8.59164 41.7385H30.2331V36.7385H8.59164V41.7385ZM4.49361 40.3015C5.66107 41.267 7.14123 41.7385 8.59164 41.7385V36.7385C8.19188 36.7385 7.86807 36.6038 7.68013 36.4484L4.49361 40.3015ZM2.5 36.1817C2.5 37.8604 3.31104 39.3235 4.49362 40.3015L7.68012 36.4484C7.59117 36.3748 7.54508 36.3074 7.52321 36.2638C7.50268 36.2228 7.5 36.1973 7.5 36.1817H2.5ZM2.5 8.05681V36.1817H7.5V8.05681H2.5ZM4.49361 3.93703C3.31104 4.91502 2.5 6.37809 2.5 8.05681H7.5C7.5 8.04126 7.50268 8.0157 7.52321 7.97475C7.54508 7.93112 7.59117 7.86367 7.68013 7.7901L4.49361 3.93703ZM8.59164 2.5C7.14124 2.5 5.66107 2.97153 4.49361 3.93703L7.68013 7.7901C7.86807 7.63467 8.19188 7.5 8.59164 7.5V2.5ZM30.2331 2.5H8.59164V7.5H30.2331V2.5ZM34.3312 3.93703C33.1637 2.97153 31.6835 2.5 30.2331 2.5V7.5C30.6329 7.5 30.9567 7.63467 31.1447 7.7901L34.3312 3.93703ZM36.3248 8.05681C36.3248 6.37809 35.5137 4.91502 34.3312 3.93703L31.1447 7.7901C31.2336 7.86367 31.2797 7.93112 31.3016 7.97475C31.3221 8.0157 31.3248 8.04126 31.3248 8.05681H36.3248ZM36.3248 14.4488V8.05681H31.3248V14.4488H36.3248ZM33.3248 17.4488C34.9816 17.4488 36.3248 16.1057 36.3248 14.4488H31.3248C31.3248 13.3443 32.2202 12.4488 33.3248 12.4488V17.4488ZM30.3248 14.4488C30.3248 16.1057 31.6679 17.4488 33.3248 17.4488V12.4488C34.4294 12.4488 35.3248 13.3443 35.3248 14.4488H30.3248ZM30.3248 8.05681V14.4488H35.3248V8.05681H30.3248ZM30.5074 8.56071C30.4977 8.55276 30.4516 8.51088 30.4065 8.42072C30.361 8.32971 30.3248 8.20472 30.3248 8.05681H35.3248C35.3248 6.71414 34.6777 5.52125 33.6939 4.70764L30.5074 8.56071ZM30.2331 8.5C30.3178 8.5 30.3902 8.51427 30.4438 8.53263C30.4987 8.55144 30.5167 8.56843 30.5074 8.56071L33.6939 4.70765C32.7228 3.90454 31.4741 3.5 30.2331 3.5V8.5ZM8.59164 8.5H30.2331V3.5H8.59164V8.5ZM22.7753 15.4644L17.6625 19.6927L20.849 23.5458L25.9618 19.3175L22.7753 15.4644ZM22.5086 18.2803C21.8047 17.429 21.9241 16.1683 22.7753 15.4644L25.9618 19.3175C27.2385 18.2616 27.4176 16.3705 26.3617 15.0937L22.5086 18.2803ZM25.3245 18.5469C24.4733 19.2508 23.2126 19.1314 22.5086 18.2803L26.3617 15.0937C25.3058 13.8169 23.4147 13.6379 22.138 14.6938L25.3245 18.5469ZM19.1442 23.658L25.3245 18.5469L22.138 14.6938L15.9577 19.8049L19.1442 23.658ZM17.7151 24.2261L19.4199 24.1139L19.0915 19.1247L17.3867 19.2369L17.7151 24.2261ZM15.9536 19.8083C15.8081 19.9288 15.6737 20.0632 15.5526 20.2099L19.4089 23.3925C19.3282 23.4903 19.2389 23.5796 19.1423 23.6596L15.9536 19.8083ZM15.5526 20.2099C15.1605 20.685 14.9095 21.2881 14.8716 21.9461L19.8633 22.234C19.8379 22.6731 19.6699 23.0762 19.4089 23.3925L15.5526 20.2099ZM14.8716 21.9461C14.8682 22.0036 14.8666 22.0613 14.8666 22.1193H19.8666C19.8666 22.1575 19.8655 22.1958 19.8633 22.2339L14.8716 21.9461ZM14.8666 22.1193C14.8666 22.8889 15.1597 23.596 15.6363 24.1257L19.3532 20.7814C19.6705 21.134 19.8666 21.6067 19.8666 22.1193H14.8666ZM15.6363 24.1257C15.6917 24.1873 15.7498 24.2467 15.8105 24.3038L19.2374 20.663C19.2778 20.701 19.3165 20.7405 19.3532 20.7814L15.6363 24.1257ZM15.8105 24.3038C15.8625 24.3528 15.9162 24.3999 15.9716 24.4451L19.1302 20.5691C19.1671 20.5991 19.2028 20.6304 19.2374 20.6629L15.8105 24.3038ZM25.3245 25.6916L19.1442 20.5805L15.9577 24.4336L22.138 29.5447L25.3245 25.6916ZM22.5086 25.9583C23.2126 25.1071 24.4733 24.9877 25.3245 25.6917L22.1379 29.5447C23.4147 30.6006 25.3058 30.4216 26.3617 29.1448L22.5086 25.9583ZM22.7753 28.7741C21.9241 28.0702 21.8047 26.8095 22.5086 25.9583L26.3617 29.1448C27.4176 27.868 27.2386 25.9769 25.9618 24.921L22.7753 28.7741ZM17.6625 24.5458L22.7753 28.7741L25.9618 24.921L20.849 20.6927L17.6625 24.5458ZM19.2557 25.1193H42.5997V20.1193H19.2557V25.1193ZM42.5997 25.1193C44.2566 25.1193 45.5997 23.7761 45.5997 22.1193H40.5997C40.5997 21.0147 41.4951 20.1193 42.5997 20.1193V25.1193ZM45.5997 22.1193C45.5997 20.4624 44.2566 19.1193 42.5997 19.1193V24.1193C41.4951 24.1193 40.5997 23.2238 40.5997 22.1193H45.5997ZM42.5997 19.1193H19.2557V24.1193H42.5997V19.1193ZM19.0882 19.1249L17.3804 19.2396L17.7154 24.2283L19.4232 24.1136L19.0882 19.1249Z" fill="#785800"/>
</g>
<defs>
<filter id="filter0_ddi_33_9" x="0.5" y="0.5" width="51.0997" height="47.2385" filterUnits="userSpaceOnUse" color-interpolation-filters="sRGB">
<feFlood flood-opacity="0" result="BackgroundImageFix"/>
<feColorMatrix in="SourceAlpha" type="matrix" values="0 0 0 0 0 0 0 0 0 0 0 0 0 0 0 0 0 0 127 0" result="hardAlpha"/>
<feOffset dx="-0.2" dy="-0.2"/>
<feGaussianBlur stdDeviation="0.5"/>
<feComposite in2="hardAlpha" operator="out"/>
<feColorMatrix type="matrix" values="0 0 0 0 1 0 0 0 0 1 0 0 0 0 1 0 0 0 0.4 0"/>
<feBlend mode="normal" in2="BackgroundImageFix" result="effect1_dropShadow_33_9"/>
<feColorMatrix in="SourceAlpha" type="matrix" values="0 0 0 0 0 0 0 0 0 0 0 0 0 0 0 0 0 0 127 0" result="hardAlpha"/>
<feOffset dx="2" dy="2"/>
<feGaussianBlur stdDeviation="2"/>
<feComposite in2="hardAlpha" operator="out"/>
<feColorMatrix type="matrix" values="0 0 0 0 0 0 0 0 0 0 0 0 0 0 0 0 0 0 0.15 0"/>
<feBlend mode="normal" in2="effect1_dropShadow_33_9" result="effect2_dropShadow_33_9"/>
<feBlend mode="normal" in="SourceGraphic" in2="effect2_dropShadow_33_9" result="shape"/>
<feColorMatrix in="SourceAlpha" type="matrix" values="0 0 0 0 0 0 0 0 0 0 0 0 0 0 0 0 0 0 127 0" result="hardAlpha"/>
<feOffset dx="1" dy="1"/>
<feGaussianBlur stdDeviation="0.4"/>
<feComposite in2="hardAlpha" operator="arithmetic" k2="-1" k3="1"/>
<feColorMatrix type="matrix" values="0 0 0 0 0 0 0 0 0 0 0 0 0 0 0 0 0 0 0.5 0"/>
<feBlend mode="normal" in2="shape" result="effect3_innerShadow_33_9"/>
</filter>
</defs>
</svg>
