<svg width="1501" height="1501" viewBox="0 0 1501 1501" fill="none" xmlns="http://www.w3.org/2000/svg">
<g filter="url(#filter0_iii_115_10)">
<path fill-rule="evenodd" clip-rule="evenodd" d="M7.85725 710.009C-44.425 368.7 206.955 53.9353 568.891 6.64456C926.305 -40.0556 1258.48 191.461 1317.07 525.935L1477.95 685.898C1506.68 714.471 1511.26 761.177 1475.96 788.811C1449.2 809.747 1409.33 835.246 1353.91 857.281L1368.41 1083.88C1372.61 1149.56 1318.57 1204.93 1249.42 1205.81L1161.05 1206.93L1175.71 1302.62C1183.28 1352.03 1156.28 1401.14 1104.75 1417.44C1042.68 1437.08 940.147 1463.59 794.975 1482.56C649.802 1501.53 543.338 1502.33 477.795 1499.36C423.394 1496.9 382.709 1456.64 375.14 1407.22L338.173 1165.9C165.62 1073.28 38.3731 909.222 7.85725 710.009Z" fill="#E63C36"/>
<path fill-rule="evenodd" clip-rule="evenodd" d="M270.626 787.162C192.898 622.142 239.108 422.877 394.652 307.34C550.195 191.804 765.163 197.074 915.342 308.278C961.041 342.118 952.723 405.815 907.446 439.445L406.724 811.375C361.446 845.005 294.28 837.378 270.626 787.162Z" fill="#FFBF10"/>
</g>
<defs>
<filter id="filter0_iii_115_10" x="-39.7055" y="-40.0256" width="1608.49" height="1608.49" filterUnits="userSpaceOnUse" color-interpolation-filters="sRGB">
<feFlood flood-opacity="0" result="BackgroundImageFix"/>
<feBlend mode="normal" in="SourceGraphic" in2="BackgroundImageFix" result="shape"/>
<feColorMatrix in="SourceAlpha" type="matrix" values="0 0 0 0 0 0 0 0 0 0 0 0 0 0 0 0 0 0 127 0" result="hardAlpha"/>
<feOffset dx="-40.683" dy="-40.683"/>
<feGaussianBlur stdDeviation="89.5027"/>
<feComposite in2="hardAlpha" operator="arithmetic" k2="-1" k3="1"/>
<feColorMatrix type="matrix" values="0 0 0 0 0 0 0 0 0 0 0 0 0 0 0 0 0 0 0.24 0"/>
<feBlend mode="normal" in2="shape" result="effect1_innerShadow_115_10"/>
<feColorMatrix in="SourceAlpha" type="matrix" values="0 0 0 0 0 0 0 0 0 0 0 0 0 0 0 0 0 0 127 0" result="hardAlpha"/>
<feOffset dx="40.683" dy="40.683"/>
<feGaussianBlur stdDeviation="22.3757"/>
<feComposite in2="hardAlpha" operator="arithmetic" k2="-1" k3="1"/>
<feColorMatrix type="matrix" values="0 0 0 0 1 0 0 0 0 1 0 0 0 0 1 0 0 0 0.5 0"/>
<feBlend mode="normal" in2="effect1_innerShadow_115_10" result="effect2_innerShadow_115_10"/>
<feColorMatrix in="SourceAlpha" type="matrix" values="0 0 0 0 0 0 0 0 0 0 0 0 0 0 0 0 0 0 127 0" result="hardAlpha"/>
<feOffset dx="67.8051" dy="67.8051"/>
<feGaussianBlur stdDeviation="115.269"/>
<feComposite in2="hardAlpha" operator="arithmetic" k2="-1" k3="1"/>
<feColorMatrix type="matrix" values="0 0 0 0 1 0 0 0 0 1 0 0 0 0 1 0 0 0 0.15 0"/>
<feBlend mode="normal" in2="effect2_innerShadow_115_10" result="effect3_innerShadow_115_10"/>
</filter>
</defs>
</svg>
