<?xml version="1.0" encoding="UTF-8"?><svg id="Layer_2" xmlns="http://www.w3.org/2000/svg" viewBox="0 0 43.07 45.33"><defs><style>.cls-1{fill:#e63c36;}.cls-1,.cls-2{fill-rule:evenodd;}.cls-2{fill:#ffbf10;}</style></defs><g id="Layer_1-2"><path class="cls-1" d="m.19,21.51C-1.27,11.2,5.99,1.66,16.39.19c10.27-1.45,19.78,5.5,21.42,15.6l4.6,4.81c.82.86.95,2.27-.07,3.11-.77.64-1.92,1.41-3.51,2.08l.39,6.84c.11,1.98-1.45,3.66-3.43,3.7l-2.54.04.41,2.89c.21,1.49-.57,2.98-2.05,3.48-1.79.6-4.73,1.41-8.91,2-4.17.59-7.23.63-9.11.54-1.56-.07-2.73-1.28-2.94-2.77l-1.03-7.29C4.67,32.46,1.04,27.52.19,21.51Z"/><path class="cls-2" d="m7.72,24.14c-2.21-4.98-.86-11,3.62-14.51,4.48-3.51,10.66-3.37,14.95-.03,1.31,1.02,1.06,2.94-.24,3.96l-14.43,11.29c-1.3,1.02-3.23.8-3.91-.72Z"/></g></svg>