<svg width="1500" height="1500" viewBox="0 0 1500 1500" fill="none" xmlns="http://www.w3.org/2000/svg">
<g filter="url(#filter0_iii_38_183)">
<path d="M750 1500C79.8455 1500 -0.911673 919.355 0.00767285 774.194V725.806C-0.911673 580.645 79.8455 0 750 0C1420.15 0 1500.91 580.645 1499.99 725.806V774.194C1500.91 919.355 1420.15 1500 750 1500Z" fill="url(#paint0_linear_38_183)"/>
<path d="M1254.1 548.163C1254.18 491.793 1232.7 437.525 1194.08 396.469C1155.45 355.412 1102.6 330.671 1046.33 327.31H1045.92C1041.5 327.109 1037.28 326.908 1032.85 326.908C1029.23 326.908 1025.61 326.908 1021.99 327.109H1021.38C990.954 328.657 961.175 336.499 933.929 350.139C906.683 363.78 882.561 382.923 863.088 406.359C863.088 406.359 862.686 406.56 862.686 406.761C829.592 446.44 811.507 496.495 811.597 548.163C811.597 551.884 811.918 555.163 812.019 558.743C811.878 561.921 811.597 565.059 811.597 568.278C811.597 729.191 910.557 749.305 1032.85 749.305C1193.76 749.305 1254.1 690.572 1254.1 568.278C1254.1 565.562 1253.8 562.927 1253.72 560.232C1253.86 556.209 1254.1 552.327 1254.1 548.163Z" fill="#EDA406"/>
<path d="M1254.1 568.277C1254.18 511.907 1232.7 457.639 1194.08 416.582C1155.45 375.526 1102.6 350.785 1046.33 347.424H1045.92C1041.5 347.223 1037.28 347.021 1032.85 347.021C1029.23 347.021 1025.61 347.021 1021.99 347.223H1021.38C990.954 348.771 961.175 356.613 933.929 370.253C906.683 383.894 882.561 403.037 863.088 426.472C863.088 426.472 862.686 426.673 862.686 426.875C829.592 466.554 811.507 516.608 811.597 568.277C811.597 571.998 811.918 575.277 812.019 578.857C811.878 582.035 811.597 585.173 811.597 588.391C811.597 749.304 910.557 769.419 1032.85 769.419C1193.76 769.419 1254.1 710.685 1254.1 588.391C1254.1 585.676 1253.8 583.041 1253.72 580.346C1253.86 576.323 1254.1 572.441 1254.1 568.277Z" fill="#FFD000"/>
<path d="M690.913 548.163C690.988 491.793 669.515 437.525 630.889 396.469C592.263 355.412 539.406 330.671 483.136 327.31H482.734C478.309 327.109 474.085 326.908 469.66 326.908C466.039 326.908 462.419 326.908 458.798 327.109H458.195C427.764 328.657 397.985 336.499 370.739 350.139C343.493 363.78 319.371 382.923 299.898 406.359C299.898 406.359 299.496 406.56 299.496 406.761C266.402 446.44 248.317 496.495 248.407 548.163C248.407 551.884 248.728 555.163 248.829 558.743C248.688 561.921 248.407 565.059 248.407 568.278C248.407 729.191 347.367 749.305 469.66 749.305C630.572 749.305 690.913 690.572 690.913 568.278C690.913 565.562 690.612 562.927 690.531 560.232C690.672 556.209 690.913 552.327 690.913 548.163Z" fill="#EDA406"/>
<path d="M690.913 568.277C690.988 511.907 669.515 457.639 630.889 416.582C592.263 375.526 539.406 350.785 483.136 347.424H482.734C478.309 347.223 474.085 347.021 469.66 347.021C466.039 347.021 462.419 347.021 458.798 347.223H458.195C427.764 348.771 397.985 356.613 370.739 370.253C343.493 383.894 319.371 403.037 299.898 426.472C299.898 426.472 299.496 426.673 299.496 426.875C266.402 466.554 248.317 516.608 248.407 568.277C248.407 571.998 248.728 575.277 248.829 578.857C248.688 582.035 248.407 585.173 248.407 588.391C248.407 749.304 347.367 769.419 469.66 769.419C630.572 769.419 690.913 710.685 690.913 588.391C690.913 585.676 690.612 583.041 690.531 580.346C690.672 576.323 690.913 572.441 690.913 568.277Z" fill="#FFD000"/>
<path d="M469.658 668.847C469.674 682.346 465.139 695.455 456.786 706.058C416.536 698.573 380.017 677.654 353.199 646.722C358.359 633.664 367.912 622.815 380.211 616.042C392.51 609.27 406.786 606.998 420.579 609.619C434.373 612.24 446.821 619.588 455.779 630.399C464.738 641.21 469.646 654.807 469.658 668.847Z" fill="url(#paint1_radial_38_183)"/>
<path d="M626.143 655.975C620.719 662.204 614.872 668.051 608.644 673.475C602.986 676.397 596.708 677.915 590.34 677.9C582.384 677.9 574.606 675.541 567.991 671.12C561.375 666.7 556.219 660.417 553.174 653.066C550.13 645.716 549.333 637.627 550.885 629.823C552.437 622.02 556.269 614.852 561.895 609.226C567.521 603.6 574.689 599.768 582.492 598.216C590.296 596.664 598.384 597.461 605.735 600.505C613.085 603.55 619.368 608.706 623.788 615.322C628.209 621.937 630.568 629.715 630.568 637.672C630.583 644.04 629.065 650.318 626.143 655.975Z" fill="url(#paint2_radial_38_183)"/>
<path d="M489.774 577.329C534.209 577.329 570.23 541.307 570.23 496.872C570.23 452.438 534.209 416.416 489.774 416.416C445.34 416.416 409.318 452.438 409.318 496.872C409.318 541.307 445.34 577.329 489.774 577.329Z" fill="url(#paint3_radial_38_183)"/>
<path d="M952.392 637.672C952.361 648.331 948.112 658.545 940.575 666.082C933.037 673.619 922.824 677.868 912.165 677.9C905.797 677.915 899.519 676.397 893.861 673.475C887.632 668.051 881.786 662.204 876.362 655.975C873.44 650.318 871.922 644.039 871.937 637.672C871.937 627.002 876.175 616.77 883.719 609.226C891.263 601.682 901.495 597.443 912.165 597.443C922.834 597.443 933.066 601.682 940.61 609.226C948.154 616.77 952.392 627.002 952.392 637.672Z" fill="url(#paint4_radial_38_183)"/>
<path d="M1012.74 577.329C1057.17 577.329 1093.19 541.307 1093.19 496.872C1093.19 452.438 1057.17 416.416 1012.74 416.416C968.303 416.416 932.281 452.438 932.281 496.872C932.281 541.307 968.303 577.329 1012.74 577.329Z" fill="url(#paint5_radial_38_183)"/>
<path d="M1093.19 617.557C1105.3 617.561 1117.13 621.208 1127.14 628.024C1137.14 634.84 1144.87 644.508 1149.31 655.774C1122.49 686.706 1085.97 707.625 1045.72 715.11C1038.75 706.206 1034.42 695.52 1033.22 684.273C1032.03 673.025 1034.02 661.668 1038.97 651.497C1043.92 641.326 1051.62 632.751 1061.21 626.75C1070.8 620.749 1081.88 617.563 1093.19 617.557Z" fill="url(#paint6_radial_38_183)"/>
<path d="M1012.74 416.415C996.824 416.415 981.268 421.134 968.037 429.975C954.807 438.815 944.494 451.381 938.405 466.082C932.315 480.784 930.722 496.961 933.826 512.568C936.931 528.175 944.594 542.511 955.845 553.763C967.097 565.015 981.433 572.678 997.04 575.782C1012.65 578.887 1028.82 577.294 1043.53 571.204C1058.23 565.114 1070.79 554.802 1079.63 541.571C1088.47 528.34 1093.19 512.785 1093.19 496.872C1093.19 475.533 1084.72 455.069 1069.63 439.98C1054.54 424.892 1034.07 416.415 1012.74 416.415ZM1193.76 537.1C1193.86 580.745 1178.06 622.932 1149.31 655.774C1146.15 647.697 1141.29 640.397 1135.05 634.37C1128.81 628.342 1121.35 623.731 1113.17 620.848C1104.99 617.965 1096.29 616.879 1087.65 617.665C1079.01 618.45 1070.65 621.088 1063.12 625.399C1055.6 629.709 1049.09 635.592 1044.04 642.645C1039 649.698 1035.53 657.756 1033.88 666.27C1032.23 674.784 1032.43 683.553 1034.47 691.982C1036.52 700.41 1040.36 708.299 1045.72 715.11C1018.91 720.071 991.321 718.903 965.022 711.693C938.724 704.482 914.397 691.417 893.863 673.474C899.521 676.396 905.799 677.914 912.167 677.899C920.123 677.899 927.901 675.54 934.516 671.119C941.131 666.699 946.288 660.416 949.332 653.066C952.377 645.715 953.174 637.626 951.622 629.823C950.069 622.019 946.238 614.851 940.612 609.225C934.986 603.599 927.818 599.768 920.015 598.215C912.211 596.663 904.123 597.46 896.772 600.505C889.421 603.549 883.139 608.706 878.718 615.321C874.298 621.937 871.939 629.714 871.939 637.671C871.924 644.039 873.442 650.317 876.364 655.975C850.11 625.952 834.532 588.085 832.058 548.279C829.583 508.474 840.353 468.968 862.686 435.926C862.686 435.725 863.089 435.524 863.089 435.524C882.562 412.088 906.683 392.945 933.929 379.304C961.176 365.664 990.955 357.822 1021.39 356.274H1021.99C1068.34 358.646 1112.02 378.734 1143.98 412.386C1175.95 446.038 1193.77 490.684 1193.76 537.1Z" fill="url(#paint7_radial_38_183)"/>
<path d="M570.228 496.872C570.228 480.959 565.51 465.403 556.669 452.172C547.829 438.941 535.263 428.629 520.562 422.54C505.86 416.45 489.683 414.857 474.077 417.961C458.47 421.065 444.134 428.728 432.882 439.98C421.63 451.232 413.967 465.568 410.863 481.175C407.758 496.782 409.352 512.96 415.441 527.661C421.531 542.363 431.843 554.928 445.074 563.769C458.305 572.61 473.86 577.328 489.773 577.328C511.111 577.328 531.575 568.852 546.664 553.763C561.752 538.675 570.228 518.21 570.228 496.872ZM353.199 655.774C330.95 630.16 316.347 598.809 311.055 565.297C305.763 531.784 309.995 497.459 323.269 466.236C336.542 435.013 358.323 408.148 386.126 388.705C413.93 369.263 446.638 358.025 480.52 356.274H481.124C511.554 357.822 541.333 365.664 568.58 379.304C595.826 392.945 619.947 412.088 639.42 435.524C639.42 435.524 639.823 435.725 639.823 435.926C662.156 468.968 672.926 508.474 670.452 548.279C667.977 588.085 652.399 625.952 626.145 655.975C629.067 650.317 630.585 644.039 630.57 637.671C630.57 629.714 628.211 621.937 623.791 615.321C619.37 608.706 613.088 603.549 605.737 600.505C598.386 597.46 590.298 596.663 582.494 598.215C574.691 599.768 567.523 603.599 561.897 609.225C556.271 614.851 552.44 622.019 550.888 629.823C549.335 637.626 550.132 645.715 553.177 653.066C556.221 660.416 561.378 666.699 567.993 671.119C574.608 675.54 582.386 677.899 590.342 677.899C596.71 677.914 602.988 676.396 608.646 673.474C588.112 691.417 563.785 704.482 537.487 711.693C511.188 718.903 483.6 720.071 456.786 715.11C462.154 708.299 465.991 700.41 468.035 691.982C470.079 683.553 470.282 674.784 468.631 666.27C466.98 657.756 463.512 649.698 458.466 642.645C453.419 635.592 446.911 629.709 439.386 625.399C431.86 621.088 423.494 618.45 414.857 617.665C406.22 616.879 397.516 617.965 389.336 620.848C381.157 623.731 373.695 628.342 367.459 634.37C361.223 640.397 356.359 647.697 353.199 655.774Z" fill="url(#paint8_radial_38_183)"/>
<path d="M1046.33 347.424C1102.6 350.785 1155.45 375.526 1194.08 416.582C1232.7 457.639 1254.18 511.907 1254.1 568.277C1254.1 690.571 1193.76 749.304 1032.85 749.304C910.557 749.304 811.597 729.19 811.597 568.277C811.507 516.608 829.592 466.554 862.686 426.875C844.333 454.105 833.733 485.815 832.021 518.608C830.308 551.401 837.548 584.043 852.965 613.037C868.381 642.031 891.394 666.286 919.538 683.203C947.682 700.121 979.898 709.064 1012.74 709.076C1023.8 709.097 1034.84 708.087 1045.72 706.059C1089.37 698.023 1128.55 674.232 1155.81 639.206C1183.06 604.181 1196.51 560.362 1193.58 516.076C1190.65 471.79 1171.55 430.124 1139.92 398.994C1108.28 367.864 1066.32 349.44 1021.99 347.223C1025.61 347.021 1029.23 347.021 1032.85 347.021C1037.28 347.021 1041.5 347.223 1045.92 347.424H1046.33Z" fill="url(#paint9_radial_38_183)"/>
<path d="M248.406 568.277C248.332 511.907 269.805 457.639 308.431 416.582C347.057 375.526 399.914 350.785 456.184 347.424H456.586C461.011 347.223 465.235 347.021 469.66 347.021C473.28 347.021 476.901 347.021 480.521 347.223C436.195 349.44 394.227 367.864 362.593 398.994C330.959 430.124 311.863 471.79 308.934 516.076C306.005 560.362 319.446 604.181 346.705 639.206C373.963 674.232 413.138 698.023 456.787 706.059C482.905 710.86 509.759 709.863 535.45 703.138C561.14 696.413 585.039 684.125 605.455 667.143C625.872 650.161 642.307 628.9 653.599 604.864C664.89 580.828 670.762 554.605 670.799 528.049C670.841 491.983 660.049 456.735 639.824 426.875C672.918 466.554 691.003 516.608 690.913 568.277C690.913 729.19 591.953 749.304 469.66 749.304C308.748 749.304 248.406 690.571 248.406 568.277Z" fill="url(#paint10_radial_38_183)"/>
<path d="M863.088 446.586C882.561 423.151 906.683 404.008 933.929 390.367C961.175 376.727 990.954 368.885 1021.38 367.337H1021.99C1025.61 367.136 1029.23 367.136 1032.85 367.136C1037.28 367.136 1041.5 367.337 1045.92 367.538H1046.33C1101.18 370.835 1152.83 394.471 1191.19 433.826C1229.54 473.181 1251.84 525.425 1253.72 580.346C1253.86 576.323 1254.1 572.441 1254.1 568.277C1254.18 511.907 1232.7 457.639 1194.08 416.582C1155.45 375.526 1102.6 350.785 1046.33 347.424H1045.92C1041.5 347.223 1037.28 347.021 1032.85 347.021C1029.23 347.021 1025.61 347.021 1021.99 347.223H1021.38C990.954 348.771 961.175 356.613 933.929 370.253C906.683 383.894 882.561 403.037 863.088 426.472C863.088 426.472 862.686 426.673 862.686 426.875C829.592 466.554 811.507 516.608 811.597 568.277C811.597 571.998 811.918 575.277 812.019 578.857C813.953 530.526 831.761 484.18 862.686 446.989C862.686 446.788 863.088 446.586 863.088 446.586Z" fill="url(#paint11_linear_38_183)"/>
<path d="M639.422 446.586C619.949 423.151 595.827 404.008 568.581 390.367C541.334 376.727 511.555 368.885 481.125 367.337H480.521C476.901 367.136 473.28 367.136 469.66 367.136C465.235 367.136 461.011 367.337 456.586 367.538H456.184C401.33 370.835 349.678 394.471 311.324 433.826C272.97 473.181 250.672 525.425 248.789 580.346C248.648 576.323 248.406 572.441 248.406 568.277C248.332 511.907 269.805 457.639 308.431 416.582C347.057 375.526 399.914 350.785 456.184 347.424H456.586C461.011 347.223 465.235 347.021 469.66 347.021C473.28 347.021 476.901 347.021 480.521 347.223H481.125C511.555 348.771 541.334 356.613 568.581 370.253C595.827 383.894 619.949 403.037 639.422 426.472C639.422 426.472 639.824 426.673 639.824 426.875C672.918 466.554 691.003 516.608 690.913 568.277C690.913 571.998 690.591 575.277 690.491 578.857C688.557 530.526 670.749 484.18 639.824 446.989C639.824 446.788 639.422 446.586 639.422 446.586Z" fill="url(#paint12_linear_38_183)"/>
<path d="M375.004 221.383C339.463 237.182 308.569 261.832 285.272 292.977C261.976 324.123 247.057 360.722 241.94 399.278C277.552 345.714 327.993 303.68 387.1 278.311C448.548 254.072 515.123 245.75 580.647 254.117C553.039 229.655 519.023 213.581 482.595 207.782C446.168 201.984 408.842 206.702 375.004 221.383Z" fill="#ED8D06"/>
<path d="M1125 221.383C1160.54 237.182 1191.43 261.832 1214.73 292.977C1238.02 324.123 1252.94 360.722 1258.06 399.278C1222.45 345.714 1172.01 303.68 1112.9 278.311C1051.45 254.072 984.877 245.75 919.354 254.117C946.962 229.655 980.978 213.581 1017.41 207.782C1053.83 201.984 1091.16 206.702 1125 221.383Z" fill="#ED8D06"/>
<path d="M919.354 254.117C946.962 229.655 980.978 213.581 1017.41 207.782C1053.83 201.984 1091.16 206.702 1125 221.383C1160.54 237.182 1191.43 261.832 1214.73 292.977C1238.02 324.123 1252.94 360.722 1258.06 399.278C1223.89 340.213 1172.36 293.102 1110.48 264.351C1049.52 240.522 982.511 236.934 919.354 254.117Z" fill="#3D1700"/>
<path d="M580.647 254.117C553.039 229.655 519.023 213.581 482.595 207.782C446.168 201.984 408.842 206.702 375.004 221.383C339.463 237.182 308.569 261.832 285.272 292.977C261.976 324.123 247.057 360.722 241.94 399.278C276.109 340.213 327.637 293.102 389.52 264.351C450.481 240.522 517.49 236.934 580.647 254.117Z" fill="#3D1700"/>
<path d="M1185.48 919.113C1185.69 915.502 1185.03 911.894 1183.57 908.587C1182.1 905.28 1179.87 902.37 1177.05 900.099C1174.24 897.828 1170.92 896.262 1167.38 895.529C1163.84 894.797 1160.17 894.919 1156.69 895.887C1023.54 928.394 887.051 945.202 749.998 945.968C612.945 945.202 476.453 928.394 343.309 895.887C339.824 894.919 336.158 894.797 332.616 895.529C329.075 896.262 325.758 897.828 322.943 900.099C320.128 902.37 317.896 905.28 316.43 908.587C314.965 911.894 314.31 915.502 314.519 919.113C314.954 923.637 315.874 927.895 316.527 932.299C314.853 935.712 314.158 939.522 314.519 943.307C316.36 962.559 320.336 981.546 326.373 999.92C329.226 1009.57 332.701 1019.03 336.777 1028.23C363.642 1086.27 406.321 1135.58 459.92 1170.48C545.18 1229.08 646.559 1259.69 749.998 1258.06C853.437 1259.69 954.816 1229.08 1040.08 1170.48C1093.68 1135.58 1136.35 1086.27 1163.22 1028.23C1167.3 1019.03 1170.77 1009.57 1173.62 999.92C1179.66 981.546 1183.64 962.559 1185.48 943.307C1185.84 939.522 1185.14 935.712 1183.47 932.299C1184.12 927.895 1185.04 923.637 1185.48 919.113Z" fill="#F9BF06"/>
<path d="M1185.48 894.92C1185.69 891.309 1185.03 887.701 1183.57 884.394C1182.1 881.087 1179.87 878.177 1177.05 875.906C1174.24 873.635 1170.92 872.069 1167.38 871.336C1163.84 870.604 1160.17 870.726 1156.69 871.694C1023.54 904.201 887.051 921.009 749.998 921.775C612.945 921.009 476.453 904.201 343.309 871.694C339.824 870.726 336.158 870.604 332.616 871.336C329.075 872.069 325.758 873.635 322.943 875.906C320.128 878.177 317.896 881.087 316.43 884.394C314.965 887.701 314.31 891.309 314.519 894.92C314.954 899.444 315.874 903.702 316.527 908.106C314.853 911.519 314.158 915.329 314.519 919.114C316.36 938.366 320.336 957.353 326.373 975.727C329.226 985.377 332.701 994.832 336.777 1004.03C363.642 1062.08 406.321 1111.39 459.92 1146.29C545.18 1204.88 646.559 1235.49 749.998 1233.87C853.437 1235.49 954.816 1204.88 1040.08 1146.29C1093.68 1111.39 1136.35 1062.08 1163.22 1004.03C1167.3 994.832 1170.77 985.377 1173.62 975.727C1179.66 957.353 1183.64 938.366 1185.48 919.114C1185.84 915.329 1185.14 911.519 1183.47 908.106C1184.12 903.702 1185.04 899.444 1185.48 894.92Z" fill="#ED8D06"/>
<path d="M1173.62 975.727C1170.77 985.377 1167.29 994.832 1163.22 1004.03C1136.35 1062.08 1093.67 1111.39 1040.07 1146.29C954.815 1204.88 853.435 1235.49 749.996 1233.87C646.558 1235.49 545.178 1204.88 459.919 1146.29C406.319 1111.39 363.64 1062.08 336.775 1004.03C332.699 994.832 329.224 985.377 326.372 975.727C454.128 1052.52 600.968 1091.68 749.996 1088.71C899.025 1091.68 1045.86 1052.52 1173.62 975.727Z" fill="url(#paint13_linear_38_183)"/>
<path d="M1156.69 895.887C1160.17 894.919 1163.84 894.797 1167.38 895.529C1170.92 896.262 1174.24 897.828 1177.05 900.099C1179.87 902.37 1182.1 905.28 1183.56 908.587C1185.03 911.894 1185.68 915.502 1185.48 919.113C1183.63 938.365 1179.66 957.353 1173.62 975.726C1045.86 1052.52 899.025 1091.68 749.996 1088.71C600.967 1091.68 454.128 1052.52 326.371 975.726C320.334 957.353 316.358 938.365 314.516 919.113C314.308 915.502 314.963 911.894 316.428 908.587C317.893 905.28 320.126 902.37 322.941 900.099C325.756 897.828 329.072 896.262 332.614 895.529C336.156 894.797 339.822 894.919 343.306 895.887C476.451 928.394 612.943 945.202 749.996 945.968C887.049 945.202 1023.54 928.394 1156.69 895.887Z" fill="url(#paint14_linear_38_183)"/>
<path d="M1156.69 895.887C1160.17 894.919 1163.84 894.797 1167.38 895.529C1170.92 896.262 1174.24 897.828 1177.05 900.099C1179.87 902.37 1182.1 905.28 1183.56 908.587C1185.03 911.894 1185.68 915.502 1185.48 919.113C1183.63 938.365 1179.66 957.353 1173.62 975.726C1045.86 1052.52 899.025 1091.68 749.996 1088.71C600.967 1091.68 454.128 1052.52 326.371 975.726C320.334 957.353 316.358 938.365 314.516 919.113C314.308 915.502 314.963 911.894 316.428 908.587C317.893 905.28 320.126 902.37 322.941 900.099C325.756 897.828 329.072 896.262 332.614 895.529C336.156 894.797 339.822 894.919 343.306 895.887C476.451 928.394 612.943 945.202 749.996 945.968C887.049 945.202 1023.54 928.394 1156.69 895.887Z" fill="url(#paint15_linear_38_183)"/>
</g>
<defs>
<filter id="filter0_iii_38_183" x="-40.683" y="-40.683" width="1608.49" height="1608.49" filterUnits="userSpaceOnUse" color-interpolation-filters="sRGB">
<feFlood flood-opacity="0" result="BackgroundImageFix"/>
<feBlend mode="normal" in="SourceGraphic" in2="BackgroundImageFix" result="shape"/>
<feColorMatrix in="SourceAlpha" type="matrix" values="0 0 0 0 0 0 0 0 0 0 0 0 0 0 0 0 0 0 127 0" result="hardAlpha"/>
<feOffset dx="-40.683" dy="-40.683"/>
<feGaussianBlur stdDeviation="89.5027"/>
<feComposite in2="hardAlpha" operator="arithmetic" k2="-1" k3="1"/>
<feColorMatrix type="matrix" values="0 0 0 0 0 0 0 0 0 0 0 0 0 0 0 0 0 0 0.24 0"/>
<feBlend mode="normal" in2="shape" result="effect1_innerShadow_38_183"/>
<feColorMatrix in="SourceAlpha" type="matrix" values="0 0 0 0 0 0 0 0 0 0 0 0 0 0 0 0 0 0 127 0" result="hardAlpha"/>
<feOffset dx="40.683" dy="40.683"/>
<feGaussianBlur stdDeviation="22.3757"/>
<feComposite in2="hardAlpha" operator="arithmetic" k2="-1" k3="1"/>
<feColorMatrix type="matrix" values="0 0 0 0 1 0 0 0 0 1 0 0 0 0 1 0 0 0 0.5 0"/>
<feBlend mode="normal" in2="effect1_innerShadow_38_183" result="effect2_innerShadow_38_183"/>
<feColorMatrix in="SourceAlpha" type="matrix" values="0 0 0 0 0 0 0 0 0 0 0 0 0 0 0 0 0 0 127 0" result="hardAlpha"/>
<feOffset dx="67.8051" dy="67.8051"/>
<feGaussianBlur stdDeviation="115.269"/>
<feComposite in2="hardAlpha" operator="arithmetic" k2="-1" k3="1"/>
<feColorMatrix type="matrix" values="0 0 0 0 1 0 0 0 0 1 0 0 0 0 1 0 0 0 0.15 0"/>
<feBlend mode="normal" in2="effect2_innerShadow_38_183" result="effect3_innerShadow_38_183"/>
</filter>
<linearGradient id="paint0_linear_38_183" x1="750" y1="7.35484" x2="750" y2="1507.35" gradientUnits="userSpaceOnUse">
<stop stop-color="#FFE100"/>
<stop offset="1" stop-color="#F98900"/>
</linearGradient>
<radialGradient id="paint1_radial_38_183" cx="0" cy="0" r="1" gradientUnits="userSpaceOnUse" gradientTransform="translate(411.429 657.282) scale(53.7042 53.7048)">
<stop stop-color="white"/>
<stop offset="0.365" stop-color="#FCFDFE"/>
<stop offset="0.636" stop-color="#F3F7FC"/>
<stop offset="0.876" stop-color="#E3ECF7"/>
<stop offset="1" stop-color="#D7E4F4"/>
</radialGradient>
<radialGradient id="paint2_radial_38_183" cx="0" cy="0" r="1" gradientUnits="userSpaceOnUse" gradientTransform="translate(590.34 637.672) scale(40.2279 40.2283)">
<stop stop-color="white"/>
<stop offset="0.365" stop-color="#FCFDFE"/>
<stop offset="0.636" stop-color="#F3F7FC"/>
<stop offset="0.876" stop-color="#E3ECF7"/>
<stop offset="1" stop-color="#D7E4F4"/>
</radialGradient>
<radialGradient id="paint3_radial_38_183" cx="0" cy="0" r="1" gradientUnits="userSpaceOnUse" gradientTransform="translate(489.774 496.872) scale(80.4558 80.4566)">
<stop stop-color="white"/>
<stop offset="0.365" stop-color="#FCFDFE"/>
<stop offset="0.636" stop-color="#F3F7FC"/>
<stop offset="0.876" stop-color="#E3ECF7"/>
<stop offset="1" stop-color="#D7E4F4"/>
</radialGradient>
<radialGradient id="paint4_radial_38_183" cx="0" cy="0" r="1" gradientUnits="userSpaceOnUse" gradientTransform="translate(912.165 637.672) scale(40.2279 40.2283)">
<stop stop-color="white"/>
<stop offset="0.365" stop-color="#FCFDFE"/>
<stop offset="0.636" stop-color="#F3F7FC"/>
<stop offset="0.876" stop-color="#E3ECF7"/>
<stop offset="1" stop-color="#D7E4F4"/>
</radialGradient>
<radialGradient id="paint5_radial_38_183" cx="0" cy="0" r="1" gradientUnits="userSpaceOnUse" gradientTransform="translate(1012.74 496.872) scale(80.4558 80.4566)">
<stop stop-color="white"/>
<stop offset="0.365" stop-color="#FCFDFE"/>
<stop offset="0.636" stop-color="#F3F7FC"/>
<stop offset="0.876" stop-color="#E3ECF7"/>
<stop offset="1" stop-color="#D7E4F4"/>
</radialGradient>
<radialGradient id="paint6_radial_38_183" cx="0" cy="0" r="1" gradientUnits="userSpaceOnUse" gradientTransform="translate(1091.08 666.334) scale(53.7043 53.7048)">
<stop stop-color="white"/>
<stop offset="0.365" stop-color="#FCFDFE"/>
<stop offset="0.636" stop-color="#F3F7FC"/>
<stop offset="0.876" stop-color="#E3ECF7"/>
<stop offset="1" stop-color="#D7E4F4"/>
</radialGradient>
<radialGradient id="paint7_radial_38_183" cx="0" cy="0" r="1" gradientUnits="userSpaceOnUse" gradientTransform="translate(1012.74 537.201) scale(180.985 180.987)">
<stop offset="0.005" stop-color="#414D4D"/>
<stop offset="0.206" stop-color="#3A4545"/>
<stop offset="0.522" stop-color="#272E2E"/>
<stop offset="0.914" stop-color="#080909"/>
<stop offset="1"/>
</radialGradient>
<radialGradient id="paint8_radial_38_183" cx="0" cy="0" r="1" gradientUnits="userSpaceOnUse" gradientTransform="translate(489.773 537.201) scale(180.985 180.987)">
<stop offset="0.005" stop-color="#414D4D"/>
<stop offset="0.206" stop-color="#3A4545"/>
<stop offset="0.522" stop-color="#272E2E"/>
<stop offset="0.914" stop-color="#080909"/>
<stop offset="1"/>
</radialGradient>
<radialGradient id="paint9_radial_38_183" cx="0" cy="0" r="1" gradientUnits="userSpaceOnUse" gradientTransform="translate(1022.29 564.516) scale(210.794 210.796)">
<stop stop-color="white"/>
<stop offset="0.505" stop-color="white"/>
<stop offset="0.588" stop-color="white"/>
<stop offset="0.804" stop-color="#FDFEFF"/>
<stop offset="0.886" stop-color="#F6FAFF"/>
<stop offset="0.945" stop-color="#EAF3FF"/>
<stop offset="0.993" stop-color="#D9EAFF"/>
<stop offset="1" stop-color="#D6E8FF"/>
</radialGradient>
<radialGradient id="paint10_radial_38_183" cx="0" cy="0" r="1" gradientUnits="userSpaceOnUse" gradientTransform="translate(469.66 548.163) scale(211.438 211.44)">
<stop stop-color="white"/>
<stop offset="0.505" stop-color="white"/>
<stop offset="0.588" stop-color="white"/>
<stop offset="0.804" stop-color="#FDFEFF"/>
<stop offset="0.886" stop-color="#F6FAFF"/>
<stop offset="0.945" stop-color="#EAF3FF"/>
<stop offset="0.993" stop-color="#D9EAFF"/>
<stop offset="1" stop-color="#D6E8FF"/>
</radialGradient>
<linearGradient id="paint11_linear_38_183" x1="1032.95" y1="562.122" x2="1036.73" y2="367.518" gradientUnits="userSpaceOnUse">
<stop offset="0.005" stop-color="#414D4D"/>
<stop offset="0.206" stop-color="#3A4545"/>
<stop offset="0.522" stop-color="#272E2E"/>
<stop offset="0.914" stop-color="#080909"/>
<stop offset="1"/>
</linearGradient>
<linearGradient id="paint12_linear_38_183" x1="469.559" y1="562.122" x2="465.778" y2="367.518" gradientUnits="userSpaceOnUse">
<stop offset="0.005" stop-color="#414D4D"/>
<stop offset="0.206" stop-color="#3A4545"/>
<stop offset="0.522" stop-color="#272E2E"/>
<stop offset="0.914" stop-color="#080909"/>
<stop offset="1"/>
</linearGradient>
<linearGradient id="paint13_linear_38_183" x1="749.996" y1="1244.76" x2="749.996" y2="1016.52" gradientUnits="userSpaceOnUse">
<stop stop-color="#911625"/>
<stop offset="0.587" stop-color="#630F19"/>
<stop offset="1" stop-color="#400A10"/>
</linearGradient>
<linearGradient id="paint14_linear_38_183" x1="314.42" y1="991.936" x2="1185.57" y2="991.936" gradientUnits="userSpaceOnUse">
<stop stop-color="#B8B4B2"/>
<stop offset="0.333" stop-color="#E6E1DE"/>
<stop offset="0.5" stop-color="#FFFAF6"/>
<stop offset="0.638" stop-color="#F9F5F1"/>
<stop offset="0.825" stop-color="#E8E5E3"/>
<stop offset="1" stop-color="#D1D1D1"/>
</linearGradient>
<linearGradient id="paint15_linear_38_183" x1="749.996" y1="936.581" x2="749.996" y2="1093.79" gradientUnits="userSpaceOnUse">
<stop stop-color="#ABABAB" stop-opacity="0.5"/>
<stop offset="0.541" stop-color="#C1C1C1" stop-opacity="0.216"/>
<stop offset="1" stop-color="#D1D1D1" stop-opacity="0"/>
</linearGradient>
</defs>
</svg>
