<svg width="1501" height="1501" viewBox="0 0 1501 1501" fill="none" xmlns="http://www.w3.org/2000/svg">
<g filter="url(#filter0_iii_3_647)">
<path d="M750.349 1500.5C80.1942 1500.5 -0.56304 919.853 0.356306 774.692V726.305C-0.56304 581.144 80.1942 0.498535 750.349 0.498535C1420.5 0.498535 1501.26 581.144 1500.34 726.305V774.692C1501.26 919.853 1420.5 1500.5 750.349 1500.5Z" fill="url(#paint0_linear_3_647)"/>
<path d="M901.579 1050.69C854.324 1028.27 802.675 1016.64 750.371 1016.64C698.068 1016.64 646.419 1028.27 599.163 1050.69C571.615 1063.96 547.154 1082.85 527.357 1106.16C507.559 1129.46 492.865 1156.65 484.221 1185.98C484.221 1185.98 629.381 1113.4 750.347 1113.4C871.314 1113.4 1016.47 1185.98 1016.47 1185.98C1007.83 1156.65 993.148 1129.46 973.359 1106.16C953.57 1082.86 929.118 1063.96 901.579 1050.69Z" fill="#940003"/>
<path d="M901.579 1074.88C854.324 1052.46 802.675 1040.83 750.371 1040.83C698.068 1040.83 646.419 1052.46 599.163 1074.88C505.1 1120.27 484.221 1185.98 484.221 1185.98C570.357 1157.98 659.869 1141.71 750.347 1137.59C840.825 1141.71 930.337 1157.98 1016.47 1185.98C1016.47 1185.98 995.595 1120.27 901.579 1074.88Z" fill="#C70E1C"/>
<path d="M1016.47 1185.98C1016.47 1185.98 995.595 1120.27 901.579 1074.88C854.324 1052.46 802.675 1040.83 750.371 1040.83C698.068 1040.83 646.419 1052.46 599.163 1074.88C505.1 1120.27 484.221 1185.98 484.221 1185.98C484.221 1185.98 629.381 1113.4 750.347 1113.4C871.314 1113.4 1016.47 1185.98 1016.47 1185.98Z" fill="url(#paint1_linear_3_647)"/>
<path d="M1017.03 605.335C989.165 620.512 965.581 642.482 948.469 669.207C945.491 679.924 943.953 690.989 943.896 702.111C943.896 755.556 976.389 798.888 1016.48 798.888C1056.57 798.888 1089.06 755.556 1089.06 702.111C1089.06 648.667 1056.86 605.819 1017.03 605.335Z" fill="url(#paint2_linear_3_647)"/>
<path d="M1199.26 557.819C987.444 568.778 943.896 677.915 943.896 677.915C943.896 677.915 943.896 508.561 1185.83 484.367H1197.42C1202.25 484.367 1207.04 485.319 1211.5 487.168C1215.96 489.017 1220.02 491.728 1223.44 495.145C1226.86 498.562 1229.57 502.619 1231.41 507.083C1233.26 511.548 1234.22 516.333 1234.22 521.165C1234.19 530.589 1230.55 539.645 1224.05 546.464C1217.54 553.284 1208.67 557.348 1199.26 557.819Z" fill="url(#paint3_linear_3_647)"/>
<path d="M301.441 557.819C513.253 568.778 556.801 677.915 556.801 677.915C556.801 677.915 556.801 508.561 314.868 484.367H303.279C293.52 484.367 284.16 488.244 277.259 495.145C270.358 502.046 266.481 511.406 266.481 521.165C266.507 530.589 270.147 539.645 276.651 546.464C283.156 553.284 292.029 557.348 301.441 557.819Z" fill="url(#paint4_linear_3_647)"/>
<path d="M483.666 605.335C511.535 620.512 535.119 642.482 552.231 669.207C555.209 679.924 556.747 690.989 556.804 702.111C556.804 755.556 524.311 798.888 484.222 798.888C444.133 798.888 411.641 755.556 411.641 702.111C411.641 648.667 443.843 605.819 483.666 605.335Z" fill="url(#paint5_linear_3_647)"/>
<path d="M1016.48 653.723C1050.35 653.723 1078.39 684.619 1086.49 726.305C1088.12 718.341 1088.98 710.239 1089.06 702.111C1089.06 648.884 1056.86 605.819 1017.03 605.335C989.165 620.512 965.581 642.482 948.469 669.207C945.491 679.924 943.953 690.989 943.896 702.111C943.978 710.239 944.836 718.341 946.461 726.305C954.566 684.692 982.607 653.723 1016.48 653.723Z" fill="black"/>
<path d="M552.231 669.28C535.129 642.528 511.543 620.532 483.666 605.335C443.843 605.819 411.641 648.884 411.641 702.111C411.722 710.239 412.581 718.341 414.205 726.305C422.31 684.643 450.496 653.723 484.222 653.723C517.948 653.723 546.134 684.619 554.239 726.305C555.863 718.341 556.722 710.239 556.804 702.111C556.741 691.013 555.203 679.973 552.231 669.28Z" fill="black"/>
<path d="M1199.26 557.817C1135.66 558.786 1073.23 575.086 1017.27 605.334C1027.84 605.631 1038.13 608.81 1047.03 614.527C1095.38 594.525 1146.96 583.474 1199.26 581.914C1208.65 581.444 1217.51 577.394 1224.02 570.595C1230.52 563.796 1234.17 554.765 1234.22 545.357C1234.18 541.229 1233.43 537.138 1232.02 533.26C1229.6 540.138 1225.2 546.143 1219.37 550.515C1213.54 554.887 1206.54 557.428 1199.26 557.817Z" fill="#B00003"/>
<path d="M301.442 557.818C294.166 557.432 287.169 554.894 281.337 550.526C275.505 546.159 271.101 540.159 268.683 533.286C267.266 537.164 266.522 541.255 266.481 545.383C266.507 554.807 270.147 563.862 276.652 570.682C283.156 577.501 292.029 581.566 301.442 582.037C353.741 583.597 405.321 594.647 453.669 614.65C462.566 608.932 472.856 605.753 483.427 605.456C427.482 575.167 365.053 558.825 301.442 557.818Z" fill="#B00003"/>
<path d="M484.222 798.886C447.23 798.886 417.06 761.869 412.56 714.206C412.173 718.223 411.641 722.166 411.641 726.303C411.641 779.748 444.133 823.08 484.222 823.08C524.311 823.08 556.804 779.748 556.804 726.303C556.728 722.193 556.429 718.09 555.908 714.013C551.457 761.772 521.239 798.886 484.222 798.886Z" fill="#940003"/>
<path d="M1016.48 798.886C979.461 798.886 949.243 761.772 944.792 714.013C944.271 718.09 943.972 722.193 943.896 726.303C943.896 779.748 976.389 823.08 1016.48 823.08C1056.57 823.08 1089.06 779.748 1089.06 726.303C1089.06 722.142 1088.53 718.198 1088.14 714.206C1083.64 761.869 1053.47 798.886 1016.48 798.886Z" fill="#940003"/>
</g>
<defs>
<filter id="filter0_iii_3_647" x="-40.3344" y="-40.1845" width="1608.49" height="1608.49" filterUnits="userSpaceOnUse" color-interpolation-filters="sRGB">
<feFlood flood-opacity="0" result="BackgroundImageFix"/>
<feBlend mode="normal" in="SourceGraphic" in2="BackgroundImageFix" result="shape"/>
<feColorMatrix in="SourceAlpha" type="matrix" values="0 0 0 0 0 0 0 0 0 0 0 0 0 0 0 0 0 0 127 0" result="hardAlpha"/>
<feOffset dx="-40.683" dy="-40.683"/>
<feGaussianBlur stdDeviation="89.5027"/>
<feComposite in2="hardAlpha" operator="arithmetic" k2="-1" k3="1"/>
<feColorMatrix type="matrix" values="0 0 0 0 0 0 0 0 0 0 0 0 0 0 0 0 0 0 0.24 0"/>
<feBlend mode="normal" in2="shape" result="effect1_innerShadow_3_647"/>
<feColorMatrix in="SourceAlpha" type="matrix" values="0 0 0 0 0 0 0 0 0 0 0 0 0 0 0 0 0 0 127 0" result="hardAlpha"/>
<feOffset dx="40.683" dy="40.683"/>
<feGaussianBlur stdDeviation="22.3757"/>
<feComposite in2="hardAlpha" operator="arithmetic" k2="-1" k3="1"/>
<feColorMatrix type="matrix" values="0 0 0 0 1 0 0 0 0 1 0 0 0 0 1 0 0 0 0.5 0"/>
<feBlend mode="normal" in2="effect1_innerShadow_3_647" result="effect2_innerShadow_3_647"/>
<feColorMatrix in="SourceAlpha" type="matrix" values="0 0 0 0 0 0 0 0 0 0 0 0 0 0 0 0 0 0 127 0" result="hardAlpha"/>
<feOffset dx="67.8051" dy="67.8051"/>
<feGaussianBlur stdDeviation="115.269"/>
<feComposite in2="hardAlpha" operator="arithmetic" k2="-1" k3="1"/>
<feColorMatrix type="matrix" values="0 0 0 0 1 0 0 0 0 1 0 0 0 0 1 0 0 0 0.15 0"/>
<feBlend mode="normal" in2="effect2_innerShadow_3_647" result="effect3_innerShadow_3_647"/>
</filter>
<linearGradient id="paint0_linear_3_647" x1="750.349" y1="7.85337" x2="750.349" y2="1507.85" gradientUnits="userSpaceOnUse">
<stop stop-color="#FF3D3D"/>
<stop offset="0.307" stop-color="#DB2A28"/>
<stop offset="0.771" stop-color="#A90F0B"/>
<stop offset="1" stop-color="#960500"/>
</linearGradient>
<linearGradient id="paint1_linear_3_647" x1="750.347" y1="1164.06" x2="750.347" y2="1047.42" gradientUnits="userSpaceOnUse">
<stop offset="0.005" stop-color="#414D4D"/>
<stop offset="0.136" stop-color="#353F3F"/>
<stop offset="0.501" stop-color="#181D1D"/>
<stop offset="0.802" stop-color="#060808"/>
<stop offset="1"/>
</linearGradient>
<linearGradient id="paint2_linear_3_647" x1="1016.48" y1="800.702" x2="1016.48" y2="607.803" gradientUnits="userSpaceOnUse">
<stop offset="0.005" stop-color="#414D4D"/>
<stop offset="0.206" stop-color="#3A4545"/>
<stop offset="0.522" stop-color="#272E2E"/>
<stop offset="0.914" stop-color="#080909"/>
<stop offset="1"/>
</linearGradient>
<linearGradient id="paint3_linear_3_647" x1="1217.89" y1="491.504" x2="934.145" y2="645.953" gradientUnits="userSpaceOnUse">
<stop offset="0.005" stop-color="#414D4D"/>
<stop offset="0.136" stop-color="#353F3F"/>
<stop offset="0.501" stop-color="#181D1D"/>
<stop offset="0.802" stop-color="#060808"/>
<stop offset="1"/>
</linearGradient>
<linearGradient id="paint4_linear_3_647" x1="282.812" y1="491.504" x2="566.552" y2="645.953" gradientUnits="userSpaceOnUse">
<stop offset="0.005" stop-color="#414D4D"/>
<stop offset="0.136" stop-color="#353F3F"/>
<stop offset="0.501" stop-color="#181D1D"/>
<stop offset="0.802" stop-color="#060808"/>
<stop offset="1"/>
</linearGradient>
<linearGradient id="paint5_linear_3_647" x1="484.222" y1="799.347" x2="484.222" y2="610.561" gradientUnits="userSpaceOnUse">
<stop offset="0.005" stop-color="#414D4D"/>
<stop offset="0.206" stop-color="#3A4545"/>
<stop offset="0.522" stop-color="#272E2E"/>
<stop offset="0.914" stop-color="#080909"/>
<stop offset="1"/>
</linearGradient>
</defs>
</svg>
