<svg width="1500" height="1500" viewBox="0 0 1500 1500" fill="none" xmlns="http://www.w3.org/2000/svg">
<g filter="url(#filter0_iii_68_119)">
<path d="M750 1500C79.8455 1500 -0.911673 919.355 0.00767285 774.194V725.806C-0.911673 580.645 79.8455 0 750 0C1420.15 0 1500.91 580.645 1499.99 725.806V774.194C1500.91 919.355 1420.15 1500 750 1500Z" fill="url(#paint0_linear_68_119)"/>
<path d="M1128.04 444.367C1092.24 438.046 1055.39 441.445 1021.35 454.212C987.309 466.978 957.314 488.643 934.495 516.948C1052.15 506.206 1170.28 531.521 1273.2 589.529C1273.2 589.529 1249.01 468.561 1128.04 444.367Z" fill="#ED8D06"/>
<path d="M353.856 444.367C389.66 438.046 426.504 441.445 460.546 454.212C494.589 466.978 524.584 488.643 547.403 516.948C429.751 506.206 311.616 531.521 208.696 589.529C208.696 589.529 232.89 468.561 353.856 444.367Z" fill="#ED8D06"/>
<path d="M1273.2 589.529C1103.85 444.367 934.495 516.948 934.495 516.948C957.314 488.643 987.309 466.978 1021.35 454.212C1055.39 441.445 1092.24 438.046 1128.04 444.367C1249.01 468.561 1273.2 589.529 1273.2 589.529Z" fill="url(#paint1_linear_68_119)"/>
<path d="M208.696 589.529C378.049 444.367 547.403 516.948 547.403 516.948C524.584 488.643 494.589 466.978 460.546 454.212C426.504 441.445 389.66 438.046 353.856 444.367C232.89 468.561 208.696 589.529 208.696 589.529Z" fill="url(#paint2_linear_68_119)"/>
<path d="M461.615 633.595C514.149 633.595 553.341 654.754 563.442 678.852C564.891 675.348 563.442 628.073 563.44 624.544C563.44 624.544 521.607 624.544 461.615 624.544C401.623 624.544 346.21 624.544 346.21 624.544C346.208 633.595 344.762 666.297 346.211 669.801C356.312 645.703 409.082 633.595 461.615 633.595Z" fill="#ED7606"/>
<mask id="mask0_68_119" style="mask-type:alpha" maskUnits="userSpaceOnUse" x="325" y="633" width="246" height="245">
<rect x="325.846" y="633.595" width="244.384" height="244.387" fill="#D9D9D9"/>
</mask>
<g mask="url(#mask0_68_119)">
<path d="M563.142 686.129C563.142 619.33 514.405 565.161 454.272 565.161C394.14 565.161 345.402 619.33 345.402 686.129C345.402 690.266 346.128 694.185 346.491 698.226C346.128 702.266 345.402 706.185 345.402 710.322C345.402 777.121 394.14 831.29 454.272 831.29C514.405 831.29 563.142 777.121 563.142 710.322C563.142 706.185 562.416 702.266 562.053 698.226C562.416 694.185 563.142 690.266 563.142 686.129Z" fill="#FCB400"/>
<path d="M454.272 807.097C514.399 807.097 563.142 752.938 563.142 686.129C563.142 619.32 514.399 565.161 454.272 565.161C394.145 565.161 345.402 619.32 345.402 686.129C345.402 752.938 394.145 807.097 454.272 807.097Z" fill="url(#paint3_linear_68_119)"/>
<path d="M454.272 637.742C506.929 637.742 550.84 655.113 560.965 710.322C562.417 702.294 563.144 694.215 563.142 686.129C563.142 619.33 514.405 565.161 454.272 565.161C394.14 565.161 345.402 619.33 345.402 686.129C345.401 694.215 346.128 702.294 347.58 710.322C357.705 655.113 401.615 637.742 454.272 637.742Z" fill="black"/>
</g>
<path d="M1059 633.595C1111.53 633.595 1150.72 654.754 1160.83 678.852C1162.27 675.348 1160.83 628.073 1160.82 624.544C1160.82 624.544 1118.99 624.544 1059 624.544C999.007 624.544 943.594 624.544 943.594 624.544C943.592 633.595 942.146 666.297 943.595 669.801C953.696 645.703 1006.47 633.595 1059 633.595Z" fill="#ED7606"/>
<mask id="mask1_68_119" style="mask-type:alpha" maskUnits="userSpaceOnUse" x="923" y="633" width="245" height="245">
<rect x="923.23" y="633.595" width="244.384" height="244.387" fill="#D9D9D9"/>
</mask>
<g mask="url(#mask1_68_119)">
<path d="M1160.53 686.129C1160.53 619.33 1111.79 565.161 1051.66 565.161C991.525 565.161 942.787 619.33 942.787 686.129C942.787 690.266 943.513 694.185 943.876 698.226C943.513 702.266 942.787 706.185 942.787 710.322C942.787 777.121 991.525 831.29 1051.66 831.29C1111.79 831.29 1160.53 777.121 1160.53 710.322C1160.53 706.185 1159.8 702.266 1159.44 698.226C1159.8 694.185 1160.53 690.266 1160.53 686.129Z" fill="#FCB400"/>
<path d="M1051.66 807.097C1111.78 807.097 1160.53 752.938 1160.53 686.129C1160.53 619.32 1111.78 565.161 1051.66 565.161C991.53 565.161 942.787 619.32 942.787 686.129C942.787 752.938 991.53 807.097 1051.66 807.097Z" fill="url(#paint4_linear_68_119)"/>
<path d="M1051.66 637.742C1104.31 637.742 1148.22 655.113 1158.35 710.322C1159.8 702.294 1160.53 694.215 1160.53 686.129C1160.53 619.33 1111.79 565.161 1051.66 565.161C991.525 565.161 942.787 619.33 942.787 686.129C942.785 694.215 943.512 702.294 944.964 710.322C955.089 655.113 999 637.742 1051.66 637.742Z" fill="black"/>
</g>
<path d="M754.461 1076.67C562.918 1080.21 462.025 1160.67 462.025 1160.67C467.281 1140.92 479.893 1122.32 499.125 1105.94C518.358 1089.56 543.827 1075.74 574.049 1065.29C624.478 1048.22 683.262 1038.68 745.05 1037.54C806.838 1036.4 869.67 1043.69 927.828 1058.76C962.79 1068.01 994.651 1080.77 1021.56 1096.3C1048.46 1111.82 1069.87 1129.8 1084.54 1149.18C1084.54 1149.18 946.004 1073.13 754.461 1076.67Z" fill="#ED8D06"/>
<path d="M757.6 1089.72C642.761 1092.1 537.603 1117.35 462.027 1160.68C462.027 1160.68 475.087 1112.98 577.187 1078.33C627.617 1061.27 686.4 1051.73 748.189 1050.59C809.977 1049.45 872.808 1056.74 930.967 1071.8C1048.76 1102.4 1084.54 1149.19 1084.54 1149.19C988.885 1109.02 872.567 1087.86 757.6 1089.72Z" fill="#F9BF06"/>
<path d="M1084.54 1149.19C1084.54 1149.19 1048.76 1102.4 930.967 1071.8C872.808 1056.74 809.977 1049.45 748.189 1050.59C686.4 1051.73 627.617 1061.27 577.187 1078.33C475.087 1112.98 462.027 1160.68 462.027 1160.68C462.027 1160.68 562.92 1080.21 754.463 1076.67C946.005 1073.14 1084.54 1149.19 1084.54 1149.19Z" fill="url(#paint5_linear_68_119)"/>
</g>
<defs>
<filter id="filter0_iii_68_119" x="-40.683" y="-40.683" width="1608.49" height="1608.49" filterUnits="userSpaceOnUse" color-interpolation-filters="sRGB">
<feFlood flood-opacity="0" result="BackgroundImageFix"/>
<feBlend mode="normal" in="SourceGraphic" in2="BackgroundImageFix" result="shape"/>
<feColorMatrix in="SourceAlpha" type="matrix" values="0 0 0 0 0 0 0 0 0 0 0 0 0 0 0 0 0 0 127 0" result="hardAlpha"/>
<feOffset dx="-40.683" dy="-40.683"/>
<feGaussianBlur stdDeviation="89.5027"/>
<feComposite in2="hardAlpha" operator="arithmetic" k2="-1" k3="1"/>
<feColorMatrix type="matrix" values="0 0 0 0 0 0 0 0 0 0 0 0 0 0 0 0 0 0 0.24 0"/>
<feBlend mode="normal" in2="shape" result="effect1_innerShadow_68_119"/>
<feColorMatrix in="SourceAlpha" type="matrix" values="0 0 0 0 0 0 0 0 0 0 0 0 0 0 0 0 0 0 127 0" result="hardAlpha"/>
<feOffset dx="40.683" dy="40.683"/>
<feGaussianBlur stdDeviation="22.3757"/>
<feComposite in2="hardAlpha" operator="arithmetic" k2="-1" k3="1"/>
<feColorMatrix type="matrix" values="0 0 0 0 1 0 0 0 0 1 0 0 0 0 1 0 0 0 0.5 0"/>
<feBlend mode="normal" in2="effect1_innerShadow_68_119" result="effect2_innerShadow_68_119"/>
<feColorMatrix in="SourceAlpha" type="matrix" values="0 0 0 0 0 0 0 0 0 0 0 0 0 0 0 0 0 0 127 0" result="hardAlpha"/>
<feOffset dx="67.8051" dy="67.8051"/>
<feGaussianBlur stdDeviation="115.269"/>
<feComposite in2="hardAlpha" operator="arithmetic" k2="-1" k3="1"/>
<feColorMatrix type="matrix" values="0 0 0 0 1 0 0 0 0 1 0 0 0 0 1 0 0 0 0.15 0"/>
<feBlend mode="normal" in2="effect2_innerShadow_68_119" result="effect3_innerShadow_68_119"/>
</filter>
<linearGradient id="paint0_linear_68_119" x1="750" y1="7.35484" x2="750" y2="1507.35" gradientUnits="userSpaceOnUse">
<stop stop-color="#FFE100"/>
<stop offset="1" stop-color="#F98900"/>
</linearGradient>
<linearGradient id="paint1_linear_68_119" x1="1117.28" y1="439.19" x2="1109.1" y2="508.601" gradientUnits="userSpaceOnUse">
<stop offset="0.005" stop-color="#414D4D"/>
<stop offset="0.206" stop-color="#3A4545"/>
<stop offset="0.522" stop-color="#272E2E"/>
<stop offset="0.914" stop-color="#080909"/>
<stop offset="1"/>
</linearGradient>
<linearGradient id="paint2_linear_68_119" x1="364.622" y1="439.19" x2="372.8" y2="508.601" gradientUnits="userSpaceOnUse">
<stop offset="0.005" stop-color="#414D4D"/>
<stop offset="0.206" stop-color="#3A4545"/>
<stop offset="0.522" stop-color="#272E2E"/>
<stop offset="0.914" stop-color="#080909"/>
<stop offset="1"/>
</linearGradient>
<linearGradient id="paint3_linear_68_119" x1="454.272" y1="803.613" x2="454.272" y2="586.33" gradientUnits="userSpaceOnUse">
<stop offset="0.005" stop-color="#414D4D"/>
<stop offset="0.206" stop-color="#3A4545"/>
<stop offset="0.522" stop-color="#272E2E"/>
<stop offset="0.914" stop-color="#080909"/>
<stop offset="1"/>
</linearGradient>
<linearGradient id="paint4_linear_68_119" x1="1051.66" y1="803.613" x2="1051.66" y2="586.33" gradientUnits="userSpaceOnUse">
<stop offset="0.005" stop-color="#414D4D"/>
<stop offset="0.206" stop-color="#3A4545"/>
<stop offset="0.522" stop-color="#272E2E"/>
<stop offset="0.914" stop-color="#080909"/>
<stop offset="1"/>
</linearGradient>
<linearGradient id="paint5_linear_68_119" x1="747.289" y1="1046.84" x2="749.212" y2="1151.01" gradientUnits="userSpaceOnUse">
<stop stop-color="#803F02"/>
<stop offset="0.174" stop-color="#6D3602"/>
<stop offset="0.515" stop-color="#4D2601"/>
<stop offset="0.802" stop-color="#3A1C01"/>
<stop offset="1" stop-color="#331901"/>
</linearGradient>
</defs>
</svg>
