<svg width="1500" height="1500" viewBox="0 0 1500 1500" fill="none" xmlns="http://www.w3.org/2000/svg">
<g filter="url(#filter0_iii_68_16)">
<path d="M750 1500C79.8455 1500 -0.911673 919.355 0.00767285 774.194V725.806C-0.911673 580.645 79.8455 0 750 0C1420.15 0 1500.91 580.645 1499.99 725.806V774.194C1500.91 919.355 1420.15 1500 750 1500Z" fill="url(#paint0_linear_68_16)"/>
<path d="M751.944 1080.41C558.398 1080.41 437.431 971.457 437.431 971.457C447.496 998.698 464.685 1024.16 487.995 1046.37C511.306 1068.57 540.271 1087.07 573.204 1100.79C628.062 1123.17 689.507 1134.89 751.944 1134.89C814.381 1134.89 875.826 1123.17 930.684 1100.79C963.617 1087.07 992.582 1068.57 1015.89 1046.37C1039.2 1024.16 1056.39 998.698 1066.46 971.457C1066.46 971.457 945.49 1080.41 751.944 1080.41Z" fill="#F9BF06"/>
<path d="M751.944 1062.25C635.839 1061.88 523.943 1029.58 437.431 971.457C437.431 971.457 462.108 1037.23 573.204 1082.63C628.062 1105.01 689.507 1116.73 751.944 1116.73C814.381 1116.73 875.826 1105.01 930.684 1082.63C1041.78 1037.23 1066.46 971.457 1066.46 971.457C979.945 1029.58 868.049 1061.88 751.944 1062.25Z" fill="#ED8D06"/>
<path d="M1066.46 971.457C1066.46 971.457 1041.78 1037.23 930.684 1082.65C875.822 1105.02 814.379 1116.73 751.944 1116.73C689.51 1116.73 628.066 1105.02 573.204 1082.65C462.108 1037.23 437.431 971.457 437.431 971.457C437.431 971.457 558.398 1080.41 751.944 1080.41C945.49 1080.41 1066.46 971.457 1066.46 971.457Z" fill="url(#paint1_linear_68_16)"/>
<path d="M1197.96 592.241C1156.53 603.58 1113.69 608.948 1070.75 608.184C1027.8 608.948 984.967 603.58 943.538 592.241C938.932 590.911 934.034 590.992 929.474 592.475C924.915 593.957 920.905 596.772 917.962 600.557C915.019 604.341 913.278 608.921 912.964 613.705C912.649 618.489 913.777 623.257 916.2 627.394C913.57 631.535 912.322 636.403 912.635 641.299C912.948 646.194 914.806 650.864 917.942 654.636C936.081 677.846 959.268 696.619 985.744 709.53C1012.22 722.441 1041.29 729.151 1070.75 729.151C1100.2 729.151 1129.27 722.441 1155.75 709.53C1182.23 696.619 1205.41 677.846 1223.55 654.636C1226.69 650.864 1228.55 646.194 1228.86 641.299C1229.17 636.403 1227.92 631.535 1225.29 627.394C1227.72 623.257 1228.84 618.489 1228.53 613.705C1228.22 608.921 1226.48 604.341 1223.53 600.557C1220.59 596.772 1216.58 593.957 1212.02 592.475C1207.46 590.992 1202.56 590.911 1197.96 592.241Z" fill="#F99C06"/>
<path d="M568.927 592.241C527.499 603.58 484.664 608.948 441.719 608.184C398.773 608.948 355.939 603.58 314.51 592.241C309.904 590.911 305.005 590.992 300.446 592.475C295.887 593.957 291.877 596.772 288.933 600.557C285.99 604.341 284.249 608.921 283.935 613.705C283.621 618.489 284.749 623.257 287.172 627.394C284.542 631.535 283.294 636.403 283.607 641.299C283.92 646.194 285.778 650.864 288.914 654.636C307.052 677.846 330.24 696.619 356.716 709.53C383.192 722.441 412.262 729.151 441.719 729.151C471.175 729.151 500.245 722.441 526.721 709.53C553.198 696.619 576.385 677.846 594.523 654.636C597.659 650.864 599.517 646.194 599.83 641.299C600.143 636.403 598.895 631.535 596.265 627.394C598.689 623.257 599.816 618.489 599.502 613.705C599.188 608.921 597.447 604.341 594.504 600.557C591.561 596.772 587.55 593.957 582.991 592.475C578.432 590.992 573.533 590.911 568.927 592.241Z" fill="#F99C06"/>
<g opacity="0.98">
<path d="M917.938 630.443C914.791 626.425 912.995 621.516 912.807 616.416C912.619 611.316 914.049 606.287 916.892 602.049C919.734 597.81 923.844 594.579 928.634 592.818C933.423 591.056 938.648 590.855 943.559 592.241C984.979 603.583 1027.81 608.951 1070.74 608.185C1113.68 608.951 1156.51 603.583 1197.93 592.241C1202.84 590.855 1208.06 591.056 1212.85 592.818C1217.64 594.579 1221.75 597.81 1224.59 602.049C1227.44 606.287 1228.87 611.316 1228.68 616.416C1228.49 621.516 1226.69 626.425 1223.55 630.443C1205.41 653.653 1182.22 672.426 1155.75 685.337C1129.27 698.248 1100.2 704.959 1070.74 704.959C1041.29 704.959 1012.22 698.248 985.74 685.337C959.264 672.426 936.077 653.653 917.938 630.443Z" fill="url(#paint2_linear_68_16)"/>
<path d="M288.914 630.443C285.767 626.425 283.971 621.516 283.784 616.416C283.596 611.316 285.025 606.287 287.868 602.049C290.71 597.81 294.82 594.579 299.61 592.818C304.4 591.056 309.624 590.855 314.535 592.241C355.955 603.583 398.782 608.951 441.719 608.185C484.657 608.951 527.484 603.583 568.903 592.241C573.815 590.855 579.039 591.056 583.828 592.818C588.618 594.579 592.728 597.81 595.571 602.049C598.413 606.287 599.843 611.316 599.655 616.416C599.467 621.516 597.671 626.425 594.524 630.443C576.385 653.653 553.198 672.426 526.722 685.337C500.245 698.248 471.176 704.959 441.719 704.959C412.262 704.959 383.193 698.248 356.716 685.337C330.24 672.426 307.053 653.653 288.914 630.443Z" fill="url(#paint3_linear_68_16)"/>
</g>
</g>
<defs>
<filter id="filter0_iii_68_16" x="-40.683" y="-40.683" width="1608.49" height="1608.49" filterUnits="userSpaceOnUse" color-interpolation-filters="sRGB">
<feFlood flood-opacity="0" result="BackgroundImageFix"/>
<feBlend mode="normal" in="SourceGraphic" in2="BackgroundImageFix" result="shape"/>
<feColorMatrix in="SourceAlpha" type="matrix" values="0 0 0 0 0 0 0 0 0 0 0 0 0 0 0 0 0 0 127 0" result="hardAlpha"/>
<feOffset dx="-40.683" dy="-40.683"/>
<feGaussianBlur stdDeviation="89.5027"/>
<feComposite in2="hardAlpha" operator="arithmetic" k2="-1" k3="1"/>
<feColorMatrix type="matrix" values="0 0 0 0 0 0 0 0 0 0 0 0 0 0 0 0 0 0 0.24 0"/>
<feBlend mode="normal" in2="shape" result="effect1_innerShadow_68_16"/>
<feColorMatrix in="SourceAlpha" type="matrix" values="0 0 0 0 0 0 0 0 0 0 0 0 0 0 0 0 0 0 127 0" result="hardAlpha"/>
<feOffset dx="40.683" dy="40.683"/>
<feGaussianBlur stdDeviation="22.3757"/>
<feComposite in2="hardAlpha" operator="arithmetic" k2="-1" k3="1"/>
<feColorMatrix type="matrix" values="0 0 0 0 1 0 0 0 0 1 0 0 0 0 1 0 0 0 0.5 0"/>
<feBlend mode="normal" in2="effect1_innerShadow_68_16" result="effect2_innerShadow_68_16"/>
<feColorMatrix in="SourceAlpha" type="matrix" values="0 0 0 0 0 0 0 0 0 0 0 0 0 0 0 0 0 0 127 0" result="hardAlpha"/>
<feOffset dx="67.8051" dy="67.8051"/>
<feGaussianBlur stdDeviation="115.269"/>
<feComposite in2="hardAlpha" operator="arithmetic" k2="-1" k3="1"/>
<feColorMatrix type="matrix" values="0 0 0 0 1 0 0 0 0 1 0 0 0 0 1 0 0 0 0.15 0"/>
<feBlend mode="normal" in2="effect2_innerShadow_68_16" result="effect3_innerShadow_68_16"/>
</filter>
<linearGradient id="paint0_linear_68_16" x1="750" y1="7.35484" x2="750" y2="1507.35" gradientUnits="userSpaceOnUse">
<stop stop-color="#FFE100"/>
<stop offset="1" stop-color="#F98900"/>
</linearGradient>
<linearGradient id="paint1_linear_68_16" x1="751.944" y1="1121.94" x2="751.944" y2="977.504" gradientUnits="userSpaceOnUse">
<stop stop-color="#803F02"/>
<stop offset="0.174" stop-color="#6D3602"/>
<stop offset="0.515" stop-color="#4D2601"/>
<stop offset="0.802" stop-color="#3A1C01"/>
<stop offset="1" stop-color="#331901"/>
</linearGradient>
<linearGradient id="paint2_linear_68_16" x1="1070.74" y1="705.419" x2="1070.74" y2="616.871" gradientUnits="userSpaceOnUse">
<stop stop-color="#803F02"/>
<stop offset="0.174" stop-color="#6D3602"/>
<stop offset="0.515" stop-color="#4D2601"/>
<stop offset="0.802" stop-color="#3A1C01"/>
<stop offset="1" stop-color="#331901"/>
</linearGradient>
<linearGradient id="paint3_linear_68_16" x1="441.719" y1="703.145" x2="441.719" y2="611.5" gradientUnits="userSpaceOnUse">
<stop stop-color="#803F02"/>
<stop offset="0.174" stop-color="#6D3602"/>
<stop offset="0.515" stop-color="#4D2601"/>
<stop offset="0.802" stop-color="#3A1C01"/>
<stop offset="1" stop-color="#331901"/>
</linearGradient>
</defs>
</svg>
