<svg width="1501" height="1501" viewBox="0 0 1501 1501" fill="none" xmlns="http://www.w3.org/2000/svg">
<g filter="url(#filter0_iii_3_711)">
<path d="M750.349 1500.92C80.1942 1500.92 -0.56304 920.279 0.356306 775.117V726.73C-0.56304 581.569 80.1942 0.923828 750.349 0.923828C1420.5 0.923828 1501.26 581.569 1500.34 726.73V775.117C1501.26 920.279 1420.5 1500.92 750.349 1500.92Z" fill="url(#paint0_linear_3_711)"/>
<path d="M1089.06 557.378C1089.06 490.578 1056.57 436.408 1016.48 436.408C976.389 436.408 943.896 490.578 943.896 557.378C943.896 561.515 944.38 565.435 944.622 569.475C944.38 573.516 943.896 577.435 943.896 581.572C943.896 648.372 976.389 702.543 1016.48 702.543C1056.57 702.543 1089.06 648.372 1089.06 581.572C1089.06 577.435 1088.58 573.516 1088.33 569.475C1088.58 565.435 1089.06 561.515 1089.06 557.378Z" fill="#EDA406"/>
<path d="M556.804 557.378C556.804 490.578 524.311 436.408 484.222 436.408C444.133 436.408 411.641 490.578 411.641 557.378C411.641 561.515 412.125 565.435 412.366 569.475C412.125 573.516 411.641 577.435 411.641 581.572C411.641 648.372 444.133 702.543 484.222 702.543C524.311 702.543 556.804 648.372 556.804 581.572C556.804 577.435 556.32 573.516 556.078 569.475C556.32 565.435 556.804 561.515 556.804 557.378Z" fill="#EDA406"/>
<path d="M1089.06 581.57C1089.06 514.771 1056.57 460.6 1016.48 460.6C976.389 460.6 943.896 514.771 943.896 581.57C943.896 585.708 944.38 589.627 944.622 593.667C944.38 597.708 943.896 601.627 943.896 605.764C943.896 672.564 976.389 726.735 1016.48 726.735C1056.57 726.735 1089.06 672.564 1089.06 605.764C1089.06 601.627 1088.58 597.708 1088.33 593.667C1088.58 589.627 1089.06 585.708 1089.06 581.57Z" fill="#FFD000"/>
<path d="M556.804 581.57C556.804 514.771 524.311 460.6 484.222 460.6C444.133 460.6 411.641 514.771 411.641 581.57C411.641 585.708 412.125 589.627 412.366 593.667C412.125 597.708 411.641 601.627 411.641 605.764C411.641 672.564 444.133 726.735 484.222 726.735C524.311 726.735 556.804 672.564 556.804 605.764C556.804 601.627 556.32 597.708 556.078 593.667C556.32 589.627 556.804 585.708 556.804 581.57Z" fill="#FFD000"/>
<path d="M1016.48 702.541C1056.56 702.541 1089.06 648.38 1089.06 581.57C1089.06 514.76 1056.56 460.6 1016.48 460.6C976.392 460.6 943.896 514.76 943.896 581.57C943.896 648.38 976.392 702.541 1016.48 702.541Z" fill="url(#paint1_linear_3_711)"/>
<path d="M484.222 702.541C524.308 702.541 556.804 648.38 556.804 581.57C556.804 514.76 524.308 460.6 484.222 460.6C444.136 460.6 411.641 514.76 411.641 581.57C411.641 648.38 444.136 702.541 484.222 702.541Z" fill="url(#paint2_linear_3_711)"/>
<path d="M1016.48 533.182C1051.58 533.182 1080.86 550.554 1087.61 605.764C1088.58 597.736 1089.06 589.657 1089.06 581.57C1089.06 514.771 1056.57 460.6 1016.48 460.6C976.389 460.6 943.896 514.771 943.896 581.57C943.895 589.657 944.38 597.736 945.348 605.764C952.098 550.554 981.373 533.182 1016.48 533.182Z" fill="black"/>
<path d="M484.222 533.182C519.327 533.182 548.602 550.554 555.352 605.764C556.32 597.736 556.805 589.657 556.804 581.57C556.804 514.771 524.311 460.6 484.222 460.6C444.133 460.6 411.641 514.771 411.641 581.57C411.639 589.657 412.124 597.736 413.092 605.764C419.842 550.554 449.117 533.182 484.222 533.182Z" fill="black"/>
<path d="M732.869 1039.14C542.094 1056.63 447.335 1144.23 447.335 1144.23C451.137 1124.15 462.359 1104.68 480.346 1086.94C498.334 1069.21 522.728 1053.57 552.107 1040.94C601.158 1020.24 659.09 1006.44 720.631 1000.8C782.171 995.155 845.368 997.85 904.469 1008.64C940.012 1015.32 972.719 1025.72 1000.68 1039.24C1028.65 1052.76 1051.31 1069.13 1067.35 1087.4C1067.35 1087.4 923.645 1021.65 732.869 1039.14Z" fill="#ED8D06"/>
<path d="M736.949 1051.91C622.59 1062.67 519.552 1095.51 447.336 1144.23C447.336 1144.23 456.884 1095.71 556.187 1053.71C605.239 1033.01 663.17 1019.22 724.711 1013.57C786.251 1007.93 849.448 1010.63 908.549 1021.41C1028.26 1043.34 1067.36 1087.39 1067.36 1087.39C969.026 1054.31 851.475 1041.68 736.949 1051.91Z" fill="#F9BF06"/>
<path d="M1067.36 1087.39C1067.36 1087.39 1028.26 1043.34 908.549 1021.41C849.448 1010.63 786.251 1007.93 724.711 1013.57C663.17 1019.22 605.239 1033.01 556.187 1053.71C456.884 1095.71 447.336 1144.23 447.336 1144.23C447.336 1144.23 542.095 1056.62 732.87 1039.13C923.645 1021.65 1067.36 1087.39 1067.36 1087.39Z" fill="url(#paint3_linear_3_711)"/>
<path d="M985.513 385.062C1106.48 433.451 1130.68 457.645 1227.45 530.227C1227.45 530.227 1227.45 385.062 1130.68 360.868C1033.9 336.674 985.513 385.062 985.513 385.062Z" fill="#EDA406"/>
<path d="M985.513 385.062C1106.48 385.062 1186.32 468.774 1227.45 530.227C1227.45 530.227 1227.45 385.062 1130.68 360.868C1033.9 336.674 985.513 385.062 985.513 385.062Z" fill="url(#paint4_linear_3_711)"/>
<path d="M525.844 288.29C404.875 336.678 380.682 360.872 283.906 433.455C283.906 433.455 283.906 288.29 380.682 264.096C477.457 239.902 525.844 288.29 525.844 288.29Z" fill="#EDA406"/>
<path d="M525.844 288.29C404.875 288.29 325.036 372.002 283.906 433.455C283.906 433.455 283.906 288.29 380.682 264.096C477.457 239.902 525.844 288.29 525.844 288.29Z" fill="url(#paint5_linear_3_711)"/>
</g>
<defs>
<filter id="filter0_iii_3_711" x="-40.3344" y="-39.7592" width="1608.49" height="1608.49" filterUnits="userSpaceOnUse" color-interpolation-filters="sRGB">
<feFlood flood-opacity="0" result="BackgroundImageFix"/>
<feBlend mode="normal" in="SourceGraphic" in2="BackgroundImageFix" result="shape"/>
<feColorMatrix in="SourceAlpha" type="matrix" values="0 0 0 0 0 0 0 0 0 0 0 0 0 0 0 0 0 0 127 0" result="hardAlpha"/>
<feOffset dx="-40.683" dy="-40.683"/>
<feGaussianBlur stdDeviation="89.5027"/>
<feComposite in2="hardAlpha" operator="arithmetic" k2="-1" k3="1"/>
<feColorMatrix type="matrix" values="0 0 0 0 0 0 0 0 0 0 0 0 0 0 0 0 0 0 0.24 0"/>
<feBlend mode="normal" in2="shape" result="effect1_innerShadow_3_711"/>
<feColorMatrix in="SourceAlpha" type="matrix" values="0 0 0 0 0 0 0 0 0 0 0 0 0 0 0 0 0 0 127 0" result="hardAlpha"/>
<feOffset dx="40.683" dy="40.683"/>
<feGaussianBlur stdDeviation="22.3757"/>
<feComposite in2="hardAlpha" operator="arithmetic" k2="-1" k3="1"/>
<feColorMatrix type="matrix" values="0 0 0 0 1 0 0 0 0 1 0 0 0 0 1 0 0 0 0.5 0"/>
<feBlend mode="normal" in2="effect1_innerShadow_3_711" result="effect2_innerShadow_3_711"/>
<feColorMatrix in="SourceAlpha" type="matrix" values="0 0 0 0 0 0 0 0 0 0 0 0 0 0 0 0 0 0 127 0" result="hardAlpha"/>
<feOffset dx="67.8051" dy="67.8051"/>
<feGaussianBlur stdDeviation="115.269"/>
<feComposite in2="hardAlpha" operator="arithmetic" k2="-1" k3="1"/>
<feColorMatrix type="matrix" values="0 0 0 0 1 0 0 0 0 1 0 0 0 0 1 0 0 0 0.15 0"/>
<feBlend mode="normal" in2="effect2_innerShadow_3_711" result="effect3_innerShadow_3_711"/>
</filter>
<linearGradient id="paint0_linear_3_711" x1="750.349" y1="8.27867" x2="750.349" y2="1508.28" gradientUnits="userSpaceOnUse">
<stop stop-color="#FFE100"/>
<stop offset="1" stop-color="#F98900"/>
</linearGradient>
<linearGradient id="paint1_linear_3_711" x1="1016.48" y1="695.887" x2="1016.48" y2="465.27" gradientUnits="userSpaceOnUse">
<stop offset="0.005" stop-color="#414D4D"/>
<stop offset="0.206" stop-color="#3A4545"/>
<stop offset="0.522" stop-color="#272E2E"/>
<stop offset="0.914" stop-color="#080909"/>
<stop offset="1"/>
</linearGradient>
<linearGradient id="paint2_linear_3_711" x1="484.222" y1="699.057" x2="484.222" y2="481.77" gradientUnits="userSpaceOnUse">
<stop offset="0.005" stop-color="#414D4D"/>
<stop offset="0.206" stop-color="#3A4545"/>
<stop offset="0.522" stop-color="#272E2E"/>
<stop offset="0.914" stop-color="#080909"/>
<stop offset="1"/>
</linearGradient>
<linearGradient id="paint3_linear_3_711" x1="723.541" y1="1009.91" x2="733.051" y2="1113.66" gradientUnits="userSpaceOnUse">
<stop stop-color="#803F02"/>
<stop offset="0.174" stop-color="#6D3602"/>
<stop offset="0.515" stop-color="#4D2601"/>
<stop offset="0.802" stop-color="#3A1C01"/>
<stop offset="1" stop-color="#331901"/>
</linearGradient>
<linearGradient id="paint4_linear_3_711" x1="1159.37" y1="368.465" x2="1124.65" y2="426.99" gradientUnits="userSpaceOnUse">
<stop offset="0.005" stop-color="#414D4D"/>
<stop offset="0.206" stop-color="#3A4545"/>
<stop offset="0.522" stop-color="#272E2E"/>
<stop offset="0.914" stop-color="#080909"/>
<stop offset="1"/>
</linearGradient>
<linearGradient id="paint5_linear_3_711" x1="351.988" y1="271.693" x2="386.706" y2="330.218" gradientUnits="userSpaceOnUse">
<stop offset="0.005" stop-color="#414D4D"/>
<stop offset="0.206" stop-color="#3A4545"/>
<stop offset="0.522" stop-color="#272E2E"/>
<stop offset="0.914" stop-color="#080909"/>
<stop offset="1"/>
</linearGradient>
</defs>
</svg>
