<svg width="1501" height="1501" viewBox="0 0 1501 1501" fill="none" xmlns="http://www.w3.org/2000/svg">
<g filter="url(#filter0_iii_3_749)">
<path d="M750.349 1500.35C80.1942 1500.35 -0.56304 919.705 0.356306 774.544V726.157C-0.56304 580.995 80.1942 0.350098 750.349 0.350098C1420.5 0.350098 1501.26 580.995 1500.34 726.157V774.544C1501.26 919.705 1420.5 1500.35 750.349 1500.35Z" fill="url(#paint0_linear_3_749)"/>
<path d="M1137.44 363.252C1101.64 356.93 1064.8 360.33 1030.75 373.096C996.71 385.862 966.715 407.527 943.896 435.832C1061.55 425.09 1179.68 450.405 1282.6 508.413C1282.6 508.413 1258.41 387.445 1137.44 363.252Z" fill="#ED8D06"/>
<path d="M363.256 363.252C399.059 356.93 435.903 360.33 469.946 373.096C503.989 385.862 533.983 407.527 556.802 435.832C439.15 425.09 321.015 450.405 218.096 508.413C218.096 508.413 242.289 387.445 363.256 363.252Z" fill="#ED8D06"/>
<path d="M943.894 1151.96C943.906 1145.07 941.654 1138.36 937.482 1132.87C915.805 1104.25 840.032 1016.48 726.154 1016.48C612.276 1016.48 536.503 1104.25 514.825 1132.87C511.426 1137.25 509.283 1142.47 508.627 1147.97C507.97 1153.47 508.825 1159.05 511.1 1164.1C509.411 1167.92 508.498 1172.03 508.414 1176.2C508.857 1182.54 510.934 1188.65 514.443 1193.94C517.952 1199.24 522.774 1203.53 528.437 1206.41C534.1 1209.28 540.412 1210.64 546.757 1210.35C553.102 1210.06 559.263 1208.13 564.639 1204.75C591.252 1189.22 622.703 1171.68 650.913 1156.36C674.05 1143.95 699.898 1137.46 726.154 1137.46C752.41 1137.46 778.258 1143.95 801.395 1156.36C829.556 1171.73 861.128 1189.27 887.668 1204.75C893.048 1208.13 899.214 1210.06 905.562 1210.35C911.911 1210.64 918.226 1209.28 923.89 1206.39C929.555 1203.51 934.375 1199.21 937.881 1193.91C941.387 1188.61 943.459 1182.49 943.894 1176.15C943.81 1171.98 942.897 1167.87 941.208 1164.06C942.897 1160.24 943.81 1156.13 943.894 1151.96Z" fill="#ED8D06"/>
<path d="M943.894 1176.15C943.906 1169.26 941.654 1162.55 937.482 1157.07C915.805 1128.45 840.032 1040.67 726.154 1040.67C612.276 1040.67 536.503 1128.45 514.825 1157.07C511.426 1161.44 509.283 1166.66 508.627 1172.17C507.97 1177.67 508.825 1183.25 511.1 1188.3C509.411 1192.11 508.498 1196.23 508.414 1200.4C508.857 1206.73 510.934 1212.85 514.443 1218.14C517.952 1223.43 522.774 1227.73 528.437 1230.6C534.1 1233.48 540.412 1234.84 546.757 1234.55C553.102 1234.26 559.263 1232.33 564.639 1228.95C591.252 1213.41 622.703 1195.87 650.913 1180.56C674.05 1168.15 699.898 1161.65 726.154 1161.65C752.41 1161.65 778.258 1168.15 801.395 1180.56C829.556 1195.92 861.128 1213.46 887.668 1228.95C893.048 1232.33 899.214 1234.26 905.562 1234.55C911.911 1234.83 918.226 1233.47 923.89 1230.59C929.555 1227.71 934.375 1223.41 937.881 1218.11C941.387 1212.81 943.459 1206.69 943.894 1200.35C943.81 1196.18 942.897 1192.07 941.208 1188.25C942.897 1184.44 943.81 1180.33 943.894 1176.15Z" fill="#F9BF06"/>
<path d="M937.483 1157.07C915.806 1128.45 840.033 1040.67 726.155 1040.67C612.277 1040.67 536.504 1128.45 514.826 1157.07C510.655 1162.55 508.402 1169.26 508.415 1176.15C508.858 1182.49 510.935 1188.6 514.444 1193.9C517.953 1199.19 522.774 1203.49 528.438 1206.36C534.101 1209.24 540.413 1210.6 546.758 1210.31C553.103 1210.01 559.264 1208.08 564.64 1204.7C591.253 1189.17 622.704 1171.63 650.914 1156.32C674.051 1143.9 699.899 1137.41 726.155 1137.41C752.411 1137.41 778.259 1143.9 801.396 1156.32C829.557 1171.68 861.129 1189.22 887.669 1204.7C893.046 1208.08 899.207 1210.01 905.552 1210.31C911.897 1210.6 918.209 1209.24 923.872 1206.36C929.535 1203.49 934.357 1199.19 937.866 1193.9C941.375 1188.6 943.452 1182.49 943.895 1176.15C943.907 1169.26 941.655 1162.55 937.483 1157.07Z" fill="url(#paint1_linear_3_749)"/>
<path d="M1282.6 508.413C1113.25 363.252 943.896 435.832 943.896 435.832C966.715 407.527 996.71 385.862 1030.75 373.096C1064.8 360.33 1101.64 356.93 1137.44 363.252C1258.41 387.445 1282.6 508.413 1282.6 508.413Z" fill="url(#paint2_linear_3_749)"/>
<path d="M1234.21 750.345C1234.21 724.679 1224.02 700.064 1205.87 681.916C1187.72 663.767 1163.11 653.571 1137.44 653.571C1016.47 653.571 895.508 750.345 895.508 750.345C895.508 750.345 917.838 744.031 949.677 738.249C930.878 749.199 912.786 761.319 895.508 774.539C942.983 761.725 991.803 754.554 1040.96 753.176C1040.96 755.958 1041.47 758.62 1041.78 761.305C1041.08 765.682 1040.71 770.106 1040.67 774.539C1040.67 800.205 1050.86 824.82 1069.01 842.969C1087.16 861.117 1111.78 871.313 1137.44 871.313C1163.11 871.313 1187.72 861.117 1205.87 842.969C1224.02 824.82 1234.21 800.205 1234.21 774.539C1234.06 770.486 1233.65 766.446 1233 762.442C1233.65 758.438 1234.06 754.399 1234.21 750.345Z" fill="#ED8D06"/>
<path d="M484.222 653.571C363.256 653.571 242.289 750.345 242.289 750.345C242.289 750.345 264.619 744.031 296.458 738.249C277.659 749.199 259.567 761.319 242.289 774.539C289.764 761.725 338.585 754.554 387.739 753.176C387.739 755.958 388.247 758.62 388.562 761.305C387.86 765.682 387.488 770.106 387.449 774.539C387.449 800.205 397.645 824.82 415.793 842.969C433.942 861.117 458.556 871.313 484.222 871.313C509.888 871.313 534.503 861.117 552.651 842.969C570.8 824.82 580.995 800.205 580.995 774.539C580.838 770.486 580.434 766.446 579.786 762.442C580.434 758.438 580.838 754.399 580.995 750.345C580.995 724.679 570.8 700.064 552.651 681.916C534.503 663.767 509.888 653.571 484.222 653.571Z" fill="#ED8D06"/>
<path d="M1137.44 653.571C1016.47 653.571 895.508 750.345 895.508 750.345C943.663 737.314 993.213 730.133 1043.09 728.958C1038.65 748.523 1040.41 768.982 1048.11 787.504C1055.82 806.027 1069.08 821.698 1086.08 832.35C1103.08 843.002 1122.97 848.108 1143 846.961C1163.03 845.815 1182.2 838.473 1197.87 825.951C1213.55 813.429 1224.94 796.346 1230.48 777.066C1236.02 757.785 1235.43 737.259 1228.79 718.329C1222.15 699.398 1209.8 682.997 1193.43 671.396C1177.07 659.795 1157.5 653.566 1137.44 653.571Z" fill="url(#paint3_linear_3_749)"/>
<path d="M218.096 508.413C387.449 363.252 556.802 435.832 556.802 435.832C533.983 407.527 503.989 385.862 469.946 373.096C435.903 360.33 399.059 356.93 363.256 363.252C242.289 387.445 218.096 508.413 218.096 508.413Z" fill="url(#paint4_linear_3_749)"/>
<path d="M484.222 653.571C363.256 653.571 242.289 750.346 242.289 750.346C290.484 737.304 340.075 730.123 389.989 728.958C385.555 748.528 387.313 768.992 395.021 787.518C402.728 806.045 416.004 821.717 433.01 832.366C450.017 843.016 469.913 848.115 489.945 846.959C509.977 845.803 529.155 838.448 544.823 825.913C560.492 813.378 571.877 796.283 577.402 776.993C582.927 757.703 582.319 737.172 575.663 718.243C569.007 699.313 556.631 682.921 540.249 671.335C523.866 659.748 504.288 653.541 484.222 653.571Z" fill="url(#paint5_linear_3_749)"/>
</g>
<defs>
<filter id="filter0_iii_3_749" x="-40.3344" y="-40.3329" width="1608.49" height="1608.49" filterUnits="userSpaceOnUse" color-interpolation-filters="sRGB">
<feFlood flood-opacity="0" result="BackgroundImageFix"/>
<feBlend mode="normal" in="SourceGraphic" in2="BackgroundImageFix" result="shape"/>
<feColorMatrix in="SourceAlpha" type="matrix" values="0 0 0 0 0 0 0 0 0 0 0 0 0 0 0 0 0 0 127 0" result="hardAlpha"/>
<feOffset dx="-40.683" dy="-40.683"/>
<feGaussianBlur stdDeviation="89.5027"/>
<feComposite in2="hardAlpha" operator="arithmetic" k2="-1" k3="1"/>
<feColorMatrix type="matrix" values="0 0 0 0 0 0 0 0 0 0 0 0 0 0 0 0 0 0 0.24 0"/>
<feBlend mode="normal" in2="shape" result="effect1_innerShadow_3_749"/>
<feColorMatrix in="SourceAlpha" type="matrix" values="0 0 0 0 0 0 0 0 0 0 0 0 0 0 0 0 0 0 127 0" result="hardAlpha"/>
<feOffset dx="40.683" dy="40.683"/>
<feGaussianBlur stdDeviation="22.3757"/>
<feComposite in2="hardAlpha" operator="arithmetic" k2="-1" k3="1"/>
<feColorMatrix type="matrix" values="0 0 0 0 1 0 0 0 0 1 0 0 0 0 1 0 0 0 0.5 0"/>
<feBlend mode="normal" in2="effect1_innerShadow_3_749" result="effect2_innerShadow_3_749"/>
<feColorMatrix in="SourceAlpha" type="matrix" values="0 0 0 0 0 0 0 0 0 0 0 0 0 0 0 0 0 0 127 0" result="hardAlpha"/>
<feOffset dx="67.8051" dy="67.8051"/>
<feGaussianBlur stdDeviation="115.269"/>
<feComposite in2="hardAlpha" operator="arithmetic" k2="-1" k3="1"/>
<feColorMatrix type="matrix" values="0 0 0 0 1 0 0 0 0 1 0 0 0 0 1 0 0 0 0.15 0"/>
<feBlend mode="normal" in2="effect2_innerShadow_3_749" result="effect3_innerShadow_3_749"/>
</filter>
<linearGradient id="paint0_linear_3_749" x1="750.349" y1="7.70494" x2="750.349" y2="1507.7" gradientUnits="userSpaceOnUse">
<stop stop-color="#FFE100"/>
<stop offset="1" stop-color="#F98900"/>
</linearGradient>
<linearGradient id="paint1_linear_3_749" x1="726.155" y1="1210.03" x2="726.155" y2="1066.73" gradientUnits="userSpaceOnUse">
<stop stop-color="#69101B"/>
<stop offset="1" stop-color="#400A10"/>
</linearGradient>
<linearGradient id="paint2_linear_3_749" x1="1126.68" y1="358.074" x2="1118.5" y2="427.485" gradientUnits="userSpaceOnUse">
<stop offset="0.005" stop-color="#414D4D"/>
<stop offset="0.206" stop-color="#3A4545"/>
<stop offset="0.522" stop-color="#272E2E"/>
<stop offset="0.914" stop-color="#080909"/>
<stop offset="1"/>
</linearGradient>
<linearGradient id="paint3_linear_3_749" x1="1135.87" y1="644.039" x2="1084.17" y2="731.135" gradientUnits="userSpaceOnUse">
<stop offset="0.005" stop-color="#414D4D"/>
<stop offset="0.206" stop-color="#3A4545"/>
<stop offset="0.522" stop-color="#272E2E"/>
<stop offset="0.914" stop-color="#080909"/>
<stop offset="1"/>
</linearGradient>
<linearGradient id="paint4_linear_3_749" x1="374.022" y1="358.074" x2="382.199" y2="427.485" gradientUnits="userSpaceOnUse">
<stop offset="0.005" stop-color="#414D4D"/>
<stop offset="0.206" stop-color="#3A4545"/>
<stop offset="0.522" stop-color="#272E2E"/>
<stop offset="0.914" stop-color="#080909"/>
<stop offset="1"/>
</linearGradient>
<linearGradient id="paint5_linear_3_749" x1="482.65" y1="644.039" x2="430.948" y2="731.135" gradientUnits="userSpaceOnUse">
<stop offset="0.005" stop-color="#414D4D"/>
<stop offset="0.206" stop-color="#3A4545"/>
<stop offset="0.522" stop-color="#272E2E"/>
<stop offset="0.914" stop-color="#080909"/>
<stop offset="1"/>
</linearGradient>
</defs>
</svg>
