<svg width="1500" height="1500" viewBox="0 0 1500 1500" fill="none" xmlns="http://www.w3.org/2000/svg">
<g filter="url(#filter0_iii_38_534)">
<path d="M750 1500C79.8455 1500 -0.911673 919.355 0.00767285 774.194V725.807C-0.911673 580.646 79.8455 0.000488281 750 0.000488281C1420.15 0.000488281 1500.91 580.646 1499.99 725.807V774.194C1500.91 919.355 1420.15 1500 750 1500Z" fill="url(#paint0_linear_38_534)"/>
<path d="M1139.91 656.338C1088.13 656.297 1037.02 668.131 990.53 690.929C944.035 713.727 903.386 746.883 871.708 787.847C840.031 828.812 818.167 876.494 807.799 927.23C797.431 977.965 798.834 1030.4 811.9 1080.51C824.966 1130.62 849.347 1177.06 883.17 1216.28C916.992 1255.49 959.356 1286.42 1007 1306.7C1054.65 1326.98 1106.31 1336.07 1158.02 1333.26C1209.73 1330.45 1260.1 1315.82 1305.27 1290.5C1388.82 1197.79 1447.87 1085.66 1477.05 964.321C1469.38 880.188 1430.55 801.955 1368.18 744.975C1305.81 687.995 1224.39 656.381 1139.91 656.338Z" fill="url(#paint1_radial_38_534)"/>
<path d="M704.432 995.047C704.025 908.153 670.239 824.74 610.061 762.057C549.882 699.375 467.915 662.218 381.112 658.272C294.308 654.325 209.308 683.891 143.69 740.855C78.0724 797.819 36.857 877.823 28.5679 964.321C57.745 1085.66 116.792 1197.79 200.34 1290.5C251.869 1319.4 310.065 1334.32 369.145 1333.76C428.224 1333.2 486.128 1317.19 537.101 1287.31C588.073 1257.44 630.338 1214.74 659.694 1163.47C689.049 1112.19 704.473 1054.13 704.432 995.047Z" fill="url(#paint2_radial_38_534)"/>
<path d="M754.076 1351.77C1113.99 1351.77 1405.77 1106.59 1405.77 804.158C1405.77 501.723 1113.99 256.55 754.076 256.55C394.156 256.55 102.384 501.723 102.384 804.158C102.384 1106.59 394.156 1351.77 754.076 1351.77Z" fill="url(#paint3_radial_38_534)"/>
<path d="M1499.99 725.806V774.193L1282.25 895.161C1282.3 877.998 1277.74 861.137 1269.06 846.331C1260.38 831.524 1247.9 819.313 1232.9 810.967L1498.06 678.387C1499.51 695.806 1499.99 711.048 1499.99 723.145V725.806Z" fill="url(#paint4_linear_38_534)"/>
<path d="M1282.25 1112.9L1396.45 1158.63C1378.71 1190.13 1358.57 1220.22 1336.2 1248.63L1251.53 1206.53C1267.75 1177.7 1277.8 1145.82 1281.04 1112.9H1282.25Z" fill="url(#paint5_linear_38_534)"/>
<path d="M1282.25 895.162V1088.71C1282.25 1096.94 1281.77 1104.92 1281.04 1112.9C1277.8 1145.82 1267.74 1177.71 1251.53 1206.53C1230.59 1244.18 1199.96 1275.53 1162.83 1297.36C1125.69 1319.18 1083.39 1330.67 1040.32 1330.65H459.681C416.607 1330.67 374.31 1319.18 337.174 1297.36C300.037 1275.53 269.412 1244.18 248.473 1206.53C232.255 1177.71 222.204 1145.82 218.957 1112.9C218.231 1104.92 217.748 1096.94 217.748 1088.71V895.162C217.856 869.53 228.086 844.978 246.211 826.852C264.336 808.727 288.888 798.496 314.521 798.388H1185.48C1211.11 798.496 1235.66 808.727 1253.79 826.852C1271.91 844.978 1282.14 869.53 1282.25 895.162ZM1209.67 1064.52V895.162C1209.67 888.746 1207.12 882.592 1202.59 878.055C1198.05 873.518 1191.9 870.969 1185.48 870.969H314.521C308.104 870.969 301.951 873.518 297.414 878.055C292.876 882.592 290.327 888.746 290.327 895.162V1064.52C290.327 1115.85 310.719 1165.08 347.016 1201.38C383.313 1237.67 432.542 1258.07 483.874 1258.07H1016.13C1067.46 1258.07 1116.69 1237.67 1152.98 1201.38C1189.28 1165.08 1209.67 1115.85 1209.67 1064.52Z" fill="url(#paint6_linear_38_534)"/>
<path d="M1209.67 895.163V1064.52C1209.67 1115.85 1189.28 1165.08 1152.98 1201.38C1116.69 1237.67 1067.46 1258.07 1016.12 1258.07H483.872C432.54 1258.07 383.311 1237.67 347.014 1201.38C310.717 1165.08 290.326 1115.85 290.326 1064.52V895.163C290.326 888.746 292.875 882.593 297.412 878.055C301.949 873.518 308.103 870.969 314.519 870.969H1185.48C1191.89 870.969 1198.05 873.518 1202.59 878.055C1207.12 882.593 1209.67 888.746 1209.67 895.163Z" fill="url(#paint7_linear_38_534)"/>
<path d="M1.94425 678.387L267.103 810.967C252.106 819.313 239.619 831.524 230.939 846.331C222.26 861.137 217.705 877.998 217.749 895.161L0.00878906 774.193V725.806C0.00878906 713.225 0.492656 697.258 1.94425 678.387Z" fill="url(#paint8_linear_38_534)"/>
<path d="M248.473 1206.53L164.038 1248.63C141.49 1220.3 121.263 1190.21 103.555 1158.63L217.747 1112.9H218.957C222.204 1145.82 232.255 1177.7 248.473 1206.53Z" fill="url(#paint9_linear_38_534)"/>
<path d="M1185.48 846.774H314.52C301.687 846.774 289.38 851.872 280.305 860.946C271.231 870.02 266.133 882.328 266.133 895.161V1064.52C266.197 1122.24 289.158 1177.59 329.979 1218.41C370.799 1259.23 426.145 1282.19 483.873 1282.26H1016.13C1073.85 1282.19 1129.2 1259.23 1170.02 1218.41C1210.84 1177.59 1233.8 1122.24 1233.87 1064.52V895.161C1233.87 882.328 1228.77 870.02 1219.69 860.946C1210.62 851.872 1198.31 846.774 1185.48 846.774ZM1209.67 1064.52C1209.67 1115.85 1189.28 1165.08 1152.98 1201.38C1116.69 1237.67 1067.46 1258.06 1016.13 1258.06H483.873C432.541 1258.06 383.312 1237.67 347.015 1201.38C310.718 1165.08 290.327 1115.85 290.327 1064.52V895.161C290.327 888.744 292.876 882.591 297.413 878.054C301.95 873.516 308.103 870.967 314.52 870.967H1185.48C1191.9 870.967 1198.05 873.516 1202.59 878.054C1207.12 882.591 1209.67 888.744 1209.67 895.161V1064.52Z" fill="#CEE1ED"/>
<path d="M1112.9 943.548H387.101V991.935H1112.9V943.548Z" fill="white"/>
<path d="M1112.9 1040.32H387.101V1088.71H1112.9V1040.32Z" fill="white"/>
<path d="M1112.9 1137.1H387.101V1185.49H1112.9V1137.1Z" fill="white"/>
<path d="M1251.53 1206.53C1230.59 1244.17 1199.96 1275.53 1162.83 1297.35C1125.69 1319.18 1083.39 1330.67 1040.32 1330.65H459.681C416.607 1330.67 374.31 1319.18 337.174 1297.35C300.037 1275.53 269.413 1244.17 248.473 1206.53L164.063 1248.63C168.636 1254.39 173.498 1260.02 178.313 1265.71L248.473 1230.73C269.413 1268.37 300.037 1299.73 337.174 1321.55C374.31 1343.37 416.607 1354.86 459.681 1354.84H1040.32C1083.39 1354.86 1125.69 1343.37 1162.83 1321.55C1199.96 1299.73 1230.59 1268.37 1251.53 1230.73L1321.69 1265.64C1326.53 1259.95 1331.37 1254.31 1335.96 1248.53L1251.53 1206.53Z" fill="#E08400"/>
<path d="M1282.25 895.163V919.357L1499.41 798.728C1499.8 789.679 1499.99 781.284 1499.99 774.195L1282.25 895.163Z" fill="#ED8D06"/>
<path d="M217.749 895.163L0.00878906 774.195C0.00878906 781.284 0.202337 789.679 0.589429 798.728L217.749 919.357V895.163Z" fill="#ED8D06"/>
<path d="M1149.16 485.632C1197.13 467.777 1233.04 455.68 1233.04 455.68C1233.04 455.68 966.911 455.68 870.138 576.648C870.138 576.648 876.501 578.462 887.629 582.043C881.372 587.898 875.527 594.179 870.138 600.841C981.068 634.755 1086.87 683.589 1184.65 746.003C1170.5 727.363 1155.09 709.709 1138.54 693.164C1154.02 702.237 1169.48 711.696 1184.65 721.809C1135.77 661.305 1077.71 608.83 1012.59 566.293C1107.96 521.583 1233.04 479.874 1233.04 479.874C1205 480.33 1177 482.252 1149.16 485.632Z" fill="#58A119"/>
<path d="M1184.65 721.809C1086.87 659.395 981.068 610.561 870.138 576.648C966.911 455.68 1233.04 455.68 1233.04 455.68C1150.61 483.296 1069.84 515.607 991.104 552.454C1064.53 597.833 1129.93 655.059 1184.65 721.809Z" fill="url(#paint10_linear_38_534)"/>
<path d="M1184.65 721.809C1086.87 659.395 981.068 610.561 870.138 576.648C966.911 455.68 1233.04 455.68 1233.04 455.68C1150.61 483.296 1069.84 515.607 991.104 552.454C1064.53 597.833 1129.93 655.059 1184.65 721.809Z" fill="black" fill-opacity="0.25"/>
<path d="M265.307 455.68C265.307 455.68 301.21 467.777 349.185 485.632C321.345 482.252 293.347 480.33 265.307 479.874C265.307 479.874 390.386 521.583 485.756 566.293C420.634 608.83 362.576 661.305 313.693 721.809C328.862 711.696 344.322 702.237 359.806 693.164C343.252 709.709 327.846 727.363 313.693 746.003C411.47 683.589 517.276 634.755 628.206 600.841C622.816 594.179 616.972 587.898 610.714 582.043C621.843 578.462 628.206 576.648 628.206 576.648C531.433 455.68 265.307 455.68 265.307 455.68Z" fill="#58A119"/>
<path d="M313.693 721.809C411.47 659.395 517.276 610.561 628.206 576.648C531.433 455.68 265.307 455.68 265.307 455.68C347.731 483.296 428.508 515.607 507.24 552.454C433.817 597.833 368.416 655.059 313.693 721.809Z" fill="url(#paint11_linear_38_534)"/>
<path d="M313.693 721.809C411.47 659.395 517.276 610.561 628.206 576.648C531.433 455.68 265.307 455.68 265.307 455.68C347.731 483.296 428.508 515.607 507.24 552.454C433.817 597.833 368.416 655.059 313.693 721.809Z" fill="black" fill-opacity="0.25"/>
<path d="M881.054 331.423C883.701 330.348 886.566 329.748 889.481 329.659C892.397 329.57 895.302 329.995 898.028 330.907C1057.55 384.997 1212.28 324.422 1213.78 323.813C1219.05 321.689 1225.06 321.487 1230.5 323.252C1235.93 325.017 1240.35 328.603 1242.77 333.223C1245.19 337.843 1245.42 343.117 1243.41 347.886C1241.4 352.654 1237.31 356.526 1232.04 358.65C1120.69 399.445 995.996 402.343 882.337 366.777C878.311 365.43 874.829 363.068 872.329 359.99C869.829 356.911 868.421 353.253 868.284 349.475C868.147 345.697 869.286 341.967 871.558 338.755C873.83 335.544 877.134 332.993 881.054 331.423Z" fill="url(#paint12_radial_38_534)"/>
<path d="M643.949 342.45C647.789 344.165 650.965 346.837 653.079 350.131C655.193 353.424 656.15 357.193 655.829 360.963C655.509 364.732 653.925 368.335 651.278 371.317C648.63 374.299 645.036 376.528 640.949 377.724C525.665 409.007 401.227 401.448 291.957 356.526C286.8 354.207 282.903 350.186 281.125 345.346C279.347 340.507 279.833 335.246 282.477 330.721C285.12 326.196 289.704 322.778 295.22 321.218C300.736 319.658 306.733 320.085 311.89 322.404C313.388 323.077 465.028 389.384 627.035 341.308C629.798 340.5 632.718 340.184 635.623 340.38C638.528 340.576 641.358 341.28 643.949 342.45Z" fill="url(#paint13_radial_38_534)"/>
</g>
<defs>
<filter id="filter0_iii_38_534" x="-40.683" y="-40.6826" width="1608.49" height="1608.49" filterUnits="userSpaceOnUse" color-interpolation-filters="sRGB">
<feFlood flood-opacity="0" result="BackgroundImageFix"/>
<feBlend mode="normal" in="SourceGraphic" in2="BackgroundImageFix" result="shape"/>
<feColorMatrix in="SourceAlpha" type="matrix" values="0 0 0 0 0 0 0 0 0 0 0 0 0 0 0 0 0 0 127 0" result="hardAlpha"/>
<feOffset dx="-40.683" dy="-40.683"/>
<feGaussianBlur stdDeviation="89.5027"/>
<feComposite in2="hardAlpha" operator="arithmetic" k2="-1" k3="1"/>
<feColorMatrix type="matrix" values="0 0 0 0 0 0 0 0 0 0 0 0 0 0 0 0 0 0 0.24 0"/>
<feBlend mode="normal" in2="shape" result="effect1_innerShadow_38_534"/>
<feColorMatrix in="SourceAlpha" type="matrix" values="0 0 0 0 0 0 0 0 0 0 0 0 0 0 0 0 0 0 127 0" result="hardAlpha"/>
<feOffset dx="40.683" dy="40.683"/>
<feGaussianBlur stdDeviation="22.3757"/>
<feComposite in2="hardAlpha" operator="arithmetic" k2="-1" k3="1"/>
<feColorMatrix type="matrix" values="0 0 0 0 1 0 0 0 0 1 0 0 0 0 1 0 0 0 0.5 0"/>
<feBlend mode="normal" in2="effect1_innerShadow_38_534" result="effect2_innerShadow_38_534"/>
<feColorMatrix in="SourceAlpha" type="matrix" values="0 0 0 0 0 0 0 0 0 0 0 0 0 0 0 0 0 0 127 0" result="hardAlpha"/>
<feOffset dx="67.8051" dy="67.8051"/>
<feGaussianBlur stdDeviation="115.269"/>
<feComposite in2="hardAlpha" operator="arithmetic" k2="-1" k3="1"/>
<feColorMatrix type="matrix" values="0 0 0 0 1 0 0 0 0 1 0 0 0 0 1 0 0 0 0.15 0"/>
<feBlend mode="normal" in2="effect2_innerShadow_38_534" result="effect3_innerShadow_38_534"/>
</filter>
<linearGradient id="paint0_linear_38_534" x1="750" y1="7.35533" x2="750" y2="1507.36" gradientUnits="userSpaceOnUse">
<stop stop-color="#FFE100"/>
<stop offset="1" stop-color="#F98900"/>
</linearGradient>
<radialGradient id="paint1_radial_38_534" cx="0" cy="0" r="1" gradientUnits="userSpaceOnUse" gradientTransform="translate(1139.82 995.068) scale(338.774 338.778)">
<stop stop-color="#FF6600"/>
<stop offset="0.098" stop-color="#FF6800" stop-opacity="0.978"/>
<stop offset="0.222" stop-color="#FE6D01" stop-opacity="0.916"/>
<stop offset="0.36" stop-color="#FE7501" stop-opacity="0.814"/>
<stop offset="0.509" stop-color="#FD8003" stop-opacity="0.672"/>
<stop offset="0.666" stop-color="#FC8E04" stop-opacity="0.488"/>
<stop offset="0.83" stop-color="#FBA006" stop-opacity="0.264"/>
<stop offset="0.997" stop-color="#F9B508" stop-opacity="0.01"/>
<stop offset="1" stop-color="#F9B508" stop-opacity="0"/>
</radialGradient>
<radialGradient id="paint2_radial_38_534" cx="0" cy="0" r="1" gradientUnits="userSpaceOnUse" gradientTransform="translate(365.498 995.068) scale(338.774 338.778)">
<stop stop-color="#FF6600"/>
<stop offset="0.098" stop-color="#FF6800" stop-opacity="0.978"/>
<stop offset="0.222" stop-color="#FE6D01" stop-opacity="0.916"/>
<stop offset="0.36" stop-color="#FE7501" stop-opacity="0.814"/>
<stop offset="0.509" stop-color="#FD8003" stop-opacity="0.672"/>
<stop offset="0.666" stop-color="#FC8E04" stop-opacity="0.488"/>
<stop offset="0.83" stop-color="#FBA006" stop-opacity="0.264"/>
<stop offset="0.997" stop-color="#F9B508" stop-opacity="0.01"/>
<stop offset="1" stop-color="#F9B508" stop-opacity="0"/>
</radialGradient>
<radialGradient id="paint3_radial_38_534" cx="0" cy="0" r="1" gradientUnits="userSpaceOnUse" gradientTransform="translate(754.063 804.423) scale(651.692 547.764)">
<stop stop-color="#56B000"/>
<stop offset="1" stop-color="#F0D94C" stop-opacity="0"/>
</radialGradient>
<linearGradient id="paint4_linear_38_534" x1="1501.78" y1="721.282" x2="1273.16" y2="844.667" gradientUnits="userSpaceOnUse">
<stop stop-color="#E3F4FF"/>
<stop offset="0.995" stop-color="#B5C7DE"/>
</linearGradient>
<linearGradient id="paint5_linear_38_534" x1="1376.87" y1="1213.74" x2="1275.26" y2="1153.86" gradientUnits="userSpaceOnUse">
<stop stop-color="#E3F4FF"/>
<stop offset="0.995" stop-color="#B5C7DE"/>
</linearGradient>
<linearGradient id="paint6_linear_38_534" x1="750" y1="798.388" x2="750" y2="1371.85" gradientUnits="userSpaceOnUse">
<stop stop-color="#EDF8FF"/>
<stop offset="0.995" stop-color="#C8D7EB"/>
</linearGradient>
<linearGradient id="paint7_linear_38_534" x1="749.998" y1="870.969" x2="749.998" y2="1259.28" gradientUnits="userSpaceOnUse">
<stop stop-color="white"/>
<stop offset="0.995" stop-color="#DBEBFF"/>
</linearGradient>
<linearGradient id="paint8_linear_38_534" x1="6.97646" y1="721.306" x2="222.903" y2="842.877" gradientUnits="userSpaceOnUse">
<stop stop-color="#E3F4FF"/>
<stop offset="0.995" stop-color="#B5C7DE"/>
</linearGradient>
<linearGradient id="paint9_linear_38_534" x1="131.571" y1="1213.69" x2="222.296" y2="1150.19" gradientUnits="userSpaceOnUse">
<stop stop-color="#E3F4FF"/>
<stop offset="0.995" stop-color="#B5C7DE"/>
</linearGradient>
<linearGradient id="paint10_linear_38_534" x1="1201.61" y1="587.995" x2="899.532" y2="619.034" gradientUnits="userSpaceOnUse">
<stop stop-color="#803F02"/>
<stop offset="0.174" stop-color="#6D3602"/>
<stop offset="0.515" stop-color="#4D2601"/>
<stop offset="0.802" stop-color="#3A1C01"/>
<stop offset="1" stop-color="#331901"/>
</linearGradient>
<linearGradient id="paint11_linear_38_534" x1="296.734" y1="587.995" x2="598.811" y2="619.034" gradientUnits="userSpaceOnUse">
<stop stop-color="#803F02"/>
<stop offset="0.174" stop-color="#6D3602"/>
<stop offset="0.515" stop-color="#4D2601"/>
<stop offset="0.802" stop-color="#3A1C01"/>
<stop offset="1" stop-color="#331901"/>
</linearGradient>
<radialGradient id="paint12_radial_38_534" cx="0" cy="0" r="1" gradientUnits="userSpaceOnUse" gradientTransform="translate(1056.55 345.037) rotate(158.032) scale(135.388 123.752)">
<stop offset="0.005" stop-color="#414D4D"/>
<stop offset="0.206" stop-color="#3A4545"/>
<stop offset="0.522" stop-color="#272E2E"/>
<stop offset="0.914" stop-color="#080909"/>
<stop offset="1"/>
</radialGradient>
<radialGradient id="paint13_radial_38_534" cx="0" cy="0" r="1" gradientUnits="userSpaceOnUse" gradientTransform="translate(467.953 349.488) rotate(-155.79) scale(134.843 124.253)">
<stop offset="0.005" stop-color="#414D4D"/>
<stop offset="0.206" stop-color="#3A4545"/>
<stop offset="0.522" stop-color="#272E2E"/>
<stop offset="0.914" stop-color="#080909"/>
<stop offset="1"/>
</radialGradient>
</defs>
</svg>
