<svg width="1500" height="1500" viewBox="0 0 1500 1500" fill="none" xmlns="http://www.w3.org/2000/svg">
<g filter="url(#filter0_iii_43_235)">
<path d="M750 1500C79.8455 1500 -0.911673 919.355 0.00767285 774.194V725.807C-0.911673 580.646 79.8455 0.000488281 750 0.000488281C1420.15 0.000488281 1500.91 580.646 1499.99 725.807V774.194C1500.91 919.355 1420.15 1500 750 1500Z" fill="url(#paint0_linear_43_235)"/>
<path d="M750 1500C79.8455 1500 -0.911673 919.355 0.00767285 774.194V725.807C-0.911673 580.646 79.8455 0.000488281 750 0.000488281C1420.15 0.000488281 1500.91 580.646 1499.99 725.807V774.194C1500.91 919.355 1420.15 1500 750 1500Z" fill="url(#paint1_radial_43_235)" fill-opacity="0.4"/>
<path opacity="0.3" d="M750 1500C79.8455 1500 -0.911673 919.355 0.00767285 774.194V725.807C-0.911673 580.646 79.8455 0.000488281 750 0.000488281C1420.15 0.000488281 1500.91 580.646 1499.99 725.807V774.194C1500.91 919.355 1420.15 1500 750 1500Z" fill="url(#paint2_linear_43_235)"/>
<path d="M1137.09 653.226C1085.31 653.186 1034.21 665.019 987.71 687.818C941.215 710.616 900.567 743.771 868.889 784.736C837.211 825.7 815.348 873.383 804.98 924.118C794.612 974.854 796.014 1027.29 809.08 1077.4C822.147 1127.51 846.528 1173.95 880.35 1213.17C914.173 1252.38 956.536 1283.31 1004.18 1303.59C1051.83 1323.87 1103.49 1332.96 1155.2 1330.15C1206.91 1327.34 1257.28 1312.71 1302.45 1287.39C1386 1194.68 1445.05 1082.55 1474.23 961.21C1466.56 877.076 1427.73 798.844 1365.36 741.864C1302.99 684.884 1221.57 653.27 1137.09 653.226Z" fill="url(#paint3_radial_43_235)"/>
<path d="M701.612 991.935C701.206 905.042 667.419 821.628 607.241 758.946C547.063 696.263 465.095 659.107 378.292 655.16C291.488 651.214 206.488 680.78 140.87 737.744C75.2525 794.708 34.0372 874.711 25.748 961.209C54.9252 1082.55 113.972 1194.68 197.52 1287.39C249.049 1316.29 307.246 1331.21 366.325 1330.65C425.404 1330.09 483.309 1314.08 534.281 1284.2C585.253 1254.33 627.518 1211.63 656.874 1160.36C686.23 1109.08 701.654 1051.02 701.612 991.935Z" fill="url(#paint4_radial_43_235)"/>
<path d="M1258.06 665.237C1258.06 607.488 1235.12 552.105 1194.28 511.27C1153.45 470.436 1098.07 447.495 1040.32 447.495C982.57 447.495 927.187 470.436 886.353 511.27C845.519 552.105 822.578 607.488 822.578 665.237C822.578 669.326 822.965 673.294 823.183 677.334C822.965 681.374 822.578 685.342 822.578 689.431C822.578 747.179 845.519 802.563 886.353 843.397C927.187 884.232 982.57 907.173 1040.32 907.173C1098.07 907.173 1153.45 884.232 1194.28 843.397C1235.12 802.563 1258.06 747.179 1258.06 689.431C1258.06 685.342 1257.67 681.374 1257.45 677.334C1257.67 673.294 1258.06 669.326 1258.06 665.237Z" fill="#FAA15D"/>
<path d="M459.68 456.546C401.932 456.546 346.549 479.487 305.715 520.322C264.881 561.156 241.94 616.54 241.94 674.288C241.94 678.377 242.328 682.345 242.545 686.385C242.328 690.425 241.94 694.393 241.94 698.482C241.94 756.231 264.881 811.614 305.715 852.449C346.549 893.283 401.932 916.224 459.68 916.224C517.428 916.224 572.811 893.283 613.645 852.449C654.479 811.614 677.42 756.231 677.42 698.482C677.42 694.393 677.033 690.425 676.815 686.385C677.033 682.345 677.42 678.377 677.42 674.288C677.42 616.54 654.479 561.156 613.645 520.322C572.811 479.487 517.428 456.546 459.68 456.546Z" fill="#FAA44E"/>
<path d="M1258.06 650.095C1258.06 592.347 1235.12 536.963 1194.28 496.129C1153.45 455.294 1098.07 432.354 1040.32 432.354C982.571 432.354 927.188 455.294 886.354 496.129C845.519 536.963 822.579 592.347 822.579 650.095C822.579 654.184 822.966 658.152 823.184 662.192C822.966 666.233 822.579 670.2 822.579 674.289C822.579 732.038 845.519 787.421 886.354 828.256C927.188 869.09 982.571 892.031 1040.32 892.031C1098.07 892.031 1153.45 869.09 1194.28 828.256C1235.12 787.421 1258.06 732.038 1258.06 674.289C1258.06 670.2 1257.67 666.233 1257.45 662.192C1257.67 658.152 1258.06 654.184 1258.06 650.095Z" fill="#4E7CE6"/>
<path d="M459.68 432.354C401.932 432.354 346.549 455.294 305.715 496.129C264.881 536.963 241.94 592.347 241.94 650.095C241.94 654.184 242.328 658.152 242.545 662.192C242.328 666.233 241.94 670.2 241.94 674.289C241.94 732.038 264.881 787.421 305.715 828.256C346.549 869.09 401.932 892.031 459.68 892.031C517.428 892.031 572.811 869.09 613.645 828.256C654.479 787.421 677.42 732.038 677.42 674.289C677.42 670.2 677.033 666.233 676.815 662.192C677.033 658.152 677.42 654.184 677.42 650.095C677.42 592.347 654.479 536.963 613.645 496.129C572.811 455.294 517.428 432.354 459.68 432.354Z" fill="#4E7CE6"/>
<path d="M1040.32 892.03C1160.57 892.03 1258.06 794.544 1258.06 674.288C1258.06 554.033 1160.57 456.546 1040.32 456.546C920.064 456.546 822.578 554.033 822.578 674.288C822.578 794.544 920.064 892.03 1040.32 892.03Z" fill="url(#paint5_radial_43_235)"/>
<path d="M459.68 892.03C579.934 892.03 677.42 794.544 677.42 674.288C677.42 554.033 579.934 456.546 459.68 456.546C339.426 456.546 241.94 554.033 241.94 674.288C241.94 794.544 339.426 892.03 459.68 892.03Z" fill="url(#paint6_radial_43_235)"/>
<path d="M1040.9 841.778C1130.88 841.778 1203.82 766.807 1203.82 674.327C1203.82 581.847 1130.88 506.877 1040.9 506.877C950.917 506.877 877.974 581.847 877.974 674.327C877.974 766.807 950.917 841.778 1040.9 841.778Z" fill="url(#paint7_radial_43_235)"/>
<path d="M457.089 841.778C549.569 841.778 624.538 766.807 624.538 674.327C624.538 581.847 549.569 506.877 457.089 506.877C364.61 506.877 289.641 581.847 289.641 674.327C289.641 766.807 364.61 841.778 457.089 841.778Z" fill="url(#paint8_radial_43_235)"/>
<path d="M862.207 1156.85C851.028 1145.64 834.4 1136.24 814.059 1129.62C793.719 1123 770.412 1119.41 746.571 1119.22C722.73 1119.41 699.423 1123 679.083 1129.62C658.742 1136.24 642.114 1145.64 630.935 1156.85C626.731 1160.83 624.549 1165.33 624.604 1169.9V1182.99C624.33 1184.88 624.915 1186.77 626.308 1188.5C627.701 1190.24 629.861 1191.77 632.605 1192.97C635.349 1194.17 638.595 1194.99 642.069 1195.38C645.542 1195.77 649.14 1195.7 652.556 1195.19C682.47 1188.66 714.27 1184.91 746.571 1184.1C778.872 1184.91 810.672 1188.66 840.586 1195.19C844.003 1195.7 847.6 1195.77 851.074 1195.38C854.547 1194.99 857.793 1194.17 860.537 1192.97C863.281 1191.77 865.441 1190.24 866.834 1188.5C868.227 1186.77 868.812 1184.88 868.539 1182.99V1169.9C868.593 1165.33 866.411 1160.83 862.207 1156.85Z" fill="#FFB300"/>
<path d="M862.207 1150.95C851.028 1139.74 834.4 1130.34 814.059 1123.72C793.719 1117.1 770.412 1113.51 746.571 1113.32C722.73 1113.51 699.423 1117.1 679.083 1123.72C658.742 1130.34 642.114 1139.74 630.935 1150.95C626.731 1154.93 624.549 1159.43 624.604 1164V1177.1C624.33 1178.98 624.915 1180.87 626.308 1182.61C627.701 1184.34 629.861 1185.87 632.605 1187.07C635.349 1188.27 638.595 1189.1 642.069 1189.48C645.542 1189.87 649.14 1189.81 652.556 1189.3C682.47 1182.76 714.27 1179.01 746.571 1178.21C778.872 1179.01 810.672 1182.76 840.586 1189.3C844.003 1189.81 847.6 1189.87 851.074 1189.48C854.547 1189.1 857.793 1188.27 860.537 1187.07C863.281 1185.87 865.441 1184.34 866.834 1182.61C868.227 1180.87 868.812 1178.98 868.539 1177.1V1164C868.593 1159.43 866.411 1154.93 862.207 1150.95Z" fill="#E67700"/>
<path d="M746.571 1119.22C722.73 1119.41 699.423 1123 679.083 1129.62C658.742 1136.24 642.114 1145.64 630.935 1156.85C626.731 1160.83 624.549 1165.33 624.604 1169.9V1177.1C624.33 1178.98 624.915 1180.87 626.308 1182.6C627.701 1184.34 629.861 1185.87 632.605 1187.07C635.349 1188.27 638.595 1189.1 642.069 1189.48C645.542 1189.87 649.14 1189.81 652.556 1189.29C682.47 1182.76 714.27 1179.01 746.571 1178.2C778.872 1179.01 810.672 1182.76 840.586 1189.29C844.003 1189.81 847.6 1189.87 851.074 1189.48C854.547 1189.1 857.793 1188.27 860.537 1187.07C863.281 1185.87 865.441 1184.34 866.834 1182.6C868.227 1180.87 868.812 1178.98 868.539 1177.1V1169.9C868.593 1165.33 866.411 1160.83 862.207 1156.85C851.028 1145.64 834.4 1136.24 814.059 1129.62C793.719 1123 770.412 1119.41 746.571 1119.22Z" fill="url(#paint9_linear_43_235)"/>
<path d="M1050.88 255.569C1149.73 270.832 1239.34 322.39 1302.18 400.164C1304.57 403.32 1305.83 407.177 1305.79 411.13C1305.74 415.083 1304.39 418.909 1301.93 422.009C1303.27 424.895 1303.81 428.086 1303.5 431.252C1303.19 434.417 1302.03 437.441 1300.16 440.009C1298.28 442.578 1295.75 444.597 1292.83 445.857C1289.91 447.117 1286.7 447.573 1283.54 447.175C1281.14 446.898 1278.82 446.143 1276.71 444.954C1274.61 443.766 1272.76 442.168 1271.28 440.255C1185.13 327.736 1045.86 309.662 1044.5 309.5C1039.73 308.935 1035.38 306.5 1032.4 302.729C1029.43 298.958 1028.07 294.161 1028.64 289.393C1029.1 286.212 1030.42 283.216 1032.45 280.731C1031.05 277.838 1030.47 274.617 1030.77 271.416C1031.33 266.648 1033.77 262.3 1037.54 259.328C1041.31 256.356 1046.11 255.004 1050.88 255.569Z" fill="#2E70DB"/>
<path d="M1285.48 429.176C1289.02 429.605 1292.61 428.978 1295.8 427.372C1298.98 425.767 1301.63 423.254 1303.39 420.151C1305.15 417.048 1305.96 413.493 1305.71 409.933C1305.46 406.372 1304.16 402.965 1301.98 400.14C1239.18 322.372 1149.65 270.822 1050.87 255.567C1046.1 255.003 1041.31 256.355 1037.54 259.328C1033.77 262.3 1031.33 266.648 1030.77 271.416C1030.2 276.184 1031.55 280.981 1034.53 284.751C1037.5 288.522 1041.85 290.957 1046.61 291.521C1048 291.685 1187.16 309.747 1273.25 422.259C1274.72 424.169 1276.56 425.765 1278.66 426.953C1280.76 428.141 1283.08 428.896 1285.48 429.176Z" fill="url(#paint10_radial_43_235)"/>
<path d="M433.046 275.313C334.197 290.577 244.592 342.134 181.743 419.909C179.361 423.065 178.094 426.922 178.139 430.875C178.185 434.828 179.541 438.654 181.995 441.754C180.656 444.639 180.114 447.831 180.426 450.996C180.739 454.162 181.893 457.186 183.77 459.754C185.647 462.323 188.178 464.342 191.1 465.602C194.022 466.862 197.228 467.317 200.386 466.92C202.788 466.643 205.11 465.887 207.215 464.699C209.32 463.51 211.166 461.913 212.644 460C298.798 347.48 438.064 329.406 439.431 329.245C444.201 328.68 448.552 326.244 451.526 322.473C454.5 318.703 455.853 313.906 455.289 309.138C454.831 305.957 453.511 302.961 451.473 300.475C452.877 297.583 453.461 294.361 453.161 291.161C452.596 286.393 450.16 282.045 446.388 279.073C442.615 276.101 437.816 274.748 433.046 275.313Z" fill="#2E70DB"/>
<path d="M198.452 448.92C194.909 449.35 191.319 448.723 188.131 447.117C184.944 445.511 182.302 442.999 180.538 439.896C178.774 436.793 177.967 433.238 178.218 429.677C178.468 426.117 179.766 422.71 181.947 419.885C244.744 342.116 334.282 290.567 433.059 275.312C437.826 274.747 442.622 276.1 446.391 279.072C450.161 282.045 452.596 286.393 453.161 291.161C453.725 295.929 452.373 300.725 449.401 304.496C446.43 308.266 442.082 310.702 437.315 311.266C435.931 311.43 296.766 329.492 210.683 442.003C209.208 443.914 207.366 445.51 205.266 446.697C203.165 447.885 200.849 448.641 198.452 448.92Z" fill="url(#paint11_radial_43_235)"/>
</g>
<defs>
<filter id="filter0_iii_43_235" x="-40.683" y="-40.6826" width="1608.49" height="1608.49" filterUnits="userSpaceOnUse" color-interpolation-filters="sRGB">
<feFlood flood-opacity="0" result="BackgroundImageFix"/>
<feBlend mode="normal" in="SourceGraphic" in2="BackgroundImageFix" result="shape"/>
<feColorMatrix in="SourceAlpha" type="matrix" values="0 0 0 0 0 0 0 0 0 0 0 0 0 0 0 0 0 0 127 0" result="hardAlpha"/>
<feOffset dx="-40.683" dy="-40.683"/>
<feGaussianBlur stdDeviation="89.5027"/>
<feComposite in2="hardAlpha" operator="arithmetic" k2="-1" k3="1"/>
<feColorMatrix type="matrix" values="0 0 0 0 0 0 0 0 0 0 0 0 0 0 0 0 0 0 0.24 0"/>
<feBlend mode="normal" in2="shape" result="effect1_innerShadow_43_235"/>
<feColorMatrix in="SourceAlpha" type="matrix" values="0 0 0 0 0 0 0 0 0 0 0 0 0 0 0 0 0 0 127 0" result="hardAlpha"/>
<feOffset dx="40.683" dy="40.683"/>
<feGaussianBlur stdDeviation="22.3757"/>
<feComposite in2="hardAlpha" operator="arithmetic" k2="-1" k3="1"/>
<feColorMatrix type="matrix" values="0 0 0 0 1 0 0 0 0 1 0 0 0 0 1 0 0 0 0.5 0"/>
<feBlend mode="normal" in2="effect1_innerShadow_43_235" result="effect2_innerShadow_43_235"/>
<feColorMatrix in="SourceAlpha" type="matrix" values="0 0 0 0 0 0 0 0 0 0 0 0 0 0 0 0 0 0 127 0" result="hardAlpha"/>
<feOffset dx="67.8051" dy="67.8051"/>
<feGaussianBlur stdDeviation="115.269"/>
<feComposite in2="hardAlpha" operator="arithmetic" k2="-1" k3="1"/>
<feColorMatrix type="matrix" values="0 0 0 0 1 0 0 0 0 1 0 0 0 0 1 0 0 0 0.15 0"/>
<feBlend mode="normal" in2="effect2_innerShadow_43_235" result="effect3_innerShadow_43_235"/>
</filter>
<linearGradient id="paint0_linear_43_235" x1="750" y1="1486.98" x2="750" y2="252.896" gradientUnits="userSpaceOnUse">
<stop stop-color="#FFE100"/>
<stop offset="0.45" stop-color="#F98900"/>
<stop offset="0.63" stop-color="#ECA483"/>
<stop offset="0.81" stop-color="#83BEEC"/>
<stop offset="0.995" stop-color="#2A97EC"/>
</linearGradient>
<radialGradient id="paint1_radial_43_235" cx="0" cy="0" r="1" gradientUnits="userSpaceOnUse" gradientTransform="translate(750 750) rotate(90) scale(750)">
<stop offset="0.69" stop-color="#FFBA26"/>
<stop offset="1" stop-color="#F98900" stop-opacity="0"/>
</radialGradient>
<linearGradient id="paint2_linear_43_235" x1="750" y1="7.35533" x2="750" y2="1507.36" gradientUnits="userSpaceOnUse">
<stop stop-color="#41ABE6"/>
<stop offset="1" stop-color="#F98900"/>
</linearGradient>
<radialGradient id="paint3_radial_43_235" cx="0" cy="0" r="1" gradientUnits="userSpaceOnUse" gradientTransform="translate(1137.01 991.957) scale(338.774 338.778)">
<stop stop-color="#FF6600"/>
<stop offset="0.098" stop-color="#FF6800" stop-opacity="0.978"/>
<stop offset="0.222" stop-color="#FE6D01" stop-opacity="0.916"/>
<stop offset="0.36" stop-color="#FE7501" stop-opacity="0.814"/>
<stop offset="0.509" stop-color="#FD8003" stop-opacity="0.672"/>
<stop offset="0.666" stop-color="#FC8E04" stop-opacity="0.488"/>
<stop offset="0.83" stop-color="#FBA006" stop-opacity="0.264"/>
<stop offset="0.997" stop-color="#F9B508" stop-opacity="0.01"/>
<stop offset="1" stop-color="#F9B508" stop-opacity="0"/>
</radialGradient>
<radialGradient id="paint4_radial_43_235" cx="0" cy="0" r="1" gradientUnits="userSpaceOnUse" gradientTransform="translate(362.679 991.956) scale(338.774 338.778)">
<stop stop-color="#FF6600"/>
<stop offset="0.098" stop-color="#FF6800" stop-opacity="0.978"/>
<stop offset="0.222" stop-color="#FE6D01" stop-opacity="0.916"/>
<stop offset="0.36" stop-color="#FE7501" stop-opacity="0.814"/>
<stop offset="0.509" stop-color="#FD8003" stop-opacity="0.672"/>
<stop offset="0.666" stop-color="#FC8E04" stop-opacity="0.488"/>
<stop offset="0.83" stop-color="#FBA006" stop-opacity="0.264"/>
<stop offset="0.997" stop-color="#F9B508" stop-opacity="0.01"/>
<stop offset="1" stop-color="#F9B508" stop-opacity="0"/>
</radialGradient>
<radialGradient id="paint5_radial_43_235" cx="0" cy="0" r="1" gradientUnits="userSpaceOnUse" gradientTransform="translate(1040.32 674.288) scale(217.74 217.742)">
<stop stop-color="white"/>
<stop offset="0.505" stop-color="white"/>
<stop offset="0.588" stop-color="white"/>
<stop offset="0.804" stop-color="#FDFEFF"/>
<stop offset="0.886" stop-color="#F6FAFF"/>
<stop offset="0.945" stop-color="#EAF3FF"/>
<stop offset="0.993" stop-color="#D9EAFF"/>
<stop offset="1" stop-color="#D6E8FF"/>
</radialGradient>
<radialGradient id="paint6_radial_43_235" cx="0" cy="0" r="1" gradientUnits="userSpaceOnUse" gradientTransform="translate(459.68 33.1593) scale(12.0967 12.0968)">
<stop stop-color="white"/>
<stop offset="0.505" stop-color="white"/>
<stop offset="0.588" stop-color="white"/>
<stop offset="0.804" stop-color="#FDFEFF"/>
<stop offset="0.886" stop-color="#F6FAFF"/>
<stop offset="0.945" stop-color="#EAF3FF"/>
<stop offset="0.993" stop-color="#D9EAFF"/>
<stop offset="1" stop-color="#D6E8FF"/>
</radialGradient>
<radialGradient id="paint7_radial_43_235" cx="0" cy="0" r="1" gradientUnits="userSpaceOnUse" gradientTransform="translate(1040.9 674.327) scale(162.923 167.45)">
<stop offset="0.005" stop-color="#414D4D"/>
<stop offset="0.206" stop-color="#3A4545"/>
<stop offset="0.522" stop-color="#272E2E"/>
<stop offset="0.914" stop-color="#080909"/>
<stop offset="1"/>
</radialGradient>
<radialGradient id="paint8_radial_43_235" cx="0" cy="0" r="1" gradientUnits="userSpaceOnUse" gradientTransform="translate(457.089 -435.031) scale(167.449 167.45)">
<stop offset="0.005" stop-color="#414D4D"/>
<stop offset="0.206" stop-color="#3A4545"/>
<stop offset="0.522" stop-color="#272E2E"/>
<stop offset="0.914" stop-color="#080909"/>
<stop offset="1"/>
</radialGradient>
<linearGradient id="paint9_linear_43_235" x1="746.571" y1="1179.53" x2="746.571" y2="1121.66" gradientUnits="userSpaceOnUse">
<stop stop-color="#911625"/>
<stop offset="0.139" stop-color="#821421"/>
<stop offset="0.507" stop-color="#5E0E18"/>
<stop offset="0.807" stop-color="#480B12"/>
<stop offset="1" stop-color="#400A10"/>
</linearGradient>
<radialGradient id="paint10_radial_43_235" cx="0" cy="0" r="1" gradientUnits="userSpaceOnUse" gradientTransform="translate(1168.17 342.371) rotate(-173.248) scale(114.46 114.482)">
<stop offset="0.005" stop-color="#414D4D"/>
<stop offset="0.206" stop-color="#3A4545"/>
<stop offset="0.522" stop-color="#272E2E"/>
<stop offset="0.914" stop-color="#080909"/>
<stop offset="1"/>
</radialGradient>
<radialGradient id="paint11_radial_43_235" cx="0" cy="0" r="1" gradientUnits="userSpaceOnUse" gradientTransform="translate(315.755 362.116) rotate(-6.75189) scale(114.46 114.482)">
<stop offset="0.005" stop-color="#414D4D"/>
<stop offset="0.206" stop-color="#3A4545"/>
<stop offset="0.522" stop-color="#272E2E"/>
<stop offset="0.914" stop-color="#080909"/>
<stop offset="1"/>
</radialGradient>
</defs>
</svg>
