<svg width="1501" height="1501" viewBox="0 0 1501 1501" fill="none" xmlns="http://www.w3.org/2000/svg">
<g filter="url(#filter0_iii_3_697)">
<path d="M750.203 1500.81C80.0487 1500.81 -0.708548 920.168 0.210798 775.007V726.62C-0.708548 581.459 80.0487 0.813477 750.203 0.813477C1420.36 0.813477 1501.11 581.459 1500.2 726.62V775.007C1501.11 920.168 1420.36 1500.81 750.203 1500.81Z" fill="url(#paint0_linear_3_697)"/>
<path d="M1156.79 872.604C1160.55 871.769 1164.46 871.858 1168.18 872.863C1171.9 873.868 1175.32 875.759 1178.15 878.375C1180.98 880.991 1183.14 884.253 1184.43 887.882C1185.72 891.512 1186.12 895.401 1185.58 899.217C1183.83 919.318 1180.35 939.231 1175.18 958.733C1045.42 1031.19 898.789 1067.97 750.199 1065.33C601.604 1067.94 454.968 1031.14 325.22 958.66C320.047 939.158 316.567 919.245 314.817 899.144C314.28 895.329 314.675 891.44 315.969 887.81C317.263 884.18 319.417 880.918 322.246 878.302C325.076 875.687 328.497 873.796 332.217 872.79C335.937 871.785 339.845 871.697 343.607 872.531C475.98 909.659 612.721 928.934 750.199 929.846C887.675 928.958 1024.42 909.707 1156.79 872.604Z" fill="url(#paint1_linear_3_697)"/>
<path d="M1185.68 871.781H1185.49C1185.56 868.214 1184.82 864.677 1183.33 861.438C1181.83 858.2 1179.61 855.345 1176.85 853.092C1174.08 850.839 1170.84 849.246 1167.36 848.435C1163.89 847.623 1160.27 847.615 1156.8 848.41C1024.42 885.513 887.678 904.764 750.203 905.652C612.725 904.741 475.984 885.465 343.61 848.338C340.126 847.541 336.506 847.55 333.026 848.366C329.546 849.181 326.298 850.78 323.53 853.042C320.762 855.303 318.547 858.167 317.055 861.415C315.562 864.662 314.831 868.208 314.917 871.781H314.724V895.975H314.917C314.844 897.046 314.844 898.121 314.917 899.193C316.667 919.294 320.147 939.206 325.32 958.709C328.469 971.52 332.428 984.118 337.175 996.427C362.551 1060.8 405.144 1116.95 460.295 1158.74C542.746 1224.29 644.97 1259.97 750.3 1259.97C855.63 1259.97 957.853 1224.29 1040.31 1158.74C1095.46 1116.95 1138.05 1060.8 1163.42 996.427C1168.17 984.118 1172.13 971.52 1175.28 958.709C1180.45 939.206 1183.93 919.294 1185.68 899.193C1185.76 898.121 1185.76 897.046 1185.68 895.975V871.781Z" fill="#ED8D06"/>
<path d="M1185.49 895.977C1185.56 892.41 1184.82 888.873 1183.33 885.634C1181.83 882.396 1179.61 879.541 1176.85 877.288C1174.08 875.034 1170.84 873.442 1167.36 872.63C1163.89 871.819 1160.27 871.811 1156.8 872.606C1024.42 909.709 887.678 928.96 750.203 929.848C612.725 928.936 475.984 909.661 343.61 872.534C340.126 871.737 336.506 871.746 333.026 872.561C329.546 873.377 326.298 874.976 323.53 877.237C320.762 879.499 318.547 882.363 317.055 885.61C315.562 888.858 314.831 892.404 314.917 895.977H314.724V920.171H314.917C314.844 921.242 314.844 922.317 314.917 923.389C316.667 943.489 320.147 963.402 325.32 982.905C328.469 995.716 332.428 1008.31 337.175 1020.62C362.551 1085 405.144 1141.15 460.295 1182.94C542.746 1248.48 644.97 1284.16 750.3 1284.16C855.63 1284.16 957.853 1248.48 1040.31 1182.94C1095.46 1141.15 1138.05 1085 1163.42 1020.62C1168.17 1008.31 1172.13 995.716 1175.28 982.905C1180.45 963.402 1183.93 943.489 1185.68 923.389C1185.76 922.317 1185.76 921.242 1185.68 920.171V895.977H1185.49Z" fill="#F9BF06"/>
<path d="M917.572 1228.88C809.578 1268.88 690.829 1268.88 582.834 1228.88C590.794 1207.83 626.817 1137.91 750.203 1137.91C873.589 1137.91 909.613 1207.83 917.572 1228.88Z" fill="#8F030E"/>
<path d="M1163.32 996.429C1137.95 1060.8 1095.35 1116.96 1040.2 1158.74C1003.17 1188.29 961.806 1211.95 917.568 1228.9C909.608 1207.83 873.584 1137.91 750.198 1137.91C626.812 1137.91 590.789 1207.81 582.829 1228.86C538.59 1211.91 497.227 1188.24 460.193 1158.69C405.043 1116.91 362.449 1060.75 337.073 996.38C332.323 984.073 328.364 971.475 325.219 958.663C454.967 1031.14 601.602 1067.95 750.198 1065.33C898.794 1067.95 1045.43 1031.14 1175.18 958.663C1172.03 971.491 1168.08 984.105 1163.32 996.429Z" fill="url(#paint2_linear_3_697)"/>
<path d="M1156.79 872.604C1160.55 871.769 1164.46 871.858 1168.18 872.863C1171.9 873.868 1175.32 875.759 1178.15 878.375C1180.98 880.991 1183.14 884.253 1184.43 887.882C1185.72 891.512 1186.12 895.401 1185.58 899.217C1183.83 919.318 1180.35 939.231 1175.18 958.733C1045.42 1031.19 898.789 1067.97 750.199 1065.33C601.604 1067.94 454.968 1031.14 325.22 958.66C320.047 939.158 316.567 919.245 314.817 899.144C314.28 895.329 314.675 891.44 315.969 887.81C317.263 884.18 319.417 880.918 322.246 878.302C325.076 875.687 328.497 873.796 332.217 872.79C335.937 871.785 339.845 871.697 343.607 872.531C475.98 909.659 612.721 928.934 750.199 929.846C887.675 928.958 1024.42 909.707 1156.79 872.604Z" fill="url(#paint3_linear_3_697)"/>
<path d="M1156.79 872.604C1160.55 871.769 1164.46 871.858 1168.18 872.863C1171.9 873.868 1175.32 875.759 1178.15 878.375C1180.98 880.991 1183.14 884.253 1184.43 887.882C1185.72 891.512 1186.12 895.401 1185.58 899.217C1183.83 919.318 1180.35 939.231 1175.18 958.733C1045.42 1031.19 898.789 1067.97 750.199 1065.33C601.604 1067.94 454.968 1031.14 325.22 958.66C320.047 939.158 316.567 919.245 314.817 899.144C314.28 895.329 314.675 891.44 315.969 887.81C317.263 884.18 319.417 880.918 322.246 878.302C325.076 875.687 328.497 873.796 332.217 872.79C335.937 871.785 339.845 871.697 343.607 872.531C475.98 909.659 612.721 928.934 750.199 929.846C887.675 928.958 1024.42 909.707 1156.79 872.604Z" fill="url(#paint4_linear_3_697)"/>
<path d="M603.083 637.276C539.89 463.373 290.529 387.913 290.529 387.913C368.956 441.139 431.568 514.542 471.761 600.381C400.33 603.986 330.405 622.252 266.336 654.042C369.791 657.69 472.438 673.699 572.091 701.728C577.218 702.506 582.46 701.897 587.272 699.964C592.084 698.031 596.29 694.844 599.454 690.735C602.617 686.625 604.622 681.744 605.26 676.597C605.898 671.451 605.147 666.227 603.083 661.47C602.937 661.058 602.744 660.671 602.599 660.284C605.623 652.944 605.796 644.738 603.083 637.276Z" fill="#F99C06"/>
<path d="M1028.64 600.381C1068.84 514.542 1131.45 441.139 1209.88 387.913C1209.88 387.913 960.515 463.373 897.322 637.276C894.609 644.738 894.782 652.944 897.806 660.284C897.661 660.671 897.467 661.058 897.322 661.47C895.258 666.227 894.506 671.451 895.144 676.597C895.783 681.744 897.788 686.625 900.951 690.735C904.114 694.844 908.321 698.031 913.133 699.964C917.945 701.897 923.187 702.506 928.314 701.728C1027.97 673.699 1130.61 657.69 1234.07 654.042C1170 622.252 1100.07 603.986 1028.64 600.381Z" fill="#F99C06"/>
<path d="M290.529 387.913C290.529 387.913 539.89 463.373 603.083 637.276C605.147 642.034 605.898 647.257 605.26 652.404C604.622 657.55 602.617 662.432 599.454 666.541C596.29 670.65 592.084 673.837 587.272 675.77C582.46 677.704 577.218 678.313 572.091 677.534C507.035 661.688 380.044 632.8 266.336 654.042C341.511 616.878 424.415 598.034 508.269 599.05C454.116 511.869 379.336 439.357 290.529 387.913Z" fill="url(#paint5_linear_3_697)"/>
<path d="M1209.88 387.913C1209.88 387.913 960.515 463.373 897.322 637.276C895.258 642.034 894.506 647.257 895.144 652.404C895.783 657.55 897.788 662.432 900.951 666.541C904.114 670.65 908.321 673.837 913.133 675.77C917.945 677.704 923.187 678.313 928.314 677.534C993.37 661.688 1120.36 632.8 1234.07 654.042C1158.89 616.878 1075.99 598.034 992.136 599.05C1046.29 511.869 1121.07 439.357 1209.88 387.913Z" fill="url(#paint6_linear_3_697)"/>
</g>
<defs>
<filter id="filter0_iii_3_697" x="-40.4799" y="-39.8696" width="1608.49" height="1608.49" filterUnits="userSpaceOnUse" color-interpolation-filters="sRGB">
<feFlood flood-opacity="0" result="BackgroundImageFix"/>
<feBlend mode="normal" in="SourceGraphic" in2="BackgroundImageFix" result="shape"/>
<feColorMatrix in="SourceAlpha" type="matrix" values="0 0 0 0 0 0 0 0 0 0 0 0 0 0 0 0 0 0 127 0" result="hardAlpha"/>
<feOffset dx="-40.683" dy="-40.683"/>
<feGaussianBlur stdDeviation="89.5027"/>
<feComposite in2="hardAlpha" operator="arithmetic" k2="-1" k3="1"/>
<feColorMatrix type="matrix" values="0 0 0 0 0 0 0 0 0 0 0 0 0 0 0 0 0 0 0.24 0"/>
<feBlend mode="normal" in2="shape" result="effect1_innerShadow_3_697"/>
<feColorMatrix in="SourceAlpha" type="matrix" values="0 0 0 0 0 0 0 0 0 0 0 0 0 0 0 0 0 0 127 0" result="hardAlpha"/>
<feOffset dx="40.683" dy="40.683"/>
<feGaussianBlur stdDeviation="22.3757"/>
<feComposite in2="hardAlpha" operator="arithmetic" k2="-1" k3="1"/>
<feColorMatrix type="matrix" values="0 0 0 0 1 0 0 0 0 1 0 0 0 0 1 0 0 0 0.5 0"/>
<feBlend mode="normal" in2="effect1_innerShadow_3_697" result="effect2_innerShadow_3_697"/>
<feColorMatrix in="SourceAlpha" type="matrix" values="0 0 0 0 0 0 0 0 0 0 0 0 0 0 0 0 0 0 127 0" result="hardAlpha"/>
<feOffset dx="67.8051" dy="67.8051"/>
<feGaussianBlur stdDeviation="115.269"/>
<feComposite in2="hardAlpha" operator="arithmetic" k2="-1" k3="1"/>
<feColorMatrix type="matrix" values="0 0 0 0 1 0 0 0 0 1 0 0 0 0 1 0 0 0 0.15 0"/>
<feBlend mode="normal" in2="effect2_innerShadow_3_697" result="effect3_innerShadow_3_697"/>
</filter>
<linearGradient id="paint0_linear_3_697" x1="750.203" y1="8.16832" x2="750.203" y2="1508.17" gradientUnits="userSpaceOnUse">
<stop stop-color="#FFE100"/>
<stop offset="1" stop-color="#F98900"/>
</linearGradient>
<linearGradient id="paint1_linear_3_697" x1="314.72" y1="968.58" x2="1185.68" y2="968.58" gradientUnits="userSpaceOnUse">
<stop stop-color="#B8B4B2"/>
<stop offset="0.143" stop-color="#D0CCC9"/>
<stop offset="0.374" stop-color="#F2EDEA"/>
<stop offset="0.5" stop-color="#FFFAF6"/>
<stop offset="0.638" stop-color="#F9F5F1"/>
<stop offset="0.825" stop-color="#E8E5E3"/>
<stop offset="1" stop-color="#D1D1D1"/>
</linearGradient>
<linearGradient id="paint2_linear_3_697" x1="750.198" y1="1265.53" x2="750.198" y2="872.775" gradientUnits="userSpaceOnUse">
<stop stop-color="#69101B"/>
<stop offset="0.427" stop-color="#400A10"/>
</linearGradient>
<linearGradient id="paint3_linear_3_697" x1="750.199" y1="899.919" x2="750.199" y2="1062.55" gradientUnits="userSpaceOnUse">
<stop stop-color="#B8B4B2"/>
<stop offset="0.143" stop-color="#D0CCC9"/>
<stop offset="0.374" stop-color="#F2EDEA"/>
<stop offset="0.5" stop-color="#FFFAF6"/>
<stop offset="0.638" stop-color="#F9F5F1"/>
<stop offset="0.825" stop-color="#E8E5E3"/>
<stop offset="1" stop-color="#D1D1D1"/>
</linearGradient>
<linearGradient id="paint4_linear_3_697" x1="750.199" y1="899.919" x2="750.199" y2="1062.55" gradientUnits="userSpaceOnUse">
<stop stop-color="#ABABAB" stop-opacity="0.5"/>
<stop offset="0.541" stop-color="#C1C1C1" stop-opacity="0.216"/>
<stop offset="1" stop-color="#D1D1D1" stop-opacity="0"/>
</linearGradient>
<linearGradient id="paint5_linear_3_697" x1="233.264" y1="484.881" x2="576.351" y2="687.451" gradientUnits="userSpaceOnUse">
<stop stop-color="#803F02"/>
<stop offset="0.174" stop-color="#6D3602"/>
<stop offset="0.515" stop-color="#4D2601"/>
<stop offset="0.802" stop-color="#3A1C01"/>
<stop offset="1" stop-color="#331901"/>
</linearGradient>
<linearGradient id="paint6_linear_3_697" x1="1267.14" y1="484.881" x2="924.054" y2="687.451" gradientUnits="userSpaceOnUse">
<stop stop-color="#803F02"/>
<stop offset="0.174" stop-color="#6D3602"/>
<stop offset="0.515" stop-color="#4D2601"/>
<stop offset="0.802" stop-color="#3A1C01"/>
<stop offset="1" stop-color="#331901"/>
</linearGradient>
</defs>
</svg>
