<svg width="1500" height="1500" viewBox="0 0 1500 1500" fill="none" xmlns="http://www.w3.org/2000/svg">
<g filter="url(#filter0_iii_44_1818)">
<path d="M750 1500C79.8455 1500 -0.911673 919.355 0.00767285 774.194V725.806C-0.911673 580.645 79.8455 0 750 0C1420.15 0 1500.91 580.645 1499.99 725.806V774.194C1500.91 919.355 1420.15 1500 750 1500Z" fill="url(#paint0_linear_44_1818)"/>
<path d="M750 1500C79.8455 1500 -0.911673 919.355 0.00767285 774.194V725.806C-0.911673 580.645 79.8455 0 750 0C1420.15 0 1500.91 580.645 1499.99 725.806V774.194C1500.91 919.355 1420.15 1500 750 1500Z" fill="url(#paint1_linear_44_1818)" fill-opacity="0.7"/>
<path d="M750 1500C79.8455 1500 -0.911673 919.355 0.00767285 774.194V725.806C-0.911673 580.645 79.8455 0 750 0C1420.15 0 1500.91 580.645 1499.99 725.806V774.194C1500.91 919.355 1420.15 1500 750 1500Z" fill="url(#paint2_radial_44_1818)" fill-opacity="0.4"/>
<path d="M752.397 978.356C928.768 978.356 1039 1133 1039 1133C1029.83 1094.33 1014.16 1058.19 992.922 1026.67C971.681 995.148 945.286 968.886 915.276 949.412C865.282 917.662 809.291 901.03 752.397 901.03C695.503 901.03 639.512 917.662 589.518 949.412C559.508 968.886 533.113 995.148 511.872 1026.67C490.63 1058.19 474.967 1094.33 465.794 1133C465.794 1133 576.026 978.356 752.397 978.356Z" fill="#ED8D06"/>
<path d="M752.397 1004.13C858.199 1004.66 960.166 1050.51 1039 1133C1039 1133 1016.51 1039.65 915.276 975.186C865.282 943.436 809.291 926.804 752.397 926.804C695.503 926.804 639.512 943.436 589.518 975.186C488.281 1039.65 465.794 1133 465.794 1133C544.629 1050.51 646.595 1004.66 752.397 1004.13Z" fill="#F9BF06"/>
<path d="M465.794 1133C465.794 1133 488.281 1039.65 589.518 975.186C639.512 943.436 695.503 926.804 752.397 926.804C809.291 926.804 865.282 943.436 915.276 975.186C1016.51 1039.65 1039 1133 1039 1133C1039 1133 928.768 978.357 752.397 978.357C576.026 978.357 465.794 1133 465.794 1133Z" fill="url(#paint3_linear_44_1818)"/>
<path d="M1200.77 595.156C1159.35 606.495 1116.51 611.863 1073.57 611.099C1030.62 611.863 987.786 606.495 946.358 595.156C941.752 593.826 936.853 593.907 932.294 595.39C927.734 596.872 923.724 599.687 920.781 603.472C917.838 607.256 916.097 611.836 915.783 616.62C915.469 621.404 916.596 626.172 919.019 630.309C916.39 634.45 915.141 639.318 915.454 644.214C915.768 649.109 917.626 653.779 920.761 657.551C938.9 680.761 962.087 699.534 988.564 712.445C1015.04 725.356 1044.11 732.066 1073.57 732.066C1103.02 732.066 1132.09 725.356 1158.57 712.445C1185.05 699.534 1208.23 680.761 1226.37 657.551C1229.51 653.779 1231.36 649.109 1231.68 644.214C1231.99 639.318 1230.74 634.45 1228.11 630.309C1230.54 626.172 1231.66 621.404 1231.35 616.62C1231.04 611.836 1229.29 607.256 1226.35 603.472C1223.41 599.687 1219.4 596.872 1214.84 595.39C1210.28 593.907 1205.38 593.826 1200.77 595.156Z" fill="#F99C06"/>
<path d="M571.746 595.156C530.318 606.495 487.483 611.863 444.538 611.099C401.593 611.863 358.758 606.495 317.33 595.156C312.724 593.826 307.825 593.907 303.265 595.39C298.706 596.872 294.696 599.687 291.753 603.472C288.81 607.256 287.069 611.836 286.755 616.62C286.441 621.404 287.568 626.172 289.991 630.309C287.361 634.45 286.113 639.318 286.426 644.214C286.739 649.109 288.597 653.779 291.733 657.551C309.872 680.761 333.059 699.534 359.535 712.445C386.012 725.356 415.081 732.066 444.538 732.066C473.995 732.066 503.064 725.356 529.541 712.445C556.017 699.534 579.204 680.761 597.343 657.551C600.479 653.779 602.337 649.109 602.65 644.214C602.963 639.318 601.715 634.45 599.085 630.309C601.508 626.172 602.635 621.404 602.321 616.62C602.007 611.836 600.266 607.256 597.323 603.472C594.38 599.687 590.37 596.872 585.811 595.39C581.251 593.907 576.352 593.826 571.746 595.156Z" fill="#F99C06"/>
<g opacity="0.98">
<path d="M920.757 633.358C917.611 629.34 915.815 624.43 915.627 619.33C915.439 614.23 916.868 609.202 919.711 604.963C922.553 600.725 926.663 597.494 931.453 595.732C936.243 593.971 941.467 593.769 946.378 595.156C987.798 606.497 1030.62 611.866 1073.56 611.1C1116.5 611.866 1159.33 606.497 1200.75 595.156C1205.66 593.769 1210.88 593.971 1215.67 595.732C1220.46 597.494 1224.57 600.725 1227.41 604.963C1230.26 609.202 1231.69 614.23 1231.5 619.33C1231.31 624.43 1229.51 629.34 1226.37 633.358C1208.23 656.568 1185.04 675.34 1158.56 688.252C1132.09 701.163 1103.02 707.873 1073.56 707.873C1044.11 707.873 1015.04 701.163 988.56 688.252C962.083 675.34 938.896 656.568 920.757 633.358Z" fill="url(#paint4_linear_44_1818)"/>
<path d="M291.734 633.358C288.587 629.34 286.791 624.43 286.603 619.33C286.415 614.23 287.845 609.202 290.687 604.963C293.53 600.725 297.64 597.494 302.43 595.732C307.219 593.971 312.443 593.769 317.355 595.156C358.774 606.497 401.601 611.866 444.539 611.1C487.476 611.866 530.303 606.497 571.723 595.156C576.634 593.769 581.858 593.971 586.648 595.732C591.438 597.494 595.548 600.725 598.39 604.963C601.233 609.202 602.662 614.23 602.474 619.33C602.287 624.43 600.491 629.34 597.344 633.358C579.205 656.568 556.018 675.34 529.542 688.252C503.065 701.163 473.996 707.873 444.539 707.873C415.082 707.873 386.013 701.163 359.536 688.252C333.06 675.34 309.873 656.568 291.734 633.358Z" fill="url(#paint5_linear_44_1818)"/>
</g>
<path d="M980.801 344.349C1011.13 325.738 1047.19 313.382 1085.55 308.463C1123.91 303.544 1163.28 306.225 1199.89 316.251C1135.96 321.686 1075.49 341.232 1025.86 372.502C976.159 405.757 938.257 448.069 915.672 495.511C906.579 468.19 907.877 439.453 919.414 412.676C930.951 385.9 952.247 362.196 980.801 344.349Z" fill="#ED8D06"/>
<path d="M915.672 495.511C906.579 468.19 907.877 439.453 919.414 412.676C930.951 385.9 952.247 362.196 980.801 344.349C1011.13 325.738 1047.19 313.382 1085.55 308.463C1123.91 303.544 1163.28 306.225 1199.89 316.251C1131.74 318.779 1066.25 337.286 1012.34 369.257C963.229 402.325 929.337 446.589 915.672 495.511Z" fill="#3D1700"/>
<path d="M530.256 344.349C499.928 325.738 463.863 313.382 425.505 308.463C387.148 303.544 347.781 306.225 311.166 316.251C375.093 321.686 435.566 341.232 485.199 372.502C534.898 405.757 572.799 448.069 595.385 495.511C604.478 468.19 603.179 439.453 591.642 412.676C580.106 385.9 558.809 362.196 530.256 344.349Z" fill="#ED8D06"/>
<path d="M595.385 495.511C604.478 468.19 603.179 439.453 591.642 412.676C580.106 385.9 558.809 362.196 530.256 344.349C499.928 325.738 463.863 313.382 425.505 308.463C387.148 303.544 347.781 306.225 311.166 316.251C379.321 318.779 444.805 337.286 498.715 369.257C547.827 402.325 581.72 446.589 595.385 495.511Z" fill="#3D1700"/>
</g>
<defs>
<filter id="filter0_iii_44_1818" x="-40.683" y="-40.683" width="1608.49" height="1608.49" filterUnits="userSpaceOnUse" color-interpolation-filters="sRGB">
<feFlood flood-opacity="0" result="BackgroundImageFix"/>
<feBlend mode="normal" in="SourceGraphic" in2="BackgroundImageFix" result="shape"/>
<feColorMatrix in="SourceAlpha" type="matrix" values="0 0 0 0 0 0 0 0 0 0 0 0 0 0 0 0 0 0 127 0" result="hardAlpha"/>
<feOffset dx="-40.683" dy="-40.683"/>
<feGaussianBlur stdDeviation="89.5027"/>
<feComposite in2="hardAlpha" operator="arithmetic" k2="-1" k3="1"/>
<feColorMatrix type="matrix" values="0 0 0 0 0 0 0 0 0 0 0 0 0 0 0 0 0 0 0.24 0"/>
<feBlend mode="normal" in2="shape" result="effect1_innerShadow_44_1818"/>
<feColorMatrix in="SourceAlpha" type="matrix" values="0 0 0 0 0 0 0 0 0 0 0 0 0 0 0 0 0 0 127 0" result="hardAlpha"/>
<feOffset dx="40.683" dy="40.683"/>
<feGaussianBlur stdDeviation="22.3757"/>
<feComposite in2="hardAlpha" operator="arithmetic" k2="-1" k3="1"/>
<feColorMatrix type="matrix" values="0 0 0 0 1 0 0 0 0 1 0 0 0 0 1 0 0 0 0.5 0"/>
<feBlend mode="normal" in2="effect1_innerShadow_44_1818" result="effect2_innerShadow_44_1818"/>
<feColorMatrix in="SourceAlpha" type="matrix" values="0 0 0 0 0 0 0 0 0 0 0 0 0 0 0 0 0 0 127 0" result="hardAlpha"/>
<feOffset dx="67.8051" dy="67.8051"/>
<feGaussianBlur stdDeviation="115.269"/>
<feComposite in2="hardAlpha" operator="arithmetic" k2="-1" k3="1"/>
<feColorMatrix type="matrix" values="0 0 0 0 1 0 0 0 0 1 0 0 0 0 1 0 0 0 0.15 0"/>
<feBlend mode="normal" in2="effect2_innerShadow_44_1818" result="effect3_innerShadow_44_1818"/>
</filter>
<linearGradient id="paint0_linear_44_1818" x1="750" y1="7.35484" x2="750" y2="1507.35" gradientUnits="userSpaceOnUse">
<stop stop-color="#FFE100"/>
<stop offset="1" stop-color="#F98900"/>
</linearGradient>
<linearGradient id="paint1_linear_44_1818" x1="750" y1="1487.9" x2="750" y2="4.25801" gradientUnits="userSpaceOnUse">
<stop stop-color="#FFE100"/>
<stop offset="0.685" stop-color="#F98900"/>
<stop offset="0.89" stop-color="#DD2B29"/>
<stop offset="1" stop-color="#960500"/>
</linearGradient>
<radialGradient id="paint2_radial_44_1818" cx="0" cy="0" r="1" gradientUnits="userSpaceOnUse" gradientTransform="translate(750 750) rotate(90) scale(750)">
<stop offset="0.735" stop-color="#FFC400"/>
<stop offset="1" stop-color="#F09B12" stop-opacity="0"/>
</radialGradient>
<linearGradient id="paint3_linear_44_1818" x1="752.397" y1="919.412" x2="752.397" y2="1124.42" gradientUnits="userSpaceOnUse">
<stop stop-color="#803F02"/>
<stop offset="0.174" stop-color="#6D3602"/>
<stop offset="0.515" stop-color="#4D2601"/>
<stop offset="0.802" stop-color="#3A1C01"/>
<stop offset="1" stop-color="#331901"/>
</linearGradient>
<linearGradient id="paint4_linear_44_1818" x1="1073.56" y1="708.333" x2="1073.56" y2="619.785" gradientUnits="userSpaceOnUse">
<stop stop-color="#803F02"/>
<stop offset="0.174" stop-color="#6D3602"/>
<stop offset="0.515" stop-color="#4D2601"/>
<stop offset="0.802" stop-color="#3A1C01"/>
<stop offset="1" stop-color="#331901"/>
</linearGradient>
<linearGradient id="paint5_linear_44_1818" x1="444.539" y1="706.059" x2="444.539" y2="614.414" gradientUnits="userSpaceOnUse">
<stop stop-color="#803F02"/>
<stop offset="0.174" stop-color="#6D3602"/>
<stop offset="0.515" stop-color="#4D2601"/>
<stop offset="0.802" stop-color="#3A1C01"/>
<stop offset="1" stop-color="#331901"/>
</linearGradient>
</defs>
</svg>
