<svg width="1500" height="1500" viewBox="0 0 1500 1500" fill="none" xmlns="http://www.w3.org/2000/svg">
<g filter="url(#filter0_iii_42_102)">
<path d="M750 1500C79.8455 1500 -0.911673 919.355 0.00767285 774.194V725.806C-0.911673 580.645 79.8455 0 750 0C1420.15 0 1500.91 580.645 1499.99 725.806V774.194C1500.91 919.355 1420.15 1500 750 1500Z" fill="url(#paint0_linear_42_102)"/>
<g opacity="0.3">
<path opacity="0.5" d="M701.613 991.935C701.206 905.041 667.42 821.628 607.241 758.945C547.063 696.263 465.096 659.106 378.292 655.16C291.488 651.214 206.488 680.78 140.871 737.743C75.253 794.707 34.0377 874.711 25.7485 961.209C54.9257 1082.55 113.973 1194.68 197.521 1287.39C249.049 1316.29 307.246 1331.21 366.325 1330.65C425.405 1330.09 483.309 1314.08 534.282 1284.2C585.254 1254.33 627.519 1211.63 656.874 1160.36C686.23 1109.08 701.654 1051.02 701.613 991.935Z" fill="url(#paint1_radial_42_102)"/>
<path opacity="0.5" d="M1472.38 997.875C1471.97 910.981 1438.18 827.568 1378.01 764.885C1317.83 702.203 1235.86 665.046 1149.06 661.1C1062.25 657.154 977.252 686.72 911.634 743.683C846.017 800.647 804.801 880.651 796.512 967.149C825.689 1088.49 884.737 1200.62 968.285 1293.33C1019.81 1322.23 1078.01 1337.15 1137.09 1336.59C1196.17 1336.03 1254.07 1320.02 1305.05 1290.14C1356.02 1260.27 1398.28 1217.57 1427.64 1166.3C1456.99 1115.02 1472.42 1056.96 1472.38 997.875Z" fill="url(#paint2_radial_42_102)"/>
<path d="M752.783 1157.14C1113.55 1157.14 1406 1005.5 1406 818.432C1406 631.368 1113.55 479.722 752.783 479.722C392.02 479.722 99.564 631.368 99.564 818.432C99.564 1005.5 392.02 1157.14 752.783 1157.14Z" fill="url(#paint3_radial_42_102)"/>
<path d="M289.641 1158.58C394.617 1158.58 479.717 1069.42 479.717 959.445C479.717 849.469 394.617 760.315 289.641 760.315C184.664 760.315 99.564 849.469 99.564 959.445C99.564 1069.42 184.664 1158.58 289.641 1158.58Z" fill="url(#paint4_radial_42_102)"/>
<path d="M1158.56 1149.52C1263.54 1149.52 1348.64 1060.37 1348.64 950.394C1348.64 840.417 1263.54 751.264 1158.56 751.264C1053.59 751.264 968.486 840.417 968.486 950.394C968.486 1060.37 1053.59 1149.52 1158.56 1149.52Z" fill="url(#paint5_radial_42_102)"/>
</g>
<path d="M749.999 1088.71C1110.76 1088.71 1403.22 937.065 1403.22 750.001C1403.22 562.937 1110.76 411.292 749.999 411.292C389.236 411.292 96.7798 562.937 96.7798 750.001C96.7798 937.065 389.236 1088.71 749.999 1088.71Z" fill="url(#paint6_radial_42_102)"/>
<path d="M1258.06 613.721C1040.32 516.947 967.739 420.173 967.739 420.173C967.739 420.173 967.739 662.108 1258.06 613.721Z" fill="#A3CD3B"/>
<path d="M1258.06 613.721C1040.32 516.947 967.739 420.173 967.739 420.173C967.739 420.173 991.933 637.915 1258.06 613.721Z" fill="url(#paint7_linear_42_102)"/>
<path d="M241.94 613.721C459.68 516.947 532.26 420.173 532.26 420.173C532.26 420.173 532.26 662.108 241.94 613.721Z" fill="#A3CD3B"/>
<path d="M241.94 613.721C459.68 516.947 532.26 420.173 532.26 420.173C532.26 420.173 508.067 637.915 241.94 613.721Z" fill="url(#paint8_linear_42_102)"/>
<path d="M1016.13 783.076C1056.21 783.076 1088.71 739.749 1088.71 686.302C1088.71 632.855 1056.21 589.528 1016.13 589.528C976.042 589.528 943.547 632.855 943.547 686.302C943.547 739.749 976.042 783.076 1016.13 783.076Z" fill="url(#paint9_linear_42_102)"/>
<path d="M1016.13 589.529C1053.17 589.529 1083.29 626.52 1087.79 674.206C1088.17 670.19 1088.71 666.246 1088.71 662.109C1088.71 608.641 1056.29 565.335 1016.13 565.335C975.966 565.335 943.547 608.641 943.547 662.109C943.547 666.246 944.079 670.19 944.466 674.206C948.966 626.52 979.087 589.529 1016.13 589.529Z" fill="#6DBC21"/>
<path d="M1016.13 783.076C979.087 783.076 948.966 746.084 944.466 698.398C944.079 702.415 943.547 706.358 943.547 710.495C943.547 763.963 975.966 807.269 1016.13 807.269C1056.29 807.269 1088.71 763.963 1088.71 710.495C1088.71 706.358 1088.17 702.415 1087.79 698.398C1083.29 746.084 1053.17 783.076 1016.13 783.076Z" fill="#A0DA18"/>
<path d="M1016.13 637.915C1050 637.915 1078.06 668.81 1086.14 710.496C1087.77 702.532 1088.63 694.43 1088.71 686.302C1088.71 632.834 1056.29 589.528 1016.13 589.528C975.966 589.528 943.547 632.834 943.547 686.302C943.625 694.43 944.484 702.532 946.111 710.496C954.192 668.81 982.256 637.915 1016.13 637.915Z" fill="black"/>
<path d="M483.874 783.076C523.959 783.076 556.454 739.749 556.454 686.302C556.454 632.855 523.959 589.528 483.874 589.528C443.789 589.528 411.294 632.855 411.294 686.302C411.294 739.749 443.789 783.076 483.874 783.076Z" fill="url(#paint10_linear_42_102)"/>
<path d="M483.874 589.529C520.914 589.529 551.034 626.52 555.534 674.206C555.922 670.19 556.454 666.246 556.454 662.109C556.454 608.641 524.035 565.335 483.874 565.335C443.713 565.335 411.294 608.641 411.294 662.109C411.294 666.246 411.826 670.19 412.213 674.206C416.713 626.52 446.834 589.529 483.874 589.529Z" fill="#6DBC21"/>
<path d="M483.874 783.076C446.834 783.076 416.713 746.084 412.213 698.398C411.826 702.415 411.294 706.358 411.294 710.495C411.294 763.963 443.713 807.269 483.874 807.269C524.035 807.269 556.454 763.963 556.454 710.495C556.454 706.358 555.922 702.415 555.534 698.398C551.034 746.084 520.914 783.076 483.874 783.076Z" fill="#A0DA18"/>
<path d="M483.874 637.915C517.744 637.915 545.809 668.81 553.889 710.496C555.517 702.532 556.376 694.43 556.454 686.302C556.454 632.834 524.035 589.528 483.874 589.528C443.713 589.528 411.294 632.834 411.294 686.302C411.372 694.43 412.231 702.532 413.858 710.496C421.939 668.81 450.003 637.915 483.874 637.915Z" fill="black"/>
<path d="M949.399 1069.53C929.17 1051.52 858.458 996.3 752.186 996.3C645.914 996.3 575.202 1051.52 554.973 1069.53C551.08 1072.98 548.978 1077.2 548.99 1081.54C549.403 1085.52 551.341 1089.37 554.616 1092.7C557.891 1096.03 562.39 1098.73 567.675 1100.54C572.96 1102.35 578.85 1103.2 584.771 1103.02C590.692 1102.84 596.442 1101.62 601.46 1099.5C626.295 1089.73 655.645 1078.69 681.97 1069.06C703.562 1061.25 727.684 1057.16 752.186 1057.16C776.688 1057.16 800.81 1061.25 822.402 1069.06C848.682 1078.72 878.145 1089.76 902.912 1099.5C907.93 1101.62 913.679 1102.84 919.6 1103.02C925.522 1103.2 931.412 1102.35 936.697 1100.54C941.982 1098.73 946.481 1096.03 949.756 1092.7C953.031 1089.37 954.969 1085.52 955.382 1081.54C955.394 1077.2 953.292 1072.98 949.399 1069.53Z" fill="#4D8118"/>
<path d="M949.399 1060.48C929.17 1042.47 858.458 987.249 752.186 987.249C645.914 987.249 575.202 1042.47 554.973 1060.48C551.08 1063.93 548.978 1068.15 548.99 1072.49C549.403 1076.47 551.341 1080.32 554.616 1083.65C557.891 1086.98 562.39 1089.68 567.675 1091.49C572.96 1093.3 578.85 1094.15 584.771 1093.97C590.692 1093.79 596.442 1092.57 601.46 1090.45C626.295 1080.67 655.645 1069.64 681.97 1060C703.562 1052.2 727.684 1048.11 752.186 1048.11C776.688 1048.11 800.81 1052.2 822.402 1060C848.682 1069.67 878.145 1080.7 902.912 1090.45C907.93 1092.57 913.679 1093.79 919.6 1093.97C925.522 1094.15 931.412 1093.3 936.697 1091.49C941.982 1089.68 946.481 1086.98 949.756 1083.65C953.031 1080.32 954.969 1076.47 955.382 1072.49C955.394 1068.15 953.292 1063.93 949.399 1060.48Z" fill="url(#paint11_linear_42_102)"/>
<path d="M594.979 1077.7C599.669 1047.2 595.404 1016.16 582.592 987.533C569.78 958.907 548.849 933.654 521.8 914.187C545.935 960.421 554.265 1011.85 545.774 1062.18C535.314 1113.63 510.274 1161.91 472.977 1202.54C504.69 1194.12 533.017 1177.9 554.628 1155.78C576.239 1133.67 590.238 1106.58 594.979 1077.7Z" fill="#668D3E"/>
<path d="M472.977 1202.54C504.69 1194.12 533.017 1177.9 554.628 1155.78C576.239 1133.67 590.238 1106.58 594.979 1077.7C599.669 1047.2 595.404 1016.16 582.592 987.533C569.78 958.907 548.849 933.654 521.8 914.187C550.819 961.735 562.516 1016 555.3 1069.61C544.757 1120.56 515.894 1167.16 472.977 1202.54Z" fill="#151919"/>
<path d="M907.532 1077.7C902.843 1047.2 907.108 1016.16 919.92 987.533C932.732 958.907 953.662 933.654 980.712 914.187C956.577 960.421 948.246 1011.85 956.738 1062.18C967.197 1113.63 992.238 1161.91 1029.53 1202.54C997.821 1194.12 969.495 1177.9 947.884 1155.78C926.272 1133.67 912.274 1106.58 907.532 1077.7Z" fill="#668D3E"/>
<path d="M1029.53 1202.54C997.821 1194.12 969.495 1177.9 947.884 1155.78C926.272 1133.67 912.274 1106.58 907.532 1077.7C902.843 1047.2 907.108 1016.16 919.92 987.533C932.732 958.907 953.662 933.654 980.712 914.187C951.692 961.735 939.996 1016 947.212 1069.61C957.755 1120.56 986.617 1167.16 1029.53 1202.54Z" fill="#151919"/>
</g>
<defs>
<filter id="filter0_iii_42_102" x="-40.683" y="-40.683" width="1608.49" height="1608.49" filterUnits="userSpaceOnUse" color-interpolation-filters="sRGB">
<feFlood flood-opacity="0" result="BackgroundImageFix"/>
<feBlend mode="normal" in="SourceGraphic" in2="BackgroundImageFix" result="shape"/>
<feColorMatrix in="SourceAlpha" type="matrix" values="0 0 0 0 0 0 0 0 0 0 0 0 0 0 0 0 0 0 127 0" result="hardAlpha"/>
<feOffset dx="-40.683" dy="-40.683"/>
<feGaussianBlur stdDeviation="89.5027"/>
<feComposite in2="hardAlpha" operator="arithmetic" k2="-1" k3="1"/>
<feColorMatrix type="matrix" values="0 0 0 0 0 0 0 0 0 0 0 0 0 0 0 0 0 0 0.24 0"/>
<feBlend mode="normal" in2="shape" result="effect1_innerShadow_42_102"/>
<feColorMatrix in="SourceAlpha" type="matrix" values="0 0 0 0 0 0 0 0 0 0 0 0 0 0 0 0 0 0 127 0" result="hardAlpha"/>
<feOffset dx="40.683" dy="40.683"/>
<feGaussianBlur stdDeviation="22.3757"/>
<feComposite in2="hardAlpha" operator="arithmetic" k2="-1" k3="1"/>
<feColorMatrix type="matrix" values="0 0 0 0 1 0 0 0 0 1 0 0 0 0 1 0 0 0 0.5 0"/>
<feBlend mode="normal" in2="effect1_innerShadow_42_102" result="effect2_innerShadow_42_102"/>
<feColorMatrix in="SourceAlpha" type="matrix" values="0 0 0 0 0 0 0 0 0 0 0 0 0 0 0 0 0 0 127 0" result="hardAlpha"/>
<feOffset dx="67.8051" dy="67.8051"/>
<feGaussianBlur stdDeviation="115.269"/>
<feComposite in2="hardAlpha" operator="arithmetic" k2="-1" k3="1"/>
<feColorMatrix type="matrix" values="0 0 0 0 1 0 0 0 0 1 0 0 0 0 1 0 0 0 0.15 0"/>
<feBlend mode="normal" in2="effect2_innerShadow_42_102" result="effect3_innerShadow_42_102"/>
</filter>
<linearGradient id="paint0_linear_42_102" x1="750" y1="7.35484" x2="750" y2="1507.35" gradientUnits="userSpaceOnUse">
<stop stop-color="#56B000"/>
<stop offset="0.36" stop-color="#87CA45"/>
<stop offset="0.81" stop-color="#FFE100"/>
<stop offset="1" stop-color="#F98900"/>
</linearGradient>
<radialGradient id="paint1_radial_42_102" cx="0" cy="0" r="1" gradientUnits="userSpaceOnUse" gradientTransform="translate(362.679 991.956) scale(338.774 338.778)">
<stop offset="0.705" stop-color="#099305"/>
<stop offset="1" stop-color="#ED8D06" stop-opacity="0"/>
</radialGradient>
<radialGradient id="paint2_radial_42_102" cx="0" cy="0" r="1" gradientUnits="userSpaceOnUse" gradientTransform="translate(1133.44 997.896) scale(338.774 338.778)">
<stop offset="0.705" stop-color="#099305"/>
<stop offset="1" stop-color="#ED8D06" stop-opacity="0"/>
</radialGradient>
<radialGradient id="paint3_radial_42_102" cx="0" cy="0" r="1" gradientUnits="userSpaceOnUse" gradientTransform="translate(752.771 818.596) scale(653.219 338.806)">
<stop stop-color="#56B000"/>
<stop offset="1" stop-color="#F0D94C" stop-opacity="0"/>
</radialGradient>
<radialGradient id="paint4_radial_42_102" cx="0" cy="0" r="1" gradientUnits="userSpaceOnUse" gradientTransform="translate(289.637 959.541) scale(190.077 199.187)">
<stop stop-color="#56B000"/>
<stop offset="1" stop-color="#F0D94C" stop-opacity="0"/>
</radialGradient>
<radialGradient id="paint5_radial_42_102" cx="0" cy="0" r="1" gradientUnits="userSpaceOnUse" gradientTransform="translate(1158.56 950.49) scale(190.077 199.187)">
<stop stop-color="#56B000"/>
<stop offset="1" stop-color="#F0D94C" stop-opacity="0"/>
</radialGradient>
<radialGradient id="paint6_radial_42_102" cx="0" cy="0" r="1" gradientUnits="userSpaceOnUse" gradientTransform="translate(749.987 750.165) scale(653.219 338.806)">
<stop stop-color="#56B000"/>
<stop offset="1" stop-color="#5AD347" stop-opacity="0"/>
</radialGradient>
<linearGradient id="paint7_linear_42_102" x1="1119.14" y1="508.648" x2="1071.96" y2="571.261" gradientUnits="userSpaceOnUse">
<stop offset="0.005" stop-color="#414D4D"/>
<stop offset="0.206" stop-color="#3A4545"/>
<stop offset="0.522" stop-color="#272E2E"/>
<stop offset="0.914" stop-color="#080909"/>
<stop offset="1"/>
</linearGradient>
<linearGradient id="paint8_linear_42_102" x1="380.858" y1="508.648" x2="428.036" y2="571.261" gradientUnits="userSpaceOnUse">
<stop offset="0.005" stop-color="#414D4D"/>
<stop offset="0.206" stop-color="#3A4545"/>
<stop offset="0.522" stop-color="#272E2E"/>
<stop offset="0.914" stop-color="#080909"/>
<stop offset="1"/>
</linearGradient>
<linearGradient id="paint9_linear_42_102" x1="1016.13" y1="781.649" x2="1016.13" y2="595.092" gradientUnits="userSpaceOnUse">
<stop offset="0.005" stop-color="#414D4D"/>
<stop offset="0.206" stop-color="#3A4545"/>
<stop offset="0.522" stop-color="#272E2E"/>
<stop offset="0.914" stop-color="#080909"/>
<stop offset="1"/>
</linearGradient>
<linearGradient id="paint10_linear_42_102" x1="483.874" y1="781.649" x2="483.874" y2="595.092" gradientUnits="userSpaceOnUse">
<stop offset="0.005" stop-color="#414D4D"/>
<stop offset="0.206" stop-color="#3A4545"/>
<stop offset="0.522" stop-color="#272E2E"/>
<stop offset="0.914" stop-color="#080909"/>
<stop offset="1"/>
</linearGradient>
<linearGradient id="paint11_linear_42_102" x1="752.186" y1="1093.79" x2="752.186" y2="1003.64" gradientUnits="userSpaceOnUse">
<stop offset="1" stop-color="#151919"/>
</linearGradient>
</defs>
</svg>
