<svg width="1501" height="1501" viewBox="0 0 1501 1501" fill="none" xmlns="http://www.w3.org/2000/svg">
<g filter="url(#filter0_iii_3_681)">
<path d="M750.203 1500.21C80.0487 1500.21 -0.708548 919.568 0.210798 774.406V726.019C-0.708548 580.858 80.0487 0.212646 750.203 0.212646C1420.36 0.212646 1501.11 580.858 1500.2 726.019V774.406C1501.11 919.568 1420.36 1500.21 750.203 1500.21Z" fill="url(#paint0_linear_3_681)"/>
<path d="M1234.07 1113.12C1367.68 1113.12 1476 1004.8 1476 871.183C1476 737.566 1367.68 629.247 1234.07 629.247C1100.45 629.247 992.133 737.566 992.133 871.183C992.133 1004.8 1100.45 1113.12 1234.07 1113.12Z" fill="url(#paint1_radial_3_681)"/>
<path d="M268.933 1112.87C402.549 1112.87 510.866 1004.55 510.866 870.935C510.866 737.318 402.549 629 268.933 629C135.317 629 27 737.318 27 870.935C27 1004.55 135.317 1112.87 268.933 1112.87Z" fill="url(#paint2_radial_3_681)"/>
<path d="M1137.3 617.152C1137.3 544.57 1088.91 471.988 1016.33 471.988C943.746 471.988 895.358 544.57 895.358 617.152C895.358 621.531 895.697 625.184 895.866 629.249C895.552 633.289 895.358 637.354 895.358 641.346C895.358 713.928 919.552 738.122 919.552 738.122C919.552 738.122 943.746 592.958 1016.33 592.958C1088.91 592.958 1113.1 738.122 1113.1 738.122C1113.1 738.122 1137.3 713.928 1137.3 641.346C1137.3 637.306 1137.1 633.241 1136.79 629.249C1136.96 625.184 1137.3 621.531 1137.3 617.152Z" fill="#ED8D06"/>
<path d="M484.076 471.988C411.495 471.988 363.107 544.57 363.107 617.152C363.107 621.531 363.446 625.184 363.615 629.249C363.301 633.289 363.107 637.354 363.107 641.346C363.107 713.928 387.301 738.122 387.301 738.122C387.301 738.122 411.495 592.958 484.076 592.958C556.658 592.958 580.852 738.122 580.852 738.122C580.852 738.122 605.046 713.928 605.046 641.346C605.046 637.306 604.852 633.241 604.537 629.249C604.707 625.233 605.046 621.579 605.046 617.152C605.046 544.57 556.658 471.988 484.076 471.988Z" fill="#ED8D06"/>
<path d="M919.552 713.928C919.552 713.928 895.358 689.734 895.358 617.152C895.358 544.57 943.746 471.988 1016.33 471.988C1088.91 471.988 1137.3 544.57 1137.3 617.152C1137.3 689.734 1113.1 713.928 1113.1 713.928C1113.1 713.928 1088.91 568.764 1016.33 568.764C943.746 568.764 919.552 713.928 919.552 713.928Z" fill="url(#paint3_linear_3_681)"/>
<path d="M387.301 713.928C387.301 713.928 363.107 689.734 363.107 617.152C363.107 544.57 411.495 471.988 484.076 471.988C556.658 471.988 605.046 544.57 605.046 617.152C605.046 689.734 580.852 713.928 580.852 713.928C580.852 713.928 556.658 568.764 484.076 568.764C411.495 568.764 387.301 713.928 387.301 713.928Z" fill="url(#paint4_linear_3_681)"/>
<path d="M750.2 1088.92C476.961 1088.92 363.107 895.375 363.107 895.375C388.926 984.514 449.012 1059.79 530.211 1104.72C597.553 1141.96 673.247 1161.5 750.2 1161.5C827.154 1161.5 902.847 1141.96 970.19 1104.72C1051.39 1059.79 1111.47 984.514 1137.29 895.375C1137.29 895.375 1023.44 1088.92 750.2 1088.92Z" fill="#F9BF06"/>
<path d="M750.2 1064.73C476.961 1064.73 363.107 895.375 363.107 895.375C363.107 895.375 393.494 1004.9 530.211 1080.53C597.553 1117.77 673.247 1137.3 750.2 1137.3C827.154 1137.3 902.847 1117.77 970.19 1080.53C1106.91 1004.9 1137.29 895.375 1137.29 895.375C1137.29 895.375 1023.44 1064.73 750.2 1064.73Z" fill="#ED8D06"/>
<path d="M1137.29 895.375C1137.29 895.375 1106.91 1004.9 970.19 1080.53C902.847 1117.77 827.154 1137.3 750.2 1137.3C673.247 1137.3 597.553 1117.77 530.211 1080.53C393.494 1004.9 363.107 895.375 363.107 895.375C363.107 895.375 476.961 1088.92 750.2 1088.92C1023.44 1088.92 1137.29 895.375 1137.29 895.375Z" fill="url(#paint5_linear_3_681)"/>
<path d="M375.204 257.803C339.663 273.602 308.769 298.252 285.473 329.397C262.176 360.542 247.257 397.142 242.141 435.698C277.753 382.133 328.193 340.099 387.3 314.73C448.748 290.491 515.324 282.169 580.847 290.536C553.239 266.075 519.223 250 482.795 244.202C446.368 238.403 409.042 243.122 375.204 257.803Z" fill="#ED8D06"/>
<path d="M1125.2 257.803C1160.74 273.602 1191.64 298.252 1214.93 329.397C1238.23 360.542 1253.15 397.142 1258.26 435.698C1222.65 382.133 1172.21 340.099 1113.1 314.73C1051.66 290.491 985.081 282.169 919.558 290.536C947.166 266.075 981.182 250 1017.61 244.202C1054.04 238.403 1091.36 243.122 1125.2 257.803Z" fill="#ED8D06"/>
<path d="M919.558 290.536C947.166 266.075 981.182 250 1017.61 244.202C1054.04 238.403 1091.36 243.122 1125.2 257.803C1160.74 273.602 1191.64 298.252 1214.93 329.397C1238.23 360.542 1253.15 397.142 1258.26 435.698C1224.1 376.632 1172.57 329.522 1110.68 300.77C1049.72 276.941 982.715 273.353 919.558 290.536Z" fill="#3D1700"/>
<path d="M580.847 290.536C553.239 266.075 519.223 250 482.795 244.202C446.368 238.403 409.042 243.122 375.204 257.803C339.663 273.602 308.769 298.252 285.473 329.397C262.176 360.542 247.257 397.142 242.141 435.698C276.309 376.632 327.837 329.522 389.72 300.77C450.681 276.941 517.69 273.353 580.847 290.536Z" fill="#3D1700"/>
</g>
<defs>
<filter id="filter0_iii_3_681" x="-40.4799" y="-40.4704" width="1608.49" height="1608.49" filterUnits="userSpaceOnUse" color-interpolation-filters="sRGB">
<feFlood flood-opacity="0" result="BackgroundImageFix"/>
<feBlend mode="normal" in="SourceGraphic" in2="BackgroundImageFix" result="shape"/>
<feColorMatrix in="SourceAlpha" type="matrix" values="0 0 0 0 0 0 0 0 0 0 0 0 0 0 0 0 0 0 127 0" result="hardAlpha"/>
<feOffset dx="-40.683" dy="-40.683"/>
<feGaussianBlur stdDeviation="89.5027"/>
<feComposite in2="hardAlpha" operator="arithmetic" k2="-1" k3="1"/>
<feColorMatrix type="matrix" values="0 0 0 0 0 0 0 0 0 0 0 0 0 0 0 0 0 0 0.24 0"/>
<feBlend mode="normal" in2="shape" result="effect1_innerShadow_3_681"/>
<feColorMatrix in="SourceAlpha" type="matrix" values="0 0 0 0 0 0 0 0 0 0 0 0 0 0 0 0 0 0 127 0" result="hardAlpha"/>
<feOffset dx="40.683" dy="40.683"/>
<feGaussianBlur stdDeviation="22.3757"/>
<feComposite in2="hardAlpha" operator="arithmetic" k2="-1" k3="1"/>
<feColorMatrix type="matrix" values="0 0 0 0 1 0 0 0 0 1 0 0 0 0 1 0 0 0 0.5 0"/>
<feBlend mode="normal" in2="effect1_innerShadow_3_681" result="effect2_innerShadow_3_681"/>
<feColorMatrix in="SourceAlpha" type="matrix" values="0 0 0 0 0 0 0 0 0 0 0 0 0 0 0 0 0 0 127 0" result="hardAlpha"/>
<feOffset dx="67.8051" dy="67.8051"/>
<feGaussianBlur stdDeviation="115.269"/>
<feComposite in2="hardAlpha" operator="arithmetic" k2="-1" k3="1"/>
<feColorMatrix type="matrix" values="0 0 0 0 1 0 0 0 0 1 0 0 0 0 1 0 0 0 0.15 0"/>
<feBlend mode="normal" in2="effect2_innerShadow_3_681" result="effect3_innerShadow_3_681"/>
</filter>
<linearGradient id="paint0_linear_3_681" x1="750.203" y1="7.56749" x2="750.203" y2="1507.57" gradientUnits="userSpaceOnUse">
<stop stop-color="#FFE100"/>
<stop offset="1" stop-color="#F98900"/>
</linearGradient>
<radialGradient id="paint1_radial_3_681" cx="0" cy="0" r="1" gradientUnits="userSpaceOnUse" gradientTransform="translate(1233.48 870.764) scale(241.836 241.839)">
<stop stop-color="#FF6600"/>
<stop offset="0.098" stop-color="#FF6800" stop-opacity="0.978"/>
<stop offset="0.222" stop-color="#FE6D01" stop-opacity="0.916"/>
<stop offset="0.36" stop-color="#FE7501" stop-opacity="0.814"/>
<stop offset="0.509" stop-color="#FD8003" stop-opacity="0.672"/>
<stop offset="0.666" stop-color="#FC8E04" stop-opacity="0.488"/>
<stop offset="0.83" stop-color="#FBA006" stop-opacity="0.264"/>
<stop offset="0.997" stop-color="#F9B508" stop-opacity="0.01"/>
<stop offset="1" stop-color="#F9B508" stop-opacity="0"/>
</radialGradient>
<radialGradient id="paint2_radial_3_681" cx="0" cy="0" r="1" gradientUnits="userSpaceOnUse" gradientTransform="translate(268.347 870.516) scale(241.836 241.839)">
<stop stop-color="#FF6600"/>
<stop offset="0.098" stop-color="#FF6800" stop-opacity="0.978"/>
<stop offset="0.222" stop-color="#FE6D01" stop-opacity="0.916"/>
<stop offset="0.36" stop-color="#FE7501" stop-opacity="0.814"/>
<stop offset="0.509" stop-color="#FD8003" stop-opacity="0.672"/>
<stop offset="0.666" stop-color="#FC8E04" stop-opacity="0.488"/>
<stop offset="0.83" stop-color="#FBA006" stop-opacity="0.264"/>
<stop offset="0.997" stop-color="#F9B508" stop-opacity="0.01"/>
<stop offset="1" stop-color="#F9B508" stop-opacity="0"/>
</radialGradient>
<linearGradient id="paint3_linear_3_681" x1="1016.33" y1="676.742" x2="1016.33" y2="481.81" gradientUnits="userSpaceOnUse">
<stop stop-color="#803F02"/>
<stop offset="0.174" stop-color="#6D3602"/>
<stop offset="0.515" stop-color="#4D2601"/>
<stop offset="0.802" stop-color="#3A1C01"/>
<stop offset="1" stop-color="#331901"/>
</linearGradient>
<linearGradient id="paint4_linear_3_681" x1="484.076" y1="676.742" x2="484.076" y2="481.81" gradientUnits="userSpaceOnUse">
<stop stop-color="#803F02"/>
<stop offset="0.174" stop-color="#6D3602"/>
<stop offset="0.515" stop-color="#4D2601"/>
<stop offset="0.802" stop-color="#3A1C01"/>
<stop offset="1" stop-color="#331901"/>
</linearGradient>
<linearGradient id="paint5_linear_3_681" x1="750.2" y1="1150.62" x2="750.2" y2="1013.56" gradientUnits="userSpaceOnUse">
<stop stop-color="#803F02"/>
<stop offset="0.174" stop-color="#6D3602"/>
<stop offset="0.515" stop-color="#4D2601"/>
<stop offset="0.802" stop-color="#3A1C01"/>
<stop offset="1" stop-color="#331901"/>
</linearGradient>
</defs>
</svg>
