<svg width="1501" height="1501" viewBox="0 0 1501 1501" fill="none" xmlns="http://www.w3.org/2000/svg">
<g filter="url(#filter0_iii_3_763)">
<path d="M750.349 1500.38C80.1942 1500.38 -0.56304 919.738 0.356306 774.576V726.189C-0.56304 581.028 80.1942 0.382812 750.349 0.382812C1420.5 0.382812 1501.26 581.028 1500.34 726.189V774.576C1501.26 919.738 1420.5 1500.38 750.349 1500.38Z" fill="url(#paint0_linear_3_763)"/>
<path d="M992.281 1140.44C992.281 1140.44 943.894 1019.47 750.348 1019.47C556.802 1019.47 508.415 1140.44 508.415 1140.44C584.722 1107.35 667.187 1090.86 750.348 1092.05C833.509 1090.86 915.975 1107.35 992.281 1140.44Z" fill="#ED7700"/>
<path d="M1258.41 614.104C1040.67 517.33 968.09 420.556 968.09 420.556C968.09 420.556 968.09 662.491 1258.41 614.104Z" fill="#FED101"/>
<path d="M1258.41 614.104C1040.67 517.33 968.09 420.556 968.09 420.556C968.09 420.556 992.283 638.298 1258.41 614.104Z" fill="url(#paint1_linear_3_763)"/>
<path d="M242.289 614.104C460.029 517.33 532.609 420.556 532.609 420.556C532.609 420.556 532.609 662.491 242.289 614.104Z" fill="#FED101"/>
<path d="M242.289 614.104C460.029 517.33 532.609 420.556 532.609 420.556C532.609 420.556 508.415 638.298 242.289 614.104Z" fill="url(#paint2_linear_3_763)"/>
<path d="M750.348 1043.67C556.802 1043.67 508.415 1140.44 508.415 1140.44C587.914 1123.44 669.057 1115.33 750.348 1116.25C831.64 1115.33 912.782 1123.44 992.281 1140.44C992.281 1140.44 943.894 1043.67 750.348 1043.67Z" fill="#FFB806"/>
<path d="M992.281 1140.44C992.281 1140.44 943.894 1043.67 750.348 1043.67C556.802 1043.67 508.415 1140.44 508.415 1140.44C584.722 1107.36 667.187 1090.86 750.348 1092.05C833.509 1090.86 915.975 1107.36 992.281 1140.44Z" fill="url(#paint3_linear_3_763)"/>
<path d="M1016.48 783.464C1056.56 783.464 1089.06 740.136 1089.06 686.688C1089.06 633.24 1056.56 589.912 1016.48 589.912C976.392 589.912 943.896 633.24 943.896 686.688C943.896 740.136 976.392 783.464 1016.48 783.464Z" fill="url(#paint4_linear_3_763)"/>
<path d="M1016.48 589.91C1053.52 589.91 1083.64 626.903 1088.14 674.589C1088.53 670.573 1089.06 666.629 1089.06 662.492C1089.06 609.023 1056.64 565.716 1016.48 565.716C976.316 565.716 943.896 609.023 943.896 662.492C943.896 666.629 944.429 670.573 944.816 674.589C949.316 626.903 979.437 589.91 1016.48 589.91Z" fill="#FED101"/>
<path d="M1016.48 783.459C979.437 783.459 949.316 746.467 944.816 698.78C944.429 702.796 943.896 706.74 943.896 710.877C943.896 764.346 976.316 807.654 1016.48 807.654C1056.64 807.654 1089.06 764.346 1089.06 710.877C1089.06 706.74 1088.53 702.796 1088.14 698.78C1083.64 746.467 1053.52 783.459 1016.48 783.459Z" fill="#FCAE01"/>
<path d="M1016.48 638.3C1050.35 638.3 1078.41 669.196 1086.49 710.882C1088.12 702.918 1088.98 694.816 1089.06 686.688C1089.06 633.219 1056.64 589.912 1016.48 589.912C976.316 589.912 943.896 633.219 943.896 686.688C943.975 694.816 944.833 702.918 946.461 710.882C954.542 669.196 982.607 638.3 1016.48 638.3Z" fill="black"/>
<path d="M484.222 783.464C524.308 783.464 556.804 740.136 556.804 686.688C556.804 633.24 524.308 589.912 484.222 589.912C444.136 589.912 411.641 633.24 411.641 686.688C411.641 740.136 444.136 783.464 484.222 783.464Z" fill="url(#paint5_linear_3_763)"/>
<path d="M484.222 589.91C521.263 589.91 551.384 626.903 555.884 674.589C556.271 670.573 556.804 666.629 556.804 662.492C556.804 609.023 524.384 565.716 484.222 565.716C444.06 565.716 411.641 609.023 411.641 662.492C411.641 666.629 412.173 670.573 412.56 674.589C417.06 626.903 447.181 589.91 484.222 589.91Z" fill="#FED101"/>
<path d="M484.222 783.459C447.181 783.459 417.06 746.467 412.56 698.78C412.173 702.796 411.641 706.74 411.641 710.877C411.641 764.346 444.06 807.654 484.222 807.654C524.384 807.654 556.804 764.346 556.804 710.877C556.804 706.74 556.271 702.796 555.884 698.78C551.384 746.467 521.263 783.459 484.222 783.459Z" fill="#FCAE01"/>
<path d="M484.222 638.3C518.093 638.3 546.158 669.196 554.239 710.882C555.867 702.918 556.725 694.816 556.804 686.688C556.804 633.219 524.384 589.912 484.222 589.912C444.06 589.912 411.641 633.219 411.641 686.688C411.719 694.816 412.578 702.918 414.205 710.882C422.286 669.196 450.351 638.3 484.222 638.3Z" fill="black"/>
</g>
<defs>
<filter id="filter0_iii_3_763" x="-40.3344" y="-40.3002" width="1608.49" height="1608.49" filterUnits="userSpaceOnUse" color-interpolation-filters="sRGB">
<feFlood flood-opacity="0" result="BackgroundImageFix"/>
<feBlend mode="normal" in="SourceGraphic" in2="BackgroundImageFix" result="shape"/>
<feColorMatrix in="SourceAlpha" type="matrix" values="0 0 0 0 0 0 0 0 0 0 0 0 0 0 0 0 0 0 127 0" result="hardAlpha"/>
<feOffset dx="-40.683" dy="-40.683"/>
<feGaussianBlur stdDeviation="89.5027"/>
<feComposite in2="hardAlpha" operator="arithmetic" k2="-1" k3="1"/>
<feColorMatrix type="matrix" values="0 0 0 0 0 0 0 0 0 0 0 0 0 0 0 0 0 0 0.24 0"/>
<feBlend mode="normal" in2="shape" result="effect1_innerShadow_3_763"/>
<feColorMatrix in="SourceAlpha" type="matrix" values="0 0 0 0 0 0 0 0 0 0 0 0 0 0 0 0 0 0 127 0" result="hardAlpha"/>
<feOffset dx="40.683" dy="40.683"/>
<feGaussianBlur stdDeviation="22.3757"/>
<feComposite in2="hardAlpha" operator="arithmetic" k2="-1" k3="1"/>
<feColorMatrix type="matrix" values="0 0 0 0 1 0 0 0 0 1 0 0 0 0 1 0 0 0 0.5 0"/>
<feBlend mode="normal" in2="effect1_innerShadow_3_763" result="effect2_innerShadow_3_763"/>
<feColorMatrix in="SourceAlpha" type="matrix" values="0 0 0 0 0 0 0 0 0 0 0 0 0 0 0 0 0 0 127 0" result="hardAlpha"/>
<feOffset dx="67.8051" dy="67.8051"/>
<feGaussianBlur stdDeviation="115.269"/>
<feComposite in2="hardAlpha" operator="arithmetic" k2="-1" k3="1"/>
<feColorMatrix type="matrix" values="0 0 0 0 1 0 0 0 0 1 0 0 0 0 1 0 0 0 0.15 0"/>
<feBlend mode="normal" in2="effect2_innerShadow_3_763" result="effect3_innerShadow_3_763"/>
</filter>
<linearGradient id="paint0_linear_3_763" x1="750.349" y1="7.73765" x2="750.349" y2="1507.74" gradientUnits="userSpaceOnUse">
<stop stop-color="#FFE100"/>
<stop offset="1" stop-color="#F98900"/>
</linearGradient>
<linearGradient id="paint1_linear_3_763" x1="1119.49" y1="509.031" x2="1072.31" y2="571.644" gradientUnits="userSpaceOnUse">
<stop offset="0.005" stop-color="#414D4D"/>
<stop offset="0.206" stop-color="#3A4545"/>
<stop offset="0.522" stop-color="#272E2E"/>
<stop offset="0.914" stop-color="#080909"/>
<stop offset="1"/>
</linearGradient>
<linearGradient id="paint2_linear_3_763" x1="381.207" y1="509.031" x2="428.385" y2="571.644" gradientUnits="userSpaceOnUse">
<stop offset="0.005" stop-color="#414D4D"/>
<stop offset="0.206" stop-color="#3A4545"/>
<stop offset="0.522" stop-color="#272E2E"/>
<stop offset="0.914" stop-color="#080909"/>
<stop offset="1"/>
</linearGradient>
<linearGradient id="paint3_linear_3_763" x1="752.259" y1="1102.7" x2="754.993" y2="1049.16" gradientUnits="userSpaceOnUse">
<stop stop-color="#69101B"/>
<stop offset="1" stop-color="#400A10"/>
</linearGradient>
<linearGradient id="paint4_linear_3_763" x1="1016.48" y1="782.037" x2="1016.48" y2="595.476" gradientUnits="userSpaceOnUse">
<stop offset="0.005" stop-color="#414D4D"/>
<stop offset="0.206" stop-color="#3A4545"/>
<stop offset="0.522" stop-color="#272E2E"/>
<stop offset="0.914" stop-color="#080909"/>
<stop offset="1"/>
</linearGradient>
<linearGradient id="paint5_linear_3_763" x1="484.222" y1="782.037" x2="484.222" y2="595.476" gradientUnits="userSpaceOnUse">
<stop offset="0.005" stop-color="#414D4D"/>
<stop offset="0.206" stop-color="#3A4545"/>
<stop offset="0.522" stop-color="#272E2E"/>
<stop offset="0.914" stop-color="#080909"/>
<stop offset="1"/>
</linearGradient>
</defs>
</svg>
