<svg width="1501" height="1501" viewBox="0 0 1501 1501" fill="none" xmlns="http://www.w3.org/2000/svg">
<g filter="url(#filter0_iii_3_804)">
<path d="M750.203 1500.5C80.0487 1500.5 -0.708548 919.853 0.210798 774.692V726.305C-0.708548 581.144 80.0487 0.498535 750.203 0.498535C1420.36 0.498535 1501.11 581.144 1500.2 726.305V774.692C1501.11 919.853 1420.36 1500.5 750.203 1500.5Z" fill="url(#paint0_linear_3_804)"/>
<path d="M1161.49 992.429C1161.49 953.93 1146.19 917.007 1118.97 889.784C1091.75 862.561 1054.83 847.267 1016.33 847.267H484.075C445.576 847.267 408.654 862.561 381.431 889.784C354.209 917.007 338.915 953.93 338.915 992.429C338.915 996.517 339.205 1000.53 339.52 1004.53C339.205 1008.52 338.915 1012.53 338.915 1016.62C338.915 1055.12 354.209 1092.04 381.431 1119.27C408.654 1146.49 445.576 1161.78 484.075 1161.78H1016.33C1054.83 1161.78 1091.75 1146.49 1118.97 1119.27C1146.19 1092.04 1161.49 1055.12 1161.49 1016.62C1161.49 1012.53 1161.2 1008.52 1160.88 1004.53C1161.2 1000.53 1161.49 996.517 1161.49 992.429Z" fill="#F9BF06"/>
<path d="M1161.49 968.237C1161.49 929.737 1146.19 892.815 1118.97 865.592C1091.75 838.369 1054.83 823.075 1016.33 823.075H484.075C445.576 823.075 408.654 838.369 381.431 865.592C354.209 892.815 338.915 929.737 338.915 968.237C338.915 972.325 339.205 976.341 339.52 980.333C339.205 984.325 338.915 988.341 338.915 992.43C338.915 1030.93 354.209 1067.85 381.431 1095.07C408.654 1122.3 445.576 1137.59 484.075 1137.59H1016.33C1054.83 1137.59 1091.75 1122.3 1118.97 1095.07C1146.19 1067.85 1161.49 1030.93 1161.49 992.43C1161.49 988.341 1161.2 984.325 1160.88 980.333C1161.2 976.341 1161.49 972.325 1161.49 968.237Z" fill="#ED8D06"/>
<path d="M484.075 1137.59H1016.33C1054.83 1137.59 1091.75 1122.3 1118.97 1095.08C1146.19 1067.85 1161.49 1030.93 1161.49 992.431H338.915C338.915 1030.93 354.209 1067.85 381.431 1095.08C408.654 1122.3 445.576 1137.59 484.075 1137.59Z" fill="url(#paint1_linear_3_804)"/>
<path d="M1016.33 847.267H484.075C445.576 847.267 408.654 862.561 381.431 889.784C354.209 917.007 338.915 953.93 338.915 992.429H1161.49C1161.49 953.93 1146.19 917.007 1118.97 889.784C1091.75 862.561 1054.83 847.267 1016.33 847.267Z" fill="url(#paint2_linear_3_804)"/>
<path d="M1016.33 847.267H484.075C445.576 847.267 408.654 862.561 381.431 889.784C354.209 917.007 338.915 953.93 338.915 992.429C338.915 1030.93 354.209 1067.85 381.431 1095.07C408.654 1122.3 445.576 1137.59 484.075 1137.59H1016.33C1054.83 1137.59 1091.75 1122.3 1118.97 1095.07C1146.19 1067.85 1161.49 1030.93 1161.49 992.429C1161.49 953.93 1146.19 917.007 1118.97 889.784C1091.75 862.561 1054.83 847.267 1016.33 847.267Z" fill="url(#paint3_linear_3_804)"/>
<path d="M1016.33 847.267H484.075C445.576 847.267 408.654 862.561 381.431 889.784C354.209 917.007 338.915 953.93 338.915 992.429H1161.49C1161.49 953.93 1146.19 917.007 1118.97 889.784C1091.75 862.561 1054.83 847.267 1016.33 847.267Z" fill="url(#paint4_linear_3_804)"/>
<path d="M1016.33 460.175C919.552 460.175 895.358 629.533 895.358 629.533C895.358 629.533 943.746 556.951 1016.33 556.951C1088.91 556.951 1137.3 629.533 1137.3 629.533C1137.3 629.533 1113.1 460.175 1016.33 460.175Z" fill="#ED8D06"/>
<path d="M1137.3 629.533C1137.3 629.533 1113.1 460.175 1016.33 460.175C919.552 460.175 895.358 629.533 895.358 629.533C895.358 629.533 943.746 532.757 1016.33 532.757C1088.91 532.757 1137.3 629.533 1137.3 629.533Z" fill="url(#paint5_linear_3_804)"/>
<path d="M484.076 460.175C387.301 460.175 363.107 629.533 363.107 629.533C363.107 629.533 411.495 556.951 484.076 556.951C556.658 556.951 605.046 629.533 605.046 629.533C605.046 629.533 580.852 460.175 484.076 460.175Z" fill="#ED8D06"/>
<path d="M605.046 629.533C605.046 629.533 580.852 460.175 484.076 460.175C387.301 460.175 363.107 629.533 363.107 629.533C363.107 629.533 411.495 532.757 484.076 532.757C556.658 532.757 605.046 629.533 605.046 629.533Z" fill="url(#paint6_linear_3_804)"/>
<path d="M1096.51 871.461H1096.17C1072.52 855.702 1044.75 847.285 1016.33 847.267H484.077C455.662 847.285 427.885 855.702 404.239 871.461H403.949C377.971 888.693 358.23 913.831 347.648 943.154C337.066 972.478 336.205 1004.43 345.193 1034.28C354.181 1064.13 372.539 1090.29 397.552 1108.9C422.565 1127.51 452.903 1137.57 484.077 1137.59H508.271C471.883 1137.56 436.832 1123.87 410.06 1099.23C383.288 1074.59 366.748 1040.79 363.716 1004.53H1136.69C1133.66 1040.79 1117.12 1074.59 1090.35 1099.23C1063.58 1123.87 1028.52 1137.56 992.137 1137.59H1016.33C1047.51 1137.58 1077.85 1127.52 1102.87 1108.92C1127.9 1090.32 1146.26 1064.16 1155.26 1034.3C1164.25 1004.45 1163.39 972.494 1152.81 943.166C1142.23 913.838 1122.49 888.696 1096.51 871.461ZM363.111 992.429C363.111 925.63 424.271 871.461 499.73 871.461H1000.68C1076.14 871.461 1137.3 925.63 1137.3 992.429H363.111Z" fill="url(#paint7_linear_3_804)"/>
</g>
<defs>
<filter id="filter0_iii_3_804" x="-40.4799" y="-40.1845" width="1608.49" height="1608.49" filterUnits="userSpaceOnUse" color-interpolation-filters="sRGB">
<feFlood flood-opacity="0" result="BackgroundImageFix"/>
<feBlend mode="normal" in="SourceGraphic" in2="BackgroundImageFix" result="shape"/>
<feColorMatrix in="SourceAlpha" type="matrix" values="0 0 0 0 0 0 0 0 0 0 0 0 0 0 0 0 0 0 127 0" result="hardAlpha"/>
<feOffset dx="-40.683" dy="-40.683"/>
<feGaussianBlur stdDeviation="89.5027"/>
<feComposite in2="hardAlpha" operator="arithmetic" k2="-1" k3="1"/>
<feColorMatrix type="matrix" values="0 0 0 0 0 0 0 0 0 0 0 0 0 0 0 0 0 0 0.24 0"/>
<feBlend mode="normal" in2="shape" result="effect1_innerShadow_3_804"/>
<feColorMatrix in="SourceAlpha" type="matrix" values="0 0 0 0 0 0 0 0 0 0 0 0 0 0 0 0 0 0 127 0" result="hardAlpha"/>
<feOffset dx="40.683" dy="40.683"/>
<feGaussianBlur stdDeviation="22.3757"/>
<feComposite in2="hardAlpha" operator="arithmetic" k2="-1" k3="1"/>
<feColorMatrix type="matrix" values="0 0 0 0 1 0 0 0 0 1 0 0 0 0 1 0 0 0 0.5 0"/>
<feBlend mode="normal" in2="effect1_innerShadow_3_804" result="effect2_innerShadow_3_804"/>
<feColorMatrix in="SourceAlpha" type="matrix" values="0 0 0 0 0 0 0 0 0 0 0 0 0 0 0 0 0 0 127 0" result="hardAlpha"/>
<feOffset dx="67.8051" dy="67.8051"/>
<feGaussianBlur stdDeviation="115.269"/>
<feComposite in2="hardAlpha" operator="arithmetic" k2="-1" k3="1"/>
<feColorMatrix type="matrix" values="0 0 0 0 1 0 0 0 0 1 0 0 0 0 1 0 0 0 0.15 0"/>
<feBlend mode="normal" in2="effect2_innerShadow_3_804" result="effect3_innerShadow_3_804"/>
</filter>
<linearGradient id="paint0_linear_3_804" x1="750.203" y1="7.85337" x2="750.203" y2="1507.85" gradientUnits="userSpaceOnUse">
<stop stop-color="#FFE100"/>
<stop offset="1" stop-color="#F98900"/>
</linearGradient>
<linearGradient id="paint1_linear_3_804" x1="338.915" y1="1065.01" x2="1161.49" y2="1065.01" gradientUnits="userSpaceOnUse">
<stop stop-color="#B8B4B2"/>
<stop offset="0.143" stop-color="#D0CCC9"/>
<stop offset="0.374" stop-color="#F2EDEA"/>
<stop offset="0.5" stop-color="#FFFAF6"/>
<stop offset="0.638" stop-color="#F9F5F1"/>
<stop offset="0.825" stop-color="#E8E5E3"/>
<stop offset="1" stop-color="#D1D1D1"/>
</linearGradient>
<linearGradient id="paint2_linear_3_804" x1="-23.9845" y1="919.848" x2="0.208787" y2="919.848" gradientUnits="userSpaceOnUse">
<stop stop-color="#B8B4B2"/>
<stop offset="0.143" stop-color="#D0CCC9"/>
<stop offset="0.374" stop-color="#F2EDEA"/>
<stop offset="0.5" stop-color="#FFFAF6"/>
<stop offset="0.638" stop-color="#F9F5F1"/>
<stop offset="0.825" stop-color="#E8E5E3"/>
<stop offset="1" stop-color="#D1D1D1"/>
</linearGradient>
<linearGradient id="paint3_linear_3_804" x1="750.201" y1="1136.38" x2="750.201" y2="847.848" gradientUnits="userSpaceOnUse">
<stop stop-color="#D1D1D1" stop-opacity="0"/>
<stop offset="0.05" stop-color="#CECECE" stop-opacity="0.041"/>
<stop offset="0.322" stop-color="#C1C1C1" stop-opacity="0.24"/>
<stop offset="0.579" stop-color="#B8B8B8" stop-opacity="0.383"/>
<stop offset="0.812" stop-color="#B2B2B2" stop-opacity="0.47"/>
<stop offset="1" stop-color="#B0B0B0" stop-opacity="0.5"/>
</linearGradient>
<linearGradient id="paint4_linear_3_804" x1="750.201" y1="862.388" x2="750.201" y2="1004.02" gradientUnits="userSpaceOnUse">
<stop stop-color="#ABABAB" stop-opacity="0.5"/>
<stop offset="0.541" stop-color="#C1C1C1" stop-opacity="0.216"/>
<stop offset="1" stop-color="#D1D1D1" stop-opacity="0"/>
</linearGradient>
<linearGradient id="paint5_linear_3_804" x1="1016.33" y1="628.686" x2="1016.33" y2="466.248" gradientUnits="userSpaceOnUse">
<stop stop-color="#803F02"/>
<stop offset="0.174" stop-color="#6D3602"/>
<stop offset="0.515" stop-color="#4D2601"/>
<stop offset="0.802" stop-color="#3A1C01"/>
<stop offset="1" stop-color="#331901"/>
</linearGradient>
<linearGradient id="paint6_linear_3_804" x1="484.076" y1="628.686" x2="484.076" y2="466.248" gradientUnits="userSpaceOnUse">
<stop stop-color="#803F02"/>
<stop offset="0.174" stop-color="#6D3602"/>
<stop offset="0.515" stop-color="#4D2601"/>
<stop offset="0.802" stop-color="#3A1C01"/>
<stop offset="1" stop-color="#331901"/>
</linearGradient>
<linearGradient id="paint7_linear_3_804" x1="750.204" y1="1028.72" x2="750.204" y2="2728.36" gradientUnits="userSpaceOnUse">
<stop stop-color="#69101B"/>
<stop offset="0.427" stop-color="#400A10"/>
</linearGradient>
</defs>
</svg>
