<svg width="1501" height="1501" viewBox="0 0 1501 1501" fill="none" xmlns="http://www.w3.org/2000/svg">
<g filter="url(#filter0_iii_3_587)">
<path d="M750.349 1500.21C80.1942 1500.21 -0.56304 919.566 0.356306 774.405V726.018C-0.56304 580.857 80.1942 0.211426 750.349 0.211426C1420.5 0.211426 1501.26 580.857 1500.34 726.018V774.405C1501.26 919.566 1420.5 1500.21 750.349 1500.21Z" fill="url(#paint0_linear_3_587)"/>
<path d="M1089.06 556.666C1089.06 489.866 1056.57 435.696 1016.48 435.696C976.389 435.696 943.896 489.866 943.896 556.666C943.896 560.803 944.38 564.722 944.622 568.763C944.38 572.803 943.896 576.723 943.896 580.86C943.896 647.66 976.389 701.83 1016.48 701.83C1056.57 701.83 1089.06 647.66 1089.06 580.86C1089.06 576.723 1088.58 572.803 1088.33 568.763C1088.58 564.722 1089.06 560.803 1089.06 556.666Z" fill="#EDA406"/>
<path d="M556.804 556.666C556.804 489.866 524.311 435.696 484.222 435.696C444.133 435.696 411.641 489.866 411.641 556.666C411.641 560.803 412.125 564.722 412.366 568.763C412.125 572.803 411.641 576.723 411.641 580.86C411.641 647.66 444.133 701.83 484.222 701.83C524.311 701.83 556.804 647.66 556.804 580.86C556.804 576.723 556.32 572.803 556.078 568.763C556.32 564.722 556.804 560.803 556.804 556.666Z" fill="#EDA406"/>
<path d="M1089.06 580.86C1089.06 514.061 1056.57 459.89 1016.48 459.89C976.389 459.89 943.896 514.061 943.896 580.86C943.896 584.998 944.38 588.917 944.622 592.957C944.38 596.998 943.896 600.917 943.896 605.055C943.896 671.854 976.389 726.025 1016.48 726.025C1056.57 726.025 1089.06 671.854 1089.06 605.055C1089.06 600.917 1088.58 596.998 1088.33 592.957C1088.58 588.917 1089.06 584.998 1089.06 580.86Z" fill="#FFD000"/>
<path d="M556.804 580.86C556.804 514.061 524.311 459.89 484.222 459.89C444.133 459.89 411.641 514.061 411.641 580.86C411.641 584.998 412.125 588.917 412.366 592.957C412.125 596.998 411.641 600.917 411.641 605.055C411.641 671.854 444.133 726.025 484.222 726.025C524.311 726.025 556.804 671.854 556.804 605.055C556.804 600.917 556.32 596.998 556.078 592.957C556.32 588.917 556.804 584.998 556.804 580.86Z" fill="#FFD000"/>
<path d="M1016.48 701.831C1056.56 701.831 1089.06 647.67 1089.06 580.86C1089.06 514.05 1056.56 459.89 1016.48 459.89C976.392 459.89 943.896 514.05 943.896 580.86C943.896 647.67 976.392 701.831 1016.48 701.831Z" fill="url(#paint1_linear_3_587)"/>
<path d="M484.222 701.831C524.308 701.831 556.804 647.67 556.804 580.86C556.804 514.05 524.308 459.89 484.222 459.89C444.136 459.89 411.641 514.05 411.641 580.86C411.641 647.67 444.136 701.831 484.222 701.831Z" fill="url(#paint2_linear_3_587)"/>
<path d="M1016.48 532.472C1051.58 532.472 1080.86 549.844 1087.61 605.055C1088.58 597.026 1089.06 588.947 1089.06 580.86C1089.06 514.061 1056.57 459.89 1016.48 459.89C976.389 459.89 943.896 514.061 943.896 580.86C943.895 588.947 944.38 597.026 945.348 605.055C952.098 549.844 981.373 532.472 1016.48 532.472Z" fill="black"/>
<path d="M484.222 532.472C519.327 532.472 548.602 549.844 555.352 605.055C556.32 597.026 556.805 588.947 556.804 580.86C556.804 514.061 524.311 459.89 484.222 459.89C444.133 459.89 411.641 514.061 411.641 580.86C411.639 588.947 412.124 597.026 413.092 605.055C419.842 549.844 449.117 532.472 484.222 532.472Z" fill="black"/>
<path d="M750.345 992.148C943.891 992.148 1064.86 1137.31 1064.86 1137.31C1054.79 1101.01 1037.6 1067.08 1014.29 1037.5C990.983 1007.91 962.018 983.259 929.085 964.978C874.223 935.175 812.78 919.563 750.345 919.563C687.91 919.563 626.467 935.175 571.605 964.978C538.672 983.259 509.707 1007.91 486.397 1037.5C463.087 1067.08 445.898 1101.01 435.832 1137.31C435.832 1137.31 556.799 992.148 750.345 992.148Z" fill="#ED8D06"/>
<path d="M750.345 1016.34C866.45 1016.83 978.346 1059.87 1064.86 1137.31C1064.86 1137.31 1040.18 1049.68 929.085 989.172C874.223 959.368 812.78 943.756 750.345 943.756C687.91 943.756 626.467 959.368 571.605 989.172C460.509 1049.68 435.832 1137.31 435.832 1137.31C522.344 1059.87 634.24 1016.83 750.345 1016.34Z" fill="#F9BF06"/>
<path d="M435.832 1137.31C435.832 1137.31 460.509 1049.68 571.605 989.172C626.467 959.368 687.91 943.756 750.345 943.756C812.78 943.756 874.223 959.368 929.085 989.172C1040.18 1049.68 1064.86 1137.31 1064.86 1137.31C1064.86 1137.31 943.891 992.148 750.345 992.148C556.799 992.148 435.832 1137.31 435.832 1137.31Z" fill="url(#paint3_linear_3_587)"/>
</g>
<defs>
<filter id="filter0_iii_3_587" x="-40.3344" y="-40.4716" width="1608.49" height="1608.49" filterUnits="userSpaceOnUse" color-interpolation-filters="sRGB">
<feFlood flood-opacity="0" result="BackgroundImageFix"/>
<feBlend mode="normal" in="SourceGraphic" in2="BackgroundImageFix" result="shape"/>
<feColorMatrix in="SourceAlpha" type="matrix" values="0 0 0 0 0 0 0 0 0 0 0 0 0 0 0 0 0 0 127 0" result="hardAlpha"/>
<feOffset dx="-40.683" dy="-40.683"/>
<feGaussianBlur stdDeviation="89.5027"/>
<feComposite in2="hardAlpha" operator="arithmetic" k2="-1" k3="1"/>
<feColorMatrix type="matrix" values="0 0 0 0 0 0 0 0 0 0 0 0 0 0 0 0 0 0 0.24 0"/>
<feBlend mode="normal" in2="shape" result="effect1_innerShadow_3_587"/>
<feColorMatrix in="SourceAlpha" type="matrix" values="0 0 0 0 0 0 0 0 0 0 0 0 0 0 0 0 0 0 127 0" result="hardAlpha"/>
<feOffset dx="40.683" dy="40.683"/>
<feGaussianBlur stdDeviation="22.3757"/>
<feComposite in2="hardAlpha" operator="arithmetic" k2="-1" k3="1"/>
<feColorMatrix type="matrix" values="0 0 0 0 1 0 0 0 0 1 0 0 0 0 1 0 0 0 0.5 0"/>
<feBlend mode="normal" in2="effect1_innerShadow_3_587" result="effect2_innerShadow_3_587"/>
<feColorMatrix in="SourceAlpha" type="matrix" values="0 0 0 0 0 0 0 0 0 0 0 0 0 0 0 0 0 0 127 0" result="hardAlpha"/>
<feOffset dx="67.8051" dy="67.8051"/>
<feGaussianBlur stdDeviation="115.269"/>
<feComposite in2="hardAlpha" operator="arithmetic" k2="-1" k3="1"/>
<feColorMatrix type="matrix" values="0 0 0 0 1 0 0 0 0 1 0 0 0 0 1 0 0 0 0.15 0"/>
<feBlend mode="normal" in2="effect2_innerShadow_3_587" result="effect3_innerShadow_3_587"/>
</filter>
<linearGradient id="paint0_linear_3_587" x1="750.349" y1="7.56626" x2="750.349" y2="1507.57" gradientUnits="userSpaceOnUse">
<stop stop-color="#FFE100"/>
<stop offset="1" stop-color="#F98900"/>
</linearGradient>
<linearGradient id="paint1_linear_3_587" x1="1016.48" y1="695.177" x2="1016.48" y2="464.56" gradientUnits="userSpaceOnUse">
<stop offset="0.005" stop-color="#414D4D"/>
<stop offset="0.206" stop-color="#3A4545"/>
<stop offset="0.522" stop-color="#272E2E"/>
<stop offset="0.914" stop-color="#080909"/>
<stop offset="1"/>
</linearGradient>
<linearGradient id="paint2_linear_3_587" x1="484.222" y1="698.347" x2="484.222" y2="481.06" gradientUnits="userSpaceOnUse">
<stop offset="0.005" stop-color="#414D4D"/>
<stop offset="0.206" stop-color="#3A4545"/>
<stop offset="0.522" stop-color="#272E2E"/>
<stop offset="0.914" stop-color="#080909"/>
<stop offset="1"/>
</linearGradient>
<linearGradient id="paint3_linear_3_587" x1="750.345" y1="936.817" x2="750.345" y2="1129.25" gradientUnits="userSpaceOnUse">
<stop stop-color="#803F02"/>
<stop offset="0.174" stop-color="#6D3602"/>
<stop offset="0.515" stop-color="#4D2601"/>
<stop offset="0.802" stop-color="#3A1C01"/>
<stop offset="1" stop-color="#331901"/>
</linearGradient>
</defs>
</svg>
