<svg width="1501" height="1501" viewBox="0 0 1501 1501" fill="none" xmlns="http://www.w3.org/2000/svg">
<g filter="url(#filter0_iii_3_663)">
<path d="M750.349 1500.81C80.1942 1500.81 -0.56304 920.168 0.356306 775.007V726.62C-0.56304 581.459 80.1942 0.813477 750.349 0.813477C1420.5 0.813477 1501.26 581.459 1500.34 726.62V775.007C1501.26 920.168 1420.5 1500.81 750.349 1500.81Z" fill="url(#paint0_linear_3_663)"/>
<path d="M1258.41 629.847C1258.41 572.099 1235.47 516.715 1194.63 475.881C1153.8 435.046 1098.42 412.105 1040.67 412.105C982.921 412.105 927.538 435.046 886.704 475.881C845.87 516.715 822.93 572.099 822.93 629.847C822.93 633.936 823.317 637.904 823.535 641.944C823.317 645.984 822.93 649.952 822.93 654.041C822.93 711.79 845.87 767.173 886.704 808.008C927.538 848.842 982.921 871.783 1040.67 871.783C1098.42 871.783 1153.8 848.842 1194.63 808.008C1235.47 767.173 1258.41 711.79 1258.41 654.041C1258.41 649.952 1258.02 645.984 1257.8 641.944C1258.02 637.904 1258.41 633.936 1258.41 629.847Z" fill="#FAA15D"/>
<path d="M460.029 412.105C402.281 412.105 346.898 435.046 306.064 475.881C265.229 516.715 242.289 572.099 242.289 629.847C242.289 633.936 242.676 637.904 242.894 641.944C242.676 645.984 242.289 649.952 242.289 654.041C242.289 711.79 265.229 767.173 306.064 808.008C346.898 848.842 402.281 871.783 460.029 871.783C517.777 871.783 573.16 848.842 613.994 808.008C654.828 767.173 677.768 711.79 677.768 654.041C677.768 649.952 677.381 645.984 677.164 641.944C677.381 637.904 677.768 633.936 677.768 629.847C677.768 572.099 654.828 516.715 613.994 475.881C573.16 435.046 517.777 412.105 460.029 412.105Z" fill="#FAA44E"/>
<path d="M1258.41 605.655C1258.41 547.906 1235.47 492.523 1194.63 451.688C1153.8 410.854 1098.42 387.913 1040.67 387.913C982.921 387.913 927.538 410.854 886.704 451.688C845.87 492.523 822.93 547.906 822.93 605.655C822.93 609.744 823.317 613.712 823.535 617.752C823.317 621.792 822.93 625.76 822.93 629.849C822.93 687.598 845.87 742.981 886.704 783.816C927.538 824.65 982.921 847.591 1040.67 847.591C1098.42 847.591 1153.8 824.65 1194.63 783.816C1235.47 742.981 1258.41 687.598 1258.41 629.849C1258.41 625.76 1258.02 621.792 1257.8 617.752C1258.02 613.712 1258.41 609.744 1258.41 605.655Z" fill="#4E7CE6"/>
<path d="M460.029 387.913C402.281 387.913 346.898 410.854 306.064 451.688C265.229 492.523 242.289 547.906 242.289 605.655C242.289 609.744 242.676 613.712 242.894 617.752C242.676 621.792 242.289 625.76 242.289 629.849C242.289 687.598 265.229 742.981 306.064 783.816C346.898 824.65 402.281 847.591 460.029 847.591C517.777 847.591 573.16 824.65 613.994 783.816C654.828 742.981 677.768 687.598 677.768 629.849C677.768 625.76 677.381 621.792 677.164 617.752C677.381 613.712 677.768 609.744 677.768 605.655C677.768 547.906 654.828 492.523 613.994 451.688C573.16 410.854 517.777 387.913 460.029 387.913Z" fill="#4E7CE6"/>
<path d="M1040.67 847.589C1160.92 847.589 1258.41 750.103 1258.41 629.847C1258.41 509.592 1160.92 412.105 1040.67 412.105C920.415 412.105 822.93 509.592 822.93 629.847C822.93 750.103 920.415 847.589 1040.67 847.589Z" fill="url(#paint1_radial_3_663)"/>
<path d="M1040.67 750.822C1107.48 750.822 1161.64 696.662 1161.64 629.852C1161.64 563.042 1107.48 508.881 1040.67 508.881C973.857 508.881 919.697 563.042 919.697 629.852C919.697 696.662 973.857 750.822 1040.67 750.822Z" fill="url(#paint2_radial_3_663)"/>
<path d="M460.029 847.589C580.283 847.589 677.768 750.103 677.768 629.847C677.768 509.592 580.283 412.105 460.029 412.105C339.774 412.105 242.289 509.592 242.289 629.847C242.289 750.103 339.774 847.589 460.029 847.589Z" fill="url(#paint3_radial_3_663)"/>
<path d="M460.032 750.822C526.841 750.822 581.001 696.662 581.001 629.852C581.001 563.042 526.841 508.881 460.032 508.881C393.222 508.881 339.062 563.042 339.062 629.852C339.062 696.662 393.222 750.822 460.032 750.822Z" fill="url(#paint4_radial_3_663)"/>
<path d="M1324.14 395.169C1228.56 301.823 1101.61 247.476 968.09 242.75C961.673 242.75 955.52 245.298 950.983 249.836C946.445 254.373 943.896 260.527 943.896 266.943C944.001 271.238 945.281 275.422 947.598 279.04C945.285 282.659 944.005 286.842 943.896 291.137C943.896 297.553 946.445 303.707 950.983 308.244C955.52 312.781 961.673 315.33 968.09 315.33C969.953 315.33 1157.52 317.435 1289.47 453.233C1293.95 457.834 1300.06 460.469 1306.48 460.56C1312.89 460.651 1319.08 458.189 1323.68 453.717C1327.51 449.933 1329.94 444.97 1330.59 439.63C1331.24 434.291 1330.07 428.888 1327.26 424.298C1330.05 419.786 1331.26 414.473 1330.69 409.199C1330.13 403.924 1327.82 398.988 1324.14 395.169Z" fill="#2E70DB"/>
<path d="M532.609 242.75C399.092 247.476 272.137 301.823 176.556 395.169C172.901 398.984 170.614 403.903 170.054 409.157C169.493 414.41 170.691 419.701 173.459 424.201C171.23 427.821 170.011 431.971 169.928 436.221C169.845 440.472 170.901 444.666 172.988 448.37C175.074 452.074 178.114 455.151 181.792 457.283C185.47 459.415 189.652 460.522 193.903 460.491C197.132 460.501 200.331 459.863 203.31 458.617C206.289 457.37 208.989 455.54 211.249 453.233C343.199 317.435 530.77 315.33 532.609 315.33C539.025 315.33 545.179 312.781 549.716 308.244C554.253 303.707 556.802 297.553 556.802 291.137C556.694 286.842 555.414 282.659 553.101 279.04C555.417 275.422 556.698 271.238 556.802 266.943C556.802 260.527 554.253 254.373 549.716 249.836C545.179 245.298 539.025 242.75 532.609 242.75Z" fill="#2E70DB"/>
<path d="M1306.8 436.298C1303.57 436.307 1300.37 435.67 1297.39 434.423C1294.41 433.177 1291.71 431.346 1289.45 429.04C1157.5 293.241 969.928 291.137 968.09 291.137C961.673 291.137 955.52 288.588 950.983 284.05C946.445 279.513 943.896 273.36 943.896 266.943C943.896 260.527 946.445 254.373 950.983 249.836C955.52 245.298 961.673 242.75 968.09 242.75C1101.61 247.476 1228.56 301.823 1324.14 395.169C1327.48 398.576 1329.74 402.893 1330.63 407.58C1331.52 412.266 1331.01 417.111 1329.16 421.506C1327.3 425.902 1324.19 429.651 1320.21 432.283C1316.23 434.915 1311.57 436.312 1306.8 436.298Z" fill="url(#paint5_radial_3_663)"/>
<path d="M193.901 436.298C189.131 436.312 184.463 434.915 180.484 432.283C176.506 429.651 173.394 425.902 171.54 421.506C169.686 417.111 169.173 412.266 170.066 407.58C170.958 402.893 173.215 398.576 176.555 395.169C272.135 301.823 399.091 247.476 532.607 242.75C539.024 242.75 545.178 245.298 549.715 249.836C554.252 254.373 556.801 260.527 556.801 266.943C556.801 273.36 554.252 279.513 549.715 284.05C545.178 288.588 539.024 291.137 532.607 291.137C530.745 291.137 343.174 293.241 211.224 429.04C208.966 431.343 206.27 433.172 203.295 434.418C200.321 435.665 197.127 436.304 193.901 436.298Z" fill="url(#paint6_radial_3_663)"/>
<path d="M1002.66 1074.5C978.27 1028.55 941.988 989.985 897.607 962.839C853.225 935.692 802.371 920.956 750.351 920.17C698.332 920.956 647.477 935.692 603.095 962.839C558.714 989.985 522.433 1028.55 498.039 1074.5C488.866 1090.85 484.106 1109.3 484.225 1128.04V1181.75C483.629 1189.47 484.905 1197.22 487.944 1204.34C490.983 1211.47 495.697 1217.75 501.683 1222.66C507.67 1227.57 514.754 1230.96 522.332 1232.55C529.911 1234.14 537.761 1233.88 545.216 1231.78C610.486 1204.99 679.873 1189.6 750.351 1186.3C820.83 1189.6 890.217 1204.99 955.486 1231.78C962.941 1233.88 970.791 1234.14 978.37 1232.55C985.949 1230.96 993.032 1227.57 999.019 1222.66C1005.01 1217.75 1009.72 1211.47 1012.76 1204.34C1015.8 1197.22 1017.07 1189.47 1016.48 1181.75V1128.04C1016.6 1109.3 1011.84 1090.85 1002.66 1074.5Z" fill="#FFB300"/>
<path d="M1002.66 1050.31C978.27 1004.36 941.988 965.793 897.607 938.647C853.225 911.5 802.371 896.764 750.351 895.978C698.332 896.764 647.477 911.5 603.095 938.647C558.714 965.793 522.433 1004.36 498.039 1050.31C488.866 1066.65 484.106 1085.11 484.225 1103.85V1157.56C483.629 1165.28 484.905 1173.03 487.944 1180.15C490.983 1187.27 495.697 1193.56 501.683 1198.47C507.67 1203.38 514.754 1206.77 522.332 1208.36C529.911 1209.95 537.761 1209.68 545.216 1207.59C610.486 1180.79 679.873 1165.41 750.351 1162.11C820.83 1165.41 890.217 1180.79 955.486 1207.59C962.941 1209.68 970.791 1209.95 978.37 1208.36C985.949 1206.77 993.032 1203.38 999.019 1198.47C1005.01 1193.56 1009.72 1187.27 1012.76 1180.15C1015.8 1173.03 1017.07 1165.28 1016.48 1157.56V1103.85C1016.6 1085.11 1011.84 1066.65 1002.66 1050.31Z" fill="#E67700"/>
<path d="M750.351 920.17C698.332 920.956 647.477 935.692 603.095 962.839C558.714 989.985 522.433 1028.55 498.039 1074.5C488.866 1090.85 484.106 1109.3 484.225 1128.04V1157.56C483.629 1165.28 484.905 1173.03 487.944 1180.15C490.983 1187.27 495.697 1193.55 501.683 1198.47C507.67 1203.38 514.754 1206.77 522.332 1208.36C529.911 1209.95 537.761 1209.68 545.216 1207.59C610.486 1180.79 679.873 1165.41 750.351 1162.11C820.83 1165.41 890.217 1180.79 955.486 1207.59C962.941 1209.68 970.791 1209.95 978.37 1208.36C985.949 1206.77 993.032 1203.38 999.019 1198.47C1005.01 1193.55 1009.72 1187.27 1012.76 1180.15C1015.8 1173.03 1017.07 1165.28 1016.48 1157.56V1128.04C1016.6 1109.3 1011.84 1090.85 1002.66 1074.5C978.27 1028.55 941.988 989.985 897.607 962.839C853.225 935.692 802.371 920.956 750.351 920.17Z" fill="url(#paint7_linear_3_663)"/>
</g>
<defs>
<filter id="filter0_iii_3_663" x="-40.3344" y="-39.8696" width="1608.49" height="1608.49" filterUnits="userSpaceOnUse" color-interpolation-filters="sRGB">
<feFlood flood-opacity="0" result="BackgroundImageFix"/>
<feBlend mode="normal" in="SourceGraphic" in2="BackgroundImageFix" result="shape"/>
<feColorMatrix in="SourceAlpha" type="matrix" values="0 0 0 0 0 0 0 0 0 0 0 0 0 0 0 0 0 0 127 0" result="hardAlpha"/>
<feOffset dx="-40.683" dy="-40.683"/>
<feGaussianBlur stdDeviation="89.5027"/>
<feComposite in2="hardAlpha" operator="arithmetic" k2="-1" k3="1"/>
<feColorMatrix type="matrix" values="0 0 0 0 0 0 0 0 0 0 0 0 0 0 0 0 0 0 0.24 0"/>
<feBlend mode="normal" in2="shape" result="effect1_innerShadow_3_663"/>
<feColorMatrix in="SourceAlpha" type="matrix" values="0 0 0 0 0 0 0 0 0 0 0 0 0 0 0 0 0 0 127 0" result="hardAlpha"/>
<feOffset dx="40.683" dy="40.683"/>
<feGaussianBlur stdDeviation="22.3757"/>
<feComposite in2="hardAlpha" operator="arithmetic" k2="-1" k3="1"/>
<feColorMatrix type="matrix" values="0 0 0 0 1 0 0 0 0 1 0 0 0 0 1 0 0 0 0.5 0"/>
<feBlend mode="normal" in2="effect1_innerShadow_3_663" result="effect2_innerShadow_3_663"/>
<feColorMatrix in="SourceAlpha" type="matrix" values="0 0 0 0 0 0 0 0 0 0 0 0 0 0 0 0 0 0 127 0" result="hardAlpha"/>
<feOffset dx="67.8051" dy="67.8051"/>
<feGaussianBlur stdDeviation="115.269"/>
<feComposite in2="hardAlpha" operator="arithmetic" k2="-1" k3="1"/>
<feColorMatrix type="matrix" values="0 0 0 0 1 0 0 0 0 1 0 0 0 0 1 0 0 0 0.15 0"/>
<feBlend mode="normal" in2="effect2_innerShadow_3_663" result="effect3_innerShadow_3_663"/>
</filter>
<linearGradient id="paint0_linear_3_663" x1="750.349" y1="1487.8" x2="750.349" y2="253.709" gradientUnits="userSpaceOnUse">
<stop stop-color="#FFE100"/>
<stop offset="0.217" stop-color="#F98900"/>
<stop offset="0.465" stop-color="#ECA483"/>
<stop offset="0.697" stop-color="#83BEEC"/>
<stop offset="0.995" stop-color="#2A97EC"/>
</linearGradient>
<radialGradient id="paint1_radial_3_663" cx="0" cy="0" r="1" gradientUnits="userSpaceOnUse" gradientTransform="translate(1040.67 629.847) scale(217.74 217.742)">
<stop stop-color="white"/>
<stop offset="0.505" stop-color="white"/>
<stop offset="0.588" stop-color="white"/>
<stop offset="0.804" stop-color="#FDFEFF"/>
<stop offset="0.886" stop-color="#F6FAFF"/>
<stop offset="0.945" stop-color="#EAF3FF"/>
<stop offset="0.993" stop-color="#D9EAFF"/>
<stop offset="1" stop-color="#D6E8FF"/>
</radialGradient>
<radialGradient id="paint2_radial_3_663" cx="0" cy="0" r="1" gradientUnits="userSpaceOnUse" gradientTransform="translate(1040.67 629.852) scale(120.969 120.97)">
<stop offset="0.005" stop-color="#414D4D"/>
<stop offset="0.206" stop-color="#3A4545"/>
<stop offset="0.522" stop-color="#272E2E"/>
<stop offset="0.914" stop-color="#080909"/>
<stop offset="1"/>
</radialGradient>
<radialGradient id="paint3_radial_3_663" cx="0" cy="0" r="1" gradientUnits="userSpaceOnUse" gradientTransform="translate(460.029 -11.2816) scale(12.0967 12.0968)">
<stop stop-color="white"/>
<stop offset="0.505" stop-color="white"/>
<stop offset="0.588" stop-color="white"/>
<stop offset="0.804" stop-color="#FDFEFF"/>
<stop offset="0.886" stop-color="#F6FAFF"/>
<stop offset="0.945" stop-color="#EAF3FF"/>
<stop offset="0.993" stop-color="#D9EAFF"/>
<stop offset="1" stop-color="#D6E8FF"/>
</radialGradient>
<radialGradient id="paint4_radial_3_663" cx="0" cy="0" r="1" gradientUnits="userSpaceOnUse" gradientTransform="translate(460.032 -171.577) scale(120.969 120.97)">
<stop offset="0.005" stop-color="#414D4D"/>
<stop offset="0.206" stop-color="#3A4545"/>
<stop offset="0.522" stop-color="#272E2E"/>
<stop offset="0.914" stop-color="#080909"/>
<stop offset="1"/>
</radialGradient>
<radialGradient id="paint5_radial_3_663" cx="0" cy="0" r="1" gradientUnits="userSpaceOnUse" gradientTransform="translate(1137.44 339.524) scale(152.998 153)">
<stop offset="0.005" stop-color="#414D4D"/>
<stop offset="0.206" stop-color="#3A4545"/>
<stop offset="0.522" stop-color="#272E2E"/>
<stop offset="0.914" stop-color="#080909"/>
<stop offset="1"/>
</radialGradient>
<radialGradient id="paint6_radial_3_663" cx="0" cy="0" r="1" gradientUnits="userSpaceOnUse" gradientTransform="translate(363.254 339.524) scale(152.998 153)">
<stop offset="0.005" stop-color="#414D4D"/>
<stop offset="0.206" stop-color="#3A4545"/>
<stop offset="0.522" stop-color="#272E2E"/>
<stop offset="0.914" stop-color="#080909"/>
<stop offset="1"/>
</radialGradient>
<linearGradient id="paint7_linear_3_663" x1="750.351" y1="1167.55" x2="750.351" y2="930.186" gradientUnits="userSpaceOnUse">
<stop stop-color="#911625"/>
<stop offset="0.139" stop-color="#821421"/>
<stop offset="0.507" stop-color="#5E0E18"/>
<stop offset="0.807" stop-color="#480B12"/>
<stop offset="1" stop-color="#400A10"/>
</linearGradient>
</defs>
</svg>
