<svg width="1500" height="1500" viewBox="0 0 1500 1500" fill="none" xmlns="http://www.w3.org/2000/svg">
<g filter="url(#filter0_iii_38_214)">
<path d="M750 1500C79.8455 1500 -0.911673 919.355 0.00767285 774.194V725.806C-0.911673 580.645 79.8455 0 750 0C1420.15 0 1500.91 580.645 1499.99 725.806V774.194C1500.91 919.355 1420.15 1500 750 1500Z" fill="url(#paint0_linear_38_214)"/>
<path d="M1088.71 508.064C1088.71 441.266 1056.22 387.096 1016.13 387.096C976.038 387.096 943.547 441.266 943.547 508.064C943.547 512.201 944.031 516.12 944.273 520.161C944.031 524.201 943.547 528.12 943.547 532.257C943.547 599.056 976.038 653.225 1016.13 653.225C1056.22 653.225 1088.71 599.056 1088.71 532.257C1088.71 528.12 1088.22 524.201 1087.98 520.161C1088.22 516.12 1088.71 512.201 1088.71 508.064Z" fill="#EDA406"/>
<path d="M556.454 508.064C556.454 441.266 523.962 387.096 483.874 387.096C443.786 387.096 411.294 441.266 411.294 508.064C411.294 512.201 411.778 516.12 412.02 520.161C411.778 524.201 411.294 528.12 411.294 532.257C411.294 599.056 443.786 653.225 483.874 653.225C523.962 653.225 556.454 599.056 556.454 532.257C556.454 528.12 555.97 524.201 555.728 520.161C555.97 516.12 556.454 512.201 556.454 508.064Z" fill="#EDA406"/>
<path d="M1088.71 532.259C1088.71 465.461 1056.22 411.291 1016.13 411.291C976.038 411.291 943.547 465.461 943.547 532.259C943.547 536.396 944.031 540.316 944.273 544.356C944.031 548.396 943.547 552.316 943.547 556.453C943.547 623.251 976.038 677.42 1016.13 677.42C1056.22 677.42 1088.71 623.251 1088.71 556.453C1088.71 552.316 1088.22 548.396 1087.98 544.356C1088.22 540.316 1088.71 536.396 1088.71 532.259Z" fill="#FFD000"/>
<path d="M556.454 532.259C556.454 465.461 523.962 411.291 483.874 411.291C443.786 411.291 411.294 465.461 411.294 532.259C411.294 536.396 411.778 540.316 412.02 544.356C411.778 548.396 411.294 552.316 411.294 556.453C411.294 623.251 443.786 677.42 483.874 677.42C523.962 677.42 556.454 623.251 556.454 556.453C556.454 552.316 555.97 548.396 555.728 544.356C555.97 540.316 556.454 536.396 556.454 532.259Z" fill="#FFD000"/>
<path d="M1016.13 653.227C1056.21 653.227 1088.71 599.068 1088.71 532.259C1088.71 465.45 1056.21 411.291 1016.13 411.291C976.042 411.291 943.547 465.45 943.547 532.259C943.547 599.068 976.042 653.227 1016.13 653.227Z" fill="url(#paint1_linear_38_214)"/>
<path d="M483.874 653.227C523.959 653.227 556.454 599.068 556.454 532.259C556.454 465.45 523.959 411.291 483.874 411.291C443.789 411.291 411.294 465.45 411.294 532.259C411.294 599.068 443.789 653.227 483.874 653.227Z" fill="url(#paint2_linear_38_214)"/>
<path d="M1016.13 483.872C1051.23 483.872 1080.51 501.243 1087.26 556.453C1088.22 548.425 1088.71 540.345 1088.71 532.259C1088.71 465.461 1056.22 411.291 1016.13 411.291C976.038 411.291 943.547 465.461 943.547 532.259C943.546 540.345 944.03 548.425 944.999 556.453C951.748 501.243 981.022 483.872 1016.13 483.872Z" fill="black"/>
<path d="M483.874 483.872C518.978 483.872 548.252 501.243 555.002 556.453C555.97 548.425 556.455 540.345 556.454 532.259C556.454 465.461 523.962 411.291 483.874 411.291C443.786 411.291 411.294 465.461 411.294 532.259C411.293 540.345 411.777 548.425 412.746 556.453C419.495 501.243 448.769 483.872 483.874 483.872Z" fill="black"/>
<path d="M895.159 1064.52C895.159 957.63 830.176 870.969 750 870.969C669.823 870.969 604.84 957.63 604.84 1064.52C604.84 1068.61 605.106 1072.6 605.299 1076.61C605.106 1080.63 604.84 1084.62 604.84 1088.71C604.84 1195.6 669.823 1282.26 750 1282.26C830.176 1282.26 895.159 1195.6 895.159 1088.71C895.159 1084.62 894.893 1080.63 894.7 1076.61C894.893 1072.6 895.159 1068.61 895.159 1064.52Z" fill="#FFD000"/>
<path d="M895.159 1040.32C895.159 933.435 830.176 846.773 750 846.773C669.823 846.773 604.84 933.435 604.84 1040.32C604.84 1044.41 605.106 1048.4 605.299 1052.42C605.106 1056.43 604.84 1060.43 604.84 1064.52C604.84 1171.4 669.823 1258.06 750 1258.06C830.176 1258.06 895.159 1171.4 895.159 1064.52C895.159 1060.43 894.893 1056.43 894.7 1052.42C894.893 1048.4 895.159 1044.41 895.159 1040.32Z" fill="#E38706"/>
<path d="M750 1258.07C830.169 1258.07 895.159 1171.41 895.159 1064.52C895.159 957.623 830.169 870.969 750 870.969C669.83 870.969 604.84 957.623 604.84 1064.52C604.84 1171.41 669.83 1258.07 750 1258.07Z" fill="url(#paint3_linear_38_214)"/>
</g>
<defs>
<filter id="filter0_iii_38_214" x="-40.683" y="-40.683" width="1608.49" height="1608.49" filterUnits="userSpaceOnUse" color-interpolation-filters="sRGB">
<feFlood flood-opacity="0" result="BackgroundImageFix"/>
<feBlend mode="normal" in="SourceGraphic" in2="BackgroundImageFix" result="shape"/>
<feColorMatrix in="SourceAlpha" type="matrix" values="0 0 0 0 0 0 0 0 0 0 0 0 0 0 0 0 0 0 127 0" result="hardAlpha"/>
<feOffset dx="-40.683" dy="-40.683"/>
<feGaussianBlur stdDeviation="89.5027"/>
<feComposite in2="hardAlpha" operator="arithmetic" k2="-1" k3="1"/>
<feColorMatrix type="matrix" values="0 0 0 0 0 0 0 0 0 0 0 0 0 0 0 0 0 0 0.24 0"/>
<feBlend mode="normal" in2="shape" result="effect1_innerShadow_38_214"/>
<feColorMatrix in="SourceAlpha" type="matrix" values="0 0 0 0 0 0 0 0 0 0 0 0 0 0 0 0 0 0 127 0" result="hardAlpha"/>
<feOffset dx="40.683" dy="40.683"/>
<feGaussianBlur stdDeviation="22.3757"/>
<feComposite in2="hardAlpha" operator="arithmetic" k2="-1" k3="1"/>
<feColorMatrix type="matrix" values="0 0 0 0 1 0 0 0 0 1 0 0 0 0 1 0 0 0 0.5 0"/>
<feBlend mode="normal" in2="effect1_innerShadow_38_214" result="effect2_innerShadow_38_214"/>
<feColorMatrix in="SourceAlpha" type="matrix" values="0 0 0 0 0 0 0 0 0 0 0 0 0 0 0 0 0 0 127 0" result="hardAlpha"/>
<feOffset dx="67.8051" dy="67.8051"/>
<feGaussianBlur stdDeviation="115.269"/>
<feComposite in2="hardAlpha" operator="arithmetic" k2="-1" k3="1"/>
<feColorMatrix type="matrix" values="0 0 0 0 1 0 0 0 0 1 0 0 0 0 1 0 0 0 0.15 0"/>
<feBlend mode="normal" in2="effect2_innerShadow_38_214" result="effect3_innerShadow_38_214"/>
</filter>
<linearGradient id="paint0_linear_38_214" x1="750" y1="7.35484" x2="750" y2="1507.35" gradientUnits="userSpaceOnUse">
<stop stop-color="#FFE100"/>
<stop offset="1" stop-color="#F98900"/>
</linearGradient>
<linearGradient id="paint1_linear_38_214" x1="1016.13" y1="646.574" x2="1016.13" y2="415.961" gradientUnits="userSpaceOnUse">
<stop offset="0.005" stop-color="#414D4D"/>
<stop offset="0.206" stop-color="#3A4545"/>
<stop offset="0.522" stop-color="#272E2E"/>
<stop offset="0.914" stop-color="#080909"/>
<stop offset="1"/>
</linearGradient>
<linearGradient id="paint2_linear_38_214" x1="483.874" y1="649.743" x2="483.874" y2="432.461" gradientUnits="userSpaceOnUse">
<stop offset="0.005" stop-color="#414D4D"/>
<stop offset="0.206" stop-color="#3A4545"/>
<stop offset="0.522" stop-color="#272E2E"/>
<stop offset="0.914" stop-color="#080909"/>
<stop offset="1"/>
</linearGradient>
<linearGradient id="paint3_linear_38_214" x1="750" y1="1271.98" x2="750" y2="887.082" gradientUnits="userSpaceOnUse">
<stop stop-color="#911625"/>
<stop offset="0.212" stop-color="#861422"/>
<stop offset="0.588" stop-color="#68101A"/>
<stop offset="1" stop-color="#400A10"/>
</linearGradient>
</defs>
</svg>
