<svg width="1500" height="1500" viewBox="0 0 1500 1500" fill="none" xmlns="http://www.w3.org/2000/svg">
<g filter="url(#filter0_iii_68_47)">
<path d="M750 1500C79.8455 1500 -0.911673 919.355 0.00767285 774.194V725.806C-0.911673 580.645 79.8455 0 750 0C1420.15 0 1500.91 580.645 1499.99 725.806V774.194C1500.91 919.355 1420.15 1500 750 1500Z" fill="url(#paint0_linear_68_47)"/>
<path d="M1320.14 883H1150.79V955.581H1261.74L1157.88 1059.44C1153.34 1063.98 1150.79 1070.13 1150.79 1076.55V1124.94C1150.79 1131.35 1153.34 1137.51 1157.88 1142.04C1162.41 1146.58 1168.57 1149.13 1174.98 1149.13H1344.34V1076.55H1233.39L1337.25 972.685C1341.78 968.149 1344.33 961.997 1344.34 955.581V907.194C1344.34 900.777 1341.79 894.623 1337.25 890.086C1332.71 885.549 1326.56 883 1320.14 883Z" fill="#F99C06"/>
<path d="M1060.06 955.578H933.048V1028.16H995.612L934.089 1089.68C929.551 1094.22 927.001 1100.37 927 1106.79V1124.93C927.139 1125.94 927.341 1126.95 927.605 1127.93C927.331 1128.93 927.129 1129.95 927 1130.98V1149.13C927 1155.54 929.549 1161.7 934.086 1166.23C938.623 1170.77 944.777 1173.32 951.193 1173.32H1078.21V1100.74H1015.64L1077.17 1039.22C1081.71 1034.68 1084.26 1028.53 1084.26 1022.11V1003.97C1084.12 1002.95 1083.92 1001.95 1083.65 1000.97C1083.93 999.965 1084.13 998.946 1084.26 997.917V979.772C1084.26 973.355 1081.71 967.201 1077.17 962.664C1072.63 958.127 1066.48 955.578 1060.06 955.578Z" fill="#F99C06"/>
<path d="M1344.34 1124.94H1174.98C1168.57 1124.94 1162.41 1122.39 1157.88 1117.85C1153.34 1113.31 1150.79 1107.16 1150.79 1100.74V1076.55C1150.79 1070.13 1153.34 1063.98 1157.88 1059.44L1285.93 931.387H1150.79V883H1320.14C1326.56 883 1332.71 885.549 1337.25 890.086C1341.79 894.623 1344.34 900.777 1344.34 907.194V931.387C1344.33 937.803 1341.78 943.956 1337.25 948.492L1209.19 1076.55H1344.34V1124.94Z" fill="url(#paint1_linear_68_47)"/>
<path d="M1078.21 1149.13H951.193C944.777 1149.13 938.623 1146.58 934.086 1142.04C929.549 1137.5 927 1131.35 927 1124.93V1106.79C927.001 1100.37 929.551 1094.22 934.089 1089.68L1019.81 1003.97H933.048V955.578H1060.06C1066.48 955.578 1072.63 958.127 1077.17 962.664C1081.71 967.201 1084.26 973.355 1084.26 979.772V997.917C1084.26 1004.33 1081.71 1010.49 1077.17 1015.02L991.451 1100.74H1078.21V1149.13Z" fill="url(#paint2_linear_68_47)"/>
<path d="M870.966 1185.48C870.966 1153.4 858.222 1122.63 835.536 1099.95C812.85 1077.26 782.082 1064.52 750 1064.52C717.917 1064.52 687.149 1077.26 664.463 1099.95C641.778 1122.63 629.033 1153.4 629.033 1185.48C629.033 1189.62 629.856 1193.54 630.243 1197.58C629.856 1201.62 629.033 1205.54 629.033 1209.68C629.033 1241.76 641.778 1272.53 664.463 1295.22C687.149 1317.9 717.917 1330.65 750 1330.65C782.082 1330.65 812.85 1317.9 835.536 1295.22C858.222 1272.53 870.966 1241.76 870.966 1209.68C870.966 1205.54 870.144 1201.62 869.757 1197.58C870.144 1193.54 870.966 1189.62 870.966 1185.48Z" fill="#F9BF06"/>
<path d="M870.966 1161.29C870.966 1129.21 858.222 1098.44 835.536 1075.75C812.85 1053.07 782.082 1040.32 750 1040.32C717.917 1040.32 687.149 1053.07 664.463 1075.75C641.778 1098.44 629.033 1129.21 629.033 1161.29C629.033 1165.43 629.856 1169.35 630.243 1173.39C629.856 1177.43 629.033 1181.35 629.033 1185.49C629.033 1217.57 641.778 1248.34 664.463 1271.02C687.149 1293.71 717.917 1306.45 750 1306.45C782.082 1306.45 812.85 1293.71 835.536 1271.02C858.222 1248.34 870.966 1217.57 870.966 1185.49C870.966 1181.35 870.144 1177.43 869.757 1173.39C870.144 1169.35 870.966 1165.43 870.966 1161.29Z" fill="#ED8D06"/>
<path d="M750 1306.45C816.808 1306.45 870.966 1252.29 870.966 1185.48C870.966 1118.68 816.808 1064.52 750 1064.52C683.192 1064.52 629.033 1118.68 629.033 1185.48C629.033 1252.29 683.192 1306.45 750 1306.45Z" fill="url(#paint3_linear_68_47)"/>
<path d="M1191.72 685.671C1150.29 697.01 1107.46 702.379 1064.51 701.615C1021.57 702.379 978.735 697.01 937.306 685.671C932.7 684.342 927.801 684.423 923.242 685.905C918.683 687.388 914.672 690.203 911.729 693.987C908.786 697.772 907.045 702.352 906.731 707.136C906.417 711.92 907.544 716.688 909.968 720.825C907.338 724.966 906.09 729.834 906.403 734.729C906.716 739.625 908.574 744.294 911.709 748.067C929.848 771.276 953.035 790.049 979.512 802.961C1005.99 815.872 1035.06 822.582 1064.51 822.582C1093.97 822.582 1123.04 815.872 1149.52 802.961C1175.99 790.049 1199.18 771.276 1217.32 748.067C1220.46 744.294 1222.31 739.625 1222.63 734.729C1222.94 729.834 1221.69 724.966 1219.06 720.825C1221.48 716.688 1222.61 711.92 1222.3 707.136C1221.98 702.352 1220.24 697.772 1217.3 693.987C1214.36 690.203 1210.35 687.388 1205.79 685.905C1201.23 684.423 1196.33 684.342 1191.72 685.671Z" fill="#F99C06"/>
<path d="M562.696 685.671C521.267 697.01 478.432 702.379 435.487 701.615C392.542 702.379 349.707 697.01 308.279 685.671C303.673 684.342 298.774 684.423 294.215 685.905C289.655 687.388 285.645 690.203 282.702 693.987C279.759 697.772 278.018 702.352 277.704 707.136C277.39 711.92 278.517 716.688 280.94 720.825C278.311 724.966 277.062 729.834 277.375 734.729C277.688 739.625 279.547 744.294 282.682 748.067C300.821 771.276 324.008 790.049 350.485 802.961C376.961 815.872 406.031 822.582 435.487 822.582C464.944 822.582 494.013 815.872 520.49 802.961C546.966 790.049 570.153 771.276 588.292 748.067C591.428 744.294 593.286 739.625 593.599 734.729C593.912 729.834 592.664 724.966 590.034 720.825C592.457 716.688 593.584 711.92 593.27 707.136C592.956 702.352 591.215 697.772 588.272 693.987C585.329 690.203 581.319 687.388 576.76 685.905C572.201 684.423 567.302 684.342 562.696 685.671Z" fill="#F99C06"/>
<g opacity="0.98">
<path d="M911.706 723.869C908.559 719.851 906.763 714.941 906.575 709.841C906.387 704.742 907.817 699.713 910.659 695.474C913.502 691.236 917.612 688.005 922.401 686.244C927.191 684.482 932.415 684.28 937.326 685.667C978.746 697.009 1021.57 702.377 1064.51 701.611C1107.45 702.377 1150.28 697.009 1191.69 685.667C1196.61 684.28 1201.83 684.482 1206.62 686.244C1211.41 688.005 1215.52 691.236 1218.36 695.474C1221.2 699.713 1222.63 704.742 1222.45 709.841C1222.26 714.941 1220.46 719.851 1217.32 723.869C1199.18 747.079 1175.99 765.852 1149.51 778.763C1123.04 791.674 1093.97 798.384 1064.51 798.384C1035.05 798.384 1005.98 791.674 979.508 778.763C953.032 765.852 929.844 747.079 911.706 723.869Z" fill="url(#paint4_linear_68_47)"/>
<path d="M282.682 723.869C279.535 719.851 277.74 714.941 277.552 709.841C277.364 704.742 278.793 699.713 281.636 695.474C284.478 691.236 288.588 688.005 293.378 686.244C298.168 684.482 303.392 684.28 308.303 685.667C349.723 697.009 392.55 702.377 435.487 701.611C478.425 702.377 521.252 697.009 562.671 685.667C567.583 684.28 572.807 684.482 577.596 686.244C582.386 688.005 586.496 691.236 589.339 695.474C592.181 699.713 593.611 704.742 593.423 709.841C593.235 714.941 591.439 719.851 588.292 723.869C570.153 747.079 546.966 765.852 520.49 778.763C494.013 791.674 464.944 798.384 435.487 798.384C406.031 798.384 376.961 791.674 350.485 778.763C324.008 765.852 300.821 747.079 282.682 723.869Z" fill="url(#paint5_linear_68_47)"/>
</g>
</g>
<defs>
<filter id="filter0_iii_68_47" x="-40.683" y="-40.683" width="1608.49" height="1608.49" filterUnits="userSpaceOnUse" color-interpolation-filters="sRGB">
<feFlood flood-opacity="0" result="BackgroundImageFix"/>
<feBlend mode="normal" in="SourceGraphic" in2="BackgroundImageFix" result="shape"/>
<feColorMatrix in="SourceAlpha" type="matrix" values="0 0 0 0 0 0 0 0 0 0 0 0 0 0 0 0 0 0 127 0" result="hardAlpha"/>
<feOffset dx="-40.683" dy="-40.683"/>
<feGaussianBlur stdDeviation="89.5027"/>
<feComposite in2="hardAlpha" operator="arithmetic" k2="-1" k3="1"/>
<feColorMatrix type="matrix" values="0 0 0 0 0 0 0 0 0 0 0 0 0 0 0 0 0 0 0.24 0"/>
<feBlend mode="normal" in2="shape" result="effect1_innerShadow_68_47"/>
<feColorMatrix in="SourceAlpha" type="matrix" values="0 0 0 0 0 0 0 0 0 0 0 0 0 0 0 0 0 0 127 0" result="hardAlpha"/>
<feOffset dx="40.683" dy="40.683"/>
<feGaussianBlur stdDeviation="22.3757"/>
<feComposite in2="hardAlpha" operator="arithmetic" k2="-1" k3="1"/>
<feColorMatrix type="matrix" values="0 0 0 0 1 0 0 0 0 1 0 0 0 0 1 0 0 0 0.5 0"/>
<feBlend mode="normal" in2="effect1_innerShadow_68_47" result="effect2_innerShadow_68_47"/>
<feColorMatrix in="SourceAlpha" type="matrix" values="0 0 0 0 0 0 0 0 0 0 0 0 0 0 0 0 0 0 127 0" result="hardAlpha"/>
<feOffset dx="67.8051" dy="67.8051"/>
<feGaussianBlur stdDeviation="115.269"/>
<feComposite in2="hardAlpha" operator="arithmetic" k2="-1" k3="1"/>
<feColorMatrix type="matrix" values="0 0 0 0 1 0 0 0 0 1 0 0 0 0 1 0 0 0 0.15 0"/>
<feBlend mode="normal" in2="effect2_innerShadow_68_47" result="effect3_innerShadow_68_47"/>
</filter>
<linearGradient id="paint0_linear_68_47" x1="750" y1="7.35484" x2="750" y2="1507.35" gradientUnits="userSpaceOnUse">
<stop stop-color="#FFE100"/>
<stop offset="1" stop-color="#F98900"/>
</linearGradient>
<linearGradient id="paint1_linear_68_47" x1="1247.56" y1="889.266" x2="1247.56" y2="1123.39" gradientUnits="userSpaceOnUse">
<stop stop-color="#6073FF"/>
<stop offset="0.114" stop-color="#586AEB"/>
<stop offset="0.393" stop-color="#4856BF"/>
<stop offset="0.644" stop-color="#3C489F"/>
<stop offset="0.855" stop-color="#353F8C"/>
<stop offset="1" stop-color="#323C85"/>
</linearGradient>
<linearGradient id="paint2_linear_68_47" x1="1005.63" y1="957.997" x2="1005.63" y2="1143.01" gradientUnits="userSpaceOnUse">
<stop stop-color="#6073FF"/>
<stop offset="0.114" stop-color="#586AEB"/>
<stop offset="0.393" stop-color="#4856BF"/>
<stop offset="0.644" stop-color="#3C489F"/>
<stop offset="0.855" stop-color="#353F8C"/>
<stop offset="1" stop-color="#323C85"/>
</linearGradient>
<linearGradient id="paint3_linear_68_47" x1="750" y1="1305.1" x2="750" y2="1023.87" gradientUnits="userSpaceOnUse">
<stop stop-color="#911625"/>
<stop offset="0.587" stop-color="#630F19"/>
<stop offset="1" stop-color="#400A10"/>
</linearGradient>
<linearGradient id="paint4_linear_68_47" x1="1064.51" y1="798.845" x2="1064.51" y2="710.296" gradientUnits="userSpaceOnUse">
<stop stop-color="#803F02"/>
<stop offset="0.174" stop-color="#6D3602"/>
<stop offset="0.515" stop-color="#4D2601"/>
<stop offset="0.802" stop-color="#3A1C01"/>
<stop offset="1" stop-color="#331901"/>
</linearGradient>
<linearGradient id="paint5_linear_68_47" x1="435.487" y1="796.571" x2="435.487" y2="704.925" gradientUnits="userSpaceOnUse">
<stop stop-color="#803F02"/>
<stop offset="0.174" stop-color="#6D3602"/>
<stop offset="0.515" stop-color="#4D2601"/>
<stop offset="0.802" stop-color="#3A1C01"/>
<stop offset="1" stop-color="#331901"/>
</linearGradient>
</defs>
</svg>
