<svg width="1500" height="1500" viewBox="0 0 1500 1500" fill="none" xmlns="http://www.w3.org/2000/svg">
<g filter="url(#filter0_iii_38_319)">
<path d="M750 1500C79.8455 1500 -0.911673 919.355 0.00767285 774.194V725.806C-0.911673 580.645 79.8455 0 750 0C1420.15 0 1500.91 580.645 1499.99 725.806V774.194C1500.91 919.355 1420.15 1500 750 1500Z" fill="url(#paint0_linear_38_319)"/>
<path d="M1185.48 435.485C1185.48 435.485 1157.44 440.154 1118.8 449.493C1154.97 427.332 1185.48 411.292 1185.48 411.292C1185.48 411.292 895.157 459.679 895.157 556.453C895.216 560.541 895.793 564.606 896.874 568.55C895.793 572.493 895.216 576.558 895.157 580.646C895.157 677.421 1185.48 725.808 1185.48 725.808C1185.48 725.808 1154.97 709.767 1118.8 687.606C1157.44 696.945 1185.48 701.614 1185.48 701.614C1185.48 701.614 1028.51 619.356 1004.2 568.55C1028.51 517.743 1185.48 435.485 1185.48 435.485Z" fill="#F99C06"/>
<path d="M314.523 411.292C314.523 411.292 345.031 427.332 381.2 449.493C342.563 440.154 314.523 435.485 314.523 435.485C314.523 435.485 471.489 517.743 495.803 568.55C471.489 619.356 314.523 701.614 314.523 701.614C314.523 701.614 342.563 696.945 381.2 687.606C345.031 709.767 314.523 725.808 314.523 725.808C314.523 725.808 604.843 677.421 604.843 580.646C604.783 576.558 604.206 572.493 603.125 568.55C604.206 564.606 604.783 560.541 604.843 556.453C604.843 459.679 314.523 411.292 314.523 411.292Z" fill="#F99C06"/>
<path d="M1185.48 411.292C1185.48 411.292 895.157 459.679 895.157 556.453C895.157 653.227 1185.48 701.614 1185.48 701.614C1185.48 701.614 1000.74 604.84 1000.74 556.453C1000.74 508.066 1185.48 411.292 1185.48 411.292Z" fill="#472301"/>
<path d="M314.523 411.292C314.523 411.292 604.843 459.679 604.843 556.453C604.843 653.227 314.523 701.614 314.523 701.614C314.523 701.614 499.263 604.84 499.263 556.453C499.263 508.066 314.523 411.292 314.523 411.292Z" fill="#472301"/>
<path d="M1209.67 289.911C1209.63 283.578 1207.12 277.51 1202.68 272.994C1198.25 268.478 1192.22 265.868 1185.89 265.717C1007.73 259.572 930.071 185.056 903.676 150.919C900.295 146.359 895.417 143.133 889.897 141.806C884.378 140.479 878.567 141.136 873.483 143.661C870.554 145.145 867.964 147.22 865.877 149.755C863.789 152.289 862.249 155.229 861.354 158.388C860.458 161.547 860.227 164.858 860.674 168.111C861.121 171.364 862.236 174.489 863.951 177.29C861.405 181.342 860.155 186.073 860.367 190.854C860.579 195.634 862.242 200.237 865.136 204.048C898.232 246.749 988.328 331.596 1185.04 338.177C1188.26 338.235 1191.45 337.651 1194.44 336.462C1197.42 335.272 1200.14 333.499 1202.43 331.246C1204.73 328.994 1206.55 326.307 1207.79 323.343C1209.03 320.379 1209.67 317.197 1209.67 313.983C1209.58 309.684 1208.29 305.495 1205.95 301.886C1208.24 298.3 1209.53 294.164 1209.67 289.911Z" fill="#F99C06"/>
<path d="M626.613 143.782C621.528 141.257 615.718 140.601 610.198 141.928C604.679 143.255 599.801 146.48 596.42 151.04C570.025 185.177 492.389 259.693 314.205 265.839C307.874 265.989 301.85 268.6 297.411 273.116C292.972 277.632 290.465 283.699 290.423 290.032C290.548 294.327 291.836 298.508 294.149 302.129C291.81 305.738 290.52 309.926 290.423 314.226C290.422 317.44 291.062 320.622 292.305 323.586C293.548 326.55 295.369 329.237 297.662 331.489C299.955 333.741 302.674 335.514 305.659 336.704C308.645 337.894 311.838 338.477 315.052 338.419C511.767 331.839 601.863 246.992 634.96 204.29C637.854 200.479 639.517 195.877 639.729 191.096C639.941 186.316 638.691 181.584 636.145 177.532C637.88 174.727 639.012 171.592 639.47 168.326C639.928 165.059 639.701 161.734 638.805 158.56C637.908 155.386 636.362 152.433 634.263 149.889C632.164 147.345 629.559 145.265 626.613 143.782Z" fill="#F99C06"/>
<path d="M1209.67 289.911C1209.67 293.127 1209.03 296.311 1207.79 299.276C1206.54 302.242 1204.72 304.93 1202.43 307.183C1200.13 309.435 1197.41 311.208 1194.42 312.396C1191.43 313.585 1188.24 314.165 1185.02 314.104C988.329 307.523 898.233 222.677 865.136 179.975C862.979 177.149 861.47 173.883 860.719 170.408C859.967 166.933 859.991 163.335 860.787 159.87C861.584 156.405 863.135 153.158 865.329 150.361C867.524 147.563 870.308 145.284 873.483 143.685C878.568 141.16 884.378 140.503 889.898 141.83C895.417 143.157 900.295 146.383 903.676 150.943C930.071 185.08 1007.71 259.596 1185.89 265.741C1192.22 265.892 1198.25 268.502 1202.69 273.018C1207.12 277.535 1209.63 283.602 1209.67 289.935V289.911Z" fill="url(#paint1_radial_38_319)"/>
<path d="M290.326 289.911C290.368 283.578 292.874 277.51 297.314 272.994C301.753 268.478 307.777 265.868 314.108 265.717C492.267 259.572 569.928 185.056 596.323 150.919C599.704 146.359 604.581 143.133 610.101 141.806C615.621 140.479 621.431 141.136 626.516 143.661C629.691 145.26 632.475 147.539 634.669 150.337C636.864 153.134 638.414 156.381 639.211 159.846C640.008 163.311 640.032 166.908 639.28 170.383C638.528 173.858 637.02 177.125 634.863 179.951C601.766 222.653 511.67 307.499 314.979 314.08C311.765 314.141 308.572 313.561 305.585 312.374C302.598 311.187 299.877 309.417 297.582 307.167C295.287 304.917 293.463 302.232 292.217 299.269C290.971 296.306 290.328 293.125 290.326 289.911Z" fill="url(#paint2_radial_38_319)"/>
<path d="M1161.29 1088.71C1157.41 1016.44 1128.99 947.645 1080.72 893.711C1022.66 829.598 922.5 774.195 750.002 774.195C577.504 774.195 477.343 829.598 419.28 893.711C408.497 905.462 398.706 918.086 390.006 931.453C359.305 978.415 341.607 1032.68 338.716 1088.71C338.822 1091.86 339.137 1094.99 339.659 1098.1C338.716 1107.44 338.716 1112.9 338.716 1112.9C338.716 1132.15 346.363 1150.61 359.974 1164.23C373.585 1177.84 392.046 1185.48 411.296 1185.48H422.909C430.735 1185.52 438.508 1184.21 445.892 1181.61C474.631 1171.97 503.967 1164.22 533.714 1158.39V1158.15C676.54 1130.08 823.464 1130.08 966.29 1158.15V1158.39C996.037 1164.22 1025.37 1171.97 1054.11 1181.61C1061.5 1184.21 1069.27 1185.52 1077.1 1185.48H1088.71C1107.96 1185.48 1126.42 1177.84 1140.03 1164.23C1153.64 1150.61 1161.29 1132.15 1161.29 1112.9C1161.29 1112.9 1161.29 1107.36 1160.34 1098.1C1160.86 1094.99 1161.17 1091.86 1161.29 1088.71Z" fill="#F99406"/>
<path d="M1161.29 1112.9C1157.41 1040.63 1128.99 971.838 1080.72 917.904C1022.66 853.791 922.5 798.388 750.002 798.388C577.504 798.388 477.343 853.791 419.28 917.904C408.497 929.655 398.706 942.279 390.006 955.646C359.305 1002.61 341.607 1056.87 338.716 1112.9C338.822 1116.05 339.137 1119.19 339.659 1122.29C338.716 1131.63 338.716 1137.1 338.716 1137.1C338.716 1156.35 346.363 1174.81 359.974 1188.42C373.585 1202.03 392.046 1209.68 411.296 1209.68H422.909C430.735 1209.71 438.508 1208.4 445.892 1205.81C474.631 1196.17 503.967 1188.41 533.714 1182.58V1182.34C676.54 1154.27 823.464 1154.27 966.29 1182.34V1182.58C996.037 1188.41 1025.37 1196.17 1054.11 1205.81C1061.5 1208.4 1069.27 1209.71 1077.1 1209.68H1088.71C1107.96 1209.68 1126.42 1202.03 1140.03 1188.42C1153.64 1174.81 1161.29 1156.35 1161.29 1137.1C1161.29 1137.1 1161.29 1131.56 1160.34 1122.29C1160.86 1119.18 1161.17 1116.05 1161.29 1112.9Z" fill="#F9BF06"/>
<path d="M1080.72 917.904C971.288 901.277 860.675 893.671 749.998 895.162C639.32 893.671 528.707 901.277 419.275 917.904C477.339 853.791 577.5 798.388 749.998 798.388C922.496 798.388 1022.66 853.791 1080.72 917.904Z" fill="url(#paint3_linear_38_319)"/>
<path d="M966.288 1158.15C823.461 1130.08 676.538 1130.08 533.711 1158.15C542.905 1139.03 597.098 1040.32 750 1040.32C902.901 1040.32 957.094 1139.03 966.288 1158.15Z" fill="#8F030E"/>
<path d="M1161.29 1112.9C1161.29 1132.15 1153.64 1150.61 1140.03 1164.23C1126.42 1177.84 1107.96 1185.48 1088.71 1185.48H1077.1C1069.27 1185.52 1061.5 1184.21 1054.11 1181.61C1025.37 1171.97 996.037 1164.21 966.29 1158.39V1158.15C957.097 1139.03 902.904 1040.32 750.002 1040.32C597.1 1040.32 542.907 1139.03 533.714 1158.15V1158.39C503.967 1164.21 474.631 1171.97 445.892 1181.61C438.508 1184.21 430.735 1185.52 422.909 1185.48H411.296C392.046 1185.48 373.585 1177.84 359.974 1164.23C346.363 1150.61 338.716 1132.15 338.716 1112.9C341.607 1056.87 359.305 1002.61 390.006 955.645C398.706 942.279 408.497 929.655 419.28 917.903C528.711 901.277 639.324 893.671 750.002 895.162C860.68 893.671 971.293 901.277 1080.72 917.903C1128.99 971.838 1157.41 1040.63 1161.29 1112.9Z" fill="url(#paint4_linear_38_319)"/>
<path d="M1080.72 917.904C971.288 901.277 860.675 893.671 749.998 895.162C639.32 893.671 528.707 901.277 419.275 917.904C477.339 853.791 577.5 798.388 749.998 798.388C922.496 798.388 1022.66 853.791 1080.72 917.904Z" fill="url(#paint5_linear_38_319)"/>
</g>
<defs>
<filter id="filter0_iii_38_319" x="-40.683" y="-40.683" width="1608.49" height="1608.49" filterUnits="userSpaceOnUse" color-interpolation-filters="sRGB">
<feFlood flood-opacity="0" result="BackgroundImageFix"/>
<feBlend mode="normal" in="SourceGraphic" in2="BackgroundImageFix" result="shape"/>
<feColorMatrix in="SourceAlpha" type="matrix" values="0 0 0 0 0 0 0 0 0 0 0 0 0 0 0 0 0 0 127 0" result="hardAlpha"/>
<feOffset dx="-40.683" dy="-40.683"/>
<feGaussianBlur stdDeviation="89.5027"/>
<feComposite in2="hardAlpha" operator="arithmetic" k2="-1" k3="1"/>
<feColorMatrix type="matrix" values="0 0 0 0 0 0 0 0 0 0 0 0 0 0 0 0 0 0 0.24 0"/>
<feBlend mode="normal" in2="shape" result="effect1_innerShadow_38_319"/>
<feColorMatrix in="SourceAlpha" type="matrix" values="0 0 0 0 0 0 0 0 0 0 0 0 0 0 0 0 0 0 127 0" result="hardAlpha"/>
<feOffset dx="40.683" dy="40.683"/>
<feGaussianBlur stdDeviation="22.3757"/>
<feComposite in2="hardAlpha" operator="arithmetic" k2="-1" k3="1"/>
<feColorMatrix type="matrix" values="0 0 0 0 1 0 0 0 0 1 0 0 0 0 1 0 0 0 0.5 0"/>
<feBlend mode="normal" in2="effect1_innerShadow_38_319" result="effect2_innerShadow_38_319"/>
<feColorMatrix in="SourceAlpha" type="matrix" values="0 0 0 0 0 0 0 0 0 0 0 0 0 0 0 0 0 0 127 0" result="hardAlpha"/>
<feOffset dx="67.8051" dy="67.8051"/>
<feGaussianBlur stdDeviation="115.269"/>
<feComposite in2="hardAlpha" operator="arithmetic" k2="-1" k3="1"/>
<feColorMatrix type="matrix" values="0 0 0 0 1 0 0 0 0 1 0 0 0 0 1 0 0 0 0.15 0"/>
<feBlend mode="normal" in2="effect2_innerShadow_38_319" result="effect3_innerShadow_38_319"/>
</filter>
<linearGradient id="paint0_linear_38_319" x1="750" y1="7.35484" x2="750" y2="1507.35" gradientUnits="userSpaceOnUse">
<stop stop-color="#FFE100"/>
<stop offset="1" stop-color="#F98900"/>
</linearGradient>
<radialGradient id="paint1_radial_38_319" cx="0" cy="0" r="1" gradientUnits="userSpaceOnUse" gradientTransform="translate(1034.9 227.685) scale(137.878 137.879)">
<stop offset="0.005" stop-color="#414D4D"/>
<stop offset="0.206" stop-color="#3A4545"/>
<stop offset="0.522" stop-color="#272E2E"/>
<stop offset="0.914" stop-color="#080909"/>
<stop offset="1"/>
</radialGradient>
<radialGradient id="paint2_radial_38_319" cx="0" cy="0" r="1" gradientUnits="userSpaceOnUse" gradientTransform="translate(465.098 227.685) scale(137.878 137.879)">
<stop offset="0.005" stop-color="#414D4D"/>
<stop offset="0.206" stop-color="#3A4545"/>
<stop offset="0.522" stop-color="#272E2E"/>
<stop offset="0.914" stop-color="#080909"/>
<stop offset="1"/>
</radialGradient>
<linearGradient id="paint3_linear_38_319" x1="419.275" y1="858.146" x2="1080.72" y2="858.146" gradientUnits="userSpaceOnUse">
<stop stop-color="#B8B4B2"/>
<stop offset="0.143" stop-color="#D0CCC9"/>
<stop offset="0.374" stop-color="#F2EDEA"/>
<stop offset="0.5" stop-color="#FFFAF6"/>
<stop offset="0.638" stop-color="#F9F5F1"/>
<stop offset="0.825" stop-color="#E8E5E3"/>
<stop offset="1" stop-color="#D1D1D1"/>
</linearGradient>
<linearGradient id="paint4_linear_38_319" x1="750.002" y1="1113.82" x2="750.002" y2="827.25" gradientUnits="userSpaceOnUse">
<stop stop-color="#69101B"/>
<stop offset="0.427" stop-color="#400A10"/>
</linearGradient>
<linearGradient id="paint5_linear_38_319" x1="751.885" y1="802.96" x2="750.53" y2="885.993" gradientUnits="userSpaceOnUse">
<stop stop-color="#ABABAB" stop-opacity="0.5"/>
<stop offset="0.541" stop-color="#C1C1C1" stop-opacity="0.216"/>
<stop offset="1" stop-color="#D1D1D1" stop-opacity="0"/>
</linearGradient>
</defs>
</svg>
