<svg width="1500" height="1500" viewBox="0 0 1500 1500" fill="none" xmlns="http://www.w3.org/2000/svg">
<g filter="url(#filter0_iii_42_157)">
<path d="M750 1500C79.8455 1500 -0.911673 919.355 0.00767285 774.194V725.806C-0.911673 580.645 79.8455 0 750 0C1420.15 0 1500.91 580.645 1499.99 725.806V774.194C1500.91 919.355 1420.15 1500 750 1500Z" fill="url(#paint0_linear_42_157)"/>
<g opacity="0.3">
<path d="M1137.09 653.226C1085.31 653.185 1034.21 665.019 987.71 687.817C941.215 710.615 900.567 743.771 868.889 784.735C837.211 825.7 815.348 873.382 804.98 924.118C794.612 974.853 796.014 1027.29 809.08 1077.4C822.147 1127.51 846.528 1173.95 880.35 1213.16C914.173 1252.38 956.536 1283.31 1004.18 1303.59C1051.83 1323.87 1103.49 1332.96 1155.2 1330.15C1206.91 1327.34 1257.28 1312.71 1302.45 1287.39C1386 1194.68 1445.05 1082.55 1474.23 961.21C1466.56 877.076 1427.73 798.843 1365.36 741.863C1302.99 684.883 1221.57 653.27 1137.09 653.226Z" fill="url(#paint1_radial_42_157)"/>
<path d="M701.612 991.935C701.206 905.041 667.419 821.628 607.241 758.945C547.063 696.263 465.095 659.106 378.292 655.16C291.488 651.214 206.488 680.78 140.87 737.743C75.2525 794.707 34.0372 874.711 25.748 961.209C54.9252 1082.55 113.972 1194.68 197.52 1287.39C249.049 1316.29 307.246 1331.21 366.325 1330.65C425.404 1330.09 483.309 1314.08 534.281 1284.2C585.253 1254.33 627.518 1211.63 656.874 1160.36C686.23 1109.08 701.654 1051.02 701.612 991.935Z" fill="url(#paint2_radial_42_157)"/>
</g>
<path d="M1258.06 510.854C1258.06 504.438 1255.51 498.284 1250.97 493.747C1246.43 489.21 1240.28 486.661 1233.86 486.661C912.964 486.661 895.666 392.669 895.158 388.943C895.033 382.527 892.364 376.423 887.738 371.974C883.113 367.525 876.909 365.096 870.493 365.221C864.076 365.347 857.972 368.015 853.524 372.641C849.075 377.267 846.646 383.47 846.771 389.887C846.857 394.797 847.572 399.675 848.9 404.403C847.526 407.446 846.801 410.742 846.771 414.08C846.771 428.935 857.634 559.242 1233.86 559.242C1240.28 559.242 1246.43 556.693 1250.97 552.155C1255.51 547.618 1258.06 541.465 1258.06 535.048C1257.95 530.754 1256.67 526.572 1254.36 522.951C1256.67 519.33 1257.95 515.148 1258.06 510.854Z" fill="#58A119"/>
<path d="M630.146 366.323C623.852 366.121 617.72 368.343 613.016 372.529C608.312 376.716 605.394 382.548 604.864 388.823C604.84 389.888 591.872 486.662 266.134 486.662C259.717 486.662 253.564 489.211 249.026 493.748C244.489 498.285 241.94 504.439 241.94 510.856C242.052 515.149 243.332 519.331 245.642 522.953C243.332 526.574 242.052 530.756 241.94 535.049C241.94 541.466 244.489 547.62 249.026 552.157C253.564 556.694 259.717 559.243 266.134 559.243C642.364 559.243 653.227 428.936 653.227 414.082C653.207 410.736 652.464 407.435 651.049 404.404C652.396 399.679 653.128 394.8 653.227 389.888C653.191 383.732 650.763 377.832 646.456 373.434C642.148 369.037 636.3 366.487 630.146 366.323Z" fill="#58A119"/>
<path d="M1233.86 535.048C857.634 535.048 846.771 404.742 846.771 389.887C846.646 383.47 849.075 377.267 853.524 372.641C857.972 368.015 864.076 365.347 870.493 365.221C876.909 365.096 883.113 367.525 887.738 371.974C892.364 376.423 895.033 382.527 895.158 388.943C895.69 392.669 912.988 486.661 1233.86 486.661C1240.28 486.661 1246.43 489.21 1250.97 493.747C1255.51 498.284 1258.06 504.438 1258.06 510.854C1258.06 517.271 1255.51 523.425 1250.97 527.962C1246.43 532.499 1240.28 535.048 1233.86 535.048Z" fill="url(#paint3_radial_42_157)"/>
<path d="M266.134 535.049C259.717 535.049 253.564 532.5 249.026 527.963C244.489 523.426 241.94 517.272 241.94 510.856C241.94 504.439 244.489 498.285 249.026 493.748C253.564 489.211 259.717 486.662 266.134 486.662C591.872 486.662 604.84 389.888 604.84 388.823C605.37 382.548 608.288 376.716 612.992 372.529C617.696 368.343 623.828 366.121 630.122 366.323C636.28 366.48 642.134 369.028 646.447 373.426C650.759 377.824 653.191 383.728 653.227 389.888C653.227 404.743 642.364 535.049 266.134 535.049Z" fill="url(#paint4_radial_42_157)"/>
<path d="M1121.43 588.339C1000.47 588.339 879.502 685.113 879.502 685.113C927.657 672.081 977.207 664.9 1027.08 663.726C1022.65 683.29 1024.4 703.749 1032.11 722.272C1039.81 740.795 1053.08 756.466 1070.08 767.118C1087.08 777.77 1106.96 782.875 1126.99 781.729C1147.02 780.583 1166.2 773.241 1181.87 760.719C1197.54 748.197 1208.93 731.114 1214.47 711.833C1220.01 692.553 1219.42 672.027 1212.79 653.096C1206.15 634.165 1193.79 617.765 1177.43 606.164C1161.06 594.562 1141.5 588.333 1121.43 588.339Z" fill="url(#paint5_linear_42_157)"/>
<path d="M468.214 588.339C347.248 588.339 226.281 685.113 226.281 685.113C274.476 672.072 324.067 664.891 373.981 663.726C369.547 683.296 371.305 703.76 379.013 722.286C386.72 740.812 399.996 756.485 417.003 767.134C434.009 777.783 453.905 782.883 473.937 781.727C493.97 780.57 513.147 773.216 528.816 760.681C544.484 748.146 555.869 731.051 561.394 711.761C566.919 692.471 566.312 671.94 559.655 653.011C552.999 634.081 540.623 617.689 524.241 606.102C507.859 594.516 488.28 588.308 468.214 588.339Z" fill="url(#paint6_linear_42_157)"/>
<path d="M952.597 1124.46C952.609 1117.56 950.357 1110.86 946.186 1105.37C924.508 1076.75 848.735 988.975 734.857 988.975C620.979 988.975 545.206 1076.75 523.529 1105.37C520.129 1109.75 517.986 1114.97 517.33 1120.47C516.674 1125.97 517.528 1131.55 519.803 1136.6C518.114 1140.42 517.202 1144.53 517.117 1148.7C517.56 1155.04 519.637 1161.15 523.146 1166.44C526.655 1171.74 531.477 1176.03 537.14 1178.91C542.803 1181.78 549.115 1183.14 555.46 1182.85C561.805 1182.56 567.966 1180.63 573.343 1177.25C599.955 1161.72 631.407 1144.18 659.616 1128.86C682.753 1116.45 708.601 1109.95 734.857 1109.95C761.113 1109.95 786.961 1116.45 810.098 1128.86C838.259 1144.22 869.832 1161.76 896.372 1177.25C901.752 1180.63 907.917 1182.56 914.265 1182.85C920.614 1183.14 926.929 1181.78 932.593 1178.89C938.258 1176.01 943.078 1171.71 946.584 1166.41C950.09 1161.11 952.162 1154.99 952.597 1148.65C952.513 1144.48 951.6 1140.37 949.911 1136.56C951.6 1132.74 952.513 1128.63 952.597 1124.46Z" fill="#ED8D06"/>
<path d="M952.597 1148.65C952.609 1141.76 950.357 1135.05 946.186 1129.56C924.508 1100.94 848.735 1013.17 734.857 1013.17C620.979 1013.17 545.206 1100.94 523.529 1129.56C520.129 1133.94 517.986 1139.16 517.33 1144.66C516.674 1150.17 517.528 1155.74 519.803 1160.8C518.114 1164.61 517.202 1168.72 517.117 1172.89C517.56 1179.23 519.637 1185.34 523.146 1190.64C526.655 1195.93 531.477 1200.23 537.14 1203.1C542.803 1205.98 549.115 1207.33 555.46 1207.04C561.805 1206.75 567.966 1204.82 573.343 1201.44C599.955 1185.91 631.407 1168.37 659.616 1153.05C682.753 1140.64 708.601 1134.15 734.857 1134.15C761.113 1134.15 786.961 1140.64 810.098 1153.05C838.259 1168.42 869.832 1185.96 896.372 1201.44C901.752 1204.82 907.917 1206.75 914.265 1207.04C920.614 1207.33 926.929 1205.97 932.593 1203.09C938.258 1200.21 943.078 1195.91 946.584 1190.6C950.09 1185.3 952.162 1179.19 952.597 1172.84C952.513 1168.67 951.6 1164.56 949.911 1160.75C951.6 1156.93 952.513 1152.82 952.597 1148.65Z" fill="#F9BF06"/>
<path d="M946.184 1129.56C924.506 1100.94 848.733 1013.17 734.855 1013.17C620.977 1013.17 545.204 1100.94 523.526 1129.56C519.355 1135.05 517.103 1141.76 517.115 1148.65C517.558 1154.99 519.635 1161.1 523.144 1166.39C526.653 1171.69 531.475 1175.98 537.138 1178.86C542.801 1181.73 549.113 1183.09 555.458 1182.8C561.803 1182.51 567.964 1180.58 573.341 1177.2C599.953 1161.67 631.404 1144.13 659.614 1128.81C682.751 1116.4 708.599 1109.91 734.855 1109.91C761.111 1109.91 786.959 1116.4 810.096 1128.81C838.257 1144.18 869.829 1161.72 896.369 1177.2C901.746 1180.58 907.907 1182.51 914.252 1182.8C920.597 1183.09 926.909 1181.73 932.572 1178.86C938.235 1175.98 943.057 1171.69 946.566 1166.39C950.075 1161.1 952.152 1154.99 952.595 1148.65C952.607 1141.76 950.355 1135.05 946.184 1129.56Z" fill="url(#paint7_linear_42_157)"/>
</g>
<defs>
<filter id="filter0_iii_42_157" x="-40.683" y="-40.683" width="1608.49" height="1608.49" filterUnits="userSpaceOnUse" color-interpolation-filters="sRGB">
<feFlood flood-opacity="0" result="BackgroundImageFix"/>
<feBlend mode="normal" in="SourceGraphic" in2="BackgroundImageFix" result="shape"/>
<feColorMatrix in="SourceAlpha" type="matrix" values="0 0 0 0 0 0 0 0 0 0 0 0 0 0 0 0 0 0 127 0" result="hardAlpha"/>
<feOffset dx="-40.683" dy="-40.683"/>
<feGaussianBlur stdDeviation="89.5027"/>
<feComposite in2="hardAlpha" operator="arithmetic" k2="-1" k3="1"/>
<feColorMatrix type="matrix" values="0 0 0 0 0 0 0 0 0 0 0 0 0 0 0 0 0 0 0.24 0"/>
<feBlend mode="normal" in2="shape" result="effect1_innerShadow_42_157"/>
<feColorMatrix in="SourceAlpha" type="matrix" values="0 0 0 0 0 0 0 0 0 0 0 0 0 0 0 0 0 0 127 0" result="hardAlpha"/>
<feOffset dx="40.683" dy="40.683"/>
<feGaussianBlur stdDeviation="22.3757"/>
<feComposite in2="hardAlpha" operator="arithmetic" k2="-1" k3="1"/>
<feColorMatrix type="matrix" values="0 0 0 0 1 0 0 0 0 1 0 0 0 0 1 0 0 0 0.5 0"/>
<feBlend mode="normal" in2="effect1_innerShadow_42_157" result="effect2_innerShadow_42_157"/>
<feColorMatrix in="SourceAlpha" type="matrix" values="0 0 0 0 0 0 0 0 0 0 0 0 0 0 0 0 0 0 127 0" result="hardAlpha"/>
<feOffset dx="67.8051" dy="67.8051"/>
<feGaussianBlur stdDeviation="115.269"/>
<feComposite in2="hardAlpha" operator="arithmetic" k2="-1" k3="1"/>
<feColorMatrix type="matrix" values="0 0 0 0 1 0 0 0 0 1 0 0 0 0 1 0 0 0 0.15 0"/>
<feBlend mode="normal" in2="effect2_innerShadow_42_157" result="effect3_innerShadow_42_157"/>
</filter>
<linearGradient id="paint0_linear_42_157" x1="750" y1="7.35484" x2="750" y2="1507.35" gradientUnits="userSpaceOnUse">
<stop stop-color="#56B000"/>
<stop offset="0.283" stop-color="#87CA45"/>
<stop offset="0.611" stop-color="#FFE100"/>
<stop offset="0.615" stop-color="#FFE000"/>
<stop offset="0.876" stop-color="#FBA100"/>
<stop offset="1" stop-color="#F98900"/>
</linearGradient>
<radialGradient id="paint1_radial_42_157" cx="0" cy="0" r="1" gradientUnits="userSpaceOnUse" gradientTransform="translate(1137.01 991.956) scale(338.774 338.778)">
<stop stop-color="#FF6600"/>
<stop offset="0.098" stop-color="#FF6800" stop-opacity="0.978"/>
<stop offset="0.222" stop-color="#FE6D01" stop-opacity="0.916"/>
<stop offset="0.36" stop-color="#FE7501" stop-opacity="0.814"/>
<stop offset="0.509" stop-color="#FD8003" stop-opacity="0.672"/>
<stop offset="0.666" stop-color="#FC8E04" stop-opacity="0.488"/>
<stop offset="0.83" stop-color="#FBA006" stop-opacity="0.264"/>
<stop offset="0.997" stop-color="#F9B508" stop-opacity="0.01"/>
<stop offset="1" stop-color="#F9B508" stop-opacity="0"/>
</radialGradient>
<radialGradient id="paint2_radial_42_157" cx="0" cy="0" r="1" gradientUnits="userSpaceOnUse" gradientTransform="translate(362.679 991.956) scale(338.774 338.778)">
<stop stop-color="#FF6600"/>
<stop offset="0.098" stop-color="#FF6800" stop-opacity="0.978"/>
<stop offset="0.222" stop-color="#FE6D01" stop-opacity="0.916"/>
<stop offset="0.36" stop-color="#FE7501" stop-opacity="0.814"/>
<stop offset="0.509" stop-color="#FD8003" stop-opacity="0.672"/>
<stop offset="0.666" stop-color="#FC8E04" stop-opacity="0.488"/>
<stop offset="0.83" stop-color="#FBA006" stop-opacity="0.264"/>
<stop offset="0.997" stop-color="#F9B508" stop-opacity="0.01"/>
<stop offset="1" stop-color="#F9B508" stop-opacity="0"/>
</radialGradient>
<radialGradient id="paint3_radial_42_157" cx="0" cy="0" r="1" gradientUnits="userSpaceOnUse" gradientTransform="translate(1052.41 450.371) scale(157.256 157.258)">
<stop offset="0.005" stop-color="#414D4D"/>
<stop offset="0.206" stop-color="#3A4545"/>
<stop offset="0.522" stop-color="#272E2E"/>
<stop offset="0.914" stop-color="#080909"/>
<stop offset="1"/>
</radialGradient>
<radialGradient id="paint4_radial_42_157" cx="0" cy="0" r="1" gradientUnits="userSpaceOnUse" gradientTransform="translate(447.584 450.662) scale(157.184 157.185)">
<stop offset="0.005" stop-color="#414D4D"/>
<stop offset="0.206" stop-color="#3A4545"/>
<stop offset="0.522" stop-color="#272E2E"/>
<stop offset="0.914" stop-color="#080909"/>
<stop offset="1"/>
</radialGradient>
<linearGradient id="paint5_linear_42_157" x1="1119.86" y1="578.807" x2="1068.16" y2="665.903" gradientUnits="userSpaceOnUse">
<stop offset="0.005" stop-color="#414D4D"/>
<stop offset="0.206" stop-color="#3A4545"/>
<stop offset="0.522" stop-color="#272E2E"/>
<stop offset="0.914" stop-color="#080909"/>
<stop offset="1"/>
</linearGradient>
<linearGradient id="paint6_linear_42_157" x1="466.642" y1="578.807" x2="414.94" y2="665.903" gradientUnits="userSpaceOnUse">
<stop offset="0.005" stop-color="#414D4D"/>
<stop offset="0.206" stop-color="#3A4545"/>
<stop offset="0.522" stop-color="#272E2E"/>
<stop offset="0.914" stop-color="#080909"/>
<stop offset="1"/>
</linearGradient>
<linearGradient id="paint7_linear_42_157" x1="734.855" y1="1182.52" x2="734.855" y2="1039.22" gradientUnits="userSpaceOnUse">
<stop stop-color="#69101B"/>
<stop offset="1" stop-color="#400A10"/>
</linearGradient>
</defs>
</svg>
