<svg width="1500" height="1500" viewBox="0 0 1500 1500" fill="none" xmlns="http://www.w3.org/2000/svg">
<g filter="url(#filter0_iii_45_297)">
<path d="M750 1500C79.8455 1500 -0.911673 919.355 0.00767285 774.194V725.806C-0.911673 580.645 79.8455 0 750 0C1420.15 0 1500.91 580.645 1499.99 725.806V774.194C1500.91 919.355 1420.15 1500 750 1500Z" fill="url(#paint0_linear_45_297)"/>
<path d="M750 1500C79.8455 1500 -0.911673 919.355 0.00767285 774.194V725.806C-0.911673 580.645 79.8455 0 750 0C1420.15 0 1500.91 580.645 1499.99 725.806V774.194C1500.91 919.355 1420.15 1500 750 1500Z" fill="url(#paint1_linear_45_297)" fill-opacity="0.7"/>
<path d="M748.769 1030.21C970.166 1030.21 1108.54 1102.62 1108.54 1102.62C1097.02 1084.51 1077.36 1067.59 1050.7 1052.83C1024.03 1038.07 990.9 1025.77 953.229 1016.65C890.473 1001.79 820.188 994 748.769 994C677.351 994 607.066 1001.79 544.31 1016.65C506.638 1025.77 473.505 1038.07 446.841 1052.83C420.177 1067.59 400.514 1084.51 389 1102.62C389 1102.62 527.373 1030.21 748.769 1030.21Z" fill="#ED8D06"/>
<path d="M748.769 1042.28C881.581 1042.52 1009.58 1063.99 1108.54 1102.62C1108.54 1102.62 1080.31 1058.91 953.229 1028.72C890.473 1013.86 820.188 1006.07 748.769 1006.07C677.351 1006.07 607.066 1013.86 544.31 1028.72C417.228 1058.91 389 1102.62 389 1102.62C487.96 1063.99 615.958 1042.52 748.769 1042.28Z" fill="#F9BF06"/>
<path d="M389 1102.62C389 1102.62 417.228 1058.91 544.31 1028.72C607.066 1013.86 677.351 1006.07 748.769 1006.07C820.188 1006.07 890.473 1013.86 953.229 1028.72C1080.31 1058.91 1108.54 1102.62 1108.54 1102.62C1108.54 1102.62 970.166 1030.21 748.769 1030.21C527.373 1030.21 389 1102.62 389 1102.62Z" fill="url(#paint2_linear_45_297)"/>
<path d="M499.769 604.051C552.303 604.051 591.495 625.21 601.596 649.308C603.045 645.804 601.596 598.529 601.594 595C601.594 595 559.761 595 499.769 595C439.777 595 384.364 595 384.364 595C384.362 604.051 382.916 636.753 384.365 640.257C394.466 616.159 447.235 604.051 499.769 604.051Z" fill="#ED7606"/>
<mask id="mask0_45_297" style="mask-type:alpha" maskUnits="userSpaceOnUse" x="364" y="604" width="245" height="245">
<rect x="364" y="604.051" width="244.384" height="244.387" fill="#D9D9D9"/>
</mask>
<g mask="url(#mask0_45_297)">
<path d="M601.296 656.586C601.296 589.787 552.559 535.618 492.426 535.618C432.294 535.618 383.557 589.787 383.557 656.586C383.557 660.723 384.282 664.642 384.645 668.682C384.282 672.723 383.557 676.642 383.557 680.779C383.557 747.578 432.294 801.747 492.426 801.747C552.559 801.747 601.296 747.578 601.296 680.779C601.296 676.642 600.571 672.723 600.208 668.682C600.571 664.642 601.296 660.723 601.296 656.586Z" fill="#FCB400"/>
<path d="M492.426 777.553C552.554 777.553 601.296 723.394 601.296 656.586C601.296 589.777 552.554 535.618 492.426 535.618C432.299 535.618 383.557 589.777 383.557 656.586C383.557 723.394 432.299 777.553 492.426 777.553Z" fill="url(#paint3_linear_45_297)"/>
<path d="M492.426 608.199C545.083 608.199 588.994 625.57 599.119 680.779C600.571 672.751 601.298 664.672 601.296 656.586C601.296 589.787 552.559 535.618 492.426 535.618C432.294 535.618 383.557 589.787 383.557 656.586C383.555 664.672 384.282 672.751 385.734 680.779C395.859 625.57 439.77 608.199 492.426 608.199Z" fill="black"/>
</g>
<path d="M1006.64 604.051C1059.17 604.051 1098.37 625.21 1108.47 649.308C1109.92 645.804 1108.47 598.529 1108.46 595C1108.46 595 1066.63 595 1006.64 595C946.648 595 891.235 595 891.235 595C891.233 604.051 889.787 636.753 891.236 640.257C901.337 616.159 954.106 604.051 1006.64 604.051Z" fill="#ED7606"/>
<mask id="mask1_45_297" style="mask-type:alpha" maskUnits="userSpaceOnUse" x="870" y="604" width="246" height="245">
<rect x="870.872" y="604.051" width="244.384" height="244.387" fill="#D9D9D9"/>
</mask>
<g mask="url(#mask1_45_297)">
<path d="M1108.17 656.586C1108.17 589.787 1059.43 535.618 999.298 535.618C939.166 535.618 890.428 589.787 890.428 656.586C890.428 660.723 891.154 664.642 891.517 668.682C891.154 672.723 890.428 676.642 890.428 680.779C890.428 747.578 939.166 801.747 999.298 801.747C1059.43 801.747 1108.17 747.578 1108.17 680.779C1108.17 676.642 1107.44 672.723 1107.08 668.682C1107.44 664.642 1108.17 660.723 1108.17 656.586Z" fill="#FCB400"/>
<path d="M999.298 777.553C1059.43 777.553 1108.17 723.394 1108.17 656.586C1108.17 589.777 1059.43 535.618 999.298 535.618C939.171 535.618 890.428 589.777 890.428 656.586C890.428 723.394 939.171 777.553 999.298 777.553Z" fill="url(#paint4_linear_45_297)"/>
<path d="M999.298 608.199C1051.95 608.199 1095.87 625.57 1105.99 680.779C1107.44 672.751 1108.17 664.672 1108.17 656.586C1108.17 589.787 1059.43 535.618 999.298 535.618C939.166 535.618 890.428 589.787 890.428 656.586C890.426 664.672 891.154 672.751 892.606 680.779C902.731 625.57 946.641 608.199 999.298 608.199Z" fill="black"/>
</g>
<path d="M280.048 520.942C280.048 520.942 356.008 475.81 417.07 483.535C502.377 494.326 495.561 548.205 558.419 556.157C621.277 564.109 672.992 515.91 672.992 515.91" stroke="#ED7606" stroke-width="40" stroke-linecap="round"/>
<path d="M281.184 511.961C281.184 511.961 357.144 466.829 418.206 474.554C503.513 485.346 496.697 539.224 559.555 547.176C622.413 555.128 674.127 506.929 674.127 506.929" stroke="#582C02" stroke-width="40" stroke-linecap="round"/>
<path d="M1198.68 528.613C1198.68 528.613 1124.54 480.556 1063.22 485.895C977.56 493.354 982.271 547.458 919.151 552.954C856.031 558.45 806.234 508.272 806.234 508.272" stroke="#ED7606" stroke-width="40" stroke-linecap="round"/>
<path d="M1197.9 519.598C1197.9 519.598 1123.75 471.54 1062.44 476.879C976.773 484.338 981.484 538.442 918.364 543.938C855.244 549.434 805.447 499.257 805.447 499.257" stroke="#582C02" stroke-width="40" stroke-linecap="round"/>
</g>
<defs>
<filter id="filter0_iii_45_297" x="-40.683" y="-40.683" width="1608.49" height="1608.49" filterUnits="userSpaceOnUse" color-interpolation-filters="sRGB">
<feFlood flood-opacity="0" result="BackgroundImageFix"/>
<feBlend mode="normal" in="SourceGraphic" in2="BackgroundImageFix" result="shape"/>
<feColorMatrix in="SourceAlpha" type="matrix" values="0 0 0 0 0 0 0 0 0 0 0 0 0 0 0 0 0 0 127 0" result="hardAlpha"/>
<feOffset dx="-40.683" dy="-40.683"/>
<feGaussianBlur stdDeviation="89.5027"/>
<feComposite in2="hardAlpha" operator="arithmetic" k2="-1" k3="1"/>
<feColorMatrix type="matrix" values="0 0 0 0 0 0 0 0 0 0 0 0 0 0 0 0 0 0 0.24 0"/>
<feBlend mode="normal" in2="shape" result="effect1_innerShadow_45_297"/>
<feColorMatrix in="SourceAlpha" type="matrix" values="0 0 0 0 0 0 0 0 0 0 0 0 0 0 0 0 0 0 127 0" result="hardAlpha"/>
<feOffset dx="40.683" dy="40.683"/>
<feGaussianBlur stdDeviation="22.3757"/>
<feComposite in2="hardAlpha" operator="arithmetic" k2="-1" k3="1"/>
<feColorMatrix type="matrix" values="0 0 0 0 1 0 0 0 0 1 0 0 0 0 1 0 0 0 0.5 0"/>
<feBlend mode="normal" in2="effect1_innerShadow_45_297" result="effect2_innerShadow_45_297"/>
<feColorMatrix in="SourceAlpha" type="matrix" values="0 0 0 0 0 0 0 0 0 0 0 0 0 0 0 0 0 0 127 0" result="hardAlpha"/>
<feOffset dx="67.8051" dy="67.8051"/>
<feGaussianBlur stdDeviation="115.269"/>
<feComposite in2="hardAlpha" operator="arithmetic" k2="-1" k3="1"/>
<feColorMatrix type="matrix" values="0 0 0 0 1 0 0 0 0 1 0 0 0 0 1 0 0 0 0.15 0"/>
<feBlend mode="normal" in2="effect2_innerShadow_45_297" result="effect3_innerShadow_45_297"/>
</filter>
<linearGradient id="paint0_linear_45_297" x1="750" y1="7.35484" x2="750" y2="1507.35" gradientUnits="userSpaceOnUse">
<stop stop-color="#FFE100"/>
<stop offset="1" stop-color="#F98900"/>
</linearGradient>
<linearGradient id="paint1_linear_45_297" x1="750" y1="1487.9" x2="750" y2="4.25801" gradientUnits="userSpaceOnUse">
<stop stop-color="#FFE100"/>
<stop offset="0.685" stop-color="#F98900"/>
<stop offset="0.89" stop-color="#DD2B29"/>
<stop offset="1" stop-color="#960500"/>
</linearGradient>
<linearGradient id="paint2_linear_45_297" x1="748.769" y1="1002.61" x2="748.769" y2="1098.6" gradientUnits="userSpaceOnUse">
<stop stop-color="#803F02"/>
<stop offset="0.174" stop-color="#6D3602"/>
<stop offset="0.515" stop-color="#4D2601"/>
<stop offset="0.802" stop-color="#3A1C01"/>
<stop offset="1" stop-color="#331901"/>
</linearGradient>
<linearGradient id="paint3_linear_45_297" x1="492.426" y1="774.07" x2="492.426" y2="556.787" gradientUnits="userSpaceOnUse">
<stop offset="0.005" stop-color="#4C4D41"/>
<stop offset="0.206" stop-color="#45443A"/>
<stop offset="0.522" stop-color="#2E2E27"/>
<stop offset="0.914" stop-color="#080909"/>
<stop offset="1"/>
</linearGradient>
<linearGradient id="paint4_linear_45_297" x1="999.298" y1="774.07" x2="999.298" y2="556.787" gradientUnits="userSpaceOnUse">
<stop offset="0.005" stop-color="#4C4D41"/>
<stop offset="0.206" stop-color="#45443A"/>
<stop offset="0.522" stop-color="#2E2E27"/>
<stop offset="0.914" stop-color="#080909"/>
<stop offset="1"/>
</linearGradient>
</defs>
</svg>
