<svg width="1501" height="1501" viewBox="0 0 1501 1501" fill="none" xmlns="http://www.w3.org/2000/svg">
<g filter="url(#filter0_iii_38_319)">
<path d="M750 1501C79.8455 1501 -0.911673 920.355 0.00767285 775.194V726.806C-0.911673 581.645 79.8455 1 750 1C1420.15 1 1500.91 581.645 1499.99 726.806V775.194C1500.91 920.355 1420.15 1501 750 1501Z" fill="url(#paint0_linear_38_319)"/>
<path d="M750.349 1500.81C80.1942 1500.81 -0.56304 920.168 0.356306 775.007V726.62C-0.56304 581.459 80.1942 0.813477 750.349 0.813477C1420.5 0.813477 1501.26 581.459 1500.34 726.62V775.007C1501.26 920.168 1420.5 1500.81 750.349 1500.81Z" fill="url(#paint1_linear_38_319)"/>
<path d="M750.349 1500.81C80.1942 1500.81 -0.56304 920.168 0.356306 775.007V726.62C-0.56304 581.459 80.1942 0.813477 750.349 0.813477C1420.5 0.813477 1501.26 581.459 1500.34 726.62V775.007C1501.26 920.168 1420.5 1500.81 750.349 1500.81Z" fill="url(#paint2_radial_38_319)" fill-opacity="0.9"/>
<path d="M1185.48 436.485C1185.48 436.485 1157.44 441.154 1118.8 450.493C1154.97 428.332 1185.48 412.292 1185.48 412.292C1185.48 412.292 895.157 460.679 895.157 557.453C895.216 561.541 895.793 565.606 896.874 569.55C895.793 573.493 895.216 577.558 895.157 581.646C895.157 678.421 1185.48 726.808 1185.48 726.808C1185.48 726.808 1154.97 710.767 1118.8 688.606C1157.44 697.945 1185.48 702.614 1185.48 702.614C1185.48 702.614 1028.51 620.356 1004.2 569.55C1028.51 518.743 1185.48 436.485 1185.48 436.485Z" fill="url(#paint3_linear_38_319)"/>
<path d="M314.523 412.292C314.523 412.292 345.031 428.332 381.2 450.493C342.563 441.154 314.523 436.485 314.523 436.485C314.523 436.485 471.489 518.743 495.803 569.55C471.489 620.356 314.523 702.614 314.523 702.614C314.523 702.614 342.563 697.945 381.2 688.606C345.031 710.767 314.523 726.808 314.523 726.808C314.523 726.808 604.843 678.421 604.843 581.646C604.783 577.558 604.206 573.493 603.125 569.55C604.206 565.606 604.783 561.541 604.843 557.453C604.843 460.679 314.523 412.292 314.523 412.292Z" fill="url(#paint4_linear_38_319)"/>
<path d="M1185.48 412.292C1185.48 412.292 895.157 460.679 895.157 557.453C895.157 654.227 1185.48 702.614 1185.48 702.614C1185.48 702.614 1000.74 605.84 1000.74 557.453C1000.74 509.066 1185.48 412.292 1185.48 412.292Z" fill="#331A03"/>
<path d="M314.523 412.292C314.523 412.292 604.843 460.679 604.843 557.453C604.843 654.227 314.523 702.614 314.523 702.614C314.523 702.614 499.263 605.84 499.263 557.453C499.263 509.066 314.523 412.292 314.523 412.292Z" fill="#331A03"/>
<path d="M1209.67 290.911C1209.63 284.578 1207.12 278.51 1202.68 273.994C1198.25 269.478 1192.22 266.868 1185.89 266.717C1007.73 260.572 930.071 186.056 903.676 151.919C900.295 147.359 895.417 144.133 889.897 142.806C884.378 141.479 878.567 142.136 873.483 144.661C870.554 146.145 867.964 148.22 865.877 150.755C863.789 153.289 862.249 156.229 861.354 159.388C860.458 162.547 860.227 165.858 860.674 169.111C861.121 172.364 862.236 175.489 863.951 178.29C861.405 182.342 860.155 187.073 860.367 191.854C860.579 196.634 862.242 201.237 865.136 205.048C898.232 247.749 988.328 332.596 1185.04 339.177C1188.26 339.235 1191.45 338.651 1194.44 337.462C1197.42 336.272 1200.14 334.499 1202.43 332.246C1204.73 329.994 1206.55 327.307 1207.79 324.343C1209.03 321.379 1209.67 318.197 1209.67 314.983C1209.58 310.684 1208.29 306.495 1205.95 302.886C1208.24 299.3 1209.53 295.164 1209.67 290.911Z" fill="#379CEC"/>
<path d="M626.613 144.782C621.528 142.257 615.718 141.601 610.198 142.928C604.679 144.255 599.801 147.48 596.42 152.04C570.025 186.177 492.389 260.693 314.205 266.839C307.874 266.989 301.85 269.6 297.411 274.116C292.972 278.632 290.465 284.699 290.423 291.032C290.548 295.327 291.836 299.508 294.149 303.129C291.81 306.738 290.52 310.926 290.423 315.226C290.422 318.44 291.062 321.622 292.305 324.586C293.548 327.55 295.369 330.237 297.662 332.489C299.955 334.741 302.674 336.514 305.659 337.704C308.645 338.894 311.838 339.477 315.052 339.419C511.767 332.839 601.863 247.992 634.96 205.29C637.854 201.479 639.517 196.877 639.729 192.096C639.941 187.316 638.691 182.584 636.145 178.532C637.88 175.727 639.012 172.592 639.47 169.326C639.928 166.059 639.701 162.734 638.805 159.56C637.908 156.386 636.362 153.433 634.263 150.889C632.164 148.345 629.559 146.265 626.613 144.782Z" fill="#379CEC"/>
<path d="M1209.67 290.911C1209.67 294.127 1209.03 297.311 1207.79 300.276C1206.54 303.242 1204.72 305.93 1202.43 308.183C1200.13 310.435 1197.41 312.208 1194.42 313.396C1191.43 314.585 1188.24 315.165 1185.02 315.104C988.329 308.523 898.233 223.677 865.136 180.975C862.979 178.149 861.47 174.883 860.719 171.408C859.967 167.933 859.991 164.335 860.787 160.87C861.584 157.405 863.135 154.158 865.329 151.361C867.524 148.563 870.308 146.284 873.483 144.685C878.568 142.16 884.378 141.503 889.898 142.83C895.417 144.157 900.295 147.383 903.676 151.943C930.071 186.08 1007.71 260.596 1185.89 266.741C1192.22 266.892 1198.25 269.502 1202.69 274.018C1207.12 278.535 1209.63 284.602 1209.67 290.935V290.911Z" fill="url(#paint5_radial_38_319)"/>
<path d="M290.326 290.911C290.368 284.578 292.874 278.51 297.314 273.994C301.753 269.478 307.777 266.868 314.108 266.717C492.267 260.572 569.928 186.056 596.323 151.919C599.704 147.359 604.581 144.133 610.101 142.806C615.621 141.479 621.431 142.136 626.516 144.661C629.691 146.26 632.475 148.539 634.669 151.337C636.864 154.134 638.414 157.381 639.211 160.846C640.008 164.311 640.032 167.908 639.28 171.383C638.528 174.858 637.02 178.125 634.863 180.951C601.766 223.653 511.67 308.499 314.979 315.08C311.765 315.141 308.572 314.561 305.585 313.374C302.598 312.187 299.877 310.417 297.582 308.167C295.287 305.917 293.463 303.232 292.217 300.269C290.971 297.306 290.328 294.125 290.326 290.911Z" fill="url(#paint6_radial_38_319)"/>
<path d="M1161.29 1089.71C1157.41 1017.44 1128.99 948.645 1080.72 894.711C1022.66 830.598 922.5 775.195 750.002 775.195C577.504 775.195 477.343 830.598 419.28 894.711C408.497 906.462 398.706 919.086 390.006 932.453C359.305 979.415 341.607 1033.68 338.716 1089.71C338.822 1092.86 339.137 1095.99 339.659 1099.1C338.716 1108.44 338.716 1113.9 338.716 1113.9C338.716 1133.15 346.363 1151.61 359.974 1165.23C373.585 1178.84 392.046 1186.48 411.296 1186.48H422.909C430.735 1186.52 438.508 1185.21 445.892 1182.61C474.631 1172.97 503.967 1165.22 533.714 1159.39V1159.15C676.54 1131.08 823.464 1131.08 966.29 1159.15V1159.39C996.037 1165.22 1025.37 1172.97 1054.11 1182.61C1061.5 1185.21 1069.27 1186.52 1077.1 1186.48H1088.71C1107.96 1186.48 1126.42 1178.84 1140.03 1165.23C1153.64 1151.61 1161.29 1133.15 1161.29 1113.9C1161.29 1113.9 1161.29 1108.36 1160.34 1099.1C1160.86 1095.99 1161.17 1092.86 1161.29 1089.71Z" fill="#F99406"/>
<path d="M1161.29 1113.9C1157.41 1041.63 1128.99 972.838 1080.72 918.904C1022.66 854.791 922.5 799.388 750.002 799.388C577.504 799.388 477.343 854.791 419.28 918.904C408.497 930.655 398.706 943.279 390.006 956.646C359.305 1003.61 341.607 1057.87 338.716 1113.9C338.822 1117.05 339.137 1120.19 339.659 1123.29C338.716 1132.63 338.716 1138.1 338.716 1138.1C338.716 1157.35 346.363 1175.81 359.974 1189.42C373.585 1203.03 392.046 1210.68 411.296 1210.68H422.909C430.735 1210.71 438.508 1209.4 445.892 1206.81C474.631 1197.17 503.967 1189.41 533.714 1183.58V1183.34C676.54 1155.27 823.464 1155.27 966.29 1183.34V1183.58C996.037 1189.41 1025.37 1197.17 1054.11 1206.81C1061.5 1209.4 1069.27 1210.71 1077.1 1210.68H1088.71C1107.96 1210.68 1126.42 1203.03 1140.03 1189.42C1153.64 1175.81 1161.29 1157.35 1161.29 1138.1C1161.29 1138.1 1161.29 1132.56 1160.34 1123.29C1160.86 1120.18 1161.17 1117.05 1161.29 1113.9Z" fill="#F9BF06"/>
<path d="M1080.72 918.904C971.288 902.277 860.675 894.671 749.998 896.162C639.32 894.671 528.707 902.277 419.275 918.904C477.339 854.791 577.5 799.388 749.998 799.388C922.496 799.388 1022.66 854.791 1080.72 918.904Z" fill="url(#paint7_linear_38_319)"/>
<path d="M966.288 1159.15C823.461 1131.08 676.538 1131.08 533.711 1159.15C542.905 1140.03 597.098 1041.32 750 1041.32C902.901 1041.32 957.094 1140.03 966.288 1159.15Z" fill="#8F030E"/>
<path d="M1161.29 1113.9C1161.29 1133.15 1153.64 1151.61 1140.03 1165.23C1126.42 1178.84 1107.96 1186.48 1088.71 1186.48H1077.1C1069.27 1186.52 1061.5 1185.21 1054.11 1182.61C1025.37 1172.97 996.037 1165.21 966.29 1159.39V1159.15C957.097 1140.03 902.904 1041.32 750.002 1041.32C597.1 1041.32 542.907 1140.03 533.714 1159.15V1159.39C503.967 1165.21 474.631 1172.97 445.892 1182.61C438.508 1185.21 430.735 1186.52 422.909 1186.48H411.296C392.046 1186.48 373.585 1178.84 359.974 1165.23C346.363 1151.61 338.716 1133.15 338.716 1113.9C341.607 1057.87 359.305 1003.61 390.006 956.645C398.706 943.279 408.497 930.655 419.28 918.903C528.711 902.277 639.324 894.671 750.002 896.162C860.68 894.671 971.293 902.277 1080.72 918.903C1128.99 972.838 1157.41 1041.63 1161.29 1113.9Z" fill="url(#paint8_linear_38_319)"/>
<path d="M1080.72 918.904C971.288 902.277 860.675 894.671 749.998 896.162C639.32 894.671 528.707 902.277 419.275 918.904C477.339 854.791 577.5 799.388 749.998 799.388C922.496 799.388 1022.66 854.791 1080.72 918.904Z" fill="url(#paint9_linear_38_319)"/>
</g>
<defs>
<filter id="filter0_iii_38_319" x="-40.683" y="-39.8696" width="1608.84" height="1608.67" filterUnits="userSpaceOnUse" color-interpolation-filters="sRGB">
<feFlood flood-opacity="0" result="BackgroundImageFix"/>
<feBlend mode="normal" in="SourceGraphic" in2="BackgroundImageFix" result="shape"/>
<feColorMatrix in="SourceAlpha" type="matrix" values="0 0 0 0 0 0 0 0 0 0 0 0 0 0 0 0 0 0 127 0" result="hardAlpha"/>
<feOffset dx="-40.683" dy="-40.683"/>
<feGaussianBlur stdDeviation="89.5027"/>
<feComposite in2="hardAlpha" operator="arithmetic" k2="-1" k3="1"/>
<feColorMatrix type="matrix" values="0 0 0 0 0 0 0 0 0 0 0 0 0 0 0 0 0 0 0.24 0"/>
<feBlend mode="normal" in2="shape" result="effect1_innerShadow_38_319"/>
<feColorMatrix in="SourceAlpha" type="matrix" values="0 0 0 0 0 0 0 0 0 0 0 0 0 0 0 0 0 0 127 0" result="hardAlpha"/>
<feOffset dx="40.683" dy="40.683"/>
<feGaussianBlur stdDeviation="22.3757"/>
<feComposite in2="hardAlpha" operator="arithmetic" k2="-1" k3="1"/>
<feColorMatrix type="matrix" values="0 0 0 0 1 0 0 0 0 1 0 0 0 0 1 0 0 0 0.5 0"/>
<feBlend mode="normal" in2="effect1_innerShadow_38_319" result="effect2_innerShadow_38_319"/>
<feColorMatrix in="SourceAlpha" type="matrix" values="0 0 0 0 0 0 0 0 0 0 0 0 0 0 0 0 0 0 127 0" result="hardAlpha"/>
<feOffset dx="67.8051" dy="67.8051"/>
<feGaussianBlur stdDeviation="115.269"/>
<feComposite in2="hardAlpha" operator="arithmetic" k2="-1" k3="1"/>
<feColorMatrix type="matrix" values="0 0 0 0 1 0 0 0 0 1 0 0 0 0 1 0 0 0 0.15 0"/>
<feBlend mode="normal" in2="effect2_innerShadow_38_319" result="effect3_innerShadow_38_319"/>
</filter>
<linearGradient id="paint0_linear_38_319" x1="750" y1="8.35484" x2="750" y2="1508.35" gradientUnits="userSpaceOnUse">
<stop stop-color="#FFE100"/>
<stop offset="1" stop-color="#F98900"/>
</linearGradient>
<linearGradient id="paint1_linear_38_319" x1="750.349" y1="1487.8" x2="750.349" y2="253.709" gradientUnits="userSpaceOnUse">
<stop stop-color="#FFE100"/>
<stop offset="0.265" stop-color="#F98900"/>
<stop offset="0.555" stop-color="#ECA483"/>
<stop offset="0.78" stop-color="#83BEEC"/>
<stop offset="0.995" stop-color="#2A97EC"/>
</linearGradient>
<radialGradient id="paint2_radial_38_319" cx="0" cy="0" r="1" gradientUnits="userSpaceOnUse" gradientTransform="translate(750.349 750.813) rotate(90) scale(750)">
<stop stop-color="#FFB700"/>
<stop offset="1" stop-color="#FF7700" stop-opacity="0"/>
</radialGradient>
<linearGradient id="paint3_linear_38_319" x1="1040.32" y1="412.292" x2="1040.32" y2="726.808" gradientUnits="userSpaceOnUse">
<stop stop-color="#319AED"/>
<stop offset="1" stop-color="#F29334"/>
</linearGradient>
<linearGradient id="paint4_linear_38_319" x1="459.683" y1="412.292" x2="459.683" y2="726.808" gradientUnits="userSpaceOnUse">
<stop stop-color="#319AED"/>
<stop offset="1" stop-color="#F29334"/>
</linearGradient>
<radialGradient id="paint5_radial_38_319" cx="0" cy="0" r="1" gradientUnits="userSpaceOnUse" gradientTransform="translate(1034.9 228.685) scale(137.878 137.879)">
<stop offset="0.005" stop-color="#414D4D"/>
<stop offset="0.206" stop-color="#3A4545"/>
<stop offset="0.522" stop-color="#272E2E"/>
<stop offset="0.914" stop-color="#080909"/>
<stop offset="1"/>
</radialGradient>
<radialGradient id="paint6_radial_38_319" cx="0" cy="0" r="1" gradientUnits="userSpaceOnUse" gradientTransform="translate(465.098 228.685) scale(137.878 137.879)">
<stop offset="0.005" stop-color="#414D4D"/>
<stop offset="0.206" stop-color="#3A4545"/>
<stop offset="0.522" stop-color="#272E2E"/>
<stop offset="0.914" stop-color="#080909"/>
<stop offset="1"/>
</radialGradient>
<linearGradient id="paint7_linear_38_319" x1="419.275" y1="859.146" x2="1080.72" y2="859.146" gradientUnits="userSpaceOnUse">
<stop stop-color="#B8B4B2"/>
<stop offset="0.143" stop-color="#D0CCC9"/>
<stop offset="0.374" stop-color="#F2EDEA"/>
<stop offset="0.5" stop-color="#FFFAF6"/>
<stop offset="0.638" stop-color="#F9F5F1"/>
<stop offset="0.825" stop-color="#E8E5E3"/>
<stop offset="1" stop-color="#D1D1D1"/>
</linearGradient>
<linearGradient id="paint8_linear_38_319" x1="750.002" y1="1114.82" x2="750.002" y2="828.25" gradientUnits="userSpaceOnUse">
<stop stop-color="#69101B"/>
<stop offset="0.427" stop-color="#400A10"/>
</linearGradient>
<linearGradient id="paint9_linear_38_319" x1="751.885" y1="803.96" x2="750.53" y2="886.993" gradientUnits="userSpaceOnUse">
<stop stop-color="#ABABAB" stop-opacity="0.5"/>
<stop offset="0.541" stop-color="#C1C1C1" stop-opacity="0.216"/>
<stop offset="1" stop-color="#D1D1D1" stop-opacity="0"/>
</linearGradient>
</defs>
</svg>
