<svg width="425" height="400" viewBox="0 0 425 400" fill="none" xmlns="http://www.w3.org/2000/svg">
<g opacity="0.6" filter="url(#filter0_iii_83_10)">
<g clip-path="url(#clip0_83_10)">
<path d="M301.909 442.717L151.285 345.547C139.732 338.094 136.408 322.686 143.861 311.133L304.911 61.4881C312.364 49.9348 327.772 46.611 339.325 54.0642L489.949 151.234C501.502 158.687 504.826 174.095 497.373 185.648L336.323 435.293C328.87 446.846 313.462 450.17 301.909 442.717Z" fill="#E9DCBA"/>
<path d="M456.09 213.796L314.068 122.175C313.503 121.81 313.34 121.057 313.705 120.492C314.069 119.927 314.823 119.764 315.388 120.129L457.41 211.749C457.975 212.114 458.138 212.867 457.773 213.433C457.409 213.998 456.655 214.16 456.09 213.796Z" fill="#A59484"/>
<path d="M447.172 227.619L305.15 135.999C304.585 135.634 304.422 134.881 304.787 134.315C305.151 133.75 305.905 133.588 306.47 133.952L448.492 225.573C449.057 225.938 449.22 226.691 448.856 227.256C448.491 227.821 447.737 227.984 447.172 227.619Z" fill="#A59484"/>
<path d="M438.254 241.443L296.232 149.822C295.667 149.458 295.504 148.704 295.869 148.139C296.233 147.574 296.987 147.412 297.552 147.776L439.574 239.397C440.139 239.761 440.302 240.515 439.938 241.08C439.573 241.645 438.819 241.808 438.254 241.443Z" fill="#A59484"/>
<path d="M429.336 255.267L287.314 163.646C286.749 163.281 286.586 162.528 286.951 161.963C287.315 161.398 288.069 161.235 288.634 161.6L430.656 253.22C431.221 253.585 431.384 254.338 431.02 254.904C430.655 255.469 429.901 255.631 429.336 255.267Z" fill="#A59484"/>
<path d="M420.418 269.09L278.396 177.47C277.831 177.105 277.668 176.352 278.033 175.787C278.397 175.221 279.151 175.059 279.716 175.423L421.739 267.044C422.303 267.409 422.466 268.162 422.102 268.727C421.737 269.293 420.983 269.455 420.418 269.09Z" fill="#A59484"/>
<path d="M411.501 282.914L269.478 191.293C268.913 190.929 268.75 190.175 269.115 189.61C269.479 189.045 270.233 188.883 270.798 189.247L412.821 280.868C413.385 281.232 413.548 281.986 413.184 282.551C412.819 283.116 412.065 283.279 411.501 282.914Z" fill="#A59484"/>
<path d="M402.583 296.738L260.56 205.117C259.995 204.753 259.832 203.999 260.197 203.434C260.562 202.869 261.315 202.707 261.88 203.071L403.903 294.692C404.467 295.056 404.63 295.81 404.266 296.375C403.901 296.94 403.147 297.102 402.583 296.738Z" fill="#A59484"/>
<path d="M393.665 310.562L251.643 218.941C251.078 218.576 250.915 217.823 251.279 217.258C251.644 216.692 252.398 216.53 252.963 216.895L394.985 308.515C395.55 308.88 395.713 309.633 395.348 310.198C394.984 310.764 394.23 310.926 393.665 310.562Z" fill="#A59484"/>
<path d="M384.747 324.385L242.725 232.764C242.16 232.4 241.997 231.646 242.361 231.081C242.726 230.516 243.48 230.354 244.045 230.718L386.067 322.339C386.632 322.703 386.795 323.457 386.43 324.022C386.066 324.587 385.312 324.75 384.747 324.385Z" fill="#A59484"/>
<path d="M375.829 338.209L233.807 246.588C233.242 246.224 233.079 245.47 233.444 244.905C233.808 244.34 234.562 244.178 235.127 244.542L377.149 336.163C377.714 336.527 377.877 337.281 377.512 337.846C377.148 338.411 376.394 338.574 375.829 338.209Z" fill="#A59484"/>
<path d="M366.911 352.033L224.889 260.412C224.324 260.048 224.161 259.294 224.526 258.729C224.89 258.164 225.644 258.001 226.209 258.366L368.231 349.987C368.796 350.351 368.959 351.105 368.594 351.67C368.23 352.235 367.476 352.397 366.911 352.033Z" fill="#A59484"/>
<path d="M357.993 365.857L215.971 274.236C215.406 273.871 215.243 273.118 215.608 272.553C215.972 271.988 216.726 271.825 217.291 272.19L359.313 363.811C359.878 364.175 360.041 364.928 359.676 365.494C359.312 366.059 358.558 366.221 357.993 365.857Z" fill="#A59484"/>
<path d="M349.076 379.68L207.053 288.059C206.488 287.695 206.325 286.941 206.69 286.376C207.055 285.811 207.808 285.649 208.373 286.013L350.396 377.634C350.961 377.998 351.123 378.752 350.759 379.317C350.394 379.882 349.641 380.044 349.076 379.68Z" fill="#A59484"/>
<path d="M340.158 393.504L198.135 301.883C197.57 301.519 197.408 300.765 197.772 300.2C198.137 299.635 198.89 299.473 199.455 299.837L341.478 391.458C342.043 391.822 342.205 392.576 341.841 393.141C341.476 393.706 340.723 393.868 340.158 393.504Z" fill="#A59484"/>
<path d="M331.24 407.328L189.217 315.707C188.652 315.342 188.49 314.589 188.854 314.024C189.219 313.459 189.972 313.296 190.537 313.661L332.56 405.281C333.125 405.646 333.288 406.399 332.923 406.965C332.558 407.53 331.805 407.692 331.24 407.328Z" fill="#A59484"/>
<path d="M306.925 87.5153C310.019 89.5109 314.144 88.621 316.14 85.5276C318.135 82.4342 317.245 78.3088 314.152 76.3133C311.058 74.3177 306.933 75.2076 304.937 78.301C302.942 81.3944 303.832 85.5198 306.925 87.5153Z" fill="#AB5804"/>
<path d="M293.321 108.603C296.415 110.599 300.54 109.709 302.536 106.615C304.531 103.522 303.641 99.3967 300.548 97.4012C297.454 95.4056 293.329 96.2955 291.333 99.3889C289.338 102.482 290.228 106.608 293.321 108.603Z" fill="#AB5804"/>
<path d="M279.717 129.691C282.811 131.687 286.936 130.797 288.932 127.703C290.927 124.61 290.037 120.485 286.944 118.489C283.85 116.493 279.725 117.383 277.729 120.477C275.734 123.57 276.624 127.696 279.717 129.691Z" fill="#AB5804"/>
<path d="M266.113 150.779C269.206 152.775 273.331 151.885 275.327 148.791C277.323 145.698 276.433 141.573 273.339 139.577C270.246 137.581 266.121 138.471 264.125 141.565C262.129 144.658 263.019 148.783 266.113 150.779Z" fill="#AB5804"/>
<path d="M252.509 171.867C255.602 173.862 259.727 172.972 261.723 169.879C263.719 166.786 262.829 162.66 259.735 160.665C256.642 158.669 252.517 159.559 250.521 162.652C248.525 165.746 249.415 169.871 252.509 171.867Z" fill="#AB5804"/>
<path d="M238.905 192.955C241.998 194.95 246.123 194.06 248.119 190.967C250.115 187.874 249.225 183.748 246.131 181.753C243.038 179.757 238.913 180.647 236.917 183.74C234.921 186.834 235.811 190.959 238.905 192.955Z" fill="#AB5804"/>
<path d="M225.301 214.043C228.394 216.038 232.519 215.148 234.515 212.055C236.511 208.961 235.621 204.836 232.527 202.84C229.434 200.845 225.309 201.735 223.313 204.828C221.317 207.922 222.207 212.047 225.301 214.043Z" fill="#AB5804"/>
<path d="M211.697 235.13C214.79 237.126 218.915 236.236 220.911 233.143C222.907 230.049 222.017 225.924 218.923 223.928C215.83 221.933 211.705 222.823 209.709 225.916C207.713 229.009 208.603 233.135 211.697 235.13Z" fill="#AB5804"/>
<path d="M198.092 256.218C201.186 258.214 205.311 257.324 207.307 254.231C209.302 251.137 208.412 247.012 205.319 245.016C202.225 243.021 198.1 243.911 196.104 247.004C194.109 250.097 194.999 254.223 198.092 256.218Z" fill="#AB5804"/>
<path d="M184.488 277.306C187.582 279.302 191.707 278.412 193.703 275.318C195.698 272.225 194.808 268.1 191.715 266.104C188.621 264.109 184.496 264.999 182.5 268.092C180.505 271.185 181.395 275.311 184.488 277.306Z" fill="#AB5804"/>
<path d="M170.884 298.394C173.978 300.39 178.103 299.5 180.099 296.406C182.094 293.313 181.204 289.187 178.111 287.192C175.017 285.196 170.892 286.086 168.896 289.18C166.901 292.273 167.791 296.398 170.884 298.394Z" fill="#AB5804"/>
<path d="M157.28 319.482C160.374 321.477 164.499 320.588 166.495 317.494C168.49 314.401 167.6 310.275 164.507 308.28C161.413 306.284 157.288 307.174 155.292 310.268C153.297 313.361 154.187 317.486 157.28 319.482Z" fill="#AB5804"/>
<path d="M472.741 187.985L424.958 157.16C424.394 156.795 424.231 156.042 424.595 155.476C424.96 154.911 425.714 154.749 426.278 155.113L474.061 185.939C474.626 186.303 474.789 187.057 474.424 187.622C474.059 188.187 473.306 188.349 472.741 187.985Z" fill="#A59484"/>
<path d="M379.161 126.166L331.378 95.3408C330.814 94.9765 330.651 94.2229 331.015 93.6577C331.38 93.0926 332.134 92.9303 332.698 93.2947L380.481 124.12C381.046 124.484 381.209 125.238 380.844 125.803C380.479 126.368 379.726 126.53 379.161 126.166Z" fill="#A59484"/>
</g>
<g clip-path="url(#clip1_83_10)">
<path d="M275.976 236.933C274.861 243.561 273.713 250.176 272.531 256.785C266.636 289.823 259.896 322.741 252.33 355.523C252.101 356.494 251.823 357.447 251.488 358.366C248.074 367.675 239.127 374.017 229.008 373.927C162.449 373.308 97.3233 363.305 33.6382 343.92C25.9799 341.589 20.2359 335.636 17.9331 328.35C17.0682 325.598 16.6924 322.648 16.9004 319.628C16.905 319.541 16.9096 319.454 16.9142 319.366C17.7922 308.08 18.7721 296.819 19.8482 285.564C29.4518 288.609 36.6783 294.728 38.4468 301.243C38.8932 302.873 40.2985 304.059 41.9613 304.314L41.9958 304.319C45.1405 304.802 47.6899 301.869 46.8481 298.794C44.1484 288.926 34.2326 280.392 20.7055 276.709C21.1074 272.599 21.5365 268.485 21.9742 264.372C22.2783 261.473 22.5924 258.567 22.9137 255.671C24.1899 244.032 25.5767 232.419 27.0669 220.821C37.9587 223.517 46.3511 230.142 48.2761 237.246C48.7238 238.867 50.1291 240.053 51.7919 240.308L51.8264 240.313C54.9711 240.796 57.5206 237.863 56.6787 234.788C53.8271 224.358 42.9158 215.416 28.1999 212.124C28.7212 208.156 29.2596 204.191 29.8067 200.227C30.2056 197.342 30.6131 194.46 31.0292 191.578C32.6864 179.927 34.4556 168.293 36.3368 156.676C47.497 159.29 56.1558 166.017 58.1067 173.24C58.5544 174.861 59.9597 176.046 61.6226 176.302L61.657 176.307C64.8018 176.79 67.3512 173.857 66.508 170.791C63.6398 160.297 52.6046 151.3 37.7403 148.055C38.3894 144.116 39.0571 140.171 39.7334 136.227C40.2284 133.348 40.7234 130.47 41.2356 127.594C43.2613 116.07 45.3917 104.554 47.6341 93.0543C58.0819 95.8848 66.068 102.341 67.9373 109.234C68.385 110.854 69.7903 112.04 71.4532 112.296L71.4876 112.301C74.6324 112.784 77.1818 109.851 76.3387 106.785C73.5832 96.7047 63.2942 88.0164 49.3232 84.4683C50.1188 80.4368 50.9329 76.3993 51.763 72.373C52.358 69.4749 52.963 66.5693 53.5753 63.6737C55.9205 52.4811 58.3605 41.3031 60.9125 30.1422C69.6453 33.3442 76.1149 39.109 77.7679 45.2274C78.2143 46.857 79.621 48.0343 81.2838 48.2897L81.3182 48.295C84.463 48.778 87.0124 45.8448 86.1693 42.7786C83.6798 33.6655 75.028 25.6871 63.0596 21.6177C66.4782 12.3361 75.416 5.99232 85.5252 6.08982C152.092 6.70995 217.218 16.7126 280.895 36.0964C291.536 39.3358 298.482 49.5744 297.619 60.6507C297.357 63.9617 297.096 67.2727 296.817 70.5811C295.052 91.89 292.941 113.155 290.496 134.359C288.984 147.479 287.349 160.588 285.57 173.667C282.711 194.808 279.516 215.897 275.976 236.933Z" fill="#4F9A54"/>
<path d="M41.9958 304.319L41.9614 304.314C40.2985 304.059 38.8932 302.873 38.4468 301.243C36.6784 294.728 29.4518 288.609 19.8483 285.564C20.1173 282.607 20.4107 279.662 20.7056 276.709C34.2327 280.392 44.1484 288.926 46.8482 298.794C47.69 301.869 45.1406 304.802 41.9958 304.319Z" fill="#4F9A54"/>
<path d="M51.8262 240.313L51.7917 240.308C50.1289 240.053 48.7236 238.867 48.2759 237.246C46.3509 230.142 37.9585 223.517 27.0667 220.821C27.4337 217.915 27.8081 215.018 28.1997 212.124C42.9156 215.416 53.8269 224.358 56.6785 234.788C57.5204 237.863 54.9709 240.796 51.8262 240.313Z" fill="#4F9A54"/>
<path d="M61.6569 176.307L61.6225 176.302C59.9596 176.046 58.5543 174.861 58.1066 173.24C56.1557 166.017 47.4969 159.29 36.3367 156.676C36.7959 153.801 37.2637 150.928 37.7402 148.055C52.6045 151.3 63.6397 160.297 66.5079 170.791C67.3511 173.857 64.8016 176.79 61.6569 176.307Z" fill="#4F9A54"/>
<path d="M71.4877 112.301L71.4533 112.296C69.7904 112.04 68.3851 110.854 67.9374 109.234C66.0681 102.341 58.082 95.8848 47.6342 93.0543C48.1882 90.1938 48.7521 87.3261 49.3233 84.4683C63.2943 88.0163 73.5833 96.7047 76.3387 106.785C77.1819 109.851 74.6325 112.784 71.4877 112.301Z" fill="#4F9A54"/>
<path d="M81.3179 48.295L81.2835 48.2897C79.6206 48.0343 78.214 46.857 77.7676 45.2275C76.1146 39.109 69.645 33.3443 60.9122 30.1422C61.3338 28.258 61.7728 26.3764 62.203 24.4935C62.4341 23.506 62.7214 22.5536 63.0592 21.6178C75.0276 25.6872 83.6795 33.6655 86.169 42.7786C87.0121 45.8448 84.4627 48.778 81.3179 48.295Z" fill="#4F9A54"/>
<path d="M41.9956 304.319L41.9612 304.314C40.2983 304.059 38.893 302.873 38.4466 301.243C36.6782 294.728 29.4516 288.609 19.848 285.564C17.7888 284.904 15.6269 284.395 13.3782 284.05C-1.83716 281.713 -15.9191 287.787 -17.3826 297.316C-18.8462 306.845 -7.23612 316.865 7.97924 319.202C11.0378 319.672 14.0347 319.797 16.9002 319.628C16.6922 322.648 17.0681 325.598 17.933 328.35C14.3357 328.574 10.5417 328.414 6.65596 327.818C-13.9097 324.659 -28.2545 310.682 -25.9983 295.993C-23.7435 281.311 -5.8642 272.275 14.7015 275.434C16.7692 275.752 18.7767 276.175 20.7054 276.709C34.2325 280.392 44.1482 288.926 46.848 298.794C47.6898 301.869 45.1404 304.802 41.9956 304.319Z" fill="#1A1A1A"/>
<path d="M81.3182 48.295L81.2838 48.2897C79.621 48.0343 78.2143 46.8569 77.7679 45.2274C76.1149 39.109 69.6453 33.3442 60.9125 30.1422C58.3495 29.2018 55.5857 28.4775 52.6995 28.0342C37.4841 25.6973 23.4022 31.7713 21.94 41.2916C20.4764 50.8206 32.0865 60.8407 47.3019 63.1776C49.4299 63.5045 51.5301 63.6683 53.5753 63.6737C52.963 66.5693 52.358 69.4748 51.7629 72.373C49.8715 72.2854 47.9343 72.0937 45.9786 71.7933C25.4129 68.6347 11.0681 54.6581 13.3243 39.9684C15.5791 25.2872 33.4571 16.2598 54.0228 19.4185C57.1933 19.9054 60.2268 20.6535 63.0595 21.6177C75.028 25.6871 83.6798 33.6655 86.1693 42.7785C87.0124 45.8448 84.463 48.778 81.3182 48.295Z" fill="#1A1A1A"/>
<path d="M71.4876 112.301L71.4532 112.296C69.7904 112.04 68.3851 110.854 67.9373 109.234C66.0681 102.341 58.082 95.8849 47.6341 93.0544C46.0939 92.6326 44.5059 92.2917 42.8689 92.0403C27.6536 89.7034 13.5716 95.7774 12.1094 105.298C10.6459 114.827 22.2559 124.847 37.4713 127.184C38.7378 127.378 39.9963 127.51 41.2356 127.594C40.7234 130.47 40.2284 133.348 39.7335 136.227C38.5498 136.124 37.3542 135.985 36.148 135.799C15.5823 132.641 1.23752 118.664 3.4937 103.975C5.74857 89.2933 23.6265 80.2659 44.1922 83.4246C45.9498 83.6945 47.6597 84.0453 49.3233 84.4684C63.2943 88.0164 73.5833 96.7047 76.3387 106.785C77.1818 109.851 74.6324 112.784 71.4876 112.301Z" fill="#1A1A1A"/>
<path d="M61.6567 176.307L61.6223 176.302C59.9595 176.046 58.5542 174.861 58.1064 173.24C56.1556 166.017 47.4967 159.29 36.3365 156.676C35.2555 156.422 34.1594 156.21 33.0393 156.038C17.824 153.701 3.74071 159.784 2.27849 169.304C0.814947 178.833 12.425 188.853 27.6404 191.19C28.7776 191.365 29.9129 191.495 31.0289 191.578C30.6128 194.46 30.2053 197.343 29.8064 200.227C28.6572 200.13 27.4888 199.985 26.3171 199.806C5.75141 196.647 -8.5934 182.67 -6.33721 167.981C-4.08236 153.299 13.7969 144.263 34.3626 147.422C35.5085 147.598 36.6319 147.806 37.74 148.055C52.6043 151.3 63.6396 160.297 66.5078 170.791C67.3509 173.857 64.8015 176.79 61.6567 176.307Z" fill="#1A1A1A"/>
<path d="M51.8262 240.313L51.7917 240.308C50.1289 240.053 48.7236 238.867 48.2759 237.246C46.3509 230.142 37.9585 223.517 27.0667 220.822C25.81 220.505 24.5269 220.246 23.2088 220.044C7.99341 217.707 -6.08852 223.781 -7.55207 233.31C-9.01561 242.839 2.59444 252.859 17.8098 255.196C19.533 255.461 21.2375 255.617 22.9135 255.671C22.5922 258.567 22.2781 261.473 21.974 264.372C20.1714 264.281 18.3389 264.096 16.4865 263.812C-4.07915 260.653 -18.424 246.676 -16.1678 231.987C-13.9129 217.305 3.96636 208.269 24.532 211.428C25.7813 211.62 26.9981 211.851 28.1997 212.124C42.9156 215.416 53.8269 224.358 56.6785 234.788C57.5203 237.863 54.9709 240.796 51.8262 240.313Z" fill="#1A1A1A"/>
<path d="M329.381 86.8002L319.667 150.048C320.596 144 316.447 138.345 310.398 137.416L290.496 134.359C292.941 113.155 295.052 91.8899 296.817 70.5811L320.114 74.1592C326.162 75.0881 330.31 80.752 329.381 86.8002Z" fill="#E01F1F"/>
<path d="M300.883 272.348L288.519 352.845C287.59 358.893 281.935 363.042 275.887 362.113L251.487 358.366C251.822 357.447 252.101 356.493 252.329 355.523C259.895 322.741 266.636 289.823 272.53 256.785L291.614 259.716C297.662 260.645 301.812 266.3 300.883 272.348Z" fill="#FFD905"/>
<path d="M319.667 150.048L307.305 230.536C306.376 236.584 300.72 240.734 294.672 239.805L275.976 236.933C279.516 215.897 282.711 194.808 285.57 173.667C287.349 160.588 288.983 147.479 290.496 134.359L310.398 137.416C316.446 138.345 320.595 144 319.667 150.048Z" fill="#486FAA"/>
<path d="M234.789 145.213L114.376 126.719C101.413 124.728 92.5192 112.606 94.5101 99.6438L100.631 59.7908C102.622 46.8286 114.744 37.9345 127.706 39.9253L248.119 58.4194C261.081 60.4103 269.976 72.5322 267.985 85.4945L261.864 125.347C259.873 138.31 247.751 147.204 234.789 145.213Z" fill="#486FAA"/>
<path d="M193.827 275.128L100.937 260.861C98.9594 260.557 97.6028 258.708 97.9065 256.731L98.1186 255.35C98.4223 253.373 100.271 252.016 102.248 252.32L195.139 266.587C197.116 266.891 198.473 268.74 198.169 270.717L197.957 272.098C197.654 274.075 195.805 275.432 193.827 275.128Z" fill="#E01F1F"/>
<path d="M207.044 306.958L83.0718 287.917C81.0947 287.613 79.7381 285.764 80.0417 283.787L80.2539 282.406C80.5575 280.429 82.4065 279.072 84.3837 279.376L208.356 298.416C210.333 298.72 211.689 300.569 211.386 302.546L211.174 303.928C210.87 305.905 209.021 307.261 207.044 306.958Z" fill="#E01F1F"/>
<path d="M212.588 325.663L67.876 303.437C65.8989 303.133 64.5423 301.284 64.8459 299.307L65.0581 297.926C65.3617 295.949 67.2107 294.592 69.1879 294.896L213.899 317.122C215.876 317.426 217.233 319.275 216.929 321.252L216.717 322.633C216.414 324.61 214.565 325.967 212.588 325.663Z" fill="#E01F1F"/>
<g filter="url(#filter1_iii_83_10)">
<path d="M266.156 181.569L252.114 151.123L153.301 196.695L167.343 227.141L266.156 181.569Z" fill="#FFC022"/>
<path d="M152.871 233.816L141.723 238.957C115.481 251.059 101.439 220.613 127.681 208.51L138.829 203.369L152.871 233.816Z" fill="#DF3030"/>
<path d="M167.343 227.141L153.301 196.695L138.829 203.369L152.871 233.816L167.343 227.141Z" fill="#0C4F9B"/>
<path d="M266.29 181.6L252.114 151.123C252.268 151.457 258.976 153.003 265.647 154.46L272.589 169.511L266.29 181.6Z" fill="#FFDBBA"/>
<path d="M272.589 169.511L265.648 154.46C272.322 155.923 278.951 157.3 278.951 157.3L272.589 169.511Z" fill="#1A1A1A"/>
<path d="M168.653 217.609C168.473 217.218 168.736 216.713 169.241 216.48L258.515 175.308C259.02 175.075 259.575 175.203 259.755 175.593C259.935 175.984 259.672 176.489 259.167 176.722L169.893 217.894C169.388 218.127 168.833 217.999 168.653 217.609Z" fill="#DF3030"/>
<path d="M161.65 202.423C161.469 202.033 161.733 201.527 162.238 201.294L251.511 160.122C252.016 159.889 252.571 160.017 252.751 160.408C252.931 160.798 252.668 161.303 252.163 161.536L162.89 202.709C162.385 202.941 161.83 202.814 161.65 202.423Z" fill="#DF3030"/>
</g>
</g>
</g>
<defs>
<filter id="filter0_iii_83_10" x="-36.5079" y="-14.6119" width="553.396" height="476.844" filterUnits="userSpaceOnUse" color-interpolation-filters="sRGB">
<feFlood flood-opacity="0" result="BackgroundImageFix"/>
<feBlend mode="normal" in="SourceGraphic" in2="BackgroundImageFix" result="shape"/>
<feColorMatrix in="SourceAlpha" type="matrix" values="0 0 0 0 0 0 0 0 0 0 0 0 0 0 0 0 0 0 127 0" result="hardAlpha"/>
<feOffset dx="-3.6119" dy="-3.6119"/>
<feGaussianBlur stdDeviation="7.94618"/>
<feComposite in2="hardAlpha" operator="arithmetic" k2="-1" k3="1"/>
<feColorMatrix type="matrix" values="0 0 0 0 0 0 0 0 0 0 0 0 0 0 0 0 0 0 0.24 0"/>
<feBlend mode="normal" in2="shape" result="effect1_innerShadow_83_10"/>
<feColorMatrix in="SourceAlpha" type="matrix" values="0 0 0 0 0 0 0 0 0 0 0 0 0 0 0 0 0 0 127 0" result="hardAlpha"/>
<feOffset dx="3.6119" dy="3.6119"/>
<feGaussianBlur stdDeviation="1.98654"/>
<feComposite in2="hardAlpha" operator="arithmetic" k2="-1" k3="1"/>
<feColorMatrix type="matrix" values="0 0 0 0 1 0 0 0 0 1 0 0 0 0 1 0 0 0 0.5 0"/>
<feBlend mode="normal" in2="effect1_innerShadow_83_10" result="effect2_innerShadow_83_10"/>
<feColorMatrix in="SourceAlpha" type="matrix" values="0 0 0 0 0 0 0 0 0 0 0 0 0 0 0 0 0 0 127 0" result="hardAlpha"/>
<feOffset dx="6.01983" dy="6.01983"/>
<feGaussianBlur stdDeviation="10.2337"/>
<feComposite in2="hardAlpha" operator="arithmetic" k2="-1" k3="1"/>
<feColorMatrix type="matrix" values="0 0 0 0 1 0 0 0 0 1 0 0 0 0 1 0 0 0 0.15 0"/>
<feBlend mode="normal" in2="effect2_innerShadow_83_10" result="effect3_innerShadow_83_10"/>
</filter>
<filter id="filter1_iii_83_10" x="110.061" y="147.511" width="174.91" height="100.257" filterUnits="userSpaceOnUse" color-interpolation-filters="sRGB">
<feFlood flood-opacity="0" result="BackgroundImageFix"/>
<feBlend mode="normal" in="SourceGraphic" in2="BackgroundImageFix" result="shape"/>
<feColorMatrix in="SourceAlpha" type="matrix" values="0 0 0 0 0 0 0 0 0 0 0 0 0 0 0 0 0 0 127 0" result="hardAlpha"/>
<feOffset dx="-3.6119" dy="-3.6119"/>
<feGaussianBlur stdDeviation="7.94618"/>
<feComposite in2="hardAlpha" operator="arithmetic" k2="-1" k3="1"/>
<feColorMatrix type="matrix" values="0 0 0 0 0 0 0 0 0 0 0 0 0 0 0 0 0 0 0.24 0"/>
<feBlend mode="normal" in2="shape" result="effect1_innerShadow_83_10"/>
<feColorMatrix in="SourceAlpha" type="matrix" values="0 0 0 0 0 0 0 0 0 0 0 0 0 0 0 0 0 0 127 0" result="hardAlpha"/>
<feOffset dx="3.6119" dy="3.6119"/>
<feGaussianBlur stdDeviation="1.98654"/>
<feComposite in2="hardAlpha" operator="arithmetic" k2="-1" k3="1"/>
<feColorMatrix type="matrix" values="0 0 0 0 1 0 0 0 0 1 0 0 0 0 1 0 0 0 0.5 0"/>
<feBlend mode="normal" in2="effect1_innerShadow_83_10" result="effect2_innerShadow_83_10"/>
<feColorMatrix in="SourceAlpha" type="matrix" values="0 0 0 0 0 0 0 0 0 0 0 0 0 0 0 0 0 0 127 0" result="hardAlpha"/>
<feOffset dx="6.01983" dy="6.01983"/>
<feGaussianBlur stdDeviation="10.2337"/>
<feComposite in2="hardAlpha" operator="arithmetic" k2="-1" k3="1"/>
<feColorMatrix type="matrix" values="0 0 0 0 1 0 0 0 0 1 0 0 0 0 1 0 0 0 0.15 0"/>
<feBlend mode="normal" in2="effect2_innerShadow_83_10" result="effect3_innerShadow_83_10"/>
</filter>
<clipPath id="clip0_83_10">
<rect width="229.036" height="346.873" fill="white" transform="translate(318.406 40.569) rotate(32.8267)"/>
</clipPath>
<clipPath id="clip1_83_10">
<rect width="319.503" height="356.031" fill="white" transform="translate(21.1523 -11) rotate(8.73176)"/>
</clipPath>
</defs>
</svg>
