<svg width="39" height="38" viewBox="0 0 39 38" fill="none" xmlns="http://www.w3.org/2000/svg">
<path d="M15.812 1.65836C18.215 -0.400554 21.5598 0.886805 21.9422 4.0441C22.1971 6.14794 22.4443 8.8477 22.6207 12.2394C28.7919 12.5148 33.003 13.0162 35.463 13.3916C37.1782 13.6533 38.5428 14.7889 38.7309 16.5127C38.8065 17.2057 38.862 18.0613 38.8744 19.1086C38.8861 20.1035 38.8566 20.9196 38.8054 21.5852C38.6717 23.3228 37.3255 24.4594 35.6028 24.7188C33.1509 25.0878 28.9673 25.5985 22.8442 25.9612C22.7763 29.4925 22.6078 32.2698 22.4112 34.4109C22.1239 37.5389 18.8737 38.8323 16.4336 36.8293C11.5181 32.794 6.50519 27.7008 2.51862 23.3691C0.391987 21.0583 0.339798 17.5443 2.39749 15.2067C6.22822 10.855 11.0491 5.73941 15.812 1.65836Z" fill="white"/>
</svg>
