<svg width="426" height="497" viewBox="0 0 426 497" fill="none" xmlns="http://www.w3.org/2000/svg">
<g opacity="0.8">
<g filter="url(#filter0_diii_106_4961)">
<path d="M152.798 163.602C197.423 163.602 233.599 127.426 233.599 82.8012C233.599 38.1759 197.423 2 152.798 2C108.173 2 71.9966 38.1759 71.9966 82.8012C71.9966 127.426 108.173 163.602 152.798 163.602Z" fill="#318F30"/>
</g>
<g filter="url(#filter1_diii_106_4961)">
<path d="M234.578 184.801C237.039 213.556 259.104 236.713 287.348 240.85C289.102 245.585 290.848 250.59 292.545 255.839C267.948 255.909 249.753 256.642 237.153 257.43C221.385 258.417 207.373 267.472 200.766 282.062C194.286 296.373 186.221 317.417 181.185 342.297C177.381 361.086 191.951 377.34 210.447 378.143C215.468 378.362 221.063 378.584 227.172 378.793L232.639 452.603C227.028 466.29 214.558 476.486 198.955 478.061C194.952 478.465 190.669 478.855 186.186 479.203C175.742 480.014 166.958 471.945 166.446 461.685L162.714 387.049C162.549 383.741 159.818 381.144 156.506 381.144H149.078C145.766 381.144 143.036 383.741 142.87 387.049L139.139 461.684C138.625 471.945 129.843 480.014 119.397 479.203C114.917 478.855 110.634 478.465 106.634 478.061C86.3245 476.011 71.3241 459.355 69.846 439.405L62.6535 342.308C54.7014 342.036 47.4181 341.748 40.8819 341.463C16.8056 340.418 -2.16026 319.259 2.79099 294.801C9.34707 262.415 19.845 235.021 28.2807 216.392C36.8804 197.4 55.1203 185.613 75.6463 184.327C92.898 183.248 118.207 182.249 152.797 182.249C187.384 182.249 212.69 183.248 229.941 184.327C231.501 184.425 233.047 184.583 234.578 184.801Z" fill="#318F30"/>
</g>
<mask id="path-3-outside-1_106_4961" maskUnits="userSpaceOnUse" x="166.577" y="104.364" width="259" height="393" fill="black">
<rect fill="white" x="166.577" y="104.364" width="259" height="393"/>
<path d="M296.422 241.509C330.703 241.509 358.494 213.718 358.494 179.436C358.494 145.155 330.703 117.364 296.422 117.364C262.14 117.364 234.349 145.155 234.349 179.436C234.349 213.718 262.14 241.509 296.422 241.509Z"/>
<path d="M296.421 255.833C269.849 255.833 250.406 256.601 237.153 257.43C221.385 258.417 207.372 267.472 200.766 282.062C194.286 296.373 186.221 317.417 181.185 342.297C177.381 361.086 191.951 377.34 210.446 378.143C215.468 378.362 221.063 378.583 227.172 378.793L232.697 453.384C233.832 468.709 245.356 481.504 260.958 483.079C264.031 483.389 267.321 483.689 270.763 483.957C278.787 484.579 285.534 478.381 285.928 470.498L288.795 413.163C288.922 410.621 291.019 408.627 293.564 408.627H299.27C301.814 408.627 303.912 410.621 304.039 413.163L306.906 470.499C307.299 478.381 314.047 484.579 322.071 483.957C325.514 483.689 328.805 483.389 331.88 483.079C347.482 481.504 359.006 468.709 360.141 453.384L365.666 378.793C371.774 378.583 377.369 378.362 382.388 378.143C400.884 377.34 415.453 361.086 411.65 342.297C406.613 317.416 398.548 296.371 392.068 282.061C385.462 267.471 371.45 258.417 355.684 257.43C342.432 256.601 322.991 255.833 296.421 255.833Z"/>
</mask>
<path d="M296.422 241.509C330.703 241.509 358.494 213.718 358.494 179.436C358.494 145.155 330.703 117.364 296.422 117.364C262.14 117.364 234.349 145.155 234.349 179.436C234.349 213.718 262.14 241.509 296.422 241.509Z" fill="#1863A9"/>
<path d="M296.421 255.833C269.849 255.833 250.406 256.601 237.153 257.43C221.385 258.417 207.372 267.472 200.766 282.062C194.286 296.373 186.221 317.417 181.185 342.297C177.381 361.086 191.951 377.34 210.446 378.143C215.468 378.362 221.063 378.583 227.172 378.793L232.697 453.384C233.832 468.709 245.356 481.504 260.958 483.079C264.031 483.389 267.321 483.689 270.763 483.957C278.787 484.579 285.534 478.381 285.928 470.498L288.795 413.163C288.922 410.621 291.019 408.627 293.564 408.627H299.27C301.814 408.627 303.912 410.621 304.039 413.163L306.906 470.499C307.299 478.381 314.047 484.579 322.071 483.957C325.514 483.689 328.805 483.389 331.88 483.079C347.482 481.504 359.006 468.709 360.141 453.384L365.666 378.793C371.774 378.583 377.369 378.362 382.388 378.143C400.884 377.34 415.453 361.086 411.65 342.297C406.613 317.416 398.548 296.371 392.068 282.061C385.462 267.471 371.45 258.417 355.684 257.43C342.432 256.601 322.991 255.833 296.421 255.833Z" fill="#1863A9"/>
<path d="M237.153 257.43L236.341 244.455L236.34 244.455L237.153 257.43ZM200.766 282.062L212.608 287.424L212.609 287.424L200.766 282.062ZM181.185 342.297L193.926 344.876L193.926 344.876L181.185 342.297ZM210.446 378.143L211.012 365.156L211.01 365.156L210.446 378.143ZM227.172 378.793L240.136 377.832L239.274 366.199L227.616 365.8L227.172 378.793ZM232.697 453.384L219.733 454.344L219.733 454.344L232.697 453.384ZM260.958 483.079L262.264 470.145L262.264 470.145L260.958 483.079ZM270.763 483.957L269.756 496.918L269.757 496.918L270.763 483.957ZM285.928 470.498L298.912 471.148L298.912 471.148L285.928 470.498ZM288.795 413.163L301.779 413.812L301.779 413.812L288.795 413.163ZM304.039 413.163L291.055 413.812L291.055 413.812L304.039 413.163ZM306.906 470.499L319.89 469.851L319.89 469.85L306.906 470.499ZM322.071 483.957L323.077 496.918L323.077 496.918L322.071 483.957ZM331.88 483.079L330.575 470.145H330.575L331.88 483.079ZM360.141 453.384L373.106 454.344L373.106 454.344L360.141 453.384ZM365.666 378.793L365.221 365.8L353.563 366.199L352.701 377.832L365.666 378.793ZM382.388 378.143L381.824 365.156L381.822 365.156L382.388 378.143ZM411.65 342.297L398.908 344.876L398.908 344.876L411.65 342.297ZM392.068 282.061L403.911 276.699L403.911 276.699L392.068 282.061ZM355.684 257.43L356.496 244.455L356.495 244.455L355.684 257.43ZM345.494 179.436C345.494 206.538 323.523 228.509 296.422 228.509V254.509C337.883 254.509 371.494 220.898 371.494 179.436H345.494ZM296.422 228.509C269.32 228.509 247.349 206.538 247.349 179.436H221.349C221.349 220.898 254.96 254.509 296.422 254.509V228.509ZM247.349 179.436C247.349 152.334 269.32 130.364 296.422 130.364V104.364C254.96 104.364 221.349 137.975 221.349 179.436H247.349ZM296.422 130.364C323.523 130.364 345.494 152.334 345.494 179.436H371.494C371.494 137.975 337.883 104.364 296.422 104.364V130.364ZM296.421 242.833C269.599 242.833 249.885 243.608 236.341 244.455L237.964 270.404C250.927 269.594 270.098 268.833 296.421 268.833V242.833ZM236.34 244.455C216.074 245.724 197.637 257.456 188.924 276.699L212.609 287.424C217.108 277.488 226.695 271.11 237.965 270.404L236.34 244.455ZM188.924 276.699C182.158 291.64 173.723 313.634 168.443 339.718L193.926 344.876C198.719 321.201 206.413 301.106 212.608 287.424L188.924 276.699ZM168.443 339.718C162.869 367.251 184.37 390.023 209.882 391.131L211.01 365.156C199.531 364.657 191.893 354.921 193.926 344.876L168.443 339.718ZM209.881 391.131C214.94 391.351 220.575 391.574 226.727 391.785L227.616 365.8C221.55 365.593 215.995 365.373 211.012 365.156L209.881 391.131ZM214.207 379.753L219.733 454.344L245.661 452.423L240.136 377.832L214.207 379.753ZM219.733 454.344C221.301 475.514 237.338 493.761 259.653 496.013L262.264 470.145C253.374 469.248 246.364 461.903 245.661 452.423L219.733 454.344ZM259.652 496.013C262.814 496.333 266.204 496.642 269.756 496.918L271.77 470.996C268.438 470.737 265.248 470.446 262.264 470.145L259.652 496.013ZM269.757 496.918C285.314 498.125 298.164 486.103 298.912 471.148L272.945 469.849C272.926 470.214 272.771 470.521 272.526 470.74C272.407 470.847 272.286 470.913 272.179 470.951C272.083 470.984 271.956 471.01 271.768 470.996L269.757 496.918ZM298.912 471.148L301.779 413.812L275.811 412.513L272.945 469.849L298.912 471.148ZM301.779 413.812C301.56 418.19 297.946 421.627 293.564 421.627V395.627C284.093 395.627 276.284 403.053 275.811 412.514L301.779 413.812ZM293.564 421.627H299.27V395.627H293.564V421.627ZM299.27 421.627C294.89 421.627 291.274 418.192 291.055 413.812L317.023 412.514C316.55 403.051 308.739 395.627 299.27 395.627V421.627ZM291.055 413.812L293.922 471.149L319.89 469.85L317.023 412.513L291.055 413.812ZM293.922 471.148C294.669 486.105 307.522 498.125 323.077 496.918L321.065 470.996C320.878 471.01 320.751 470.985 320.655 470.951C320.548 470.913 320.427 470.847 320.308 470.74C320.063 470.52 319.908 470.214 319.89 469.851L293.922 471.148ZM323.077 496.918C326.631 496.642 330.022 496.333 333.186 496.013L330.575 470.145C327.589 470.446 324.398 470.737 321.064 470.996L323.077 496.918ZM333.186 496.013C355.5 493.761 371.537 475.514 373.106 454.344L347.177 452.423C346.474 461.903 339.465 469.248 330.575 470.145L333.186 496.013ZM373.106 454.344L378.63 379.753L352.701 377.832L347.177 452.423L373.106 454.344ZM366.111 391.785C372.261 391.574 377.896 391.351 382.954 391.131L381.822 365.156C376.841 365.373 371.286 365.593 365.221 365.8L366.111 391.785ZM382.952 391.131C408.464 390.023 429.965 367.251 424.391 339.718L398.908 344.876C400.942 354.921 393.303 364.657 381.824 365.156L382.952 391.131ZM424.391 339.718C419.111 313.633 410.675 291.638 403.911 276.699L380.226 287.423C386.42 301.104 394.116 321.2 398.908 344.876L424.391 339.718ZM403.911 276.699C395.197 257.455 376.76 245.724 356.496 244.455L354.871 270.404C366.139 271.11 375.727 277.487 380.226 287.423L403.911 276.699ZM356.495 244.455C342.953 243.608 323.241 242.833 296.421 242.833V268.833C322.742 268.833 341.911 269.594 354.872 270.404L356.495 244.455Z" fill="#1863A9" mask="url(#path-3-outside-1_106_4961)"/>
</g>
<g filter="url(#filter2_diii_106_4961)">
<path d="M296.422 242.509C330.703 242.509 358.494 214.718 358.494 180.436C358.494 146.155 330.703 118.364 296.422 118.364C262.14 118.364 234.349 146.155 234.349 180.436C234.349 214.718 262.14 242.509 296.422 242.509Z" fill="#E63C36"/>
<path d="M296.421 256.833C269.849 256.833 250.406 257.601 237.153 258.43C221.385 259.417 207.372 268.472 200.766 283.062C194.286 297.373 186.221 318.418 181.185 343.297C177.381 362.086 191.951 378.34 210.446 379.144C215.468 379.362 221.063 379.584 227.172 379.793L232.697 454.384C233.832 469.709 245.356 482.505 260.958 484.079C264.031 484.39 267.321 484.69 270.763 484.957C278.787 485.58 285.534 479.381 285.928 471.499L288.795 414.163C288.922 411.622 291.019 409.627 293.564 409.627H299.27C301.814 409.627 303.912 411.622 304.039 414.163L306.906 471.5C307.299 479.381 314.047 485.58 322.071 484.957C325.514 484.69 328.805 484.39 331.88 484.079C347.482 482.505 359.006 469.709 360.141 454.384L365.666 379.793C371.774 379.584 377.369 379.362 382.388 379.144C400.884 378.34 415.453 362.086 411.65 343.297C406.613 318.417 398.548 297.371 392.068 283.061C385.462 268.471 371.45 259.417 355.683 258.43C342.432 257.601 322.991 256.833 296.421 256.833Z" fill="#E63C36"/>
</g>
<defs>
<filter id="filter0_diii_106_4961" x="68.3847" y="-1.6119" width="176.05" height="176.05" filterUnits="userSpaceOnUse" color-interpolation-filters="sRGB">
<feFlood flood-opacity="0" result="BackgroundImageFix"/>
<feColorMatrix in="SourceAlpha" type="matrix" values="0 0 0 0 0 0 0 0 0 0 0 0 0 0 0 0 0 0 127 0" result="hardAlpha"/>
<feOffset dx="4.81586" dy="4.81586"/>
<feGaussianBlur stdDeviation="3.00991"/>
<feComposite in2="hardAlpha" operator="out"/>
<feColorMatrix type="matrix" values="0 0 0 0 0 0 0 0 0 0 0 0 0 0 0 0 0 0 0.25 0"/>
<feBlend mode="normal" in2="BackgroundImageFix" result="effect1_dropShadow_106_4961"/>
<feBlend mode="normal" in="SourceGraphic" in2="effect1_dropShadow_106_4961" result="shape"/>
<feColorMatrix in="SourceAlpha" type="matrix" values="0 0 0 0 0 0 0 0 0 0 0 0 0 0 0 0 0 0 127 0" result="hardAlpha"/>
<feOffset dx="-3.6119" dy="-3.6119"/>
<feGaussianBlur stdDeviation="7.94618"/>
<feComposite in2="hardAlpha" operator="arithmetic" k2="-1" k3="1"/>
<feColorMatrix type="matrix" values="0 0 0 0 0 0 0 0 0 0 0 0 0 0 0 0 0 0 0.24 0"/>
<feBlend mode="normal" in2="shape" result="effect2_innerShadow_106_4961"/>
<feColorMatrix in="SourceAlpha" type="matrix" values="0 0 0 0 0 0 0 0 0 0 0 0 0 0 0 0 0 0 127 0" result="hardAlpha"/>
<feOffset dx="3.6119" dy="3.6119"/>
<feGaussianBlur stdDeviation="1.98654"/>
<feComposite in2="hardAlpha" operator="arithmetic" k2="-1" k3="1"/>
<feColorMatrix type="matrix" values="0 0 0 0 1 0 0 0 0 1 0 0 0 0 1 0 0 0 0.5 0"/>
<feBlend mode="normal" in2="effect2_innerShadow_106_4961" result="effect3_innerShadow_106_4961"/>
<feColorMatrix in="SourceAlpha" type="matrix" values="0 0 0 0 0 0 0 0 0 0 0 0 0 0 0 0 0 0 127 0" result="hardAlpha"/>
<feOffset dx="6.01983" dy="6.01983"/>
<feGaussianBlur stdDeviation="10.2337"/>
<feComposite in2="hardAlpha" operator="arithmetic" k2="-1" k3="1"/>
<feColorMatrix type="matrix" values="0 0 0 0 1 0 0 0 0 1 0 0 0 0 1 0 0 0 0.15 0"/>
<feBlend mode="normal" in2="effect3_innerShadow_106_4961" result="effect4_innerShadow_106_4961"/>
</filter>
<filter id="filter1_diii_106_4961" x="-1.6119" y="178.637" width="304.993" height="311.458" filterUnits="userSpaceOnUse" color-interpolation-filters="sRGB">
<feFlood flood-opacity="0" result="BackgroundImageFix"/>
<feColorMatrix in="SourceAlpha" type="matrix" values="0 0 0 0 0 0 0 0 0 0 0 0 0 0 0 0 0 0 127 0" result="hardAlpha"/>
<feOffset dx="4.81586" dy="4.81586"/>
<feGaussianBlur stdDeviation="3.00991"/>
<feComposite in2="hardAlpha" operator="out"/>
<feColorMatrix type="matrix" values="0 0 0 0 0 0 0 0 0 0 0 0 0 0 0 0 0 0 0.25 0"/>
<feBlend mode="normal" in2="BackgroundImageFix" result="effect1_dropShadow_106_4961"/>
<feBlend mode="normal" in="SourceGraphic" in2="effect1_dropShadow_106_4961" result="shape"/>
<feColorMatrix in="SourceAlpha" type="matrix" values="0 0 0 0 0 0 0 0 0 0 0 0 0 0 0 0 0 0 127 0" result="hardAlpha"/>
<feOffset dx="-3.6119" dy="-3.6119"/>
<feGaussianBlur stdDeviation="7.94618"/>
<feComposite in2="hardAlpha" operator="arithmetic" k2="-1" k3="1"/>
<feColorMatrix type="matrix" values="0 0 0 0 0 0 0 0 0 0 0 0 0 0 0 0 0 0 0.24 0"/>
<feBlend mode="normal" in2="shape" result="effect2_innerShadow_106_4961"/>
<feColorMatrix in="SourceAlpha" type="matrix" values="0 0 0 0 0 0 0 0 0 0 0 0 0 0 0 0 0 0 127 0" result="hardAlpha"/>
<feOffset dx="3.6119" dy="3.6119"/>
<feGaussianBlur stdDeviation="1.98654"/>
<feComposite in2="hardAlpha" operator="arithmetic" k2="-1" k3="1"/>
<feColorMatrix type="matrix" values="0 0 0 0 1 0 0 0 0 1 0 0 0 0 1 0 0 0 0.5 0"/>
<feBlend mode="normal" in2="effect2_innerShadow_106_4961" result="effect3_innerShadow_106_4961"/>
<feColorMatrix in="SourceAlpha" type="matrix" values="0 0 0 0 0 0 0 0 0 0 0 0 0 0 0 0 0 0 127 0" result="hardAlpha"/>
<feOffset dx="6.01983" dy="6.01983"/>
<feGaussianBlur stdDeviation="10.2337"/>
<feComposite in2="hardAlpha" operator="arithmetic" k2="-1" k3="1"/>
<feColorMatrix type="matrix" values="0 0 0 0 1 0 0 0 0 1 0 0 0 0 1 0 0 0 0.15 0"/>
<feBlend mode="normal" in2="effect3_innerShadow_106_4961" result="effect4_innerShadow_106_4961"/>
</filter>
<filter id="filter2_diii_106_4961" x="176.965" y="114.752" width="246.128" height="381.084" filterUnits="userSpaceOnUse" color-interpolation-filters="sRGB">
<feFlood flood-opacity="0" result="BackgroundImageFix"/>
<feColorMatrix in="SourceAlpha" type="matrix" values="0 0 0 0 0 0 0 0 0 0 0 0 0 0 0 0 0 0 127 0" result="hardAlpha"/>
<feOffset dx="4.81586" dy="4.81586"/>
<feGaussianBlur stdDeviation="3.00991"/>
<feComposite in2="hardAlpha" operator="out"/>
<feColorMatrix type="matrix" values="0 0 0 0 0 0 0 0 0 0 0 0 0 0 0 0 0 0 0.25 0"/>
<feBlend mode="normal" in2="BackgroundImageFix" result="effect1_dropShadow_106_4961"/>
<feBlend mode="normal" in="SourceGraphic" in2="effect1_dropShadow_106_4961" result="shape"/>
<feColorMatrix in="SourceAlpha" type="matrix" values="0 0 0 0 0 0 0 0 0 0 0 0 0 0 0 0 0 0 127 0" result="hardAlpha"/>
<feOffset dx="-3.6119" dy="-3.6119"/>
<feGaussianBlur stdDeviation="7.94618"/>
<feComposite in2="hardAlpha" operator="arithmetic" k2="-1" k3="1"/>
<feColorMatrix type="matrix" values="0 0 0 0 0 0 0 0 0 0 0 0 0 0 0 0 0 0 0.24 0"/>
<feBlend mode="normal" in2="shape" result="effect2_innerShadow_106_4961"/>
<feColorMatrix in="SourceAlpha" type="matrix" values="0 0 0 0 0 0 0 0 0 0 0 0 0 0 0 0 0 0 127 0" result="hardAlpha"/>
<feOffset dx="3.6119" dy="3.6119"/>
<feGaussianBlur stdDeviation="1.98654"/>
<feComposite in2="hardAlpha" operator="arithmetic" k2="-1" k3="1"/>
<feColorMatrix type="matrix" values="0 0 0 0 1 0 0 0 0 1 0 0 0 0 1 0 0 0 0.5 0"/>
<feBlend mode="normal" in2="effect2_innerShadow_106_4961" result="effect3_innerShadow_106_4961"/>
<feColorMatrix in="SourceAlpha" type="matrix" values="0 0 0 0 0 0 0 0 0 0 0 0 0 0 0 0 0 0 127 0" result="hardAlpha"/>
<feOffset dx="6.01983" dy="6.01983"/>
<feGaussianBlur stdDeviation="10.2337"/>
<feComposite in2="hardAlpha" operator="arithmetic" k2="-1" k3="1"/>
<feColorMatrix type="matrix" values="0 0 0 0 1 0 0 0 0 1 0 0 0 0 1 0 0 0 0.15 0"/>
<feBlend mode="normal" in2="effect3_innerShadow_106_4961" result="effect4_innerShadow_106_4961"/>
</filter>
</defs>
</svg>
