<svg width="269" height="173" viewBox="0 0 269 173" fill="none" xmlns="http://www.w3.org/2000/svg">
<g filter="url(#filter0_iii_132_6)">
<path fill-rule="evenodd" clip-rule="evenodd" d="M152.396 0C129.333 0 109.235 12.5297 98.7135 31.0669C91.7131 28.3331 84.0827 26.8307 76.0966 26.8307C46.3389 26.8307 21.5185 47.69 15.834 75.3986C6.0683 84.7507 -0.000152588 97.841 -0.000152588 112.33C-0.000152588 140.75 23.3489 163.789 52.1514 163.789C61.442 163.789 70.1653 161.392 77.7205 157.19C88.6458 167.012 103.172 173 119.116 173C138.748 173 156.231 163.922 167.488 149.787C178.142 158.531 191.839 163.789 206.78 163.789C240.737 163.789 268.266 136.626 268.266 103.119C268.266 71.0476 243.046 44.7883 211.108 42.5969C203.313 17.9164 179.975 0 152.396 0Z" fill="#AFC3CA"/>
</g>
<defs>
<filter id="filter0_iii_132_6" x="-3.6119" y="-3.6119" width="277.897" height="182.632" filterUnits="userSpaceOnUse" color-interpolation-filters="sRGB">
<feFlood flood-opacity="0" result="BackgroundImageFix"/>
<feBlend mode="normal" in="SourceGraphic" in2="BackgroundImageFix" result="shape"/>
<feColorMatrix in="SourceAlpha" type="matrix" values="0 0 0 0 0 0 0 0 0 0 0 0 0 0 0 0 0 0 127 0" result="hardAlpha"/>
<feOffset dx="-3.6119" dy="-3.6119"/>
<feGaussianBlur stdDeviation="7.94618"/>
<feComposite in2="hardAlpha" operator="arithmetic" k2="-1" k3="1"/>
<feColorMatrix type="matrix" values="0 0 0 0 0 0 0 0 0 0 0 0 0 0 0 0 0 0 0.24 0"/>
<feBlend mode="normal" in2="shape" result="effect1_innerShadow_132_6"/>
<feColorMatrix in="SourceAlpha" type="matrix" values="0 0 0 0 0 0 0 0 0 0 0 0 0 0 0 0 0 0 127 0" result="hardAlpha"/>
<feOffset dx="3.6119" dy="3.6119"/>
<feGaussianBlur stdDeviation="1.98654"/>
<feComposite in2="hardAlpha" operator="arithmetic" k2="-1" k3="1"/>
<feColorMatrix type="matrix" values="0 0 0 0 1 0 0 0 0 1 0 0 0 0 1 0 0 0 0.5 0"/>
<feBlend mode="normal" in2="effect1_innerShadow_132_6" result="effect2_innerShadow_132_6"/>
<feColorMatrix in="SourceAlpha" type="matrix" values="0 0 0 0 0 0 0 0 0 0 0 0 0 0 0 0 0 0 127 0" result="hardAlpha"/>
<feOffset dx="6.01983" dy="6.01983"/>
<feGaussianBlur stdDeviation="10.2337"/>
<feComposite in2="hardAlpha" operator="arithmetic" k2="-1" k3="1"/>
<feColorMatrix type="matrix" values="0 0 0 0 1 0 0 0 0 1 0 0 0 0 1 0 0 0 0.15 0"/>
<feBlend mode="normal" in2="effect2_innerShadow_132_6" result="effect3_innerShadow_132_6"/>
</filter>
</defs>
</svg>
