<svg width="425" height="400" viewBox="0 0 425 400" fill="none" xmlns="http://www.w3.org/2000/svg">
<g opacity="0.75" filter="url(#filter0_ii_34_17)">
<path fill-rule="evenodd" clip-rule="evenodd" d="M367.99 415.269L279.5 415.107C279.413 415.107 279.325 415.107 279.237 415.107C279.15 415.107 279.062 415.106 278.975 415.106L74.0546 414.731L74.0547 414.731C26.6188 414.644 -11.7605 372.975 -11.6679 321.661C-11.5753 270.347 26.9542 228.819 74.3901 228.906C84.3127 228.924 93.839 230.761 102.7 234.126C119.822 200.712 152.783 178.118 190.593 178.188C224.092 178.249 253.719 196.085 271.864 223.431C274.408 223.199 276.983 223.083 279.584 223.087C311.688 223.146 339.778 241.637 355.314 269.289C359.504 268.425 363.831 267.976 368.256 267.984C405.853 268.053 436.272 301.079 436.199 341.75C436.125 382.421 405.587 415.336 367.99 415.268L367.99 415.269Z" fill="#A3CDED"/>
<path fill-rule="evenodd" clip-rule="evenodd" d="M457.944 95.1258C461.246 85.8794 461.919 76.0816 459.378 66.5346C451.393 36.5316 414.685 20.3659 377.387 30.4273C356.233 36.134 339.433 49.0522 330.31 64.64C316.529 58.1714 299.069 56.5329 281.466 61.2816C258.155 67.5701 240.624 83.4322 234.189 101.604C229.115 101.933 223.939 102.778 218.75 104.178C184.634 113.381 162.9 143.089 170.204 170.532C177.507 197.975 211.084 212.761 245.199 203.558C256.522 200.504 266.482 195.19 274.468 188.451C289.097 200.501 311.786 205.154 334.717 198.968C347.569 195.501 358.664 189.124 367.111 181.055C381.632 199.323 410.081 207.559 438.89 199.788C475.347 189.953 498.575 158.205 490.769 128.878C486.559 113.058 474.178 101.173 457.944 95.1258Z" fill="#4C9EC0"/>
<path fill-rule="evenodd" clip-rule="evenodd" d="M62.4785 -6.12122C90.1626 -6.12122 114.287 9.22434 126.916 31.9274C135.319 28.5791 144.479 26.7391 154.065 26.7391C189.785 26.7391 219.578 52.2864 226.401 86.2223C238.124 97.676 245.408 113.708 245.408 131.453C245.408 166.26 217.381 194.477 182.808 194.477C171.656 194.477 161.185 191.542 152.116 186.396C139.001 198.424 121.564 205.758 102.426 205.758C78.861 205.758 57.8755 194.639 44.3629 177.329C31.5737 188.037 15.1333 194.477 -2.80112 194.477C-43.5625 194.477 -76.6062 161.21 -76.6062 120.172C-76.6062 80.8932 -46.3337 48.7326 -7.99638 46.0486C1.36027 15.8216 29.3741 -6.12122 62.4785 -6.12122Z" fill="#1863A9"/>
</g>
<defs>
<filter id="filter0_ii_34_17" x="-76.6062" y="-6.12122" width="574.905" height="427.41" filterUnits="userSpaceOnUse" color-interpolation-filters="sRGB">
<feFlood flood-opacity="0" result="BackgroundImageFix"/>
<feBlend mode="normal" in="SourceGraphic" in2="BackgroundImageFix" result="shape"/>
<feColorMatrix in="SourceAlpha" type="matrix" values="0 0 0 0 0 0 0 0 0 0 0 0 0 0 0 0 0 0 127 0" result="hardAlpha"/>
<feOffset dx="3.6119" dy="3.6119"/>
<feGaussianBlur stdDeviation="1.98654"/>
<feComposite in2="hardAlpha" operator="arithmetic" k2="-1" k3="1"/>
<feColorMatrix type="matrix" values="0 0 0 0 1 0 0 0 0 1 0 0 0 0 1 0 0 0 0.5 0"/>
<feBlend mode="normal" in2="shape" result="effect1_innerShadow_34_17"/>
<feColorMatrix in="SourceAlpha" type="matrix" values="0 0 0 0 0 0 0 0 0 0 0 0 0 0 0 0 0 0 127 0" result="hardAlpha"/>
<feOffset dx="6.01983" dy="6.01983"/>
<feGaussianBlur stdDeviation="10.2337"/>
<feComposite in2="hardAlpha" operator="arithmetic" k2="-1" k3="1"/>
<feColorMatrix type="matrix" values="0 0 0 0 1 0 0 0 0 1 0 0 0 0 1 0 0 0 0.15 0"/>
<feBlend mode="normal" in2="effect1_innerShadow_34_17" result="effect2_innerShadow_34_17"/>
</filter>
</defs>
</svg>
