<svg width="1004" height="497" viewBox="0 0 1004 497" fill="none" xmlns="http://www.w3.org/2000/svg">
<g filter="url(#filter0_diii_134_1867)">
<path d="M518.098 325.032C714.548 325.032 884.952 400.117 969.508 510H969.464C924.196 451.166 854.32 402.307 768.991 369.611C755.986 379.063 751.477 393.299 763.493 404.457C765.307 408.622 767.621 413.937 769.339 421.651C769.758 423.539 769.676 425.277 769.194 426.887C756.785 419.407 743.38 412.155 728.999 405.206C676.611 379.897 573.889 362.551 487.416 375.172C487.738 372.757 488.995 370.084 491.195 367.112C497.754 358.279 489.259 350.575 475.334 344.219C469.195 337.841 457.217 332.365 442.617 328.794C278.602 345.248 140.196 414.468 66.6783 510H66.6738C151.235 400.117 321.644 325.032 518.098 325.032Z" fill="#40BEAA"/>
<path d="M457.074 381.051L457.07 381.055C458.048 377.251 461.987 372.674 470.079 367.22C481.769 359.35 482.087 351.238 475.334 344.219C489.259 350.575 497.754 358.279 491.196 367.113C488.995 370.084 487.738 372.757 487.416 375.173C477.026 376.688 466.874 378.635 457.074 381.055V381.051Z" fill="#0F9093"/>
<path d="M785.845 437.453C780.513 433.888 774.967 430.361 769.196 426.887C769.677 425.277 769.76 423.539 769.343 421.651C767.625 413.936 765.311 408.622 763.499 404.457C763.979 404.909 764.491 405.357 765.034 405.797C780.481 418.391 787.155 429.12 785.845 437.453Z" fill="#0F9093"/>
<path d="M442.618 328.794C457.218 332.365 469.195 337.841 475.334 344.219C482.087 351.238 481.769 359.35 470.08 367.22C461.988 372.674 458.049 377.251 457.071 381.055C457.028 381.063 456.989 381.075 456.946 381.082C456.729 381.138 456.512 381.194 456.294 381.249C455.491 381.451 454.688 381.654 453.888 381.86C453.527 381.955 453.166 382.05 452.805 382.145C452.115 382.328 451.428 382.51 450.741 382.697C450.395 382.792 450.05 382.887 449.705 382.982C448.746 383.244 447.791 383.514 446.84 383.788C446.538 383.875 446.239 383.966 445.936 384.057C445.249 384.256 444.566 384.458 443.887 384.664C443.479 384.787 443.072 384.91 442.668 385.037C442.071 385.219 441.473 385.406 440.875 385.596C440.48 385.719 440.088 385.842 439.692 385.969C438.791 386.259 437.895 386.552 437.002 386.854C436.649 386.969 436.3 387.092 435.95 387.211C435.349 387.417 434.747 387.623 434.146 387.829C433.719 387.98 433.292 388.131 432.869 388.282C432.329 388.476 431.794 388.67 431.258 388.865C430.843 389.015 430.428 389.166 430.013 389.321C429.221 389.614 428.433 389.912 427.645 390.213C427.214 390.38 426.784 390.55 426.353 390.721C425.802 390.935 425.254 391.153 424.707 391.371C424.28 391.546 423.853 391.72 423.427 391.895C422.926 392.097 422.429 392.304 421.936 392.514C421.521 392.688 421.102 392.863 420.69 393.037C419.988 393.339 419.293 393.64 418.599 393.946C418.117 394.16 417.636 394.374 417.159 394.592C416.639 394.826 416.123 395.06 415.61 395.298C415.191 395.489 414.78 395.683 414.365 395.877C413.891 396.099 413.418 396.326 412.948 396.556C412.548 396.746 412.145 396.94 411.749 397.135C411.089 397.46 410.433 397.785 409.777 398.114C409.315 398.352 408.85 398.59 408.388 398.828C407.883 399.09 407.383 399.352 406.882 399.618C406.49 399.824 406.102 400.034 405.714 400.24C405.252 400.494 404.79 400.744 404.328 400.998C403.956 401.204 403.583 401.411 403.215 401.617C402.559 401.986 401.907 402.358 401.258 402.735C400.863 402.969 400.467 403.203 400.071 403.437C399.566 403.735 399.058 404.036 398.557 404.342C398.2 404.56 397.847 404.778 397.494 404.996C397.036 405.282 396.578 405.567 396.124 405.857C395.786 406.071 395.449 406.281 395.115 406.499C394.451 406.928 393.792 407.36 393.14 407.797C392.829 408.003 392.519 408.217 392.212 408.427C391.696 408.776 391.184 409.125 390.675 409.482C390.357 409.704 390.043 409.93 389.728 410.153C389.27 410.478 388.816 410.807 388.366 411.136C388.067 411.35 387.772 411.569 387.477 411.787C386.806 412.287 386.138 412.79 385.475 413.298C385.257 413.469 385.044 413.639 384.827 413.81C384.303 414.218 383.783 414.631 383.266 415.047C382.991 415.269 382.715 415.495 382.44 415.721C381.99 416.09 381.539 416.467 381.093 416.84C380.837 417.058 380.581 417.272 380.325 417.491C379.886 417.867 379.451 418.248 379.017 418.633C378.939 418.704 378.858 418.776 378.776 418.843C378.64 418.966 378.501 419.085 378.369 419.204C378.221 419.335 378.081 419.466 377.938 419.597C377.41 420.073 376.886 420.553 376.366 421.04C376.129 421.263 375.893 421.485 375.66 421.711C375.217 422.131 374.775 422.556 374.34 422.984C374.123 423.198 373.906 423.412 373.688 423.627C373.502 423.813 373.312 424.003 373.125 424.19C373.025 424.297 372.92 424.4 372.819 424.507C372.493 424.836 372.167 425.166 371.849 425.499C371.752 425.602 371.658 425.701 371.565 425.8C371.503 425.864 371.445 425.931 371.383 425.995C371.239 426.145 371.1 426.296 370.956 426.447C370.638 426.788 370.32 427.129 370.005 427.474C369.842 427.653 369.683 427.827 369.524 428.006C369.423 428.117 369.326 428.228 369.225 428.339C368.86 428.747 368.499 429.156 368.142 429.572C367.983 429.751 367.824 429.929 367.669 430.112C367.634 430.151 367.603 430.191 367.572 430.227C367.001 430.893 366.439 431.563 365.887 432.242C365.833 432.309 365.783 432.373 365.732 432.44C365.267 433.011 364.812 433.586 364.362 434.165C364.304 434.241 364.25 434.312 364.191 434.388C364.032 434.594 363.873 434.8 363.718 435.01C363.431 435.383 363.147 435.76 362.864 436.141C362.74 436.311 362.616 436.482 362.492 436.652C362.348 436.847 362.208 437.037 362.069 437.228C361.843 437.541 361.622 437.854 361.405 438.168C361.254 438.382 361.106 438.592 360.959 438.806C360.811 439.016 360.664 439.227 360.516 439.437L360.454 439.528C360.287 439.778 360.124 440.028 359.957 440.274C359.822 440.48 359.686 440.682 359.55 440.889C359.375 441.154 359.201 441.424 359.026 441.694C358.886 441.908 358.75 442.126 358.615 442.34C358.564 442.416 358.517 442.491 358.471 442.562C358.382 442.705 358.292 442.844 358.203 442.987C357.974 443.352 357.749 443.725 357.528 444.093C357.4 444.304 357.272 444.51 357.148 444.72C357.058 444.871 356.965 445.022 356.876 445.172L356.868 445.184C356.449 445.894 356.041 446.608 355.638 447.33C355.525 447.528 355.417 447.731 355.308 447.933C355.025 448.449 354.741 448.968 354.466 449.492C354.415 449.595 354.357 449.694 354.303 449.793C354.221 449.956 354.144 450.119 354.058 450.277C353.798 450.781 353.542 451.289 353.29 451.8C353.201 451.979 353.107 452.161 353.018 452.344C352.96 452.459 352.906 452.574 352.851 452.689C352.615 453.181 352.386 453.672 352.157 454.164C352.048 454.398 351.935 454.632 351.831 454.87C351.532 455.525 351.241 456.183 350.957 456.846C350.907 456.961 350.856 457.076 350.806 457.191C350.725 457.377 350.647 457.568 350.569 457.758C350.472 457.988 350.379 458.222 350.282 458.456C350.131 458.829 349.976 459.202 349.824 459.578C349.758 459.749 349.692 459.924 349.626 460.094C349.58 460.213 349.533 460.328 349.49 460.447C349.397 460.681 349.308 460.915 349.219 461.149C349.114 461.423 349.013 461.693 348.912 461.966C348.811 462.236 348.718 462.51 348.617 462.783C348.423 463.323 348.233 463.866 348.047 464.41C347.946 464.707 347.845 465.009 347.748 465.31C347.616 465.707 347.484 466.103 347.356 466.5C347.294 466.702 347.232 466.901 347.17 467.103C347.092 467.341 347.018 467.583 346.948 467.821C346.793 468.321 346.65 468.824 346.502 469.324C346.44 469.542 346.374 469.76 346.312 469.982C346.277 470.105 346.242 470.228 346.211 470.351C345.974 471.196 345.745 472.045 345.528 472.906C345.411 473.378 345.295 473.85 345.186 474.326C345.163 474.421 345.144 474.516 345.12 474.607L345.101 474.702C345.074 474.814 345.051 474.929 345.027 475.04C344.973 475.27 344.923 475.5 344.872 475.73C344.829 475.928 344.787 476.13 344.748 476.333L344.736 476.376C344.725 476.448 344.709 476.523 344.694 476.595C344.659 476.765 344.624 476.936 344.593 477.106C344.527 477.431 344.465 477.757 344.406 478.082C344.383 478.201 344.364 478.316 344.344 478.435C344.274 478.808 344.212 479.181 344.15 479.55L344.139 479.621C342.462 489.906 342.893 500.056 345.183 510H282.515C290.519 492.556 297.981 471.256 304.954 451.784C323.609 399.749 427.517 347.706 350.251 367.446C270.028 387.944 185.058 428.458 137.098 482.294C128.138 492.353 120.957 501.666 115.513 510H66.6787C140.196 414.468 278.602 345.248 442.618 328.794Z" fill="#6EBB2E"/>
<path d="M785.84 437.454C787.153 429.12 780.482 418.391 765.03 405.797C764.485 405.357 763.978 404.909 763.496 404.457C751.48 393.299 755.982 379.064 768.987 369.612C854.318 402.307 924.192 451.166 969.464 510H861.065C845.518 485.241 820.2 460.451 785.84 437.454Z" fill="#6EBB2E"/>
<path d="M649.976 390.752C726.188 404.754 761.377 444.18 690.052 442.781C645.805 441.904 601.666 421.346 589.974 412.215C570.552 397.003 588.107 379.385 649.976 390.752ZM513.28 510H688.99C669.455 489.981 735.564 492.548 766.019 506.585C797.547 521.118 749.424 485.356 729.508 465.231C711.29 446.818 763.936 444.316 769.169 426.879C774.936 430.358 780.486 433.884 785.821 437.453V437.442C820.193 460.443 845.506 485.237 861.063 510H861.068C845.523 485.241 820.204 460.451 785.844 437.453C780.509 433.888 774.964 430.362 769.198 426.887C756.785 419.406 743.379 412.155 728.997 405.206C676.612 379.896 573.889 362.551 487.417 375.172C477.027 376.687 466.875 378.635 457.075 381.055L457.071 381.074C466.887 378.651 477.051 376.7 487.452 375.18C486.167 384.831 499.715 390.435 527.4 394.671C562.022 399.975 571.466 422.23 554.161 434.955C536.85 447.671 602.954 464.632 576.188 481.592C553.695 495.848 521.203 495.875 513.28 510Z" fill="#7DD3C3"/>
<path d="M344.138 479.621C344.041 480.232 343.948 480.847 343.866 481.457L343.854 481.517C342.527 491.155 343.047 500.667 345.201 510H345.182C342.892 500.056 342.461 489.906 344.138 479.621Z" fill="#7DD3C3"/>
<path d="M382.816 415.416C382.688 415.515 382.564 415.618 382.439 415.721C382.715 415.495 382.991 415.269 383.266 415.047C383.192 415.107 383.119 415.166 383.045 415.226C382.967 415.289 382.894 415.353 382.816 415.416Z" fill="#7DD3C3"/>
<path d="M380.736 417.141C380.6 417.26 380.46 417.375 380.324 417.49C380.58 417.272 380.836 417.058 381.093 416.84L381.05 416.88C380.945 416.967 380.84 417.054 380.736 417.141Z" fill="#7DD3C3"/>
<path d="M362.068 437.227C362.208 437.037 362.348 436.847 362.491 436.652L362.449 436.712C362.321 436.882 362.196 437.057 362.068 437.227Z" fill="#7DD3C3"/>
<path d="M354.303 449.793C354.357 449.694 354.415 449.595 354.466 449.492L354.446 449.531C354.4 449.619 354.349 449.706 354.303 449.793Z" fill="#7DD3C3"/>
<path d="M352.851 452.689C352.905 452.574 352.959 452.459 353.017 452.344C352.983 452.419 352.948 452.494 352.909 452.57C352.889 452.609 352.87 452.649 352.851 452.689Z" fill="#7DD3C3"/>
<path d="M363.718 435.01C363.873 434.8 364.032 434.594 364.191 434.388L364.11 434.491C363.978 434.665 363.85 434.836 363.718 435.01Z" fill="#7DD3C3"/>
<path d="M367.668 430.112C367.823 429.929 367.982 429.751 368.141 429.572C368.056 429.667 367.971 429.763 367.889 429.862C367.815 429.945 367.742 430.028 367.668 430.112Z" fill="#7DD3C3"/>
<path d="M369.523 428.005C369.683 427.827 369.842 427.652 370.005 427.474C369.884 427.605 369.768 427.736 369.652 427.867C369.609 427.914 369.566 427.958 369.523 428.005Z" fill="#7DD3C3"/>
<path d="M345.027 475.04C345.051 474.929 345.074 474.813 345.101 474.702C345.089 474.758 345.078 474.813 345.062 474.869C345.051 474.929 345.039 474.984 345.027 475.04Z" fill="#7DD3C3"/>
<path d="M344.747 476.333C344.786 476.13 344.829 475.928 344.871 475.73C344.844 475.869 344.813 476.007 344.786 476.15C344.774 476.21 344.759 476.269 344.747 476.333Z" fill="#7DD3C3"/>
<path d="M344.693 476.595C344.709 476.523 344.725 476.448 344.737 476.376C344.729 476.412 344.725 476.452 344.717 476.491L344.693 476.595Z" fill="#7DD3C3"/>
<path d="M345.12 474.607C345.143 474.516 345.163 474.421 345.186 474.326C345.174 474.381 345.163 474.437 345.147 474.496C345.14 474.532 345.128 474.572 345.12 474.607Z" fill="#7DD3C3"/>
<path d="M347.169 467.103C347.231 466.9 347.293 466.702 347.355 466.5C347.313 466.639 347.27 466.782 347.227 466.92C347.208 466.984 347.188 467.043 347.169 467.103Z" fill="#7DD3C3"/>
<path d="M346.312 469.983C346.374 469.761 346.44 469.542 346.502 469.324C346.478 469.404 346.459 469.483 346.436 469.566C346.393 469.705 346.35 469.84 346.312 469.983Z" fill="#7DD3C3"/>
<path d="M766.018 506.585C797.543 521.118 749.42 485.356 729.503 465.231C711.288 446.818 763.935 444.316 769.163 426.879C774.93 430.358 780.48 433.884 785.819 437.454C784.83 443.792 779.227 448.75 769.332 452.082C746.423 459.797 757.872 467.507 776.494 479.082C785.417 484.631 793.351 498.16 796.982 510H688.987C669.45 489.981 735.561 492.548 766.018 506.585Z" fill="#36BCB7"/>
<path d="M530.222 489.688C563.142 477.154 551.677 455.942 531.642 451.118C511.603 446.303 517.328 442.444 533.086 434.725C548.833 427.006 521.625 397.115 497.277 397.115C478.936 397.115 454.106 392.728 457.068 381.075C466.885 378.651 477.05 376.7 487.448 375.181C486.163 384.831 499.712 390.436 527.394 394.672C562.017 399.975 571.466 422.231 554.16 434.955C536.847 447.671 602.95 464.632 576.184 481.592C553.694 495.848 521.203 495.875 513.277 510H496.172C499.728 503.138 510.22 497.3 530.222 489.688Z" fill="#36BCB7"/>
<path d="M364.109 434.49L364.191 434.387C364.249 434.312 364.303 434.241 364.362 434.165C364.276 434.272 364.195 434.383 364.109 434.49Z" fill="#36BCB7"/>
<path d="M362.448 436.712L362.491 436.652C362.615 436.482 362.739 436.311 362.864 436.141C362.724 436.331 362.588 436.521 362.448 436.712Z" fill="#36BCB7"/>
<path d="M352.909 452.57C352.948 452.494 352.983 452.419 353.018 452.344C353.107 452.161 353.2 451.979 353.29 451.8C353.161 452.054 353.037 452.312 352.909 452.57Z" fill="#36BCB7"/>
<path d="M354.059 450.277C354.144 450.119 354.222 449.956 354.303 449.793C354.35 449.706 354.4 449.619 354.447 449.532C354.315 449.781 354.187 450.027 354.059 450.277Z" fill="#36BCB7"/>
<path d="M345.186 474.326C345.295 473.85 345.411 473.378 345.528 472.906C345.396 473.433 345.272 473.965 345.147 474.496C345.163 474.437 345.175 474.381 345.186 474.326Z" fill="#36BCB7"/>
<path d="M343.867 481.457C343.949 480.847 344.042 480.232 344.139 479.621L344.15 479.55C344.213 479.181 344.275 478.808 344.345 478.435C344.364 478.316 344.383 478.201 344.407 478.082C344.465 477.757 344.527 477.431 344.593 477.106C344.624 476.936 344.659 476.765 344.694 476.595L344.717 476.491C344.379 478.149 344.092 479.803 343.867 481.457Z" fill="#36BCB7"/>
<path d="M344.786 476.15C344.813 476.008 344.844 475.869 344.872 475.73C344.922 475.5 344.972 475.27 345.027 475.04C345.038 474.984 345.05 474.929 345.062 474.869C344.969 475.297 344.875 475.722 344.786 476.15Z" fill="#36BCB7"/>
<path d="M346.211 470.351C346.242 470.228 346.277 470.105 346.312 469.983C346.351 469.84 346.393 469.705 346.436 469.566C346.358 469.828 346.281 470.086 346.211 470.351Z" fill="#36BCB7"/>
<path d="M367.571 430.227C367.602 430.191 367.633 430.151 367.668 430.112C367.742 430.028 367.816 429.945 367.89 429.862C367.785 429.985 367.676 430.104 367.571 430.227Z" fill="#36BCB7"/>
<path d="M343.855 481.517C342.532 491.155 343.056 500.667 345.214 510H345.202C343.048 500.667 342.528 491.155 343.855 481.517Z" fill="#36BCB7"/>
<path d="M369.225 428.339C369.326 428.228 369.423 428.117 369.523 428.005C369.566 427.958 369.609 427.914 369.652 427.867C369.508 428.021 369.368 428.18 369.225 428.339Z" fill="#36BCB7"/>
<path d="M346.948 467.821C347.018 467.583 347.092 467.341 347.169 467.103C347.189 467.043 347.208 466.984 347.228 466.92C347.135 467.222 347.038 467.519 346.948 467.821Z" fill="#36BCB7"/>
<path d="M776.49 479.082C757.869 467.508 746.421 459.797 769.328 452.082C779.22 448.75 784.828 443.792 785.815 437.454V437.442C820.186 460.443 845.499 485.238 861.055 510H796.979C793.347 498.16 785.418 484.631 776.49 479.082Z" fill="#9ED73D"/>
<path d="M343.855 481.517L343.867 481.457C344.092 479.803 344.379 478.149 344.717 476.491C344.724 476.452 344.728 476.412 344.736 476.376L344.748 476.333C344.759 476.269 344.775 476.21 344.786 476.15C344.876 475.722 344.969 475.297 345.062 474.869C345.077 474.814 345.089 474.758 345.101 474.702L345.12 474.607C345.128 474.572 345.14 474.532 345.147 474.496C345.272 473.965 345.396 473.433 345.528 472.906C345.745 472.045 345.974 471.196 346.211 470.351C346.281 470.086 346.358 469.828 346.436 469.566C346.459 469.483 346.479 469.403 346.502 469.324C346.649 468.824 346.793 468.321 346.948 467.821C347.037 467.519 347.134 467.222 347.228 466.92C347.27 466.782 347.313 466.639 347.356 466.5C347.484 466.103 347.616 465.707 347.748 465.31C347.845 465.009 347.946 464.707 348.046 464.41C348.233 463.866 348.423 463.323 348.617 462.783C348.718 462.51 348.811 462.236 348.912 461.966C349.013 461.693 349.114 461.423 349.218 461.149C349.308 460.915 349.397 460.681 349.49 460.447C349.533 460.328 349.579 460.213 349.626 460.094C349.692 459.924 349.758 459.749 349.824 459.578C349.975 459.202 350.13 458.829 350.282 458.456C350.379 458.222 350.472 457.988 350.569 457.758C350.647 457.568 350.724 457.377 350.806 457.191C350.856 457.076 350.907 456.961 350.957 456.846C351.24 456.183 351.532 455.525 351.83 454.87C351.935 454.632 352.048 454.398 352.156 454.164C352.385 453.672 352.614 453.181 352.851 452.689C352.87 452.649 352.89 452.609 352.909 452.57C353.037 452.312 353.161 452.054 353.29 451.8C353.542 451.289 353.798 450.781 354.058 450.277C354.186 450.027 354.314 449.781 354.446 449.531L354.466 449.492C354.741 448.968 355.024 448.449 355.308 447.933C355.416 447.731 355.525 447.528 355.638 447.33C356.041 446.608 356.449 445.894 356.868 445.184L356.876 445.172C356.965 445.022 357.058 444.871 357.147 444.72C357.271 444.51 357.4 444.304 357.528 444.093C357.749 443.725 357.974 443.352 358.203 442.987C358.292 442.844 358.381 442.705 358.471 442.562C358.517 442.491 358.564 442.416 358.614 442.34C358.75 442.126 358.886 441.908 359.026 441.694C359.2 441.424 359.375 441.154 359.55 440.889C359.685 440.682 359.821 440.48 359.957 440.274C360.124 440.028 360.287 439.778 360.454 439.528L360.516 439.437C360.663 439.227 360.811 439.016 360.958 438.806C361.106 438.592 361.253 438.382 361.405 438.168C361.622 437.854 361.843 437.541 362.068 437.228C362.196 437.057 362.321 436.882 362.449 436.712C362.588 436.522 362.724 436.331 362.864 436.141C363.147 435.76 363.431 435.383 363.718 435.01C363.85 434.836 363.978 434.665 364.11 434.491C364.195 434.384 364.277 434.273 364.362 434.165C364.812 433.586 365.266 433.011 365.732 432.44C365.782 432.373 365.833 432.309 365.887 432.242C366.438 431.563 367.001 430.893 367.571 430.227C367.676 430.104 367.785 429.985 367.89 429.862C367.971 429.763 368.057 429.667 368.142 429.572C368.499 429.156 368.86 428.747 369.225 428.339C369.368 428.18 369.508 428.021 369.652 427.867C369.768 427.736 369.885 427.605 370.005 427.474C370.319 427.129 370.637 426.788 370.956 426.447C371.099 426.296 371.239 426.145 371.383 425.995C371.445 425.931 371.503 425.864 371.565 425.8C371.658 425.701 371.751 425.602 371.848 425.499C372.167 425.166 372.493 424.836 372.819 424.507C372.919 424.4 373.024 424.297 373.125 424.19C373.311 424.003 373.502 423.813 373.688 423.627C373.905 423.412 374.123 423.198 374.34 422.984C374.775 422.556 375.217 422.131 375.659 421.711C375.892 421.485 376.129 421.263 376.366 421.04C376.886 420.553 377.41 420.073 377.938 419.597C378.081 419.466 378.221 419.335 378.368 419.204C378.5 419.085 378.64 418.966 378.776 418.843C378.857 418.776 378.939 418.704 379.016 418.633C379.451 418.248 379.886 417.867 380.324 417.49C380.46 417.375 380.6 417.26 380.736 417.141C380.841 417.054 380.945 416.967 381.05 416.88L381.093 416.84C381.539 416.467 381.989 416.09 382.439 415.721C382.564 415.618 382.688 415.515 382.816 415.416C382.894 415.353 382.967 415.289 383.045 415.226C383.119 415.166 383.192 415.107 383.266 415.047C383.782 414.631 384.302 414.218 384.826 413.81C385.044 413.639 385.257 413.469 385.474 413.298C386.138 412.79 386.806 412.287 387.477 411.787C387.772 411.569 388.067 411.35 388.366 411.136C388.816 410.807 389.27 410.478 389.728 410.153C390.042 409.93 390.357 409.704 390.675 409.482C391.183 409.125 391.696 408.776 392.212 408.427C392.518 408.217 392.829 408.003 393.139 407.796C393.791 407.36 394.451 406.928 395.115 406.499C395.448 406.281 395.786 406.071 396.124 405.857C396.578 405.567 397.036 405.282 397.494 404.996C397.847 404.778 398.2 404.56 398.557 404.342C399.058 404.036 399.566 403.735 400.071 403.437C400.467 403.203 400.862 402.969 401.258 402.735C401.906 402.358 402.558 401.986 403.214 401.617C403.583 401.411 403.956 401.204 404.328 400.998C404.79 400.744 405.252 400.494 405.714 400.24C406.102 400.034 406.49 399.824 406.882 399.618C407.382 399.352 407.883 399.09 408.388 398.828C408.849 398.59 409.315 398.352 409.777 398.114C410.433 397.785 411.089 397.46 411.748 397.135C412.144 396.94 412.548 396.746 412.948 396.556C413.417 396.326 413.891 396.099 414.364 395.877C414.779 395.683 415.191 395.489 415.61 395.298C416.122 395.06 416.638 394.826 417.159 394.592C417.636 394.374 418.117 394.16 418.598 393.946C419.293 393.64 419.988 393.339 420.69 393.037C421.102 392.863 421.521 392.688 421.936 392.514C422.429 392.304 422.926 392.097 423.426 391.895C423.853 391.72 424.28 391.546 424.707 391.371C425.254 391.153 425.801 390.935 426.353 390.721C426.783 390.55 427.214 390.38 427.645 390.213C428.433 389.912 429.221 389.614 430.012 389.321C430.428 389.166 430.843 389.015 431.258 388.865C431.794 388.67 432.329 388.476 432.869 388.282C433.292 388.131 433.719 387.98 434.145 387.829C434.747 387.623 435.349 387.417 435.95 387.211C436.299 387.092 436.649 386.969 437.002 386.854C437.894 386.552 438.791 386.259 439.691 385.969C440.087 385.842 440.479 385.719 440.875 385.596C441.473 385.406 442.07 385.219 442.668 385.037C443.072 384.91 443.479 384.787 443.887 384.664C444.566 384.458 445.249 384.256 445.936 384.057C446.239 383.966 446.537 383.875 446.84 383.788C447.791 383.514 448.746 383.244 449.704 382.982C450.05 382.887 450.395 382.792 450.74 382.697C451.427 382.51 452.114 382.328 452.805 382.145C453.166 382.05 453.527 381.955 453.888 381.86C454.687 381.654 455.491 381.451 456.294 381.249C456.511 381.194 456.729 381.138 456.946 381.082C456.989 381.075 457.028 381.063 457.07 381.055L457.074 381.051V381.055L457.07 381.075C454.105 392.728 478.94 397.115 497.277 397.115C521.626 397.115 548.836 427.006 533.087 434.725C517.33 442.443 511.606 446.303 531.643 451.118C551.676 455.941 563.145 477.154 530.223 489.688C510.22 497.299 499.73 503.138 496.175 510H431.406C416.867 505.776 397.28 505.201 379.859 510H345.213C343.055 500.667 342.532 491.155 343.855 481.517Z" fill="#9ED73D"/>
<path d="M649.974 390.753C726.186 404.755 761.371 444.181 690.045 442.781C645.801 441.904 601.664 421.346 589.966 412.215C570.546 397.004 588.102 379.385 649.974 390.753Z" fill="#BFE9DF"/>
<path d="M171.178 473.818C196.957 446.362 307.23 382.078 291.904 408.427C282.402 424.773 266.325 430.354 235.635 453.097C206.346 474.802 150.25 496.101 171.178 473.818ZM137.098 482.294C128.138 492.353 120.957 501.666 115.513 510H282.515C290.519 492.556 297.981 471.256 304.954 451.784C323.609 399.749 427.517 347.706 350.251 367.446C270.028 387.944 185.058 428.458 137.098 482.294Z" fill="#9ED73D"/>
<path d="M291.904 408.427C282.402 424.773 266.325 430.354 235.635 453.097C206.345 474.802 150.25 496.101 171.177 473.818C196.956 446.362 307.229 382.078 291.904 408.427Z" fill="#CCE878"/>
<mask id="mask0_134_1867" style="mask-type:luminance" maskUnits="userSpaceOnUse" x="681" y="69" width="132" height="141">
<path d="M768.529 114.482C766.29 106.346 742.717 69.3791 740.144 70.0058C737.571 70.6325 726.58 116.72 725.908 119.661C704.978 120.248 683.183 127.298 681.634 129.411C680.09 131.523 715.907 155.435 721.267 156.559C712.857 178.75 711.824 207.823 714.533 209.246C717.246 210.669 755.233 173.978 755.233 173.978C755.233 173.978 802.976 199.496 804.998 197.962C807.017 196.428 788.656 152.686 784.992 150.081C808.367 124.658 812.791 111.602 812.124 110.575C810.727 108.425 790.666 111.856 768.529 114.482Z" fill="white"/>
</mask>
<g mask="url(#mask0_134_1867)">
<path d="M768.526 114.483C766.29 106.347 742.718 69.3821 740.143 70.0084C737.568 70.6353 726.58 116.721 725.908 119.662C704.975 120.249 683.182 127.298 681.633 129.411C680.091 131.525 715.903 155.436 721.263 156.56C712.855 178.751 711.823 207.824 714.533 209.247C717.242 210.67 755.232 173.978 755.232 173.978C755.232 173.978 802.974 199.497 804.995 197.963C807.016 196.428 788.653 152.686 784.992 150.082C808.366 124.659 812.79 111.604 812.123 110.577C810.726 108.427 790.663 111.858 768.526 114.483Z" fill="url(#paint0_linear_134_1867)"/>
</g>
<mask id="mask1_134_1867" style="mask-type:luminance" maskUnits="userSpaceOnUse" x="289" y="16" width="112" height="112">
<path d="M373.669 58.8044C376.995 52.9023 384.555 18.2078 382.75 17.0456C380.95 15.8874 348.788 35.3666 346.751 36.628C334.634 24.6374 318.386 15.7764 316.324 16.054C314.263 16.3356 320.957 50.8873 323.341 54.6753C306.097 62.2195 289.131 77.9822 289.855 80.3779C290.58 82.7776 332.651 84.4792 332.651 84.4792C332.651 84.4792 345.156 126.956 347.158 127.282C349.161 127.607 363.474 92.1662 362.876 88.5409C390.369 87.9856 400.219 83.2377 400.42 82.2699C400.847 80.2351 387.617 70.3547 373.669 58.8044Z" fill="white"/>
</mask>
<g mask="url(#mask1_134_1867)">
<path d="M373.669 58.8044C376.995 52.9023 384.555 18.2078 382.75 17.0456C380.95 15.8874 348.788 35.3666 346.751 36.628C334.634 24.6374 318.386 15.7764 316.324 16.054C314.263 16.3356 320.957 50.8873 323.341 54.6753C306.097 62.2195 289.131 77.9822 289.855 80.3779C290.58 82.7776 332.651 84.4792 332.651 84.4792C332.651 84.4792 345.156 126.956 347.158 127.282C349.161 127.607 363.474 92.1662 362.876 88.5409C390.369 87.9856 400.219 83.2377 400.42 82.2699C400.847 80.2351 387.617 70.3547 373.669 58.8044Z" fill="url(#paint1_linear_134_1867)"/>
</g>
<mask id="mask2_134_1867" style="mask-type:luminance" maskUnits="userSpaceOnUse" x="954" y="322" width="68" height="73">
<path d="M1001.66 349.242C1002.73 345.146 1001.78 323.039 1000.52 322.638C999.252 322.238 982.995 339.261 981.97 340.356C972.788 335.148 961.619 332.502 960.423 333.011C959.228 333.519 968.717 353.186 970.747 355.07C961.572 362.452 953.864 374.732 954.679 376.057C955.494 377.378 981.054 371.452 981.054 371.452C981.054 371.452 995.29 394.925 996.543 394.79C997.801 394.656 1000.8 370.984 999.869 368.901C1016.31 364.031 1021.48 359.549 1021.45 358.93C1021.39 357.641 1011.87 353.884 1001.66 349.242Z" fill="white"/>
</mask>
<g mask="url(#mask2_134_1867)">
<path d="M1001.66 349.242C1002.73 345.146 1001.78 323.038 1000.52 322.638C999.253 322.238 982.996 339.261 981.971 340.356C972.787 335.148 961.618 332.502 960.426 333.01C959.228 333.52 968.718 353.187 970.749 355.071C961.572 362.452 953.867 374.732 954.679 376.057C955.492 377.377 981.052 371.452 981.052 371.452C981.052 371.452 995.29 394.925 996.542 394.79C997.801 394.656 1000.8 370.984 999.872 368.901C1016.31 364.031 1021.48 359.549 1021.45 358.93C1021.38 357.641 1011.87 353.884 1001.66 349.242Z" fill="url(#paint2_linear_134_1867)"/>
</g>
<mask id="mask3_134_1867" style="mask-type:luminance" maskUnits="userSpaceOnUse" x="9" y="322" width="67" height="69">
<path d="M47.0127 338.846C44.8254 335.454 28.7465 322.044 27.6583 322.715C26.5701 323.386 28.1217 346.132 28.2343 347.58C18.7337 350.972 9.75779 357.454 9.35184 358.652C8.94628 359.85 28.7663 365.454 31.3813 365.169C30.6994 376.588 34.3817 390.054 35.8262 390.304C37.2711 390.55 49.4243 368.076 49.4243 368.076C49.4243 368.076 74.9362 372.638 75.6421 371.634C76.3481 370.631 61.6889 353.337 59.6382 352.69C66.7112 337.56 66.8715 330.921 66.4194 330.55C65.4721 329.774 56.7752 334.34 47.0127 338.846Z" fill="white"/>
</mask>
<g mask="url(#mask3_134_1867)">
<path d="M47.0127 338.846C44.8254 335.454 28.7465 322.044 27.6583 322.715C26.5701 323.386 28.1217 346.132 28.2343 347.58C18.7337 350.972 9.75779 357.454 9.35184 358.652C8.94628 359.85 28.7663 365.454 31.3813 365.169C30.6994 376.588 34.3817 390.054 35.8262 390.304C37.2711 390.55 49.4243 368.076 49.4243 368.076C49.4243 368.076 74.9362 372.638 75.6421 371.634C76.3481 370.631 61.6889 353.337 59.6382 352.69C66.7112 337.56 66.8715 330.921 66.4194 330.55C65.4721 329.774 56.7752 334.34 47.0127 338.846Z" fill="url(#paint3_linear_134_1867)"/>
</g>
<mask id="mask4_134_1867" style="mask-type:luminance" maskUnits="userSpaceOnUse" x="988" y="108" width="35" height="39">
<path d="M1011.41 119.951C1010.67 117.823 1003.69 108.409 1003.02 108.627C1002.34 108.841 1000.26 121.356 1000.13 122.154C994.556 122.713 988.866 125.015 988.494 125.608C988.117 126.202 998.122 131.896 999.574 132.093C997.734 138.178 997.994 145.959 998.743 146.286C999.496 146.614 1008.96 136.089 1008.96 136.089C1008.96 136.089 1022.17 141.982 1022.69 141.534C1023.2 141.085 1017.49 129.762 1016.46 129.137C1022.23 121.901 1023.17 118.331 1022.98 118.07C1022.56 117.523 1017.27 118.825 1011.41 119.951Z" fill="white"/>
</mask>
<g mask="url(#mask4_134_1867)">
<path d="M1011.41 119.953C1010.66 117.824 1003.69 108.41 1003.01 108.627C1002.34 108.844 1000.25 121.357 1000.13 122.155C994.55 122.715 988.861 125.016 988.488 125.609C988.114 126.203 998.118 131.896 999.572 132.093C997.731 138.179 997.991 145.96 998.738 146.287C999.492 146.615 1008.96 136.09 1008.96 136.09C1008.96 136.09 1022.17 141.983 1022.68 141.535C1023.19 141.086 1017.48 129.763 1016.46 129.139C1022.23 121.902 1023.17 118.333 1022.97 118.071C1022.56 117.524 1017.27 118.826 1011.41 119.953Z" fill="url(#paint4_linear_134_1867)"/>
</g>
<mask id="mask5_134_1867" style="mask-type:luminance" maskUnits="userSpaceOnUse" x="596" y="15" width="60" height="66">
<path d="M637.178 39.4481C638.005 35.7752 636.538 16.1651 635.401 15.8438C634.263 15.5265 620.307 31.1384 619.426 32.1419C611.121 27.7907 601.124 25.7758 600.076 26.2636C599.028 26.7515 608.02 43.9381 609.879 45.5525C601.939 52.3867 595.442 63.5284 596.207 64.6787C596.967 65.825 619.508 59.796 619.508 59.796C619.508 59.796 632.827 80.2272 633.937 80.0685C635.051 79.9099 637.038 58.7886 636.15 56.968C650.618 52.1487 655.085 48.0117 655.038 47.4643C654.945 46.318 646.38 43.2678 637.178 39.4481Z" fill="white"/>
</mask>
<g mask="url(#mask5_134_1867)">
<path d="M637.179 39.4461C638.004 35.7759 636.539 16.1624 635.401 15.8468C634.263 15.5267 620.309 31.1408 619.426 32.1418C611.123 27.7907 601.127 25.7753 600.077 26.2623C599.031 26.7492 608.022 43.937 609.879 45.5512C601.938 52.3866 595.444 63.5266 596.208 64.6764C596.966 65.8262 619.51 59.7969 619.51 59.7969C619.51 59.7969 632.829 80.2261 633.936 80.0683C635.052 79.9109 637.038 58.7892 636.151 56.9676C650.617 52.1476 655.086 48.013 655.037 47.4629C654.945 46.3176 646.382 43.2652 637.179 39.4461Z" fill="url(#paint5_linear_134_1867)"/>
</g>
<mask id="mask6_134_1867" style="mask-type:luminance" maskUnits="userSpaceOnUse" x="122" y="2" width="20" height="21">
<path d="M135.348 8.81131C135.037 7.57774 131.598 1.91364 131.207 2.00091C130.817 2.0842 129.006 9.00569 128.895 9.44993C125.733 9.46579 122.418 10.4534 122.178 10.7707C121.938 11.0841 127.268 14.8165 128.073 15.003C126.731 18.3268 126.48 22.7137 126.884 22.9359C127.289 23.1619 133.145 17.7517 133.145 17.7517C133.145 17.7517 140.271 21.7657 140.581 21.5436C140.891 21.3175 138.262 14.6499 137.717 14.2453C141.33 10.4851 142.041 8.5297 141.944 8.37105C141.739 8.04183 138.699 8.49002 135.348 8.81131Z" fill="white"/>
</mask>
<g mask="url(#mask6_134_1867)">
<path d="M135.348 8.81131C135.037 7.57774 131.598 1.91364 131.207 2.00091C130.817 2.0842 129.006 9.00569 128.895 9.44993C125.733 9.46579 122.418 10.4534 122.178 10.7707C121.938 11.0841 127.268 14.8165 128.073 15.003C126.731 18.3268 126.48 22.7137 126.884 22.9359C127.289 23.1619 133.145 17.7517 133.145 17.7517C133.145 17.7517 140.271 21.7657 140.581 21.5436C140.891 21.3175 138.262 14.6499 137.717 14.2453C141.33 10.4851 142.041 8.5297 141.944 8.37105C141.739 8.04183 138.699 8.49002 135.348 8.81131Z" fill="url(#paint6_linear_134_1867)"/>
</g>
<mask id="mask7_134_1867" style="mask-type:luminance" maskUnits="userSpaceOnUse" x="823" y="33" width="21" height="22">
<path d="M836.76 40.0313C836.446 38.7938 833.007 33.1297 832.619 33.2169C832.227 33.3042 830.419 40.2257 830.306 40.6659C827.143 40.6818 823.829 41.6734 823.588 41.9868C823.347 42.3001 828.68 46.0325 829.483 46.2229C828.14 49.5428 827.892 53.9297 828.296 54.1558C828.699 54.3779 834.556 48.9677 834.556 48.9677C834.556 48.9677 841.681 52.9857 841.992 52.7596C842.302 52.5335 839.675 45.8659 839.127 45.4614C842.741 41.7051 843.451 39.7457 843.354 39.591C843.152 39.2578 840.109 39.71 836.76 40.0313Z" fill="white"/>
</mask>
<g mask="url(#mask7_134_1867)">
<path d="M836.763 40.0293C836.446 38.793 833.011 33.131 832.621 33.2169C832.226 33.3028 830.422 40.2239 830.305 40.666C827.143 40.6825 823.831 41.6731 823.591 41.9866C823.346 42.3001 828.68 46.0332 829.487 46.2215C828.14 49.5432 827.895 53.9301 828.295 54.1542C828.702 54.3784 834.558 48.968 834.558 48.968C834.558 48.968 841.684 52.9844 841.991 52.7597C842.302 52.5349 839.675 45.8671 839.129 45.4614C842.742 41.7027 843.449 39.7466 843.355 39.5889C843.154 39.2589 840.109 39.7084 836.763 40.0293Z" fill="url(#paint7_linear_134_1867)"/>
</g>
<mask id="mask8_134_1867" style="mask-type:luminance" maskUnits="userSpaceOnUse" x="415" y="175" width="89" height="91">
<path d="M474.663 207.123C473.813 201.549 461.068 175.134 459.314 175.34C457.563 175.546 446.689 205.192 446.014 207.087C432.1 205.773 417.104 208.671 415.913 209.945C414.725 211.22 436.598 229.98 440.064 231.161C432.76 245.182 429.811 264.365 431.499 265.528C433.183 266.692 461.215 245.468 461.215 245.468C461.215 245.468 490.866 266.264 492.325 265.412C493.784 264.559 485.025 234.078 482.797 232.054C500.269 217.108 504.216 208.816 503.855 208.082C503.099 206.543 489.535 207.184 474.663 207.123Z" fill="white"/>
</mask>
<g mask="url(#mask8_134_1867)">
<path d="M474.663 207.123C473.813 201.549 461.068 175.134 459.314 175.34C457.563 175.546 446.689 205.192 446.014 207.087C432.1 205.773 417.104 208.671 415.913 209.945C414.725 211.22 436.598 229.98 440.064 231.161C432.76 245.182 429.811 264.365 431.499 265.528C433.183 266.692 461.215 245.468 461.215 245.468C461.215 245.468 490.866 266.264 492.325 265.412C493.784 264.559 485.025 234.078 482.797 232.054C500.269 217.108 504.216 208.816 503.855 208.082C503.099 206.543 489.535 207.184 474.663 207.123Z" fill="url(#paint8_linear_134_1867)"/>
</g>
<mask id="mask9_134_1867" style="mask-type:luminance" maskUnits="userSpaceOnUse" x="293" y="270" width="42" height="46">
<path d="M320.975 286.606C321.315 283.979 318.999 270.344 318.182 270.2C317.365 270.055 308.616 281.944 308.066 282.707C301.965 280.228 294.83 279.501 294.128 279.915C293.427 280.328 300.852 291.749 302.26 292.752C297.148 298.081 293.33 306.328 293.939 307.081C294.547 307.834 309.937 302.067 309.937 302.067C309.937 302.067 320.604 315.461 321.372 315.274C322.14 315.087 322.147 300.161 321.406 298.946C331.222 294.578 334.079 291.376 334.009 290.996C333.869 290.199 327.671 288.65 320.975 286.606Z" fill="white"/>
</mask>
<g mask="url(#mask9_134_1867)">
<path d="M320.975 286.606C321.315 283.979 318.999 270.344 318.182 270.2C317.365 270.055 308.616 281.944 308.066 282.707C301.965 280.228 294.83 279.501 294.128 279.915C293.427 280.328 300.852 291.749 302.26 292.752C297.148 298.081 293.33 306.328 293.939 307.081C294.547 307.834 309.937 302.067 309.937 302.067C309.937 302.067 320.604 315.461 321.372 315.274C322.14 315.087 322.147 300.161 321.406 298.946C331.222 294.578 334.079 291.376 334.009 290.996C333.869 290.199 327.671 288.65 320.975 286.606Z" fill="url(#paint9_linear_134_1867)"/>
</g>
<mask id="mask10_134_1867" style="mask-type:luminance" maskUnits="userSpaceOnUse" x="483" y="69" width="33" height="38">
<path d="M504.915 83.0474C505.191 80.9373 503.332 70.0017 502.676 69.8867C502.02 69.7717 495.003 79.3071 494.561 79.9179C489.667 77.9307 483.942 77.3476 483.38 77.6808C482.817 78.01 488.774 87.1725 489.904 87.9777C485.805 92.2496 482.743 98.8656 483.228 99.4725C483.717 100.075 496.063 95.4505 496.063 95.4505C496.063 95.4505 504.62 106.192 505.233 106.041C505.85 105.894 505.858 93.9195 505.261 92.9437C513.135 89.4413 515.425 86.8711 515.37 86.5696C515.258 85.931 510.286 84.6856 504.915 83.0474Z" fill="white"/>
</mask>
<g mask="url(#mask10_134_1867)">
<path d="M504.915 83.0474C505.191 80.9373 503.332 70.0017 502.676 69.8867C502.02 69.7717 495.003 79.3071 494.561 79.9179C489.667 77.9307 483.942 77.3476 483.38 77.6808C482.817 78.01 488.774 87.1725 489.904 87.9777C485.805 92.2496 482.743 98.8656 483.228 99.4725C483.717 100.075 496.063 95.4505 496.063 95.4505C496.063 95.4505 504.62 106.192 505.233 106.041C505.85 105.894 505.858 93.9195 505.261 92.9437C513.135 89.4413 515.425 86.8711 515.37 86.5696C515.258 85.931 510.286 84.6856 504.915 83.0474Z" fill="url(#paint10_linear_134_1867)"/>
</g>
<mask id="mask11_134_1867" style="mask-type:luminance" maskUnits="userSpaceOnUse" x="628" y="244" width="34" height="38">
<path d="M650.599 258.149C650.874 256.004 648.984 244.873 648.317 244.755C647.653 244.637 640.508 254.343 640.058 254.966C635.079 252.942 629.253 252.349 628.679 252.687C628.109 253.024 634.171 262.348 635.319 263.167C631.147 267.518 628.031 274.25 628.528 274.865C629.024 275.48 641.587 270.772 641.587 270.772C641.587 270.772 650.296 281.706 650.921 281.554C651.55 281.402 651.553 269.215 650.952 268.224C658.962 264.658 661.295 262.043 661.24 261.733C661.124 261.083 656.067 259.818 650.599 258.149Z" fill="white"/>
</mask>
<g mask="url(#mask11_134_1867)">
<path d="M650.595 258.15C650.871 256.006 648.98 244.874 648.312 244.756C647.649 244.638 640.507 254.344 640.053 254.967C635.074 252.943 629.249 252.351 628.675 252.688C628.106 253.025 634.166 262.349 635.314 263.167C631.145 267.519 628.026 274.251 628.524 274.866C629.022 275.481 641.584 270.773 641.584 270.773C641.584 270.773 650.292 281.707 650.92 281.555C651.547 281.403 651.552 269.216 650.951 268.225C658.96 264.659 661.292 262.044 661.239 261.734C661.118 261.084 656.064 259.819 650.595 258.15Z" fill="url(#paint11_linear_134_1867)"/>
</g>
<mask id="mask12_134_1867" style="mask-type:luminance" maskUnits="userSpaceOnUse" x="-4" y="79" width="35" height="39">
<path d="M19.2443 91.028C18.5263 88.8663 11.6462 79.2397 10.9608 79.446C10.2758 79.6522 7.95849 92.2457 7.81839 93.0509C2.18013 93.515 -3.60172 95.7362 -3.98904 96.3312C-4.37636 96.9222 5.62332 102.848 7.08489 103.074C5.12733 109.182 5.25812 117.043 6.00909 117.387C6.76044 117.731 16.4931 107.275 16.4931 107.275C16.4931 107.275 29.7334 113.458 30.2565 113.014C30.7801 112.57 25.2117 101.039 24.1859 100.389C30.1355 93.1897 31.1453 89.6001 30.9508 89.3344C30.5437 88.7751 25.1799 89.9928 19.2443 91.028Z" fill="white"/>
</mask>
<g mask="url(#mask12_134_1867)">
<path d="M19.2443 91.028C18.5263 88.8663 11.6462 79.2397 10.9608 79.446C10.2758 79.6522 7.95849 92.2457 7.81839 93.0509C2.18013 93.515 -3.60172 95.7362 -3.98904 96.3312C-4.37636 96.9222 5.62332 102.848 7.08489 103.074C5.12733 109.182 5.25812 117.043 6.00909 117.387C6.76044 117.731 16.4931 107.275 16.4931 107.275C16.4931 107.275 29.7334 113.458 30.2565 113.014C30.7801 112.57 25.2117 101.039 24.1859 100.389C30.1355 93.1897 31.1453 89.6001 30.9508 89.3344C30.5437 88.7751 25.1799 89.9928 19.2443 91.028Z" fill="url(#paint12_linear_134_1867)"/>
</g>
</g>
<defs>
<filter id="filter0_diii_134_1867" x="-7.6119" y="-1.61196" width="1041.45" height="522.448" filterUnits="userSpaceOnUse" color-interpolation-filters="sRGB">
<feFlood flood-opacity="0" result="BackgroundImageFix"/>
<feColorMatrix in="SourceAlpha" type="matrix" values="0 0 0 0 0 0 0 0 0 0 0 0 0 0 0 0 0 0 127 0" result="hardAlpha"/>
<feOffset dx="4.81586" dy="4.81586"/>
<feGaussianBlur stdDeviation="3.00991"/>
<feComposite in2="hardAlpha" operator="out"/>
<feColorMatrix type="matrix" values="0 0 0 0 0 0 0 0 0 0 0 0 0 0 0 0 0 0 0.25 0"/>
<feBlend mode="normal" in2="BackgroundImageFix" result="effect1_dropShadow_134_1867"/>
<feBlend mode="normal" in="SourceGraphic" in2="effect1_dropShadow_134_1867" result="shape"/>
<feColorMatrix in="SourceAlpha" type="matrix" values="0 0 0 0 0 0 0 0 0 0 0 0 0 0 0 0 0 0 127 0" result="hardAlpha"/>
<feOffset dx="-3.6119" dy="-3.6119"/>
<feGaussianBlur stdDeviation="7.94618"/>
<feComposite in2="hardAlpha" operator="arithmetic" k2="-1" k3="1"/>
<feColorMatrix type="matrix" values="0 0 0 0 0 0 0 0 0 0 0 0 0 0 0 0 0 0 0.24 0"/>
<feBlend mode="normal" in2="shape" result="effect2_innerShadow_134_1867"/>
<feColorMatrix in="SourceAlpha" type="matrix" values="0 0 0 0 0 0 0 0 0 0 0 0 0 0 0 0 0 0 127 0" result="hardAlpha"/>
<feOffset dx="3.6119" dy="3.6119"/>
<feGaussianBlur stdDeviation="1.98654"/>
<feComposite in2="hardAlpha" operator="arithmetic" k2="-1" k3="1"/>
<feColorMatrix type="matrix" values="0 0 0 0 1 0 0 0 0 1 0 0 0 0 1 0 0 0 0.5 0"/>
<feBlend mode="normal" in2="effect2_innerShadow_134_1867" result="effect3_innerShadow_134_1867"/>
<feColorMatrix in="SourceAlpha" type="matrix" values="0 0 0 0 0 0 0 0 0 0 0 0 0 0 0 0 0 0 127 0" result="hardAlpha"/>
<feOffset dx="6.01983" dy="6.01983"/>
<feGaussianBlur stdDeviation="10.2337"/>
<feComposite in2="hardAlpha" operator="arithmetic" k2="-1" k3="1"/>
<feColorMatrix type="matrix" values="0 0 0 0 1 0 0 0 0 1 0 0 0 0 1 0 0 0 0.15 0"/>
<feBlend mode="normal" in2="effect3_innerShadow_134_1867" result="effect4_innerShadow_134_1867"/>
</filter>
<linearGradient id="paint0_linear_134_1867" x1="1106.14" y1="-68.9161" x2="1016.82" y2="94.7241" gradientUnits="userSpaceOnUse">
<stop stop-color="#F89C0E"/>
<stop offset="0.991444" stop-color="#FCD205"/>
<stop offset="1" stop-color="#FCD205"/>
</linearGradient>
<linearGradient id="paint1_linear_134_1867" x1="393.198" y1="53.3743" x2="290.504" y2="82.653" gradientUnits="userSpaceOnUse">
<stop stop-color="#F89C0E"/>
<stop offset="0.991444" stop-color="#FCD205"/>
<stop offset="1" stop-color="#FCD205"/>
</linearGradient>
<linearGradient id="paint2_linear_134_1867" x1="1783.38" y1="223.006" x2="1684.92" y2="281.551" gradientUnits="userSpaceOnUse">
<stop stop-color="#F89C0E"/>
<stop offset="0.991444" stop-color="#FCD205"/>
<stop offset="1" stop-color="#FCD205"/>
</linearGradient>
<linearGradient id="paint3_linear_134_1867" x1="49.4095" y1="326.751" x2="37.4103" y2="390.601" gradientUnits="userSpaceOnUse">
<stop stop-color="#F89C0E"/>
<stop offset="0.991444" stop-color="#FCD205"/>
<stop offset="1" stop-color="#FCD205"/>
</linearGradient>
<linearGradient id="paint4_linear_134_1867" x1="1788.93" y1="-170.951" x2="1763.19" y2="-114.581" gradientUnits="userSpaceOnUse">
<stop stop-color="#F89C0E"/>
<stop offset="0.991444" stop-color="#FCD205"/>
<stop offset="1" stop-color="#FCD205"/>
</linearGradient>
<linearGradient id="paint5_linear_134_1867" x1="743.849" y1="-31.8209" x2="686.99" y2="4.55221" gradientUnits="userSpaceOnUse">
<stop stop-color="#F89C0E"/>
<stop offset="0.991444" stop-color="#FCD205"/>
<stop offset="1" stop-color="#FCD205"/>
</linearGradient>
<linearGradient id="paint6_linear_134_1867" x1="137.268" y1="5.46759" x2="127.135" y2="23.0808" gradientUnits="userSpaceOnUse">
<stop stop-color="#F89C0E"/>
<stop offset="0.991444" stop-color="#FCD205"/>
<stop offset="1" stop-color="#FCD205"/>
</linearGradient>
<linearGradient id="paint7_linear_134_1867" x1="1230.9" y1="-168.963" x2="1216.36" y2="-143.697" gradientUnits="userSpaceOnUse">
<stop stop-color="#F89C0E"/>
<stop offset="0.991444" stop-color="#FCD205"/>
<stop offset="1" stop-color="#FCD205"/>
</linearGradient>
<linearGradient id="paint8_linear_134_1867" x1="484.513" y1="193.257" x2="432.409" y2="266.181" gradientUnits="userSpaceOnUse">
<stop stop-color="#F89C0E"/>
<stop offset="0.991444" stop-color="#FCD205"/>
<stop offset="1" stop-color="#FCD205"/>
</linearGradient>
<linearGradient id="paint9_linear_134_1867" x1="327.213" y1="281.691" x2="294.25" y2="307.481" gradientUnits="userSpaceOnUse">
<stop stop-color="#F89C0E"/>
<stop offset="0.991444" stop-color="#FCD205"/>
<stop offset="1" stop-color="#FCD205"/>
</linearGradient>
<linearGradient id="paint10_linear_134_1867" x1="509.922" y1="79.1047" x2="483.481" y2="99.7918" gradientUnits="userSpaceOnUse">
<stop stop-color="#F89C0E"/>
<stop offset="0.991444" stop-color="#FCD205"/>
<stop offset="1" stop-color="#FCD205"/>
</linearGradient>
<linearGradient id="paint11_linear_134_1867" x1="761.18" y1="216.638" x2="730.325" y2="240.778" gradientUnits="userSpaceOnUse">
<stop stop-color="#F89C0E"/>
<stop offset="0.991444" stop-color="#FCD205"/>
<stop offset="1" stop-color="#FCD205"/>
</linearGradient>
<linearGradient id="paint12_linear_134_1867" x1="22.2288" y1="84.7967" x2="6.53624" y2="117.638" gradientUnits="userSpaceOnUse">
<stop stop-color="#F89C0E"/>
<stop offset="0.991444" stop-color="#FCD205"/>
<stop offset="1" stop-color="#FCD205"/>
</linearGradient>
</defs>
</svg>
