<svg width="1440" height="121" viewBox="0 0 1440 121" fill="none" xmlns="http://www.w3.org/2000/svg">
<g filter="url(#filter0_di_88_2454)">
<path d="M67.5 31.0002C25.9 17.8002 -54.1667 36.5002 -89 47.5002C-72.6667 106.334 -26 233.6 30 272C100 320 451.5 274.5 499.5 285C547.5 295.5 975 317.5 1157 341C1339 364.5 1543 256.5 1566.5 238.5C1585.3 224.1 1552.67 95.5002 1534 33.0002C1496.67 22.5002 1400.2 11.7002 1313 52.5002C1204 103.5 1133.5 116 1068.5 122.5C1003.5 129 928.5 91.5002 876.5 98.0002C824.5 104.5 795.5 116 764.5 116C733.5 116 719 98.0002 663 98.0002C607 98.0002 593 112 543.5 116C494 120 364 66.5002 303 59.0002C242 51.5002 227.5 68.0002 194 66.5002C160.5 65.0002 119.5 47.5002 67.5 31.0002Z" fill="#2BB3C5"/>
</g>
<defs>
<filter id="filter0_di_88_2454" x="-115" y="0.370117" width="1715.15" height="374.959" filterUnits="userSpaceOnUse" color-interpolation-filters="sRGB">
<feFlood flood-opacity="0" result="BackgroundImageFix"/>
<feColorMatrix in="SourceAlpha" type="matrix" values="0 0 0 0 0 0 0 0 0 0 0 0 0 0 0 0 0 0 127 0" result="hardAlpha"/>
<feMorphology radius="1" operator="dilate" in="SourceAlpha" result="effect1_dropShadow_88_2454"/>
<feOffset dx="1" dy="4"/>
<feGaussianBlur stdDeviation="13"/>
<feComposite in2="hardAlpha" operator="out"/>
<feColorMatrix type="matrix" values="0 0 0 0 0 0 0 0 0 0 0 0 0 0 0 0 0 0 0.25 0"/>
<feBlend mode="normal" in2="BackgroundImageFix" result="effect1_dropShadow_88_2454"/>
<feBlend mode="normal" in="SourceGraphic" in2="effect1_dropShadow_88_2454" result="shape"/>
<feColorMatrix in="SourceAlpha" type="matrix" values="0 0 0 0 0 0 0 0 0 0 0 0 0 0 0 0 0 0 127 0" result="hardAlpha"/>
<feOffset dy="4"/>
<feGaussianBlur stdDeviation="6"/>
<feComposite in2="hardAlpha" operator="arithmetic" k2="-1" k3="1"/>
<feColorMatrix type="matrix" values="0 0 0 0 1 0 0 0 0 1 0 0 0 0 1 0 0 0 0.2 0"/>
<feBlend mode="normal" in2="shape" result="effect2_innerShadow_88_2454"/>
</filter>
</defs>
</svg>
