<svg width="370" height="996" viewBox="0 0 370 996" fill="none" xmlns="http://www.w3.org/2000/svg">
<g opacity="0.2" clip-path="url(#clip0_23_2278)">
<path d="M-4 -1L1995.52 -0.999825" stroke="#F0EAD4" stroke-width="3.2672"/>
<path d="M-4 51.2753L1995.52 51.2755" stroke="#F0EAD4" stroke-width="3.2672"/>
<path d="M-4 103.551L1995.52 103.551" stroke="#F0EAD4" stroke-width="3.2672"/>
<path d="M-4 155.826L1995.52 155.826" stroke="#F0EAD4" stroke-width="3.2672"/>
<path d="M-4 208.101L1995.52 208.101" stroke="#F0EAD4" stroke-width="3.2672"/>
<path d="M-4 260.376L1995.52 260.377" stroke="#F0EAD4" stroke-width="3.2672"/>
<path d="M-4 312.652L1995.52 312.652" stroke="#F0EAD4" stroke-width="3.2672"/>
<path d="M-4 364.927L1995.52 364.927" stroke="#F0EAD4" stroke-width="3.2672"/>
<path d="M-4 417.202L1995.52 417.203" stroke="#F0EAD4" stroke-width="3.2672"/>
<path d="M-4 469.478L1995.52 469.478" stroke="#F0EAD4" stroke-width="3.2672"/>
<path d="M-4 521.753L1995.52 521.753" stroke="#F0EAD4" stroke-width="3.2672"/>
<path d="M-4 574.028L1995.52 574.029" stroke="#F0EAD4" stroke-width="3.2672"/>
<path d="M-4 626.304L1995.52 626.304" stroke="#F0EAD4" stroke-width="3.2672"/>
<path d="M-4 678.579L1995.52 678.579" stroke="#F0EAD4" stroke-width="3.2672"/>
<path d="M-4 730.854L1995.52 730.855" stroke="#F0EAD4" stroke-width="3.2672"/>
<path d="M-4 783.13L1995.52 783.13" stroke="#F0EAD4" stroke-width="3.2672"/>
<path d="M-4 835.405L1995.52 835.405" stroke="#F0EAD4" stroke-width="3.2672"/>
<path d="M-4 887.68L1995.52 887.681" stroke="#F0EAD4" stroke-width="3.2672"/>
<path d="M-4 939.956L1995.52 939.956" stroke="#F0EAD4" stroke-width="3.2672"/>
<path d="M-4 992.231L1995.52 992.231" stroke="#F0EAD4" stroke-width="3.2672"/>
<path d="M2.53442 -1V2586.62" stroke="#F0EAD4" stroke-width="3.2672"/>
<path d="M54.8096 -1V2586.62" stroke="#F0EAD4" stroke-width="3.2672"/>
<path d="M107.085 -1V2586.62" stroke="#F0EAD4" stroke-width="3.2672"/>
<path d="M159.36 -1V2586.62" stroke="#F0EAD4" stroke-width="3.2672"/>
<path d="M211.635 -1V2586.62" stroke="#F0EAD4" stroke-width="3.2672"/>
<path d="M263.91 -1V2586.62" stroke="#F0EAD4" stroke-width="3.2672"/>
<path d="M316.185 -1V2586.62" stroke="#F0EAD4" stroke-width="3.2672"/>
<path d="M368.46 -1V2586.62" stroke="#F0EAD4" stroke-width="3.2672"/>
</g>
<defs>
<clipPath id="clip0_23_2278">
<rect width="374" height="997" fill="white" transform="translate(-4 -1)"/>
</clipPath>
</defs>
</svg>
