<svg width="425" height="400" viewBox="0 0 425 400" fill="none" xmlns="http://www.w3.org/2000/svg">
<g opacity="0.65">
<path fill-rule="evenodd" clip-rule="evenodd" d="M492.876 98.8525C495.777 94.7224 497.18 90.1012 496.656 85.3211C495.012 70.2987 474.964 59.3953 451.878 60.9675C438.785 61.8592 427.526 66.5729 420.533 73.2271C413.048 68.9429 402.892 66.6467 391.996 67.3888C377.568 68.3714 365.576 74.4277 359.907 82.549C356.873 82.2666 353.726 82.2213 350.514 82.4401C329.398 83.8782 313.5 96.183 315.004 109.924C316.509 123.664 334.846 133.637 355.962 132.199C362.971 131.722 369.404 130.048 374.818 127.521C382.232 134.545 395.17 138.734 409.364 137.767C417.319 137.226 424.533 135.142 430.356 132.02C437.068 142.004 453.046 148.404 470.877 147.19C493.442 145.653 510.432 132.503 508.824 117.819C507.957 109.898 501.855 103.148 492.876 98.8525Z" fill="#1863A9"/>
<path d="M247.422 196.432C224.786 194.136 201.952 191.799 180.293 184.787C146.224 173.758 116.917 151.825 86.4518 132.914C74.3954 125.43 61.4705 118.191 47.3261 117.481C20.4311 116.131 -2.50145 138.343 -29.2931 141.073L-29.9207 208.857V280.278C41.5073 291.065 118.328 302 190.196 295.105C201.196 294.049 212.443 292.928 222.46 288.23C232.401 283.568 240.448 275.703 248.291 267.984C270.229 246.387 292.167 224.791 314.106 203.196C291.878 200.941 269.65 198.686 247.422 196.432Z" fill="#5B8B3D"/>
<mask id="mask0_23_834" style="mask-type:luminance" maskUnits="userSpaceOnUse" x="16" y="117" width="220" height="132">
<path d="M16.4761 117.423H235.793V248.046H16.4761V117.423Z" fill="white"/>
</mask>
<g mask="url(#mask0_23_834)">
<g opacity="0.320007">
<path d="M180.183 184.787C146.114 173.758 116.807 151.825 86.342 132.914C74.2855 125.43 61.3605 118.191 47.2163 117.481C36.5056 116.943 26.4238 120.144 16.4761 124.361C24.9472 124.121 34.1829 128.201 40.7894 134.02C51.0913 143.095 58.1239 155.595 68.9901 163.975C75.0384 168.64 82.1149 171.892 87.825 176.971C105.613 192.792 105.183 220.587 115.776 241.977C116.87 244.186 118.233 246.472 120.473 247.476C122.74 248.492 125.364 247.956 127.777 247.372C166.887 237.908 203.956 219.996 235.792 195.238C216.97 193.209 198.171 190.611 180.183 184.787Z" fill="#0A445F"/>
</g>
</g>
<path d="M-29.917 219.823C-20.7586 225.168 -12.7505 232.501 -6.59852 241.177C-4.83246 231.946 0.457323 223.446 7.93517 217.822C8.39914 223.135 8.86329 228.447 9.32727 233.759C12.1749 227.716 18.901 223.766 25.5247 224.246C23.0616 227.634 21.2039 231.468 20.0672 235.508C22.8603 235.056 25.7817 235.439 28.3666 236.597C27.0614 238.128 26.1915 240.031 25.8854 242.026C33.4128 235.442 43.9389 232.49 53.7604 234.208C51.5516 235.477 52.416 239.625 54.9448 239.891C58.5482 233.928 59.8738 226.606 58.5924 219.745C63.3111 219.8 67.9262 222.404 70.4368 226.429C71.1468 227.567 71.8287 228.918 73.1083 229.3C74.7411 229.787 76.2857 228.431 77.5362 227.267C85.2298 220.102 95.9803 216.389 106.419 217.291C107.277 217.365 108.182 217.488 108.86 218.024C110.161 219.054 110.048 221.038 109.812 222.688C108.946 228.723 108.081 234.759 107.215 240.795C106.741 244.106 106.147 247.665 103.79 250.022C101.499 252.314 98.0805 252.925 94.8878 253.413C53.5198 259.736 11.8548 264.089 -29.9209 266.453L-29.917 219.823Z" fill="#F9A137"/>
<path d="M501.47 222.09C469.174 180.544 409.399 172.254 366.507 141.958C358.492 136.297 350.394 129.853 340.698 128.491C328.151 126.727 316.265 133.839 305.399 140.399C283.752 153.469 261.328 165.489 237.435 173.671C220.813 179.362 203.597 183.155 186.974 188.845C159.827 198.138 134.635 212.354 109.87 226.909C103.251 230.799 96.6086 234.739 89.4379 237.462C80.463 240.871 70.8858 242.29 61.3949 243.688C31.5321 248.085 -0.0510502 252.014 -29.9207 256.41V326.682L198.4 432.14L505.184 401.233V248.584C505.184 248.584 505.362 227.098 501.47 222.09Z" fill="#A3D8D9"/>
<mask id="mask1_23_834" style="mask-type:luminance" maskUnits="userSpaceOnUse" x="-31" y="128" width="388" height="190">
<path d="M-30.0991 128.218H356.881V317.856H-30.0991V128.218Z" fill="white"/>
</mask>
<g mask="url(#mask1_23_834)">
<g opacity="0.410004">
<path d="M307.176 172.385C321.812 158.387 332.741 136.618 352.827 134.64L353.058 135.376C354.405 135.681 355.696 135.568 356.881 135.141C351.898 131.942 346.668 129.306 340.865 128.491C328.317 126.727 316.431 133.839 305.565 140.4C283.919 153.469 261.495 165.489 237.601 173.671C220.979 179.362 203.764 183.155 187.141 188.845C159.994 198.138 134.802 212.354 110.037 226.909C103.417 230.799 96.7752 234.739 89.6046 237.462C80.6296 240.871 71.0525 242.29 61.5616 243.688C31.6395 248.094 -0.176765 252.03 -30.0989 256.436V316.151C-25.7142 318.639 -19.9404 317.928 -14.8278 316.994C30.3563 308.735 74.684 295.73 117.204 278.257C126.216 274.554 135.563 270.331 141.419 262.5C145.148 257.514 147.143 251.463 150.038 245.943C163.912 219.492 195.725 208.902 224.864 203.123C254.003 197.343 285.639 192.984 307.176 172.385Z" fill="#0A445F"/>
</g>
</g>
<path d="M320.786 265.809L320.597 265.856C320.667 265.77 320.737 265.685 320.808 265.599L320.786 265.809ZM352.895 266.452L352.707 266.499C352.777 266.413 352.847 266.327 352.917 266.241C352.91 266.311 352.902 266.382 352.895 266.452ZM412.207 279.758C399.412 280.016 387.14 284.904 374.485 286.899C369.447 287.693 364.35 288.029 359.232 288.183V285.731C359.322 285.639 359.401 285.537 359.466 285.431C359.717 285.022 359.839 284.549 360.099 284.145C360.152 284.062 360.219 283.977 360.317 283.948C360.328 283.945 360.338 283.946 360.349 283.944C360.509 283.973 360.638 284.15 360.735 284.298C360.95 284.628 361.289 284.919 361.696 284.95C361.724 284.951 361.752 284.951 361.781 284.95C362.164 284.976 362.572 284.681 362.565 284.324C363.265 284.835 363.965 285.346 364.665 285.857C364.804 285.958 364.948 286.062 365.119 286.096C365.164 286.105 365.209 286.106 365.252 286.102C365.624 286.136 365.941 285.73 365.874 285.392C366.169 285.707 366.535 285.991 366.932 285.973C367.016 285.977 367.102 285.971 367.189 285.946C367.62 285.826 367.841 285.341 367.798 284.915C367.755 284.489 367.514 284.108 367.287 283.738C366.074 281.766 365.077 279.673 364.312 277.506C364.474 277.551 364.639 277.585 364.807 277.602C365.253 277.649 365.836 277.474 365.859 277.023C365.86 276.994 365.859 276.965 365.856 276.935C365.857 276.925 365.859 276.916 365.859 276.906C365.875 276.609 365.635 276.286 365.603 276.02C365.614 275.957 365.641 275.899 365.695 275.847C366.146 275.725 366.536 276.283 367.003 276.257C367.384 276.236 367.616 275.814 367.593 275.424C367.6 275.32 367.591 275.216 367.562 275.119C367.435 274.69 367.073 274.382 366.734 274.092C365.234 272.805 363.857 271.374 362.623 269.826C362.638 269.273 362.38 268.673 362.087 268.178C361.668 267.47 361.166 266.692 361.322 265.891C361.973 266.443 362.624 266.994 363.276 267.546C363.409 267.659 363.566 267.778 363.738 267.757C363.769 267.761 363.8 267.762 363.831 267.757C364.069 267.719 364.253 267.642 364.179 267.411C364.106 267.181 364.106 267.181 363.656 266.626C361.222 263.626 359.553 260.457 358.693 256.89C359.097 257.444 359.478 258.016 359.83 258.605C359.832 258.604 359.832 258.604 359.833 258.603C359.834 258.604 359.834 258.604 359.834 258.605C359.974 258.578 359.966 258.374 359.922 258.239C359.514 256.985 359.106 255.731 358.698 254.477C359.305 255.138 359.966 255.748 360.673 256.299C360.674 256.299 360.674 256.298 360.675 256.297C360.675 256.298 360.676 256.298 360.677 256.299C360.895 256.195 360.806 255.865 360.686 255.655C360.029 254.504 359.372 253.354 358.715 252.203C358.75 252.198 358.785 252.196 358.82 252.195C359.345 252.187 359.785 252.656 360.078 253.114C360.392 253.604 360.701 254.171 361.251 254.35C361.251 254.349 361.251 254.348 361.251 254.348C361.252 254.348 361.253 254.349 361.255 254.35C361.052 252.386 359.493 250.897 358.395 249.263C357.608 248.091 357.038 246.788 356.472 245.494C355.845 244.061 355.219 242.628 354.592 241.195L354.589 241.197C354.589 241.196 354.588 241.196 354.588 241.195L354.21 241.342C353.773 246.497 352.081 251.54 349.325 255.905C349.42 255.92 349.516 255.927 349.612 255.928C350.278 255.936 350.936 255.626 351.45 255.187C352.034 254.689 352.464 254.037 352.886 253.394C352.585 254.666 352.144 255.905 351.571 257.079C351.573 257.078 351.574 257.078 351.575 257.077C351.575 257.078 351.575 257.078 351.575 257.079C351.937 256.987 352.269 256.836 352.578 256.644C350.97 261.071 349.267 265.598 346.117 269.078C346.157 269.065 346.196 269.05 346.235 269.036C346.223 269.05 346.211 269.065 346.199 269.079C347.891 268.52 349.396 267.406 350.435 265.949C350.373 267.319 349.113 268.348 348.607 269.642C348.564 269.754 348.525 269.874 348.547 269.992C348.589 270.213 348.835 270.335 349.061 270.317C349.121 270.321 349.181 270.316 349.237 270.301C349.483 270.235 349.672 270.041 349.845 269.853C350.245 269.419 350.633 268.975 351.017 268.528C350.091 271.077 348.733 273.467 347.015 275.559C346.448 276.249 345.812 276.98 345.758 277.874C345.761 277.872 345.765 277.87 345.769 277.869C345.764 277.909 345.759 277.949 345.757 277.99C346.389 277.746 347.001 277.45 347.588 277.11C346.395 279.435 344.821 281.583 342.932 283.441C342.562 283.804 342.147 284.272 342.309 284.756C342.334 284.747 342.358 284.738 342.383 284.729C342.386 284.738 342.387 284.747 342.39 284.756C344.792 283.993 346.644 282.198 348.386 280.438C348.022 281.383 347.658 282.328 347.294 283.273C347.329 283.255 347.363 283.236 347.398 283.217C347.39 283.236 347.383 283.255 347.376 283.274C348.148 282.883 348.832 282.336 349.372 281.68C349.696 281.986 349.34 282.55 348.992 282.876C347.56 284.223 346.361 285.796 345.459 287.511C345.491 287.504 345.522 287.495 345.554 287.487C345.549 287.496 345.545 287.504 345.54 287.512C348.059 286.968 349.996 285.115 351.772 283.317C351.452 284.269 351.357 285.29 351.501 286.281C351.527 286.266 351.552 286.25 351.578 286.234C351.58 286.25 351.581 286.266 351.583 286.281C352.342 285.847 353.006 285.263 353.526 284.579C353.831 285.157 354.137 285.736 354.443 286.315C354.499 286.423 354.565 286.539 354.682 286.586C354.73 286.606 354.781 286.61 354.83 286.605C354.886 286.613 354.942 286.604 354.997 286.586V288.276C345.652 288.415 336.278 288.207 327.123 289.328V285.089C327.212 284.996 327.292 284.895 327.357 284.789C327.608 284.38 327.73 283.907 327.989 283.503C328.043 283.419 328.109 283.334 328.208 283.306C328.218 283.303 328.229 283.303 328.24 283.302C328.4 283.33 328.529 283.508 328.625 283.655C328.841 283.986 329.18 284.277 329.586 284.307C329.615 284.309 329.643 284.309 329.671 284.308C330.055 284.334 330.462 284.038 330.456 283.681C331.156 284.192 331.856 284.703 332.556 285.214C332.694 285.315 332.839 285.419 333.01 285.454C333.055 285.463 333.099 285.464 333.143 285.46C333.515 285.494 333.831 285.088 333.765 284.75C334.059 285.065 334.425 285.349 334.823 285.33C334.907 285.335 334.993 285.328 335.08 285.304C335.51 285.184 335.732 284.699 335.689 284.273C335.646 283.846 335.405 283.465 335.178 283.096C333.965 281.123 332.967 279.031 332.202 276.863C332.365 276.909 332.53 276.942 332.697 276.96C333.144 277.007 333.726 276.832 333.749 276.381C333.751 276.351 333.749 276.322 333.746 276.292C333.747 276.283 333.749 276.274 333.75 276.264C333.765 275.966 333.526 275.644 333.494 275.378C333.504 275.315 333.532 275.257 333.586 275.204C334.037 275.082 334.427 275.641 334.893 275.615C335.274 275.594 335.506 275.172 335.484 274.782C335.491 274.678 335.482 274.574 335.453 274.476C335.325 274.048 334.963 273.739 334.625 273.449C333.125 272.162 331.747 270.731 330.514 269.184C330.529 268.631 330.27 268.031 329.977 267.536C329.558 266.827 329.057 266.05 329.213 265.248C329.864 265.8 330.515 266.352 331.166 266.904C331.3 267.017 331.457 267.136 331.628 267.115C331.659 267.118 331.69 267.12 331.722 267.115C331.959 267.076 332.144 266.999 332.07 266.769C331.996 266.539 331.996 266.539 331.546 265.984C329.112 262.984 327.444 259.815 326.584 256.247C326.988 256.801 327.368 257.373 327.721 257.962C327.722 257.962 327.723 257.961 327.724 257.961C327.724 257.961 327.725 257.962 327.725 257.962C327.864 257.936 327.856 257.732 327.812 257.596C327.404 256.342 326.996 255.088 326.589 253.835C327.196 254.495 327.857 255.105 328.563 255.656C328.564 255.656 328.565 255.655 328.565 255.655C328.566 255.655 328.567 255.656 328.567 255.656C328.785 255.552 328.697 255.223 328.576 255.012L326.606 251.561C326.641 251.556 326.676 251.553 326.711 251.553C327.235 251.544 327.675 252.014 327.969 252.472C328.282 252.961 328.591 253.529 329.142 253.707C329.142 253.707 329.141 253.706 329.141 253.705C329.143 253.706 329.144 253.707 329.146 253.707C328.943 251.744 327.383 250.255 326.285 248.62C325.499 247.449 324.928 246.146 324.362 244.852C323.736 243.419 323.109 241.986 322.483 240.553L322.479 240.554C322.479 240.554 322.479 240.553 322.479 240.553L322.101 240.699C321.663 245.855 319.972 250.897 317.215 255.263C317.311 255.278 317.407 255.285 317.503 255.286C318.169 255.293 318.826 254.983 319.34 254.545C319.924 254.047 320.355 253.395 320.777 252.751C320.476 254.024 320.034 255.263 319.461 256.436C319.463 256.436 319.465 256.435 319.466 256.435C319.466 256.436 319.465 256.436 319.465 256.436C319.827 256.344 320.16 256.193 320.469 256.002C318.86 260.429 317.158 264.955 314.008 268.436C314.047 268.423 314.086 268.408 314.126 268.394C314.113 268.408 314.102 268.422 314.089 268.436C315.781 267.878 317.286 266.764 318.326 265.307C318.264 266.676 317.003 267.706 316.498 268.999C316.454 269.111 316.415 269.232 316.438 269.35C316.479 269.571 316.726 269.692 316.952 269.674C317.011 269.678 317.071 269.674 317.128 269.659C317.374 269.593 317.562 269.398 317.736 269.21C318.136 268.777 318.524 268.333 318.908 267.885C317.981 270.435 316.623 272.825 314.905 274.917C314.339 275.607 313.702 276.337 313.648 277.231C313.652 277.23 313.656 277.228 313.66 277.226C313.655 277.267 313.65 277.307 313.647 277.348C314.28 277.104 314.892 276.808 315.479 276.467C314.286 278.793 312.712 280.94 310.822 282.798C310.453 283.162 310.038 283.63 310.199 284.113C310.224 284.105 310.249 284.095 310.274 284.087C310.276 284.096 310.278 284.105 310.281 284.114C312.682 283.351 314.535 281.556 316.276 279.796C315.913 280.741 315.549 281.686 315.185 282.631C315.22 282.613 315.253 282.593 315.288 282.575C315.281 282.594 315.274 282.613 315.266 282.631C316.038 282.241 316.722 281.694 317.262 281.037C317.587 281.344 317.23 281.907 316.883 282.234C315.451 283.581 314.252 285.154 313.349 286.869C313.381 286.862 313.413 286.852 313.445 286.845C313.44 286.853 313.435 286.861 313.431 286.87C315.95 286.326 317.887 284.473 319.663 282.674C319.343 283.627 319.247 284.647 319.392 285.638C319.418 285.623 319.443 285.607 319.468 285.592C319.47 285.607 319.471 285.623 319.473 285.639C320.233 285.204 320.897 284.62 321.416 283.936C321.722 284.515 322.027 285.094 322.333 285.672C322.39 285.78 322.456 285.896 322.572 285.943C322.621 285.963 322.671 285.968 322.721 285.962C322.776 285.971 322.833 285.962 322.888 285.943V289.687H324.503C320.824 290.249 317.185 291.052 313.602 292.21C290.343 299.727 270.665 321.67 246.409 319.568L255.774 320.353C267.049 331.773 278.323 343.193 289.598 354.613C290.873 355.905 292.616 357.299 294.24 356.552C295.663 355.898 296.036 354.014 296.868 352.638C298.647 349.692 302.472 349.186 305.79 348.941C363.484 344.669 420.396 329.059 472.695 303.163C477.552 300.758 503.218 286.355 505.274 281.153C481.224 282.192 436.906 279.261 412.207 279.758Z" fill="#0A445F"/>
<mask id="mask2_23_834" style="mask-type:luminance" maskUnits="userSpaceOnUse" x="264" y="281" width="242" height="124">
<path d="M264.379 281.154H505.273V404.504H264.379V281.154Z" fill="white"/>
</mask>
<g mask="url(#mask2_23_834)">
<g opacity="0.800003">
<path d="M422.342 281.362C413.036 281.385 403.557 281.434 394.691 284.285C387.821 286.494 381.581 290.306 375.504 294.218C358.175 305.369 341.057 317.842 321.114 322.893C301.56 327.846 278.457 326.229 264.38 340.772C294.646 368.651 327.575 397.837 368.203 403.481C414.754 409.949 458.963 384.059 504.666 373.05L505.274 321.762V281.154C477.63 281.224 449.986 281.293 422.342 281.362Z" fill="#EC4825"/>
</g>
</g>
<path d="M273.638 320.713C274.195 321.767 274.751 322.821 275.308 323.875C275.412 324.071 275.531 324.283 275.743 324.369C275.832 324.405 275.923 324.413 276.014 324.403C276.115 324.418 276.218 324.402 276.318 324.368V325.115C274.482 324.525 272.629 323.954 270.759 323.404C271.868 322.67 272.846 321.757 273.638 320.713ZM270.439 318.422C269.93 319.94 269.737 321.555 269.875 323.145C268.737 322.815 267.592 322.493 266.443 322.177C267.851 321.011 269.168 319.709 270.439 318.422ZM264.278 313.174C263.616 314.895 262.953 316.615 262.29 318.336C262.354 318.304 262.415 318.268 262.478 318.234C262.465 318.268 262.452 318.303 262.439 318.337C263.845 317.626 265.09 316.629 266.073 315.435C266.664 315.992 266.015 317.018 265.383 317.613C264.242 318.687 263.182 319.839 262.213 321.057C260.316 320.572 258.405 320.107 256.482 319.662C259.417 318.006 261.904 315.573 264.278 313.174ZM272.49 287.703L272.148 287.788C272.275 287.632 272.402 287.476 272.53 287.32L272.49 287.703ZM322.469 345.116C322.893 345.919 323.317 346.722 323.741 347.525C323.82 347.674 323.911 347.835 324.072 347.9C324.14 347.928 324.209 347.934 324.279 347.926C324.356 347.938 324.434 347.926 324.51 347.9V348.293C323.514 347.591 322.503 346.899 321.476 346.216C321.838 345.876 322.171 345.509 322.469 345.116ZM320.037 343.366C319.855 343.906 319.727 344.461 319.652 345.023C319.393 344.857 319.132 344.691 318.871 344.526C319.266 344.142 319.654 343.754 320.037 343.366ZM315.34 339.373C315.028 340.184 314.716 340.994 314.404 341.805C314.081 341.616 313.757 341.429 313.433 341.242C314.085 340.632 314.718 340.002 315.34 339.373ZM316.707 341.096C317.157 341.521 316.663 342.302 316.181 342.755C316.158 342.777 316.137 342.8 316.114 342.821C315.871 342.675 315.629 342.529 315.385 342.384C315.873 342.001 316.317 341.57 316.707 341.096ZM321.594 319.974L321.333 320.039C321.43 319.92 321.527 319.801 321.625 319.682C321.615 319.779 321.604 319.877 321.594 319.974ZM207.512 311.317L209.825 313.006C208.566 312.931 207.306 312.865 206.046 312.806C206.823 312.669 207.525 312.047 207.512 311.317ZM201.548 310.885C201.678 310.684 201.838 310.478 202.075 310.41C202.102 310.402 202.128 310.397 202.155 310.393C202.541 310.463 202.853 310.898 203.086 311.254C203.531 311.936 204.194 312.548 204.99 312.758C203.561 312.697 202.132 312.646 200.702 312.606C200.955 312.018 201.201 311.426 201.548 310.885ZM185.655 311.934C185.766 312.144 185.878 312.355 185.989 312.565C185.703 312.572 185.417 312.578 185.131 312.585C185.312 312.372 185.487 312.155 185.655 311.934ZM181.407 308.891C180.99 310.137 180.731 311.43 180.639 312.736C179.506 312.783 178.374 312.837 177.243 312.898C178.69 311.616 180.067 310.247 181.407 308.891ZM184.13 268.105L183.677 268.218C183.846 268.011 184.014 267.803 184.183 267.596C184.166 267.766 184.148 267.936 184.13 268.105ZM435.768 421.134C418.264 413.726 397.869 409.048 382.127 400.18C361.793 388.725 351.72 371.768 336.159 357.597C334.314 355.917 332.386 354.281 330.384 352.688V346.716C330.508 346.587 330.618 346.446 330.708 346.299C331.057 345.732 331.226 345.075 331.586 344.515C331.66 344.399 331.753 344.281 331.888 344.242C331.904 344.238 331.918 344.239 331.933 344.236C332.155 344.276 332.335 344.522 332.468 344.727C332.767 345.185 333.237 345.589 333.801 345.631C333.84 345.634 333.88 345.634 333.919 345.632C334.451 345.668 335.016 345.258 335.007 344.763C335.978 345.471 336.949 346.18 337.92 346.889C338.112 347.029 338.313 347.173 338.549 347.221C338.612 347.234 338.674 347.235 338.734 347.23C339.25 347.277 339.689 346.713 339.596 346.245C340.005 346.682 340.513 347.076 341.064 347.05C341.181 347.056 341.3 347.047 341.421 347.013C342.018 346.847 342.325 346.174 342.265 345.583C342.205 344.992 341.872 344.463 341.557 343.95C339.874 341.215 338.491 338.312 337.429 335.306C337.654 335.369 337.884 335.415 338.116 335.44C338.735 335.505 339.543 335.262 339.575 334.636C339.577 334.596 339.575 334.555 339.571 334.514C339.572 334.501 339.575 334.488 339.576 334.475C339.597 334.062 339.265 333.615 339.221 333.245C339.235 333.159 339.274 333.078 339.348 333.005C339.974 332.836 340.515 333.61 341.162 333.574C341.69 333.545 342.012 332.96 341.981 332.419C341.99 332.275 341.978 332.13 341.938 331.995C341.761 331.401 341.259 330.973 340.79 330.57C338.709 328.785 336.798 326.8 335.087 324.654C335.108 323.887 334.75 323.055 334.343 322.369C333.762 321.386 333.067 320.307 333.283 319.196C334.186 319.961 335.089 320.726 335.992 321.492C336.178 321.648 336.395 321.814 336.633 321.784C336.676 321.79 336.719 321.791 336.763 321.784C337.092 321.731 337.348 321.624 337.246 321.305C337.144 320.985 337.144 320.985 336.52 320.216C333.142 316.054 330.828 311.657 329.635 306.707C330.196 307.477 330.724 308.272 331.214 309.09C331.215 309.089 331.216 309.088 331.218 309.088C331.218 309.089 331.219 309.089 331.219 309.09C331.413 309.053 331.401 308.771 331.34 308.582C330.775 306.843 330.209 305.104 329.643 303.365C330.485 304.281 331.402 305.127 332.382 305.891C332.383 305.891 332.384 305.89 332.385 305.889C332.386 305.89 332.387 305.891 332.388 305.891C332.69 305.747 332.567 305.29 332.4 304.998L329.667 300.211C329.716 300.204 329.764 300.2 329.813 300.199C330.54 300.188 331.15 300.839 331.557 301.474C331.992 302.153 332.421 302.94 333.184 303.188C333.184 303.187 333.184 303.186 333.184 303.186C333.186 303.186 333.188 303.187 333.19 303.188C332.909 300.465 330.745 298.4 329.223 296.132C328.131 294.507 327.34 292.7 326.555 290.905C325.686 288.917 324.817 286.93 323.948 284.943L323.944 284.945C323.943 284.944 323.943 284.943 323.943 284.943L323.418 285.145C322.812 292.296 320.466 299.291 316.642 305.346C316.774 305.366 316.908 305.376 317.041 305.378C317.965 305.388 318.876 304.958 319.589 304.35C320.399 303.659 320.997 302.754 321.582 301.862C321.165 303.627 320.552 305.345 319.757 306.973C319.76 306.973 319.762 306.972 319.764 306.971C319.764 306.972 319.763 306.973 319.763 306.973C320.265 306.845 320.726 306.636 321.155 306.37C318.924 312.511 316.562 318.789 312.193 323.617C312.249 323.599 312.303 323.578 312.359 323.558C312.341 323.578 312.324 323.598 312.306 323.618C314.656 322.842 316.746 321.294 318.187 319.27C318.106 321.173 316.349 322.602 315.647 324.398C315.586 324.553 315.533 324.721 315.564 324.885C315.622 325.191 315.963 325.359 316.277 325.335C316.359 325.34 316.442 325.334 316.52 325.313C316.862 325.222 317.123 324.952 317.364 324.691C317.919 324.09 318.457 323.474 318.99 322.853C317.704 326.389 315.821 329.704 313.438 332.606C312.652 333.563 311.769 334.576 311.694 335.816C311.7 335.814 311.705 335.812 311.71 335.81C311.703 335.865 311.696 335.921 311.693 335.978C312.569 335.64 313.419 335.231 314.232 334.76C313.314 336.549 312.235 338.262 311.007 339.873C302.694 335.277 293.636 331.228 284.03 327.748V322.813C284.193 322.645 284.337 322.458 284.456 322.266C284.914 321.521 285.135 320.659 285.608 319.923C285.706 319.772 285.827 319.617 286.005 319.566C286.025 319.56 286.045 319.556 286.065 319.553C286.356 319.605 286.591 319.933 286.766 320.201C287.159 320.803 287.776 321.334 288.516 321.388C288.568 321.392 288.62 321.392 288.672 321.39C289.37 321.437 290.112 320.899 290.1 320.249C291.375 321.18 292.649 322.11 293.924 323.04C294.176 323.225 294.44 323.414 294.751 323.477C294.833 323.493 294.914 323.494 294.993 323.488C295.67 323.55 296.247 322.81 296.125 322.195C296.662 322.769 297.328 323.286 298.052 323.252C298.206 323.261 298.362 323.248 298.521 323.204C299.304 322.985 299.708 322.102 299.629 321.326C299.551 320.55 299.113 319.855 298.699 319.183C296.49 315.592 294.674 311.782 293.281 307.836C293.576 307.918 293.877 307.977 294.182 308.009C294.995 308.094 296.055 307.776 296.097 306.954C296.1 306.901 296.097 306.847 296.092 306.794C296.094 306.776 296.098 306.759 296.099 306.741C296.126 306.2 295.691 305.612 295.632 305.127C295.651 305.014 295.702 304.907 295.8 304.812C296.621 304.59 297.331 305.606 298.181 305.56C298.875 305.521 299.297 304.753 299.255 304.042C299.269 303.853 299.252 303.663 299.2 303.486C298.967 302.706 298.308 302.144 297.692 301.615C294.96 299.272 292.451 296.666 290.205 293.847C290.233 292.841 289.762 291.749 289.229 290.847C288.465 289.557 287.552 288.141 287.836 286.681C289.022 287.686 290.208 288.691 291.394 289.696C291.637 289.902 291.923 290.119 292.235 290.08C292.291 290.087 292.348 290.089 292.406 290.08C292.838 290.01 293.173 289.87 293.039 289.45C292.905 289.031 292.905 289.031 292.086 288.021C287.652 282.556 284.613 276.783 283.046 270.284C283.784 271.295 284.476 272.339 285.119 273.413C285.122 273.412 285.123 273.411 285.125 273.41C285.126 273.411 285.126 273.412 285.127 273.413C285.381 273.365 285.366 272.994 285.286 272.746C284.543 270.463 283.8 268.18 283.057 265.896C284.163 267.099 285.367 268.21 286.654 269.214C286.655 269.213 286.656 269.212 286.658 269.211C286.659 269.212 286.66 269.213 286.661 269.214C287.058 269.024 286.896 268.424 286.678 268.041L283.088 261.756C283.153 261.747 283.217 261.742 283.28 261.741C284.235 261.726 285.036 262.581 285.571 263.414C286.142 264.306 286.704 265.339 287.707 265.664C287.706 265.663 287.706 265.662 287.706 265.661C287.709 265.662 287.711 265.663 287.714 265.664C287.345 262.089 284.504 259.378 282.505 256.4C281.073 254.267 280.034 251.895 279.003 249.538C277.862 246.928 276.722 244.319 275.581 241.71L275.575 241.712C275.574 241.711 275.574 241.71 275.573 241.71L274.885 241.976C274.089 251.364 271.008 260.547 265.987 268.497C266.162 268.524 266.337 268.538 266.511 268.539C267.724 268.553 268.921 267.988 269.857 267.19C270.921 266.282 271.705 265.095 272.474 263.924C271.926 266.241 271.121 268.496 270.078 270.634C270.081 270.634 270.084 270.633 270.087 270.632C270.086 270.633 270.086 270.634 270.086 270.634C270.744 270.467 271.349 270.195 271.911 269.848C268.983 277.908 265.881 286.149 260.147 292.486C260.22 292.462 260.292 292.434 260.364 292.409C260.341 292.435 260.319 292.461 260.295 292.487C263.381 291.469 266.124 289.436 268.016 286.779C267.91 289.278 265.604 291.153 264.682 293.512C264.602 293.716 264.531 293.935 264.572 294.151C264.647 294.549 265.088 294.769 265.496 294.742C265.608 294.751 265.722 294.742 265.828 294.714C266.276 294.593 266.62 294.239 266.936 293.897C267.662 293.111 268.369 292.308 269.066 291.496C267.379 296.134 264.907 300.482 261.781 304.288C260.749 305.544 259.591 306.875 259.492 308.503C259.499 308.5 259.506 308.497 259.513 308.494C259.504 308.568 259.495 308.641 259.49 308.715C260.641 308.272 261.756 307.735 262.824 307.116C260.652 311.35 257.786 315.259 254.346 318.641C254.204 318.78 254.059 318.928 253.921 319.083C242.944 316.66 231.581 314.887 220.056 313.795C220.161 313.455 220.199 313.093 220.164 312.747C220.06 311.717 219.479 310.794 218.929 309.901C215.997 305.134 213.585 300.075 211.736 294.836C212.127 294.945 212.528 295.023 212.932 295.066C214.011 295.179 215.419 294.756 215.475 293.665C215.479 293.594 215.475 293.522 215.468 293.449C215.47 293.427 215.476 293.406 215.477 293.383C215.513 292.665 214.935 291.887 214.856 291.244C214.88 291.091 214.949 290.949 215.08 290.821C216.171 290.526 217.113 291.876 218.241 291.814C219.162 291.763 219.723 290.742 219.668 289.799C219.685 289.548 219.664 289.296 219.594 289.061C219.285 288.024 218.411 287.279 217.592 286.577C213.965 283.466 210.634 280.006 207.652 276.264C207.689 274.927 207.064 273.477 206.355 272.279C205.342 270.567 204.13 268.686 204.506 266.748L209.23 270.751C209.552 271.024 209.932 271.312 210.347 271.261C210.421 271.27 210.497 271.273 210.574 271.261C211.147 271.168 211.593 270.982 211.415 270.425C211.236 269.868 211.236 269.868 210.149 268.527C204.261 261.271 200.227 253.606 198.147 244.978C199.126 246.32 200.045 247.705 200.899 249.131C200.902 249.131 200.904 249.129 200.907 249.128C200.907 249.129 200.908 249.13 200.909 249.131C201.246 249.067 201.227 248.575 201.12 248.246C200.134 245.215 199.148 242.183 198.162 239.152C199.629 240.749 201.228 242.223 202.936 243.556C202.938 243.555 202.94 243.554 202.942 243.553C202.943 243.554 202.944 243.555 202.946 243.556C203.473 243.305 203.259 242.508 202.968 241.999C201.38 239.217 199.791 236.436 198.203 233.654C198.288 233.642 198.373 233.635 198.457 233.634C199.725 233.614 200.789 234.749 201.498 235.856C202.257 237.04 203.003 238.412 204.334 238.843L204.334 238.84C204.337 238.841 204.34 238.842 204.344 238.843C203.854 234.096 200.083 230.496 197.428 226.543C195.526 223.71 194.147 220.561 192.779 217.431C191.264 213.967 189.749 210.502 188.234 207.038L188.226 207.041C188.226 207.04 188.225 207.039 188.225 207.038L187.31 207.391C186.253 219.857 182.163 232.049 175.497 242.605C175.729 242.64 175.961 242.658 176.192 242.661C177.803 242.679 179.393 241.929 180.635 240.869C182.047 239.664 183.089 238.088 184.109 236.532C183.382 239.609 182.313 242.604 180.929 245.442C180.932 245.441 180.936 245.44 180.94 245.439C180.939 245.44 180.939 245.441 180.938 245.442C181.812 245.22 182.616 244.859 183.363 244.398C179.474 255.1 175.356 266.042 167.742 274.455C167.839 274.423 167.934 274.387 168.031 274.353C168 274.388 167.97 274.423 167.94 274.457C172.036 273.105 175.679 270.406 178.191 266.878C178.05 270.196 174.987 272.686 173.763 275.818C173.657 276.088 173.564 276.38 173.618 276.666C173.718 277.195 174.302 277.487 174.844 277.451C174.993 277.462 175.144 277.451 175.285 277.413C175.881 277.253 176.337 276.783 176.756 276.328C177.72 275.285 178.659 274.219 179.584 273.141C177.344 279.298 174.063 285.072 169.912 290.125C168.542 291.794 167.004 293.56 166.872 295.721C166.882 295.718 166.891 295.714 166.9 295.71C166.889 295.808 166.877 295.905 166.87 296.004C168.4 295.414 169.882 294.701 171.302 293.878C168.417 299.5 164.608 304.69 160.041 309.182C159.146 310.061 158.144 311.193 158.533 312.361C158.594 312.342 158.654 312.321 158.715 312.301C158.721 312.321 158.724 312.342 158.731 312.363C164.537 310.518 169.016 306.178 173.227 301.923C172.348 304.208 171.468 306.492 170.588 308.777C170.673 308.734 170.754 308.687 170.838 308.642C170.82 308.688 170.803 308.733 170.786 308.779C172.653 307.834 174.308 306.51 175.613 304.923C176.4 305.663 175.534 307.028 174.694 307.818C172.866 309.537 171.197 311.41 169.706 313.404C167.774 313.56 165.846 313.736 163.924 313.933C100.462 320.439 37.0936 348.349 -28.7371 335.265C-28.7388 335.265 -26.0806 444.553 -26.0806 444.553C56.6987 449.418 139.69 452.805 222.765 454.712C302.165 456.534 386.972 461.377 466.017 455.796C469.333 441.364 453.876 428.797 435.768 421.134Z" fill="#5B8B3D"/>
<mask id="mask3_23_834" style="mask-type:luminance" maskUnits="userSpaceOnUse" x="-16" y="328" width="366" height="91">
<path d="M-15.4265 328.826H349.718V418.345H-15.4265V328.826Z" fill="white"/>
</mask>
<g mask="url(#mask3_23_834)">
<g opacity="0.289993">
<path d="M322.209 415.678C331.421 414.579 340.588 413.112 349.718 411.456C317.836 388.47 280.816 372.761 242.217 365.841C224.67 362.694 206.864 361.345 189.112 359.752C163.873 357.489 138.611 354.714 113.897 349.083C104.074 346.845 93.7993 343.833 86.972 336.376C85.0143 334.238 83.4958 331.622 82.5073 328.826C50.2275 335.607 17.693 341.053 -15.4268 337.103C-15.2551 339.822 -14.597 342.593 -13.9271 345.231L-7.85997 369.126C-7.00846 372.48 -6.10051 375.95 -3.93048 378.634C-1.11468 382.117 3.35164 383.714 7.62615 384.993C31.597 392.166 56.7131 394.29 81.5471 397.238C161.677 406.751 242.084 425.235 322.209 415.678Z" fill="#0A445F"/>
</g>
</g>
<path d="M505.274 343.734C492.047 364.75 462.758 376.212 438.055 376.29C413.353 376.368 388.347 371.466 364.141 376.43C353.479 378.617 343.299 382.666 333.109 386.506C254.673 416.06 168.053 434.158 87.3272 411.719L79.0464 435.334L505.274 480.644V343.734Z" fill="#F9A137"/>
<path d="M371.322 316.687C363.75 338.38 351.001 358.406 334.321 374.809C332.023 377.068 329.448 379.973 330.449 382.976C345.746 378.115 357.459 366.512 368.521 355.317C366.152 361.467 363.784 367.618 361.415 373.769C366.311 371.293 370.642 367.806 374.026 363.618C376.55 365.447 374.218 369.183 371.963 371.304C363.068 379.672 355.622 389.439 350.015 400.093C366.016 396.639 378.239 384.677 389.477 373.269C387.277 379.4 386.61 386.028 387.546 392.449C392.405 389.666 396.647 385.907 399.914 381.487C401.881 385.212 403.848 388.937 405.815 392.661C406.168 393.331 406.576 394.051 407.299 394.345C408.428 394.804 409.661 394.003 410.55 393.196C414.046 390.021 416.653 385.963 418.034 381.548C422.743 383.594 423.956 390.679 429.062 391.467C432.109 391.936 434.945 389.708 436.508 387.169C438.07 384.63 438.825 381.69 440.438 379.18C440.771 378.663 441.184 378.134 441.792 377.959C443.12 377.577 444.161 379.007 444.895 380.132C446.235 382.184 448.338 383.994 450.863 384.18C453.388 384.367 456.096 382.295 455.729 379.902C460.255 383.206 464.781 386.511 469.308 389.815C470.168 390.443 471.067 391.088 472.127 391.302C475.051 391.894 477.604 387.942 475.738 385.71C477.951 388.363 481.07 391.318 484.478 390.368C487.151 389.622 488.527 386.611 488.259 383.964C487.991 381.316 486.498 378.947 485.087 376.653C474.57 359.557 466.648 341.008 461.646 321.768L371.322 316.687Z" fill="#5B8B3D"/>
<mask id="mask4_23_834" style="mask-type:luminance" maskUnits="userSpaceOnUse" x="329" y="317" width="102" height="84">
<path d="M329.719 317.552H430.186V400.089H329.719V317.552Z" fill="white"/>
</mask>
<g mask="url(#mask4_23_834)">
<g opacity="0.289993">
<path d="M390.208 317.774C385.244 319.054 380.188 319.262 375.358 317.552L373.675 318.557C368.999 328.351 363.279 337.631 356.674 346.222C350.26 356.561 342.58 366.184 333.813 374.805C331.516 377.064 328.94 379.97 329.942 382.972C345.239 378.112 356.952 366.509 368.013 355.313C365.645 361.464 363.276 367.615 360.908 373.765C365.803 371.289 370.135 367.803 373.519 363.615C376.042 365.444 373.711 369.179 371.455 371.301C362.561 379.668 355.114 389.435 349.508 400.089C365.509 396.635 377.732 384.673 388.97 373.266C386.77 379.397 386.102 386.024 387.039 392.445C391.898 389.663 396.139 385.903 399.406 381.484C401.373 385.209 403.34 388.933 405.307 392.658C405.51 393.042 405.734 393.441 406.022 393.768C419.138 371.865 425.556 345.977 430.185 320.023L390.208 317.774Z" fill="#0A445F"/>
</g>
</g>
<path d="M387.517 271.315C381.976 291.217 372.252 309.926 359.172 325.852C355.653 330.138 351.7 334.676 351.364 340.228C361.223 336.426 370.329 330.655 377.998 323.347L375.564 335.184C374.994 337.958 377.97 340.088 380.386 338.638C385.713 335.442 390.076 330.405 394.155 325.557C393.468 332.41 393.306 339.316 393.669 346.194C393.796 348.61 396.773 349.664 398.367 347.853C402.494 343.163 405.506 337.426 408.412 331.821C407.738 337.784 408.597 343.917 410.895 349.455C411.215 350.228 411.767 350.896 412.503 351.284C414.446 352.31 415.915 350.836 416.942 349.43C420.403 344.692 422.448 338.919 422.744 333.044C424.741 339.257 428.1 345.023 432.514 349.806C432.85 350.169 433.296 350.424 433.785 350.484C435.208 350.66 435.733 349.282 436.038 348.13C437.302 343.359 438.566 338.588 439.83 333.817C442.936 338.045 447.316 341.311 452.238 343.067C453.349 343.463 454.538 343.788 455.696 343.564C457.957 343.127 459.376 340.665 459.432 338.346C459.488 336.027 458.512 333.824 457.556 331.714C460.696 335.125 465.091 337.337 469.685 337.818C472.456 338.108 476.074 337.024 476.217 334.22C476.35 331.627 473.35 328.72 475.202 326.914C478.005 326.158 480.426 329.624 483.323 329.464C486.079 329.312 487.586 325.782 486.793 323.119C486 320.456 483.753 318.54 481.652 316.737C462.993 300.733 447.382 281.136 435.912 259.32L387.517 271.315Z" fill="#5B8B3D"/>
<mask id="mask5_23_834" style="mask-type:luminance" maskUnits="userSpaceOnUse" x="351" y="264" width="70" height="79">
<path d="M351.359 264.095H420.114V342.333H351.359V264.095Z" fill="white"/>
</mask>
<g mask="url(#mask5_23_834)">
<g opacity="0.289993">
<path d="M359.167 326.578C355.647 330.863 351.695 335.401 351.358 340.953C361.217 337.152 370.324 331.38 377.993 324.072L375.559 335.909C375.165 337.824 376.462 339.432 378.097 339.767C383.129 336.687 387.594 332.837 391.183 327.943C391.059 328.646 390.966 329.355 390.898 330.066C392.009 328.816 393.089 327.542 394.149 326.282C393.615 331.613 393.4 336.976 393.501 342.333C412.862 321.707 422.595 292.298 419.57 264.094L387.512 272.04C381.97 291.942 372.246 310.651 359.167 326.578Z" fill="#0A445F"/>
</g>
</g>
<path d="M399.031 190.62C398.136 196.22 396.192 201.587 394.258 206.913C384.109 234.872 373.507 263.601 353.596 285.6C364.402 282.035 373.987 274.826 380.452 265.404C380.528 274.296 372.297 280.825 369.063 289.099C368.791 289.794 368.551 290.544 368.69 291.278C368.986 292.844 370.938 293.605 372.467 293.193C373.996 292.783 375.167 291.575 376.245 290.408C383.111 282.971 389.511 275.114 395.905 267.262C394.94 276.544 393.974 285.826 393.008 295.107C392.921 295.942 392.879 296.907 393.482 297.487C394.594 298.555 396.329 297.219 397.237 295.97C402.565 288.646 407.221 280.827 411.128 272.645C411.494 277.971 412.4 283.259 413.828 288.401C414.132 289.494 414.81 290.828 415.927 290.677C416.565 290.591 417.016 290.024 417.382 289.49C420.158 285.444 422.065 280.797 422.937 275.957C424.404 284.945 428.541 293.472 434.678 300.161C436.66 292.011 436.642 283.376 434.625 275.235C441.157 281.741 447.689 288.247 454.221 294.753C457.157 290.417 454.946 284.515 452.278 280.007C449.61 275.498 446.395 270.537 447.595 265.43L460.17 276.083C461.018 276.802 462.02 277.567 463.114 277.39C464.588 277.152 465.732 276.673 465.275 275.243C464.817 273.812 464.817 273.812 462.023 270.368C441.806 245.451 430.091 218.66 427.512 186.584L399.031 190.62Z" fill="#5B8B3D"/>
<mask id="mask6_23_834" style="mask-type:luminance" maskUnits="userSpaceOnUse" x="354" y="189" width="67" height="105">
<path d="M354.104 189.333H420.133V293.307H354.104V189.333Z" fill="white"/>
</mask>
<g mask="url(#mask6_23_834)">
<g opacity="0.289993">
<path d="M394.712 283.612C395.921 280.195 397.025 276.744 398.083 273.328C406.65 245.673 414.009 217.639 420.133 189.333L418.068 192.709C414.515 189.422 408.848 189.456 404.476 191.51C402.243 192.559 400.272 194.036 398.45 195.712C397.453 199.509 396.107 203.223 394.766 206.917C384.617 234.876 374.014 263.605 354.104 285.604C364.909 282.039 374.495 274.83 380.96 265.408C381.036 274.3 372.805 280.829 369.571 289.103C369.299 289.799 369.059 290.548 369.198 291.282C369.494 292.849 371.445 293.609 372.974 293.198C374.504 292.787 375.675 291.579 376.753 290.412C383.619 282.975 390.019 275.118 396.413 267.267C395.846 272.715 395.279 278.164 394.712 283.612Z" fill="#0A445F"/>
</g>
</g>
<path d="M403.862 113.327C401.148 145.347 390.641 176.668 373.518 203.783C378.241 204.503 383.047 202.433 386.692 199.323C390.338 196.212 393.021 192.138 395.654 188.123C393.787 196.048 391.036 203.761 387.47 211.071C397.324 208.561 403.747 199.289 409.269 190.692L418.446 215.959C421.607 211.46 423.681 206.191 424.438 200.732C429.773 206.903 434.575 213.541 438.77 220.548C439.637 220.384 439.586 219.119 439.312 218.275C436.775 210.474 434.238 202.673 431.7 194.873C435.481 198.99 439.601 202.792 444.003 206.226C445.356 205.58 444.807 203.533 444.06 202.226C439.98 195.08 435.899 187.935 431.819 180.79C435.375 180.287 438.362 183.408 440.309 186.447C442.257 189.486 444.175 193.011 447.594 194.12C446.335 181.926 436.648 172.679 429.83 162.524C424.944 155.247 421.402 147.157 417.886 139.117C413.995 130.218 410.103 121.318 406.212 112.419L403.862 113.327Z" fill="#5B8B3D"/>
<mask id="mask7_23_834" style="mask-type:luminance" maskUnits="userSpaceOnUse" x="373" y="112" width="42" height="100">
<path d="M373.543 112.419H414.904V211.071H373.543V112.419Z" fill="white"/>
</mask>
<g mask="url(#mask7_23_834)">
<g opacity="0.289993">
<path d="M413.634 129.337L406.237 112.418L403.887 113.327C401.173 145.347 390.666 176.668 373.542 203.783C378.266 204.503 383.071 202.433 386.717 199.323C390.362 196.212 393.046 192.138 395.679 188.122C393.812 196.047 391.061 203.761 387.495 211.071C397.349 208.561 403.772 199.288 409.294 190.692C409.388 190.951 409.482 191.21 409.576 191.468C412.751 181.723 414.396 171.295 414.783 161.168C415.189 150.547 414.516 139.941 413.634 129.337Z" fill="#0A445F"/>
</g>
</g>
<path d="M504.693 470.493C480.49 456.001 451.882 451.567 424.809 443.771C384.587 432.188 346.701 412.752 305.77 404.049C259.903 394.295 212.285 398.442 165.708 393.112C93.2932 384.825 23.7307 352.911 -30.0095 303.32L-29.7063 480.644H505.273V476.038L504.693 470.493Z" fill="#0A445F"/>
<path d="M413.101 50.7698C413.101 72.6923 395.459 90.4641 373.696 90.4641C351.933 90.4641 334.291 72.6923 334.291 50.7698C334.291 28.8472 351.933 11.0754 373.696 11.0754C395.459 11.0754 413.101 28.8472 413.101 50.7698Z" fill="#F9A137"/>
<path fill-rule="evenodd" clip-rule="evenodd" d="M270.14 -1.21216C281.733 -1.21216 291.835 5.10864 297.124 14.46C300.642 13.0809 304.478 12.323 308.492 12.323C323.45 12.323 335.926 22.8458 338.783 36.8238C343.692 41.5416 346.742 48.1453 346.742 55.4545C346.742 69.7916 335.006 81.4142 320.528 81.4142C315.858 81.4142 311.473 80.2048 307.676 78.0852C302.184 83.0397 294.882 86.0605 286.868 86.0605C277 86.0605 268.213 81.4807 262.554 74.3505C257.199 78.7614 250.314 81.4141 242.804 81.4141C225.735 81.4141 211.898 67.7113 211.898 50.808C211.898 34.629 224.575 21.382 240.629 20.2765C244.547 7.82606 256.278 -1.21216 270.14 -1.21216Z" fill="#2BB3C5"/>
</g>
</svg>
