<svg width="1440" height="61" viewBox="0 0 1440 61" fill="none" xmlns="http://www.w3.org/2000/svg">
<g filter="url(#filter0_di_161_5)">
<path d="M54 24.497C6.4 19.2894 -57.8333 44.2968 -84 57.4514C-78.1667 95.9661 -55.4 180.237 -11 209.204C33.4 238.172 224.833 244.871 315 244.6C414.333 245.685 634.6 248.913 721 253.144C829 258.433 1427.5 225.885 1442.5 220.189C1457.5 214.493 1659 70.4705 1544 45.2461C1429 20.0217 1442.5 24.497 1358.5 33.0408C1274.5 41.5845 1112 132.311 1067.5 133.125C1023 133.938 939 85.9306 881 85.9306C823 85.9306 768.5 122.14 745.5 123.36C722.5 124.581 705 89.1853 667 85.9306C629 82.6758 569.5 112.375 495 107.9C420.5 103.425 331.5 46.4666 291 45.2461C250.5 44.0256 208 58.672 171.5 57.4514C135 56.2309 113.5 31.0065 54 24.497Z" fill="#1863A9"/>
</g>
<defs>
<filter id="filter0_di_161_5" x="-110" y="0.794189" width="1717.3" height="283.928" filterUnits="userSpaceOnUse" color-interpolation-filters="sRGB">
<feFlood flood-opacity="0" result="BackgroundImageFix"/>
<feColorMatrix in="SourceAlpha" type="matrix" values="0 0 0 0 0 0 0 0 0 0 0 0 0 0 0 0 0 0 127 0" result="hardAlpha"/>
<feMorphology radius="1" operator="dilate" in="SourceAlpha" result="effect1_dropShadow_161_5"/>
<feOffset dx="1" dy="4"/>
<feGaussianBlur stdDeviation="13"/>
<feComposite in2="hardAlpha" operator="out"/>
<feColorMatrix type="matrix" values="0 0 0 0 0 0 0 0 0 0 0 0 0 0 0 0 0 0 0.25 0"/>
<feBlend mode="normal" in2="BackgroundImageFix" result="effect1_dropShadow_161_5"/>
<feBlend mode="normal" in="SourceGraphic" in2="effect1_dropShadow_161_5" result="shape"/>
<feColorMatrix in="SourceAlpha" type="matrix" values="0 0 0 0 0 0 0 0 0 0 0 0 0 0 0 0 0 0 127 0" result="hardAlpha"/>
<feOffset dy="4"/>
<feGaussianBlur stdDeviation="6"/>
<feComposite in2="hardAlpha" operator="arithmetic" k2="-1" k3="1"/>
<feColorMatrix type="matrix" values="0 0 0 0 1 0 0 0 0 1 0 0 0 0 1 0 0 0 0.2 0"/>
<feBlend mode="normal" in2="shape" result="effect2_innerShadow_161_5"/>
</filter>
</defs>
</svg>
