<svg width="1440" height="102" viewBox="0 0 1440 102" fill="none" xmlns="http://www.w3.org/2000/svg">
<g filter="url(#filter0_di_161_4)">
<path d="M67.5 30.1015C25.9 19.3608 -54.1667 34.5768 -89 43.5273C-72.6667 91.3994 -26 194.955 30 226.201C100 265.258 451.5 228.235 499.5 236.778C547.5 245.322 975 263.223 1157 282.345C1339 301.467 1543 213.588 1566.5 198.942C1585.3 187.225 1552.67 82.5844 1534 31.7288C1496.67 23.1851 1400.2 14.3972 1313 47.5958C1204 89.0939 1133.5 99.265 1068.5 104.554C1003.5 109.843 928.5 79.3296 876.5 84.6186C824.5 89.9076 795.5 99.265 764.5 99.265C733.5 99.265 719 84.6186 663 84.6186C607 84.6186 593 96.0103 543.5 99.265C494 102.52 364 58.9874 303 52.8847C242 46.7821 227.5 60.2079 194 58.9874C160.5 57.7669 119.5 43.5273 67.5 30.1015Z" fill="#2BB3C5"/>
</g>
<defs>
<filter id="filter0_di_161_4" x="-115" y="0.892944" width="1715.15" height="315.161" filterUnits="userSpaceOnUse" color-interpolation-filters="sRGB">
<feFlood flood-opacity="0" result="BackgroundImageFix"/>
<feColorMatrix in="SourceAlpha" type="matrix" values="0 0 0 0 0 0 0 0 0 0 0 0 0 0 0 0 0 0 127 0" result="hardAlpha"/>
<feMorphology radius="1" operator="dilate" in="SourceAlpha" result="effect1_dropShadow_161_4"/>
<feOffset dx="1" dy="4"/>
<feGaussianBlur stdDeviation="13"/>
<feComposite in2="hardAlpha" operator="out"/>
<feColorMatrix type="matrix" values="0 0 0 0 0 0 0 0 0 0 0 0 0 0 0 0 0 0 0.25 0"/>
<feBlend mode="normal" in2="BackgroundImageFix" result="effect1_dropShadow_161_4"/>
<feBlend mode="normal" in="SourceGraphic" in2="effect1_dropShadow_161_4" result="shape"/>
<feColorMatrix in="SourceAlpha" type="matrix" values="0 0 0 0 0 0 0 0 0 0 0 0 0 0 0 0 0 0 127 0" result="hardAlpha"/>
<feOffset dy="4"/>
<feGaussianBlur stdDeviation="6"/>
<feComposite in2="hardAlpha" operator="arithmetic" k2="-1" k3="1"/>
<feColorMatrix type="matrix" values="0 0 0 0 1 0 0 0 0 1 0 0 0 0 1 0 0 0 0.2 0"/>
<feBlend mode="normal" in2="shape" result="effect2_innerShadow_161_4"/>
</filter>
</defs>
</svg>
