<svg width="2863" height="1723" viewBox="0 0 2863 1723" fill="none" xmlns="http://www.w3.org/2000/svg">
<mask id="mask0_33_10" style="mask-type:alpha" maskUnits="userSpaceOnUse" x="9" y="0" width="2845" height="1380">
<path d="M10.2008 1241.03C0.849153 1316.74 62.596 1379.39 138.878 1379.39H349.18C422.812 1379.39 482.818 1320.7 495.436 1248.15C544.263 967.427 741.017 481.184 1431.34 481.184C2121.67 481.184 2318.42 967.427 2367.25 1248.15C2379.87 1320.7 2439.88 1379.39 2513.51 1379.39H2723.81C2800.09 1379.39 2861.84 1316.74 2852.49 1241.03C2831.49 1071.03 2773.27 836.92 2631.43 613.852C2413.91 271.784 2024.88 0 1431.34 0C837.807 0 448.777 271.784 231.262 613.852C89.4163 836.92 31.2007 1071.03 10.2008 1241.03Z" fill="#F0EAD4"/>
<path d="M10.2008 1241.03C0.849153 1316.74 62.596 1379.39 138.878 1379.39H349.18C422.812 1379.39 482.818 1320.7 495.436 1248.15C544.263 967.427 741.017 481.184 1431.34 481.184C2121.67 481.184 2318.42 967.427 2367.25 1248.15C2379.87 1320.7 2439.88 1379.39 2513.51 1379.39H2723.81C2800.09 1379.39 2861.84 1316.74 2852.49 1241.03C2831.49 1071.03 2773.27 836.92 2631.43 613.852C2413.91 271.784 2024.88 0 1431.34 0C837.807 0 448.777 271.784 231.262 613.852C89.4163 836.92 31.2007 1071.03 10.2008 1241.03Z" fill="url(#paint0_linear_33_10)"/>
</mask>
<g mask="url(#mask0_33_10)">
<path d="M240.424 1461.5C239.798 1583.91 270.789 1862.98 434.284 2120.09C608.832 2394.59 922.284 2622.45 1431.34 2622.45C1940.4 2622.45 2253.85 2394.59 2428.4 2120.09C2591.89 1862.99 2622.89 1583.93 2622.26 1461.51V1401.53C2622.89 1279.11 2591.89 1000.06 2428.4 742.95C2253.85 468.452 1940.4 240.592 1431.34 240.592C922.284 240.592 608.832 468.452 434.284 742.95C270.789 1000.07 239.798 1279.13 240.424 1401.55V1461.5Z" stroke="black" stroke-width="481.184"/>
<g filter="url(#filter0_iii_33_10)">
<path d="M0.00195312 1379.39H481.31C488.004 1165.93 612.142 481.184 1431.35 481.184C2250.55 481.184 2374.69 1165.93 2381.38 1379.39H2862.69C2859.72 1218.49 2817.62 906.662 2631.43 613.852C2413.91 271.784 2024.88 0 1431.35 0C837.809 0 448.78 271.784 231.265 613.852C45.0719 906.662 2.97639 1218.49 0.00195312 1379.39Z" fill="#F0EAD4"/>
<path d="M0.00195312 1379.39H481.31C488.004 1165.93 612.142 481.184 1431.35 481.184C2250.55 481.184 2374.69 1165.93 2381.38 1379.39H2862.69C2859.72 1218.49 2817.62 906.662 2631.43 613.852C2413.91 271.784 2024.88 0 1431.35 0C837.809 0 448.78 271.784 231.265 613.852C45.0719 906.662 2.97639 1218.49 0.00195312 1379.39Z" fill="url(#paint1_linear_33_10)"/>
</g>
</g>
<g filter="url(#filter1_diii_33_10)">
<path d="M2672.92 1232.99C2692.91 1254.42 2694.97 1287.04 2677.86 1311.31C2595.93 1427.58 2508.06 1512.64 2448.26 1563.88C2413.63 1593.56 2364.33 1575.61 2356.22 1531.09C2350.7 1500.75 2344.75 1463.68 2339.5 1421.33C2154.69 1431.95 2050.2 1429.08 2006.71 1426.7C1991.04 1425.84 1976.46 1418.76 1968.38 1405.37C1958.39 1388.8 1946.37 1362.38 1944.1 1328.6C1941.77 1294.06 1950.85 1265.34 1958.9 1247.29C1965.09 1233.42 1977.93 1224.43 1992.69 1221.06C2034.73 1211.48 2138 1191.41 2324.1 1174.85C2324.03 1132.46 2325.28 1095.13 2326.95 1064.46C2329.42 1019.16 2375.96 993.903 2413.98 1018C2479.59 1059.59 2577.24 1130.38 2672.92 1232.99Z" fill="#F0EAD4"/>
</g>
<defs>
<filter id="filter0_iii_33_10" x="-28.9645" y="-28.9664" width="2939.93" height="1456.64" filterUnits="userSpaceOnUse" color-interpolation-filters="sRGB">
<feFlood flood-opacity="0" result="BackgroundImageFix"/>
<feBlend mode="normal" in="SourceGraphic" in2="BackgroundImageFix" result="shape"/>
<feColorMatrix in="SourceAlpha" type="matrix" values="0 0 0 0 0 0 0 0 0 0 0 0 0 0 0 0 0 0 127 0" result="hardAlpha"/>
<feOffset dx="-28.9664" dy="-28.9664"/>
<feGaussianBlur stdDeviation="63.7262"/>
<feComposite in2="hardAlpha" operator="arithmetic" k2="-1" k3="1"/>
<feColorMatrix type="matrix" values="0 0 0 0 0 0 0 0 0 0 0 0 0 0 0 0 0 0 0.24 0"/>
<feBlend mode="normal" in2="shape" result="effect1_innerShadow_33_10"/>
<feColorMatrix in="SourceAlpha" type="matrix" values="0 0 0 0 0 0 0 0 0 0 0 0 0 0 0 0 0 0 127 0" result="hardAlpha"/>
<feOffset dx="28.9664" dy="28.9664"/>
<feGaussianBlur stdDeviation="15.9315"/>
<feComposite in2="hardAlpha" operator="arithmetic" k2="-1" k3="1"/>
<feColorMatrix type="matrix" values="0 0 0 0 1 0 0 0 0 1 0 0 0 0 1 0 0 0 0.5 0"/>
<feBlend mode="normal" in2="effect1_innerShadow_33_10" result="effect2_innerShadow_33_10"/>
<feColorMatrix in="SourceAlpha" type="matrix" values="0 0 0 0 0 0 0 0 0 0 0 0 0 0 0 0 0 0 127 0" result="hardAlpha"/>
<feOffset dx="48.2774" dy="48.2774"/>
<feGaussianBlur stdDeviation="82.0716"/>
<feComposite in2="hardAlpha" operator="arithmetic" k2="-1" k3="1"/>
<feColorMatrix type="matrix" values="0 0 0 0 1 0 0 0 0 1 0 0 0 0 1 0 0 0 0.15 0"/>
<feBlend mode="normal" in2="effect2_innerShadow_33_10" result="effect3_innerShadow_33_10"/>
</filter>
<filter id="filter1_diii_33_10" x="1914.76" y="979.728" width="861.563" height="685.637" filterUnits="userSpaceOnUse" color-interpolation-filters="sRGB">
<feFlood flood-opacity="0" result="BackgroundImageFix"/>
<feColorMatrix in="SourceAlpha" type="matrix" values="0 0 0 0 0 0 0 0 0 0 0 0 0 0 0 0 0 0 127 0" result="hardAlpha"/>
<feOffset dx="38.6219" dy="38.6219"/>
<feGaussianBlur stdDeviation="24.1387"/>
<feComposite in2="hardAlpha" operator="out"/>
<feColorMatrix type="matrix" values="0 0 0 0 0 0 0 0 0 0 0 0 0 0 0 0 0 0 0.25 0"/>
<feBlend mode="normal" in2="BackgroundImageFix" result="effect1_dropShadow_33_10"/>
<feBlend mode="normal" in="SourceGraphic" in2="effect1_dropShadow_33_10" result="shape"/>
<feColorMatrix in="SourceAlpha" type="matrix" values="0 0 0 0 0 0 0 0 0 0 0 0 0 0 0 0 0 0 127 0" result="hardAlpha"/>
<feOffset dx="-28.9664" dy="-28.9664"/>
<feGaussianBlur stdDeviation="63.7262"/>
<feComposite in2="hardAlpha" operator="arithmetic" k2="-1" k3="1"/>
<feColorMatrix type="matrix" values="0 0 0 0 0 0 0 0 0 0 0 0 0 0 0 0 0 0 0.24 0"/>
<feBlend mode="normal" in2="shape" result="effect2_innerShadow_33_10"/>
<feColorMatrix in="SourceAlpha" type="matrix" values="0 0 0 0 0 0 0 0 0 0 0 0 0 0 0 0 0 0 127 0" result="hardAlpha"/>
<feOffset dx="28.9664" dy="28.9664"/>
<feGaussianBlur stdDeviation="15.9315"/>
<feComposite in2="hardAlpha" operator="arithmetic" k2="-1" k3="1"/>
<feColorMatrix type="matrix" values="0 0 0 0 1 0 0 0 0 1 0 0 0 0 1 0 0 0 0.5 0"/>
<feBlend mode="normal" in2="effect2_innerShadow_33_10" result="effect3_innerShadow_33_10"/>
<feColorMatrix in="SourceAlpha" type="matrix" values="0 0 0 0 0 0 0 0 0 0 0 0 0 0 0 0 0 0 127 0" result="hardAlpha"/>
<feOffset dx="48.2774" dy="48.2774"/>
<feGaussianBlur stdDeviation="82.0716"/>
<feComposite in2="hardAlpha" operator="arithmetic" k2="-1" k3="1"/>
<feColorMatrix type="matrix" values="0 0 0 0 1 0 0 0 0 1 0 0 0 0 1 0 0 0 0.15 0"/>
<feBlend mode="normal" in2="effect3_innerShadow_33_10" result="effect4_innerShadow_33_10"/>
</filter>
<linearGradient id="paint0_linear_33_10" x1="2862.86" y1="1415.48" x2="-0.178999" y2="1427.51" gradientUnits="userSpaceOnUse">
<stop stop-color="#E63C36"/>
<stop offset="0.5" stop-color="#E3B318"/>
<stop offset="1" stop-color="#318F30"/>
</linearGradient>
<linearGradient id="paint1_linear_33_10" x1="2862.87" y1="1415.48" x2="-0.17607" y2="1427.51" gradientUnits="userSpaceOnUse">
<stop stop-color="#E63C36"/>
<stop offset="0.5" stop-color="#E3B318"/>
<stop offset="1" stop-color="#318F30"/>
</linearGradient>
</defs>
</svg>
