<svg width="2526" height="1561" viewBox="0 0 2526 1561" fill="none" xmlns="http://www.w3.org/2000/svg">
<mask id="mask0_65_34" style="mask-type:alpha" maskUnits="userSpaceOnUse" x="8" y="-1" width="2510" height="1376">
<path d="M9.66936 1236.77C1.38065 1312.49 63.0583 1374.94 139.227 1374.94H292.63C366.453 1374.94 426.566 1316.03 437.86 1243.07C481.206 963.091 655.102 479.629 1263.32 479.629C1871.54 479.629 2045.44 963.091 2088.78 1243.07C2100.08 1316.03 2160.19 1374.94 2234.01 1374.94H2387.42C2463.58 1374.94 2525.26 1312.49 2516.97 1236.77C2498.43 1067.34 2447.06 834.108 2321.99 611.868C2130.11 270.905 1786.92 -0.000488281 1263.32 -0.000488281C739.725 -0.000488281 396.537 270.905 204.654 611.868C79.5843 834.108 28.2177 1067.34 9.66936 1236.77Z" fill="#F0EAD4"/>
<path d="M9.66936 1236.77C1.38065 1312.49 63.0583 1374.94 139.227 1374.94H292.63C366.453 1374.94 426.566 1316.03 437.86 1243.07C481.206 963.091 655.102 479.629 1263.32 479.629C1871.54 479.629 2045.44 963.091 2088.78 1243.07C2100.08 1316.03 2160.19 1374.94 2234.01 1374.94H2387.42C2463.58 1374.94 2525.26 1312.49 2516.97 1236.77C2498.43 1067.34 2447.06 834.108 2321.99 611.868C2130.11 270.905 1786.92 -0.000488281 1263.32 -0.000488281C739.725 -0.000488281 396.537 270.905 204.654 611.868C79.5843 834.108 28.2177 1067.34 9.66936 1236.77Z" fill="url(#paint0_linear_65_34)"/>
</mask>
<g mask="url(#mask0_65_34)">
<g filter="url(#filter0_diii_65_34)">
<path d="M0.645508 1374.94H425.237C431.142 1162.16 540.652 479.629 1263.32 479.629C1986 479.629 2095.51 1162.16 2101.41 1374.94H2526C2523.38 1214.55 2486.24 903.732 2321.99 611.868C2130.11 270.905 1786.92 -0.000488281 1263.32 -0.000488281C739.728 -0.000488281 396.54 270.905 204.657 611.868C40.4045 903.732 3.26944 1214.55 0.645508 1374.94Z" fill="#F0EAD4"/>
<path d="M0.645508 1374.94H425.237C431.142 1162.16 540.652 479.629 1263.32 479.629C1986 479.629 2095.51 1162.16 2101.41 1374.94H2526C2523.38 1214.55 2486.24 903.732 2321.99 611.868C2130.11 270.905 1786.92 -0.000488281 1263.32 -0.000488281C739.728 -0.000488281 396.54 270.905 204.657 611.868C40.4045 903.732 3.26944 1214.55 0.645508 1374.94Z" fill="url(#paint1_linear_65_34)"/>
</g>
</g>
<g filter="url(#filter1_diii_65_34)">
<path d="M2425.6 1088.74C2436.3 1061.82 2427.57 1030.59 2404.63 1013.74C2294.76 933.059 2189.75 883.608 2120.43 856.176C2080.28 840.283 2042.6 873.997 2049.85 918.447C2054.8 948.731 2061.54 985.469 2070.61 1026.9C1904.16 1080.39 1812.92 1118.93 1775.34 1136.08C1761.8 1142.25 1751.22 1153.89 1748.43 1169.19C1744.97 1188.12 1742.92 1216.97 1751.84 1249.36C1760.96 1282.49 1778.26 1306.25 1791.2 1320.38C1801.14 1331.24 1815.37 1335.25 1829.48 1333.33C1869.67 1327.87 1967.24 1311.21 2136.74 1262.86C2150.38 1302.55 2163.56 1337.05 2174.95 1365.17C2191.78 1406.72 2241 1414.39 2266.74 1378.8C2311.17 1317.36 2374.4 1217.6 2425.6 1088.74Z" fill="#F0EAD4"/>
</g>
<defs>
<filter id="filter0_diii_65_34" x="-28.3209" y="-28.9669" width="2641.22" height="1490.8" filterUnits="userSpaceOnUse" color-interpolation-filters="sRGB">
<feFlood flood-opacity="0" result="BackgroundImageFix"/>
<feColorMatrix in="SourceAlpha" type="matrix" values="0 0 0 0 0 0 0 0 0 0 0 0 0 0 0 0 0 0 127 0" result="hardAlpha"/>
<feOffset dx="38.6219" dy="38.6219"/>
<feGaussianBlur stdDeviation="24.1387"/>
<feComposite in2="hardAlpha" operator="out"/>
<feColorMatrix type="matrix" values="0 0 0 0 0 0 0 0 0 0 0 0 0 0 0 0 0 0 0.25 0"/>
<feBlend mode="normal" in2="BackgroundImageFix" result="effect1_dropShadow_65_34"/>
<feBlend mode="normal" in="SourceGraphic" in2="effect1_dropShadow_65_34" result="shape"/>
<feColorMatrix in="SourceAlpha" type="matrix" values="0 0 0 0 0 0 0 0 0 0 0 0 0 0 0 0 0 0 127 0" result="hardAlpha"/>
<feOffset dx="-28.9664" dy="-28.9664"/>
<feGaussianBlur stdDeviation="63.7262"/>
<feComposite in2="hardAlpha" operator="arithmetic" k2="-1" k3="1"/>
<feColorMatrix type="matrix" values="0 0 0 0 0 0 0 0 0 0 0 0 0 0 0 0 0 0 0.24 0"/>
<feBlend mode="normal" in2="shape" result="effect2_innerShadow_65_34"/>
<feColorMatrix in="SourceAlpha" type="matrix" values="0 0 0 0 0 0 0 0 0 0 0 0 0 0 0 0 0 0 127 0" result="hardAlpha"/>
<feOffset dx="28.9664" dy="28.9664"/>
<feGaussianBlur stdDeviation="15.9315"/>
<feComposite in2="hardAlpha" operator="arithmetic" k2="-1" k3="1"/>
<feColorMatrix type="matrix" values="0 0 0 0 1 0 0 0 0 1 0 0 0 0 1 0 0 0 0.5 0"/>
<feBlend mode="normal" in2="effect2_innerShadow_65_34" result="effect3_innerShadow_65_34"/>
<feColorMatrix in="SourceAlpha" type="matrix" values="0 0 0 0 0 0 0 0 0 0 0 0 0 0 0 0 0 0 127 0" result="hardAlpha"/>
<feOffset dx="48.2774" dy="48.2774"/>
<feGaussianBlur stdDeviation="82.0716"/>
<feComposite in2="hardAlpha" operator="arithmetic" k2="-1" k3="1"/>
<feColorMatrix type="matrix" values="0 0 0 0 1 0 0 0 0 1 0 0 0 0 1 0 0 0 0.15 0"/>
<feBlend mode="normal" in2="effect3_innerShadow_65_34" result="effect4_innerShadow_65_34"/>
</filter>
<filter id="filter1_diii_65_34" x="1716.51" y="823.213" width="800.523" height="665.148" filterUnits="userSpaceOnUse" color-interpolation-filters="sRGB">
<feFlood flood-opacity="0" result="BackgroundImageFix"/>
<feColorMatrix in="SourceAlpha" type="matrix" values="0 0 0 0 0 0 0 0 0 0 0 0 0 0 0 0 0 0 127 0" result="hardAlpha"/>
<feOffset dx="38.6219" dy="38.6219"/>
<feGaussianBlur stdDeviation="24.1387"/>
<feComposite in2="hardAlpha" operator="out"/>
<feColorMatrix type="matrix" values="0 0 0 0 0 0 0 0 0 0 0 0 0 0 0 0 0 0 0.25 0"/>
<feBlend mode="normal" in2="BackgroundImageFix" result="effect1_dropShadow_65_34"/>
<feBlend mode="normal" in="SourceGraphic" in2="effect1_dropShadow_65_34" result="shape"/>
<feColorMatrix in="SourceAlpha" type="matrix" values="0 0 0 0 0 0 0 0 0 0 0 0 0 0 0 0 0 0 127 0" result="hardAlpha"/>
<feOffset dx="-28.9664" dy="-28.9664"/>
<feGaussianBlur stdDeviation="63.7262"/>
<feComposite in2="hardAlpha" operator="arithmetic" k2="-1" k3="1"/>
<feColorMatrix type="matrix" values="0 0 0 0 0 0 0 0 0 0 0 0 0 0 0 0 0 0 0.24 0"/>
<feBlend mode="normal" in2="shape" result="effect2_innerShadow_65_34"/>
<feColorMatrix in="SourceAlpha" type="matrix" values="0 0 0 0 0 0 0 0 0 0 0 0 0 0 0 0 0 0 127 0" result="hardAlpha"/>
<feOffset dx="28.9664" dy="28.9664"/>
<feGaussianBlur stdDeviation="15.9315"/>
<feComposite in2="hardAlpha" operator="arithmetic" k2="-1" k3="1"/>
<feColorMatrix type="matrix" values="0 0 0 0 1 0 0 0 0 1 0 0 0 0 1 0 0 0 0.5 0"/>
<feBlend mode="normal" in2="effect2_innerShadow_65_34" result="effect3_innerShadow_65_34"/>
<feColorMatrix in="SourceAlpha" type="matrix" values="0 0 0 0 0 0 0 0 0 0 0 0 0 0 0 0 0 0 127 0" result="hardAlpha"/>
<feOffset dx="48.2774" dy="48.2774"/>
<feGaussianBlur stdDeviation="82.0716"/>
<feComposite in2="hardAlpha" operator="arithmetic" k2="-1" k3="1"/>
<feColorMatrix type="matrix" values="0 0 0 0 1 0 0 0 0 1 0 0 0 0 1 0 0 0 0.15 0"/>
<feBlend mode="normal" in2="effect3_innerShadow_65_34" result="effect4_innerShadow_65_34"/>
</filter>
<linearGradient id="paint0_linear_65_34" x1="2526.16" y1="1410.91" x2="0.475869" y2="1420.3" gradientUnits="userSpaceOnUse">
<stop stop-color="#E63C36"/>
<stop offset="0.5" stop-color="#E3B318"/>
<stop offset="1" stop-color="#318F30"/>
</linearGradient>
<linearGradient id="paint1_linear_65_34" x1="2526.16" y1="1410.91" x2="0.478799" y2="1420.3" gradientUnits="userSpaceOnUse">
<stop stop-color="#E63C36"/>
<stop offset="0.5" stop-color="#E3B318"/>
<stop offset="1" stop-color="#318F30"/>
</linearGradient>
</defs>
</svg>
