<svg width="2526" height="1561" viewBox="0 0 2526 1561" fill="none" xmlns="http://www.w3.org/2000/svg">
<mask id="mask0_65_34" style="mask-type:alpha" maskUnits="userSpaceOnUse" x="8" y="-1" width="2510" height="1376">
<path d="M9.66936 1236.77C1.38065 1312.49 63.0583 1374.94 139.227 1374.94H292.63C366.453 1374.94 426.566 1316.03 437.86 1243.07C481.206 963.091 655.102 479.629 1263.32 479.629C1871.54 479.629 2045.44 963.091 2088.78 1243.07C2100.08 1316.03 2160.19 1374.94 2234.01 1374.94H2387.42C2463.58 1374.94 2525.26 1312.49 2516.97 1236.77C2498.43 1067.34 2447.06 834.108 2321.99 611.868C2130.11 270.905 1786.92 -0.000488281 1263.32 -0.000488281C739.725 -0.000488281 396.537 270.905 204.654 611.868C79.5843 834.108 28.2177 1067.34 9.66936 1236.77Z" fill="#F0EAD4"/>
<path d="M9.66936 1236.77C1.38065 1312.49 63.0583 1374.94 139.227 1374.94H292.63C366.453 1374.94 426.566 1316.03 437.86 1243.07C481.206 963.091 655.102 479.629 1263.32 479.629C1871.54 479.629 2045.44 963.091 2088.78 1243.07C2100.08 1316.03 2160.19 1374.94 2234.01 1374.94H2387.42C2463.58 1374.94 2525.26 1312.49 2516.97 1236.77C2498.43 1067.34 2447.06 834.108 2321.99 611.868C2130.11 270.905 1786.92 -0.000488281 1263.32 -0.000488281C739.725 -0.000488281 396.537 270.905 204.654 611.868C79.5843 834.108 28.2177 1067.34 9.66936 1236.77Z" fill="url(#paint0_linear_65_34)"/>
</mask>
<g mask="url(#mask0_65_34)">
<g filter="url(#filter0_diii_65_34)">
<path d="M0.645508 1374.94H425.237C431.142 1162.16 540.652 479.629 1263.32 479.629C1986 479.629 2095.51 1162.16 2101.41 1374.94H2526C2523.38 1214.55 2486.24 903.732 2321.99 611.868C2130.11 270.905 1786.92 -0.000488281 1263.32 -0.000488281C739.728 -0.000488281 396.54 270.905 204.657 611.868C40.4045 903.732 3.26944 1214.55 0.645508 1374.94Z" fill="#F0EAD4"/>
<path d="M0.645508 1374.94H425.237C431.142 1162.16 540.652 479.629 1263.32 479.629C1986 479.629 2095.51 1162.16 2101.41 1374.94H2526C2523.38 1214.55 2486.24 903.732 2321.99 611.868C2130.11 270.905 1786.92 -0.000488281 1263.32 -0.000488281C739.728 -0.000488281 396.54 270.905 204.657 611.868C40.4045 903.732 3.26944 1214.55 0.645508 1374.94Z" fill="url(#paint1_linear_65_34)"/>
</g>
</g>
<g filter="url(#filter1_diii_65_34)">
<path d="M76.0438 1093.74C65.3465 1066.82 74.0819 1035.59 97.0212 1018.74C206.893 938.058 311.9 888.607 381.217 861.175C421.369 845.282 459.047 878.996 451.794 923.446C446.853 953.73 440.109 990.468 431.042 1031.9C597.485 1085.38 688.725 1123.93 726.309 1141.08C739.85 1147.25 750.425 1158.89 753.219 1174.19C756.676 1193.12 758.728 1221.97 749.807 1254.36C740.686 1287.49 723.392 1311.25 710.452 1325.38C700.506 1336.24 686.276 1340.25 672.17 1338.33C631.983 1332.87 534.408 1316.21 364.913 1267.85C351.264 1307.55 338.085 1342.04 326.693 1370.17C309.866 1411.72 260.645 1419.39 234.907 1383.8C190.482 1322.35 127.249 1222.6 76.0438 1093.74Z" fill="#F0EAD4"/>
</g>
<defs>
<filter id="filter0_diii_65_34" x="-28.3209" y="-28.9669" width="2641.22" height="1490.8" filterUnits="userSpaceOnUse" color-interpolation-filters="sRGB">
<feFlood flood-opacity="0" result="BackgroundImageFix"/>
<feColorMatrix in="SourceAlpha" type="matrix" values="0 0 0 0 0 0 0 0 0 0 0 0 0 0 0 0 0 0 127 0" result="hardAlpha"/>
<feOffset dx="38.6219" dy="38.6219"/>
<feGaussianBlur stdDeviation="24.1387"/>
<feComposite in2="hardAlpha" operator="out"/>
<feColorMatrix type="matrix" values="0 0 0 0 0 0 0 0 0 0 0 0 0 0 0 0 0 0 0.25 0"/>
<feBlend mode="normal" in2="BackgroundImageFix" result="effect1_dropShadow_65_34"/>
<feBlend mode="normal" in="SourceGraphic" in2="effect1_dropShadow_65_34" result="shape"/>
<feColorMatrix in="SourceAlpha" type="matrix" values="0 0 0 0 0 0 0 0 0 0 0 0 0 0 0 0 0 0 127 0" result="hardAlpha"/>
<feOffset dx="-28.9664" dy="-28.9664"/>
<feGaussianBlur stdDeviation="63.7262"/>
<feComposite in2="hardAlpha" operator="arithmetic" k2="-1" k3="1"/>
<feColorMatrix type="matrix" values="0 0 0 0 0 0 0 0 0 0 0 0 0 0 0 0 0 0 0.24 0"/>
<feBlend mode="normal" in2="shape" result="effect2_innerShadow_65_34"/>
<feColorMatrix in="SourceAlpha" type="matrix" values="0 0 0 0 0 0 0 0 0 0 0 0 0 0 0 0 0 0 127 0" result="hardAlpha"/>
<feOffset dx="28.9664" dy="28.9664"/>
<feGaussianBlur stdDeviation="15.9315"/>
<feComposite in2="hardAlpha" operator="arithmetic" k2="-1" k3="1"/>
<feColorMatrix type="matrix" values="0 0 0 0 1 0 0 0 0 1 0 0 0 0 1 0 0 0 0.5 0"/>
<feBlend mode="normal" in2="effect2_innerShadow_65_34" result="effect3_innerShadow_65_34"/>
<feColorMatrix in="SourceAlpha" type="matrix" values="0 0 0 0 0 0 0 0 0 0 0 0 0 0 0 0 0 0 127 0" result="hardAlpha"/>
<feOffset dx="48.2774" dy="48.2774"/>
<feGaussianBlur stdDeviation="82.0716"/>
<feComposite in2="hardAlpha" operator="arithmetic" k2="-1" k3="1"/>
<feColorMatrix type="matrix" values="0 0 0 0 1 0 0 0 0 1 0 0 0 0 1 0 0 0 0.15 0"/>
<feBlend mode="normal" in2="effect3_innerShadow_65_34" result="effect4_innerShadow_65_34"/>
</filter>
<filter id="filter1_diii_65_34" x="42.5453" y="828.212" width="800.523" height="665.148" filterUnits="userSpaceOnUse" color-interpolation-filters="sRGB">
<feFlood flood-opacity="0" result="BackgroundImageFix"/>
<feColorMatrix in="SourceAlpha" type="matrix" values="0 0 0 0 0 0 0 0 0 0 0 0 0 0 0 0 0 0 127 0" result="hardAlpha"/>
<feOffset dx="38.6219" dy="38.6219"/>
<feGaussianBlur stdDeviation="24.1387"/>
<feComposite in2="hardAlpha" operator="out"/>
<feColorMatrix type="matrix" values="0 0 0 0 0 0 0 0 0 0 0 0 0 0 0 0 0 0 0.25 0"/>
<feBlend mode="normal" in2="BackgroundImageFix" result="effect1_dropShadow_65_34"/>
<feBlend mode="normal" in="SourceGraphic" in2="effect1_dropShadow_65_34" result="shape"/>
<feColorMatrix in="SourceAlpha" type="matrix" values="0 0 0 0 0 0 0 0 0 0 0 0 0 0 0 0 0 0 127 0" result="hardAlpha"/>
<feOffset dx="-28.9664" dy="-28.9664"/>
<feGaussianBlur stdDeviation="63.7262"/>
<feComposite in2="hardAlpha" operator="arithmetic" k2="-1" k3="1"/>
<feColorMatrix type="matrix" values="0 0 0 0 0 0 0 0 0 0 0 0 0 0 0 0 0 0 0.24 0"/>
<feBlend mode="normal" in2="shape" result="effect2_innerShadow_65_34"/>
<feColorMatrix in="SourceAlpha" type="matrix" values="0 0 0 0 0 0 0 0 0 0 0 0 0 0 0 0 0 0 127 0" result="hardAlpha"/>
<feOffset dx="28.9664" dy="28.9664"/>
<feGaussianBlur stdDeviation="15.9315"/>
<feComposite in2="hardAlpha" operator="arithmetic" k2="-1" k3="1"/>
<feColorMatrix type="matrix" values="0 0 0 0 1 0 0 0 0 1 0 0 0 0 1 0 0 0 0.5 0"/>
<feBlend mode="normal" in2="effect2_innerShadow_65_34" result="effect3_innerShadow_65_34"/>
<feColorMatrix in="SourceAlpha" type="matrix" values="0 0 0 0 0 0 0 0 0 0 0 0 0 0 0 0 0 0 127 0" result="hardAlpha"/>
<feOffset dx="48.2774" dy="48.2774"/>
<feGaussianBlur stdDeviation="82.0716"/>
<feComposite in2="hardAlpha" operator="arithmetic" k2="-1" k3="1"/>
<feColorMatrix type="matrix" values="0 0 0 0 1 0 0 0 0 1 0 0 0 0 1 0 0 0 0.15 0"/>
<feBlend mode="normal" in2="effect3_innerShadow_65_34" result="effect4_innerShadow_65_34"/>
</filter>
<linearGradient id="paint0_linear_65_34" x1="2526.16" y1="1410.91" x2="0.475869" y2="1420.3" gradientUnits="userSpaceOnUse">
<stop stop-color="#E63C36"/>
<stop offset="0.5" stop-color="#E3B318"/>
<stop offset="1" stop-color="#318F30"/>
</linearGradient>
<linearGradient id="paint1_linear_65_34" x1="2526.16" y1="1410.91" x2="0.478799" y2="1420.3" gradientUnits="userSpaceOnUse">
<stop stop-color="#E63C36"/>
<stop offset="0.5" stop-color="#E3B318"/>
<stop offset="1" stop-color="#318F30"/>
</linearGradient>
</defs>
</svg>
