<svg width="1785" height="1499" viewBox="0 0 1785 1499" fill="none" xmlns="http://www.w3.org/2000/svg">
<g filter="url(#filter0_diii_120_214)">
<path d="M4 790.73C85.9786 763.204 165.686 887.82 139.305 941.771C208.818 892.923 344.893 958.668 290.191 1027.51C347.352 958.576 621.831 962.175 525.32 1117.51C661.789 1032.9 751.359 1210.68 686.89 1339.84C726.463 1252.92 949.636 1275.54 991.723 1332.78C957.499 1193.03 1146.73 1143.44 1195.65 1190.76C1165.6 1122.6 1165.41 1028.94 1373.7 1033.24C1344.25 907.039 1535.08 859.002 1613.33 907.893C1589.98 821.595 1675.85 755.109 1755 785.084C1755 845.027 1755 1394.19 1755 1394.19H4V790.73Z" fill="#365A7C"/>
</g>
<g filter="url(#filter1_diii_120_214)">
<path d="M1755 1049.33C1662.67 1046.05 1599.51 1085.37 1625.9 1144.35C1537.96 1091.92 1511.57 1177.12 1511.57 1216.44C1454.41 1141.07 1206.62 1190.21 1222.54 1327.14C1165.13 1274.14 1083.18 1312.99 1048.87 1404.61C1013.59 1340.94 758.102 1333.18 705.554 1401.51C730.665 1334.9 626.139 1264.78 595.36 1307.37C626.139 1199.24 359.564 1105.03 201.271 1213.16C240.843 1121.42 83.1454 1042.78 4 1075.54C4 1141.07 4 1469 4 1469H1755V1049.33Z" fill="#88D6F8"/>
</g>
<g filter="url(#filter2_diii_120_214)">
<path d="M1244.94 1203.88C1247.34 1203.63 1249.52 1201.92 1249.73 1199.63C1249.9 1197.86 1251.23 1190.02 1251.23 1190.02C1251.23 1190.02 1252.38 1197.88 1252.74 1199.63C1253.27 1202.24 1255.01 1203.57 1257.52 1203.87C1259.51 1204.12 1268.36 1205.21 1268.36 1205.21C1268.36 1205.21 1259.51 1206.31 1257.52 1206.54C1254.34 1206.92 1253.05 1208.72 1252.75 1210.79C1252.48 1212.55 1251.23 1220.4 1251.23 1220.4C1251.23 1220.4 1249.93 1212.56 1249.72 1210.79C1249.45 1208.41 1247.48 1206.79 1244.94 1206.54C1242.94 1206.35 1234.11 1205.21 1234.11 1205.21C1234.11 1205.21 1242.95 1204.08 1244.94 1203.88Z" fill="white"/>
<path d="M799.263 17.862C801.664 17.6149 803.845 15.9069 804.052 13.6201C804.219 11.8415 805.556 4.00021 805.556 4.00021C805.556 4.00021 806.702 11.8627 807.06 13.6201C807.593 16.2175 809.337 17.5514 811.844 17.8549C813.833 18.102 822.684 19.1959 822.684 19.1959C822.684 19.1959 813.833 20.297 811.844 20.5299C808.66 20.904 807.371 22.7108 807.068 24.7717C806.798 26.5362 805.556 34.3848 805.556 34.3848C805.556 34.3848 804.251 26.5433 804.044 24.7717C803.773 22.3932 801.807 20.7769 799.263 20.5299C797.265 20.3323 788.425 19.1959 788.425 19.1959C788.425 19.1959 797.267 18.0666 799.263 17.862Z" fill="white"/>
<path d="M1630.03 667.534C1633.68 667.16 1636.98 664.569 1637.29 661.097C1637.54 658.401 1639.57 646.522 1639.57 646.522C1639.57 646.522 1641.31 658.436 1641.85 661.097C1642.65 665.049 1645.31 667.068 1649.11 667.534C1652.13 667.894 1665.54 669.559 1665.54 669.559C1665.54 669.552 1652.13 671.232 1649.11 671.585C1644.28 672.15 1642.33 674.888 1641.86 678.015C1641.45 680.697 1639.57 692.59 1639.57 692.59C1639.57 692.59 1637.59 680.711 1637.28 678.015C1636.86 674.408 1633.89 671.959 1630.03 671.578C1627 671.282 1613.59 669.552 1613.59 669.559C1613.59 669.559 1627 667.844 1630.03 667.534Z" fill="white"/>
<path d="M271.463 900.835C270.178 877.226 304.694 852.015 332.898 874.565C330.631 865.256 343.901 854.429 352.032 865.256C336.624 797.485 425.611 780.334 442.115 854.309C449.442 833.933 472.703 838.725 469.587 854.309C476.241 834.497 542.83 831.547 536.975 880.565C550.318 865.94 648.506 884.249 646.263 900.835C526.672 900.835 271.463 900.835 271.463 900.835Z" fill="#88D6F8"/>
<path d="M1546.33 847.194C1548.03 823.444 1502.14 798.092 1464.64 820.769C1467.65 811.41 1450.01 800.513 1439.19 811.41C1459.68 743.237 1341.36 725.981 1319.41 800.4C1309.67 779.896 1278.74 784.717 1282.89 800.4C1274.03 780.461 1185.49 777.497 1193.27 826.804C1175.53 812.095 1098.96 830.509 1101.94 847.194C1260.97 847.194 1546.33 847.194 1546.33 847.194Z" fill="#88D6F8"/>
</g>
<g filter="url(#filter3_diii_120_214)">
<path fill-rule="evenodd" clip-rule="evenodd" d="M545.449 1030.21C554.854 1033.55 566.799 1035.14 580.556 1035.14C660.008 1035.14 799.781 981.945 858.288 904.428C895.051 951.589 1019.44 1015.5 1107.72 1015.49C1127.05 1015.49 1144.66 1012.42 1159.23 1005.44C1183.31 993.902 1230.3 832.994 1187.49 727.28C1223.47 704.708 1362.6 536.849 1336 498.298C1307.63 457.186 1152.14 423.667 1023.26 423.498C1008.51 395.167 926.028 282.134 855.829 230.526C854.428 231.168 852.844 231.528 851.157 231.528C845.514 231.528 840.937 227.47 840.937 222.466C840.937 221.816 841.017 221.181 841.168 220.567C825.043 210.566 809.913 204.595 796.868 204.595C796.048 204.595 795.22 204.616 794.416 204.666C727.789 208.639 606.695 440.698 606.695 440.698C506.166 451.723 348.089 508.843 324.728 553.548C301.578 597.844 475.664 767.948 475.664 767.948C475.664 767.948 480.231 990.104 545.449 1030.21Z" fill="#2F6496"/>
</g>
<g filter="url(#filter4_iii_120_214)">
<path d="M683.773 525.836C683.773 525.836 748.783 320.4 798.619 317.429C851.993 314.238 939.623 472.746 954.219 500.773C1050.62 500.9 1182.51 506.314 1203.73 537.065C1223.63 565.897 1105.94 681.577 1079.02 698.46C1111.05 777.537 1107.52 906.183 1071.5 916.41C1005.86 935.05 858.885 815.403 837.165 795.973C785.822 863.997 660.061 951.862 612.391 934.937C556.705 921.414 602.503 724.497 602.503 724.497C602.503 724.497 429.973 611.527 447.29 578.39C464.763 544.956 612.774 516.668 683.773 525.836Z" fill="#E3B318"/>
<path d="M1203.31 1175.66C1203.31 1175.66 1211.32 1167.87 1213.6 1168.72C1216.03 1169.63 1215.93 1178.35 1215.88 1179.88C1220.13 1181.78 1225.81 1184.61 1225.98 1186.39C1226.14 1188.06 1218.04 1190.84 1216.43 1191.06C1215.87 1195.18 1212.49 1200.78 1210.64 1200.53C1207.28 1200.06 1203.79 1191.88 1203.32 1190.6C1199.35 1192.59 1191.59 1193.99 1189.91 1192.31C1187.8 1190.61 1194.75 1182.83 1194.75 1182.83C1194.75 1182.83 1189.96 1174.44 1191.55 1173.32C1193.17 1172.19 1200.4 1173.86 1203.31 1175.66Z" fill="#E3B318"/>
<path d="M86.2907 666.72C86.2907 666.72 96.9988 656.316 100.038 657.453C103.291 658.667 103.157 670.319 103.08 672.359C108.761 674.9 116.358 678.69 116.581 681.062C116.789 683.285 105.978 687.011 103.826 687.301C103.069 692.806 98.5564 700.302 96.0907 699.956C91.5954 699.328 86.9306 688.402 86.2994 686.687C80.9955 689.348 70.6391 691.218 68.3934 688.966C65.5618 686.708 74.8511 676.297 74.8511 676.297C74.8511 676.297 68.4556 665.096 70.5858 663.6C72.7347 662.083 82.4106 664.313 86.2907 666.72Z" fill="#E3B318"/>
<path d="M1580.21 682.953C1580.21 682.953 1590.92 672.549 1593.96 673.686C1597.21 674.9 1597.08 686.552 1597 688.592C1602.68 691.133 1610.28 694.923 1610.5 697.295C1610.71 699.518 1599.9 703.245 1597.74 703.534C1596.99 709.039 1592.48 716.535 1590.01 716.189C1585.51 715.561 1580.85 704.635 1580.22 702.92C1574.92 705.581 1564.55 707.451 1562.31 705.2C1559.48 702.941 1568.77 692.531 1568.77 692.531C1568.77 692.531 1562.37 681.33 1564.51 679.833C1566.66 678.316 1576.33 680.546 1580.21 682.953Z" fill="#E3B318"/>
<path d="M397.542 1127.87C397.542 1127.87 386.755 1110 389.953 1106.88C393.377 1103.54 411.149 1109.3 414.23 1110.38C420.851 1104.76 430.297 1097.43 434.035 1098.3C437.539 1099.12 438.052 1113.92 437.459 1116.65C445.523 1120.2 454.828 1129.24 453.117 1132.04C449.998 1137.15 431.039 1137.51 428.108 1137.45C429.634 1145.11 427.53 1158.48 423.005 1160.1C418.183 1162.42 406.71 1146.25 406.71 1146.25C406.71 1146.25 386.495 1148.56 385.223 1145.28C383.94 1141.97 391.993 1131.39 397.542 1127.87Z" fill="#E3B318"/>
<path d="M242.312 304.696C242.312 304.696 267.284 279.908 274.485 282.527C282.197 285.322 282.203 312.819 282.078 317.626C295.552 323.505 313.581 332.278 314.173 337.868C314.727 343.112 289.323 352.139 284.254 352.866C282.621 365.874 272.184 383.653 266.356 382.898C255.733 381.515 244.423 355.845 242.887 351.801C230.448 358.202 206.065 362.846 200.705 357.581C193.962 352.302 215.589 327.542 215.589 327.542C215.589 327.542 200.188 301.252 205.171 297.673C210.201 294.059 233.089 299.099 242.312 304.696Z" fill="#E3B318"/>
<path d="M1347.51 306.509C1347.51 306.509 1340.71 284.82 1345.02 282.131C1349.65 279.259 1367.33 289.309 1370.38 291.13C1379.09 286.465 1391.32 280.557 1395.13 282.301C1398.7 283.938 1395.22 300.087 1393.83 302.917C1401.6 308.5 1409.22 320.287 1406.6 322.954C1401.82 327.817 1381.18 324.147 1378.02 323.448C1377.58 332.08 1371.65 346.112 1366.3 346.895C1360.45 348.377 1352.43 328.382 1352.43 328.382C1352.43 328.382 1329.89 326.554 1329.41 322.729C1328.93 318.861 1340.54 309.128 1347.51 306.509Z" fill="#E3B318"/>
</g>
<g filter="url(#filter5_iii_120_214)">
<path d="M4 1426.73C214.59 1336.44 528.664 1279.14 879.5 1279.14C1230.34 1279.14 1544.41 1336.44 1755 1426.73V1469H4V1426.73Z" fill="#318F30"/>
<path d="M343.973 1364.54C237.826 1396.53 179.929 1422.45 310.199 1424.43C401.917 1425.83 543.84 1445.61 563.403 1469H4V1437.92C109.772 1396.78 241.661 1363.19 391.193 1339.95C400.563 1343.33 388.442 1351.13 343.973 1364.54Z" fill="#378636"/>
<path d="M1260.68 1413.33C1362.3 1414.1 1411.5 1396.58 1275.4 1372.85C1172.09 1354.84 1109.83 1329.07 1096.81 1310.83C1358.72 1327.4 1589 1373.37 1755 1437.92V1469H1298.09C1161.5 1439.95 1183.11 1412.75 1260.68 1413.33Z" fill="#378636"/>
</g>
<defs>
<filter id="filter0_diii_120_214" x="-5.83568" y="767.944" width="1790.34" height="655.749" filterUnits="userSpaceOnUse" color-interpolation-filters="sRGB">
<feFlood flood-opacity="0" result="BackgroundImageFix"/>
<feColorMatrix in="SourceAlpha" type="matrix" values="0 0 0 0 0 0 0 0 0 0 0 0 0 0 0 0 0 0 127 0" result="hardAlpha"/>
<feOffset dx="13.1142" dy="13.1142"/>
<feGaussianBlur stdDeviation="8.1964"/>
<feComposite in2="hardAlpha" operator="out"/>
<feColorMatrix type="matrix" values="0 0 0 0 0 0 0 0 0 0 0 0 0 0 0 0 0 0 0.25 0"/>
<feBlend mode="normal" in2="BackgroundImageFix" result="effect1_dropShadow_120_214"/>
<feBlend mode="normal" in="SourceGraphic" in2="effect1_dropShadow_120_214" result="shape"/>
<feColorMatrix in="SourceAlpha" type="matrix" values="0 0 0 0 0 0 0 0 0 0 0 0 0 0 0 0 0 0 127 0" result="hardAlpha"/>
<feOffset dx="-9.83568" dy="-9.83568"/>
<feGaussianBlur stdDeviation="21.6385"/>
<feComposite in2="hardAlpha" operator="arithmetic" k2="-1" k3="1"/>
<feColorMatrix type="matrix" values="0 0 0 0 0 0 0 0 0 0 0 0 0 0 0 0 0 0 0.24 0"/>
<feBlend mode="normal" in2="shape" result="effect2_innerShadow_120_214"/>
<feColorMatrix in="SourceAlpha" type="matrix" values="0 0 0 0 0 0 0 0 0 0 0 0 0 0 0 0 0 0 127 0" result="hardAlpha"/>
<feOffset dx="9.83568" dy="9.83568"/>
<feGaussianBlur stdDeviation="5.40963"/>
<feComposite in2="hardAlpha" operator="arithmetic" k2="-1" k3="1"/>
<feColorMatrix type="matrix" values="0 0 0 0 1 0 0 0 0 1 0 0 0 0 1 0 0 0 0.5 0"/>
<feBlend mode="normal" in2="effect2_innerShadow_120_214" result="effect3_innerShadow_120_214"/>
<feColorMatrix in="SourceAlpha" type="matrix" values="0 0 0 0 0 0 0 0 0 0 0 0 0 0 0 0 0 0 127 0" result="hardAlpha"/>
<feOffset dx="16.3928" dy="16.3928"/>
<feGaussianBlur stdDeviation="27.8678"/>
<feComposite in2="hardAlpha" operator="arithmetic" k2="-1" k3="1"/>
<feColorMatrix type="matrix" values="0 0 0 0 1 0 0 0 0 1 0 0 0 0 1 0 0 0 0.15 0"/>
<feBlend mode="normal" in2="effect3_innerShadow_120_214" result="effect4_innerShadow_120_214"/>
</filter>
<filter id="filter1_diii_120_214" x="-5.83568" y="1039.3" width="1790.34" height="459.207" filterUnits="userSpaceOnUse" color-interpolation-filters="sRGB">
<feFlood flood-opacity="0" result="BackgroundImageFix"/>
<feColorMatrix in="SourceAlpha" type="matrix" values="0 0 0 0 0 0 0 0 0 0 0 0 0 0 0 0 0 0 127 0" result="hardAlpha"/>
<feOffset dx="13.1142" dy="13.1142"/>
<feGaussianBlur stdDeviation="8.1964"/>
<feComposite in2="hardAlpha" operator="out"/>
<feColorMatrix type="matrix" values="0 0 0 0 0 0 0 0 0 0 0 0 0 0 0 0 0 0 0.25 0"/>
<feBlend mode="normal" in2="BackgroundImageFix" result="effect1_dropShadow_120_214"/>
<feBlend mode="normal" in="SourceGraphic" in2="effect1_dropShadow_120_214" result="shape"/>
<feColorMatrix in="SourceAlpha" type="matrix" values="0 0 0 0 0 0 0 0 0 0 0 0 0 0 0 0 0 0 127 0" result="hardAlpha"/>
<feOffset dx="-9.83568" dy="-9.83568"/>
<feGaussianBlur stdDeviation="21.6385"/>
<feComposite in2="hardAlpha" operator="arithmetic" k2="-1" k3="1"/>
<feColorMatrix type="matrix" values="0 0 0 0 0 0 0 0 0 0 0 0 0 0 0 0 0 0 0.24 0"/>
<feBlend mode="normal" in2="shape" result="effect2_innerShadow_120_214"/>
<feColorMatrix in="SourceAlpha" type="matrix" values="0 0 0 0 0 0 0 0 0 0 0 0 0 0 0 0 0 0 127 0" result="hardAlpha"/>
<feOffset dx="9.83568" dy="9.83568"/>
<feGaussianBlur stdDeviation="5.40963"/>
<feComposite in2="hardAlpha" operator="arithmetic" k2="-1" k3="1"/>
<feColorMatrix type="matrix" values="0 0 0 0 1 0 0 0 0 1 0 0 0 0 1 0 0 0 0.5 0"/>
<feBlend mode="normal" in2="effect2_innerShadow_120_214" result="effect3_innerShadow_120_214"/>
<feColorMatrix in="SourceAlpha" type="matrix" values="0 0 0 0 0 0 0 0 0 0 0 0 0 0 0 0 0 0 127 0" result="hardAlpha"/>
<feOffset dx="16.3928" dy="16.3928"/>
<feGaussianBlur stdDeviation="27.8678"/>
<feComposite in2="hardAlpha" operator="arithmetic" k2="-1" k3="1"/>
<feColorMatrix type="matrix" values="0 0 0 0 1 0 0 0 0 1 0 0 0 0 1 0 0 0 0.15 0"/>
<feBlend mode="normal" in2="effect3_innerShadow_120_214" result="effect4_innerShadow_120_214"/>
</filter>
<filter id="filter2_diii_120_214" x="261.592" y="-5.83544" width="1433.46" height="1255.74" filterUnits="userSpaceOnUse" color-interpolation-filters="sRGB">
<feFlood flood-opacity="0" result="BackgroundImageFix"/>
<feColorMatrix in="SourceAlpha" type="matrix" values="0 0 0 0 0 0 0 0 0 0 0 0 0 0 0 0 0 0 127 0" result="hardAlpha"/>
<feOffset dx="13.1142" dy="13.1142"/>
<feGaussianBlur stdDeviation="8.1964"/>
<feComposite in2="hardAlpha" operator="out"/>
<feColorMatrix type="matrix" values="0 0 0 0 0 0 0 0 0 0 0 0 0 0 0 0 0 0 0.25 0"/>
<feBlend mode="normal" in2="BackgroundImageFix" result="effect1_dropShadow_120_214"/>
<feBlend mode="normal" in="SourceGraphic" in2="effect1_dropShadow_120_214" result="shape"/>
<feColorMatrix in="SourceAlpha" type="matrix" values="0 0 0 0 0 0 0 0 0 0 0 0 0 0 0 0 0 0 127 0" result="hardAlpha"/>
<feOffset dx="-9.83568" dy="-9.83568"/>
<feGaussianBlur stdDeviation="21.6385"/>
<feComposite in2="hardAlpha" operator="arithmetic" k2="-1" k3="1"/>
<feColorMatrix type="matrix" values="0 0 0 0 0 0 0 0 0 0 0 0 0 0 0 0 0 0 0.24 0"/>
<feBlend mode="normal" in2="shape" result="effect2_innerShadow_120_214"/>
<feColorMatrix in="SourceAlpha" type="matrix" values="0 0 0 0 0 0 0 0 0 0 0 0 0 0 0 0 0 0 127 0" result="hardAlpha"/>
<feOffset dx="9.83568" dy="9.83568"/>
<feGaussianBlur stdDeviation="5.40963"/>
<feComposite in2="hardAlpha" operator="arithmetic" k2="-1" k3="1"/>
<feColorMatrix type="matrix" values="0 0 0 0 1 0 0 0 0 1 0 0 0 0 1 0 0 0 0.5 0"/>
<feBlend mode="normal" in2="effect2_innerShadow_120_214" result="effect3_innerShadow_120_214"/>
<feColorMatrix in="SourceAlpha" type="matrix" values="0 0 0 0 0 0 0 0 0 0 0 0 0 0 0 0 0 0 127 0" result="hardAlpha"/>
<feOffset dx="16.3928" dy="16.3928"/>
<feGaussianBlur stdDeviation="27.8678"/>
<feComposite in2="hardAlpha" operator="arithmetic" k2="-1" k3="1"/>
<feColorMatrix type="matrix" values="0 0 0 0 1 0 0 0 0 1 0 0 0 0 1 0 0 0 0.15 0"/>
<feBlend mode="normal" in2="effect3_innerShadow_120_214" result="effect4_innerShadow_120_214"/>
</filter>
<filter id="filter3_diii_120_214" x="312.773" y="194.759" width="1056.09" height="869.889" filterUnits="userSpaceOnUse" color-interpolation-filters="sRGB">
<feFlood flood-opacity="0" result="BackgroundImageFix"/>
<feColorMatrix in="SourceAlpha" type="matrix" values="0 0 0 0 0 0 0 0 0 0 0 0 0 0 0 0 0 0 127 0" result="hardAlpha"/>
<feOffset dx="13.1142" dy="13.1142"/>
<feGaussianBlur stdDeviation="8.1964"/>
<feComposite in2="hardAlpha" operator="out"/>
<feColorMatrix type="matrix" values="0 0 0 0 0 0 0 0 0 0 0 0 0 0 0 0 0 0 0.25 0"/>
<feBlend mode="normal" in2="BackgroundImageFix" result="effect1_dropShadow_120_214"/>
<feBlend mode="normal" in="SourceGraphic" in2="effect1_dropShadow_120_214" result="shape"/>
<feColorMatrix in="SourceAlpha" type="matrix" values="0 0 0 0 0 0 0 0 0 0 0 0 0 0 0 0 0 0 127 0" result="hardAlpha"/>
<feOffset dx="-9.83568" dy="-9.83568"/>
<feGaussianBlur stdDeviation="21.6385"/>
<feComposite in2="hardAlpha" operator="arithmetic" k2="-1" k3="1"/>
<feColorMatrix type="matrix" values="0 0 0 0 0 0 0 0 0 0 0 0 0 0 0 0 0 0 0.24 0"/>
<feBlend mode="normal" in2="shape" result="effect2_innerShadow_120_214"/>
<feColorMatrix in="SourceAlpha" type="matrix" values="0 0 0 0 0 0 0 0 0 0 0 0 0 0 0 0 0 0 127 0" result="hardAlpha"/>
<feOffset dx="9.83568" dy="9.83568"/>
<feGaussianBlur stdDeviation="5.40963"/>
<feComposite in2="hardAlpha" operator="arithmetic" k2="-1" k3="1"/>
<feColorMatrix type="matrix" values="0 0 0 0 1 0 0 0 0 1 0 0 0 0 1 0 0 0 0.5 0"/>
<feBlend mode="normal" in2="effect2_innerShadow_120_214" result="effect3_innerShadow_120_214"/>
<feColorMatrix in="SourceAlpha" type="matrix" values="0 0 0 0 0 0 0 0 0 0 0 0 0 0 0 0 0 0 127 0" result="hardAlpha"/>
<feOffset dx="16.3928" dy="16.3928"/>
<feGaussianBlur stdDeviation="27.8678"/>
<feComposite in2="hardAlpha" operator="arithmetic" k2="-1" k3="1"/>
<feColorMatrix type="matrix" values="0 0 0 0 1 0 0 0 0 1 0 0 0 0 1 0 0 0 0.15 0"/>
<feBlend mode="normal" in2="effect3_innerShadow_120_214" result="effect4_innerShadow_120_214"/>
</filter>
<filter id="filter4_iii_120_214" x="58.0208" y="271.783" width="1568.88" height="945.146" filterUnits="userSpaceOnUse" color-interpolation-filters="sRGB">
<feFlood flood-opacity="0" result="BackgroundImageFix"/>
<feBlend mode="normal" in="SourceGraphic" in2="BackgroundImageFix" result="shape"/>
<feColorMatrix in="SourceAlpha" type="matrix" values="0 0 0 0 0 0 0 0 0 0 0 0 0 0 0 0 0 0 127 0" result="hardAlpha"/>
<feOffset dx="-9.83568" dy="-9.83568"/>
<feGaussianBlur stdDeviation="21.6385"/>
<feComposite in2="hardAlpha" operator="arithmetic" k2="-1" k3="1"/>
<feColorMatrix type="matrix" values="0 0 0 0 0 0 0 0 0 0 0 0 0 0 0 0 0 0 0.24 0"/>
<feBlend mode="normal" in2="shape" result="effect1_innerShadow_120_214"/>
<feColorMatrix in="SourceAlpha" type="matrix" values="0 0 0 0 0 0 0 0 0 0 0 0 0 0 0 0 0 0 127 0" result="hardAlpha"/>
<feOffset dx="9.83568" dy="9.83568"/>
<feGaussianBlur stdDeviation="5.40963"/>
<feComposite in2="hardAlpha" operator="arithmetic" k2="-1" k3="1"/>
<feColorMatrix type="matrix" values="0 0 0 0 1 0 0 0 0 1 0 0 0 0 1 0 0 0 0.5 0"/>
<feBlend mode="normal" in2="effect1_innerShadow_120_214" result="effect2_innerShadow_120_214"/>
<feColorMatrix in="SourceAlpha" type="matrix" values="0 0 0 0 0 0 0 0 0 0 0 0 0 0 0 0 0 0 127 0" result="hardAlpha"/>
<feOffset dx="16.3928" dy="16.3928"/>
<feGaussianBlur stdDeviation="27.8678"/>
<feComposite in2="hardAlpha" operator="arithmetic" k2="-1" k3="1"/>
<feColorMatrix type="matrix" values="0 0 0 0 1 0 0 0 0 1 0 0 0 0 1 0 0 0 0.15 0"/>
<feBlend mode="normal" in2="effect2_innerShadow_120_214" result="effect3_innerShadow_120_214"/>
</filter>
<filter id="filter5_iii_120_214" x="-5.83568" y="1269.31" width="1777.23" height="216.088" filterUnits="userSpaceOnUse" color-interpolation-filters="sRGB">
<feFlood flood-opacity="0" result="BackgroundImageFix"/>
<feBlend mode="normal" in="SourceGraphic" in2="BackgroundImageFix" result="shape"/>
<feColorMatrix in="SourceAlpha" type="matrix" values="0 0 0 0 0 0 0 0 0 0 0 0 0 0 0 0 0 0 127 0" result="hardAlpha"/>
<feOffset dx="-9.83568" dy="-9.83568"/>
<feGaussianBlur stdDeviation="21.6385"/>
<feComposite in2="hardAlpha" operator="arithmetic" k2="-1" k3="1"/>
<feColorMatrix type="matrix" values="0 0 0 0 0 0 0 0 0 0 0 0 0 0 0 0 0 0 0.24 0"/>
<feBlend mode="normal" in2="shape" result="effect1_innerShadow_120_214"/>
<feColorMatrix in="SourceAlpha" type="matrix" values="0 0 0 0 0 0 0 0 0 0 0 0 0 0 0 0 0 0 127 0" result="hardAlpha"/>
<feOffset dx="9.83568" dy="9.83568"/>
<feGaussianBlur stdDeviation="5.40963"/>
<feComposite in2="hardAlpha" operator="arithmetic" k2="-1" k3="1"/>
<feColorMatrix type="matrix" values="0 0 0 0 1 0 0 0 0 1 0 0 0 0 1 0 0 0 0.5 0"/>
<feBlend mode="normal" in2="effect1_innerShadow_120_214" result="effect2_innerShadow_120_214"/>
<feColorMatrix in="SourceAlpha" type="matrix" values="0 0 0 0 0 0 0 0 0 0 0 0 0 0 0 0 0 0 127 0" result="hardAlpha"/>
<feOffset dx="16.3928" dy="16.3928"/>
<feGaussianBlur stdDeviation="27.8678"/>
<feComposite in2="hardAlpha" operator="arithmetic" k2="-1" k3="1"/>
<feColorMatrix type="matrix" values="0 0 0 0 1 0 0 0 0 1 0 0 0 0 1 0 0 0 0.15 0"/>
<feBlend mode="normal" in2="effect2_innerShadow_120_214" result="effect3_innerShadow_120_214"/>
</filter>
</defs>
</svg>
