<svg width="1702" height="1065" viewBox="0 0 1702 1065" fill="none" xmlns="http://www.w3.org/2000/svg">
<g opacity="0.2" filter="url(#filter0_diii_118_2)">
<path d="M164.789 636.027C164.789 636.027 135.477 649.976 127.963 648.454C118.795 646.601 98.0636 622.538 98.0636 622.538C98.0636 622.538 109.176 649.964 107.598 657.257C105.688 666.097 84.1074 687.05 84.1074 687.05C84.1074 687.05 110.987 676.004 120.125 677.851C127.668 679.379 150.833 700.545 150.833 700.545C150.833 700.545 139.101 674.523 140.933 666.055C142.59 658.396 164.789 636.027 164.789 636.027Z" fill="white"/>
<path d="M1105.54 16.4938C1105.54 16.4938 1076.22 30.4425 1068.71 28.9191C1059.54 27.0658 1038.81 3.00027 1038.81 3.00027C1038.81 3.00027 1049.92 30.4293 1048.34 37.7235C1046.43 46.561 1024.85 67.5202 1024.85 67.5202C1024.85 67.5202 1051.73 56.4734 1060.87 58.32C1068.41 59.8435 1091.58 81.0139 1091.58 81.0139C1091.58 81.0139 1079.85 54.9895 1081.68 46.5148C1083.34 38.8579 1105.54 16.4938 1105.54 16.4938Z" fill="white"/>
<path d="M840.159 896.593C377.621 896.593 2.65918 928.917 2.65918 968.793C2.65918 1008.67 377.621 1041 840.159 1041C1302.7 1041 1677.66 1008.67 1677.66 968.793C1677.66 928.917 1302.7 896.593 840.159 896.593Z" fill="#EDEDF9"/>
<path d="M524.079 981.64C524.079 981.64 516.908 964.652 516.664 961.59L514.088 929.744C513.844 926.688 516.23 923.985 519.398 923.743C522.565 923.507 525.36 925.814 525.604 928.877L528.143 960.274C528.387 963.337 527.246 981.404 524.079 981.64Z" fill="#4D4A93"/>
<path d="M182.687 981.64C182.687 981.64 189.853 964.652 190.1 961.59L192.674 929.744C192.921 926.688 190.532 923.985 187.366 923.743C184.2 923.507 181.406 925.814 181.159 928.877L178.621 960.274C178.374 963.337 179.521 981.404 182.687 981.64Z" fill="#4D4A93"/>
<path d="M230.579 867.863C231.792 852.858 220.195 839.747 204.678 838.572C189.161 837.404 175.598 848.615 174.386 863.615C173.173 878.62 184.77 891.737 200.287 892.906C215.805 894.08 229.366 882.869 230.579 867.863Z" fill="#413E7C"/>
<path d="M363.837 155.712H338.891C334.317 155.712 330.575 152.089 330.575 147.668V23.0438C330.575 18.6152 334.317 15.0001 338.891 15.0001H363.837C368.411 15.0001 372.153 18.6152 372.153 23.0438V147.668C372.153 152.089 368.411 155.712 363.837 155.712Z" fill="#9991E8"/>
<path d="M363.836 15.0001H347.088C351.662 15.0001 355.404 18.6152 355.404 23.0438V147.668C355.404 152.089 351.662 155.712 347.088 155.712H363.836C368.41 155.712 372.152 152.089 372.152 147.668V23.0438C372.152 18.6152 368.41 15.0001 363.836 15.0001Z" fill="#817FDD"/>
<path d="M540.879 895.384L527.878 930.293L507.709 934.263L372.15 290.687L411.861 282.864L540.879 895.384Z" fill="#5F53B7"/>
<path d="M385.664 290.687L412.397 285.421L411.861 282.864L372.15 290.687L507.709 934.263L520.685 931.708L385.664 290.687Z" fill="#453EA3"/>
<path d="M476.187 867.863C474.979 852.858 486.574 839.747 502.093 838.572C517.606 837.404 531.172 848.615 532.38 863.615C533.595 878.62 522 891.737 506.481 892.906C490.962 894.08 477.401 882.869 476.187 867.863Z" fill="#A6A2F4"/>
<path d="M499.68 866.087C499.478 863.627 501.376 861.479 503.921 861.284C506.466 861.095 508.687 862.931 508.889 865.391C509.09 867.852 507.186 870 504.641 870.194C502.096 870.389 499.875 868.548 499.68 866.087Z" fill="#46438E"/>
<path d="M165.884 895.384L178.885 930.293L199.054 934.264L334.614 290.687L294.901 282.864L165.884 895.384Z" fill="#5F53B7"/>
<path d="M294.899 282.864L294.361 285.421L321.1 290.687L186.078 931.708L199.053 934.263L334.613 290.687L294.899 282.864Z" fill="#453EA3"/>
<path d="M196.689 866.087C196.888 863.627 194.987 861.479 192.443 861.284C189.899 861.095 187.676 862.931 187.477 865.391C187.278 867.852 189.179 870 191.723 870.194C194.267 870.389 196.49 868.548 196.689 866.087Z" fill="white"/>
<path d="M509.879 470.679H192.943C190.275 470.679 188.092 468.566 188.092 465.988C188.092 463.409 190.275 461.297 192.943 461.297H509.879C512.546 461.297 514.731 463.409 514.731 465.988C514.731 468.566 512.546 470.679 509.879 470.679Z" fill="#8EB7E8"/>
<path d="M353.382 289.439C319.479 289.439 291.995 262.869 291.995 230.09C291.995 197.304 319.479 170.735 353.382 170.735C387.283 170.735 414.767 197.304 414.767 230.09C414.767 262.869 387.283 289.439 353.382 289.439ZM353.382 137.679C300.599 137.679 257.811 179.049 257.811 230.09C257.811 281.125 300.599 322.495 353.382 322.495C406.163 322.495 448.954 281.125 448.954 230.09C448.954 179.049 406.163 137.679 353.382 137.679Z" fill="#8EB7E8"/>
<path d="M417.703 467.102C417.703 460.44 423.293 455.041 430.177 455.041C437.067 455.041 442.657 460.44 442.657 467.102C442.657 473.764 437.067 479.163 430.177 479.163C423.293 479.163 417.703 473.764 417.703 467.102Z" fill="#BBB6EF"/>
<path d="M289.519 467.102C289.519 460.44 283.933 455.041 277.044 455.041C270.155 455.041 264.57 460.44 264.57 467.102C264.57 473.764 270.155 479.163 277.044 479.163C283.933 479.163 289.519 473.764 289.519 467.102Z" fill="#BBB6EF"/>
<path d="M534.128 476.484H507.796C505.507 476.484 503.64 474.673 503.64 472.466V459.059C503.64 456.853 505.507 455.041 507.796 455.041H534.128C536.417 455.041 538.29 456.853 538.29 459.059V472.466C538.29 474.673 536.417 476.484 534.128 476.484Z" fill="#AEA8EF"/>
<path d="M172.169 476.484H198.504C200.791 476.484 202.662 474.673 202.662 472.466V459.059C202.662 456.853 200.791 455.041 198.504 455.041H172.169C169.883 455.041 168.012 456.853 168.012 459.059V472.466C168.012 474.673 169.883 476.484 172.169 476.484Z" fill="#AEA8EF"/>
<path d="M353.613 510.815H353.151C348.577 510.815 344.835 507.198 344.835 502.772V432.708C344.835 428.282 348.577 424.665 353.151 424.665H353.613C358.187 424.665 361.929 428.282 361.929 432.708V502.772C361.929 507.198 358.187 510.815 353.613 510.815Z" fill="#B0AAE8"/>
<path d="M353.381 289.441C319.479 289.441 291.996 262.867 291.996 230.087C291.996 197.308 319.479 170.734 353.381 170.734C387.284 170.734 414.768 197.308 414.768 230.087C414.768 262.867 387.284 289.441 353.381 289.441ZM353.381 155.713C310.901 155.713 276.462 189.01 276.462 230.087C276.462 271.164 310.901 304.462 353.381 304.462C395.862 304.462 430.299 271.164 430.299 230.087C430.299 189.01 395.862 155.713 353.381 155.713Z" fill="#759CDB"/>
<path d="M339.724 112.329C336.913 112.329 334.613 110.104 334.613 107.385V49.9338C334.613 47.2145 336.913 44.9895 339.724 44.9895C342.535 44.9895 344.835 47.2145 344.835 49.9338V107.385C344.835 110.104 342.535 112.329 339.724 112.329Z" fill="#B0AAE8"/>
<path d="M1107.72 805.389L1223.08 834.396L1398.72 181.416L1283.37 152.412L1107.72 805.389Z" fill="#FCDA35"/>
<path d="M1107.73 805.386L1141.77 813.942L1317.42 160.958L1283.38 152.401L1107.73 805.386Z" fill="#FFE576"/>
<path d="M1190.56 826.218L1223.08 834.396L1398.73 181.416L1366.2 173.239L1190.56 826.218Z" fill="#F9CB0B"/>
<path d="M1397.88 181.199L1367.16 68.1992L1283.38 152.401L1397.88 181.199Z" fill="#F4EBFF"/>
<path d="M1370.45 138.055C1371.13 143.826 1372.73 156.373 1364.72 161.531C1357.38 166.259 1346.5 161.866 1321.59 156.172C1307.39 152.928 1295.29 150.774 1286.39 149.377L1283.38 152.401L1397.88 181.199L1367.16 68.1992L1365.76 69.6061C1366.74 97.8872 1368.32 120.062 1370.45 138.055Z" fill="#D4CBEF"/>
<path d="M1353.17 103.305C1361.96 105.96 1370.27 106.556 1377.47 106.168L1367.14 68.1998L1338.55 96.9453C1342.52 99.251 1347.39 101.557 1353.17 103.305Z" fill="#29446D"/>
<path d="M1165.64 928.823L1110.21 914.85C1093.66 910.685 1083.75 894.339 1088.06 878.343L1107.73 805.387L1223.06 834.454L1203.4 907.41C1199.08 923.401 1182.18 932.989 1165.64 928.823Z" fill="#FF6C3C"/>
<path d="M1190.2 826.169L1170.54 899.125C1166.23 915.122 1149.32 924.705 1132.78 920.538L1165.64 928.823C1182.18 932.989 1199.09 923.401 1203.4 907.41L1223.07 834.454L1190.2 826.169Z" fill="#F95428"/>
<path d="M1111.48 892.24C1106.75 891.048 1103.9 886.339 1105.13 881.766L1112.77 853.425C1114 848.858 1118.87 846.091 1123.6 847.283C1128.32 848.475 1131.18 853.189 1129.95 857.757L1122.32 886.097C1121.09 890.67 1116.2 893.432 1111.48 892.24Z" fill="#FF8F71"/>
<path d="M1218.08 852.628L1100.23 822.929C1097.01 822.115 1095.06 818.899 1095.9 815.783L1101.07 796.624C1101.91 793.508 1105.23 791.626 1108.45 792.441L1226.3 822.139C1229.52 822.947 1231.47 826.162 1230.63 829.278L1225.47 848.437C1224.63 851.553 1221.3 853.435 1218.08 852.628Z" fill="#F4EBFF"/>
<path d="M1226.3 822.139L1213.88 819.005L1209.05 836.914C1208.2 840.029 1204.88 841.911 1201.66 841.104L1096.24 814.533L1095.9 815.783C1095.06 818.899 1097.01 822.115 1100.23 822.929L1218.08 852.628C1221.3 853.435 1224.63 851.553 1225.47 848.437L1230.63 829.278C1231.47 826.162 1229.52 822.947 1226.3 822.139Z" fill="#E2DAED"/>
<path d="M1133.22 447.955H483.007C469.179 447.955 457.962 437.109 457.962 423.736V377.155C457.962 363.782 469.179 352.943 483.007 352.943H1133.22C1147.06 352.943 1158.27 363.782 1158.27 377.155V423.736C1158.27 437.109 1147.06 447.955 1133.22 447.955Z" fill="#8EB7E8"/>
<path d="M1195.99 426.321V374.571C1195.99 364.644 1202.91 356.293 1212.33 353.743C1210.41 353.227 1208.39 352.939 1206.31 352.939H841.624C829.263 352.939 819.251 362.62 819.251 374.571V426.321C819.251 438.265 829.263 447.954 841.624 447.954H1206.31C1208.39 447.954 1210.41 447.67 1212.33 447.151C1202.91 444.602 1195.99 436.246 1195.99 426.321Z" fill="white"/>
<path d="M1150.58 352.943H813.289C812.606 362.689 810.003 376.363 801.613 390.375C798.31 395.895 785.576 416.501 760.664 425.57C748.707 429.928 738.55 429.944 735.179 429.969C709.311 430.167 615.815 434.392 482.588 440.787C487.128 445.211 493.42 447.955 500.371 447.955H1150.58C1164.41 447.955 1175.63 437.107 1175.63 423.738V377.163C1175.63 363.786 1164.41 352.943 1150.58 352.943Z" fill="#669CDD"/>
<path d="M1196.05 426.321V374.571C1196.05 364.644 1202.94 356.293 1212.33 353.743C1210.41 353.227 1208.4 352.939 1206.32 352.939H842.763C830.446 352.939 820.46 362.62 820.46 374.571V426.321C820.46 438.265 830.446 447.954 842.763 447.954H1206.32C1208.4 447.954 1210.41 447.67 1212.33 447.151C1202.94 444.602 1196.05 436.246 1196.05 426.321Z" fill="#F4EBFF"/>
<path d="M912.866 384.218C952.329 375.045 1055.98 369.04 1196.97 368.93C1199 361.586 1204.86 355.793 1212.33 353.743C1210.43 353.226 1208.44 352.938 1206.37 352.938H846.352C834.158 352.938 824.26 362.619 824.26 374.571V426.321C824.26 438.034 833.773 447.564 845.643 447.935C848.831 434.924 855.156 419.707 867.954 407.087C874.892 400.243 887.953 390.003 912.866 384.218Z" fill="#D4CBEF"/>
<path d="M1199.17 437.391H842.649C835.772 437.391 830.166 432.423 830.166 426.321V374.571C830.166 368.464 835.772 363.501 842.649 363.501H1199.17C1202.07 358.8 1206.75 355.251 1212.33 353.743C1210.41 353.227 1208.39 352.939 1206.31 352.939H841.624C829.263 352.939 819.251 362.62 819.251 374.571V426.321C819.251 438.265 829.263 447.954 841.624 447.954H1206.31C1208.39 447.954 1210.41 447.67 1212.33 447.151C1206.75 445.64 1202.07 442.088 1199.17 437.391Z" fill="#5184CE"/>
<path d="M1013.2 423.813H879.416C877.67 423.813 876.234 422.432 876.234 420.737C876.234 419.041 877.67 417.653 879.416 417.653H1013.2C1014.96 417.653 1016.39 419.041 1016.39 420.737C1016.39 422.432 1014.96 423.813 1013.2 423.813Z" fill="#E3DFE8"/>
<path d="M1074.87 400.437H1005.2C1002.84 400.437 1000.9 398.571 1000.9 396.29C1000.9 394.009 1002.84 392.135 1005.2 392.135H1074.87C1077.23 392.135 1079.17 394.009 1079.17 396.29C1079.17 398.571 1077.23 400.437 1074.87 400.437Z" fill="#E3DFE8"/>
<path d="M1171.53 384.219H1120.58C1119.32 384.219 1118.29 383.23 1118.29 382.018C1118.29 380.807 1119.32 379.818 1120.58 379.818H1171.53C1172.78 379.818 1173.81 380.807 1173.81 382.018C1173.81 383.23 1172.78 384.219 1171.53 384.219Z" fill="#E3DFE8"/>
<path d="M1156.98 423.818H1113.29C1111.55 423.818 1110.11 422.43 1110.11 420.733C1110.11 419.044 1111.55 417.657 1113.29 417.657H1156.98C1158.72 417.657 1160.16 419.044 1160.16 420.733C1160.16 422.43 1158.72 423.818 1156.98 423.818Z" fill="#E3DFE8"/>
<path d="M1008.24 592.254H621.115C598.085 592.254 579.256 574.038 579.256 551.781V488.424C579.256 466.164 598.085 447.95 621.115 447.95H1008.24C1031.27 447.95 1050.11 466.164 1050.11 488.424V551.781C1050.11 574.038 1031.27 592.254 1008.24 592.254Z" fill="#FFC71F"/>
<path d="M772.63 567.257C762.593 566.018 750.753 563.044 742.605 554.063C733.141 543.625 733.234 530.118 733.048 517.11C732.808 500.5 731.996 477.38 729.489 447.96H621.106C598.085 447.96 579.25 466.164 579.25 488.431V551.785C579.25 574.043 598.085 592.258 621.106 592.258H1008.24C1024.68 592.258 1038.97 582.97 1045.81 569.564C903.283 571.641 800.596 570.708 772.63 567.257Z" fill="#F7B000"/>
<path d="M668.443 447.955H409.374C406.963 447.955 404.59 448.132 402.271 448.486C420.53 451.489 434.56 467.108 434.56 485.79V554.42C434.56 573.102 420.53 588.721 402.271 591.724C404.59 592.073 406.963 592.255 409.374 592.255H668.443C694.172 592.255 715.22 571.668 715.22 546.502V493.709C715.22 468.542 694.172 447.955 668.443 447.955Z" fill="white"/>
<path d="M668.443 447.955H409.374C406.963 447.955 404.59 448.132 402.271 448.486C417.79 451.035 430.251 462.706 433.638 477.623C457.963 477.275 487.073 476.921 520.119 476.644C520.119 476.644 534.582 476.52 599.288 479.281C628.788 480.544 643.179 481.47 659.344 489.837C659.344 489.837 680.185 500.63 694.831 522.834C703.363 535.756 704.345 556.066 698.462 581.51C708.69 573.102 715.22 560.516 715.22 546.501V493.708C715.22 468.542 694.172 447.955 668.443 447.955Z" fill="#E7DFEF"/>
<path d="M671.538 447.955H409.453C407.012 447.955 404.614 448.132 402.271 448.486C410.613 449.837 418.07 453.773 423.752 459.39H668.425C689.711 459.39 707.03 474.785 707.03 493.709V546.502C707.03 565.425 689.711 580.82 668.425 580.82H423.752C418.07 586.437 410.613 590.373 402.271 591.724C404.614 592.073 407.012 592.255 409.453 592.255H671.538C697.565 592.255 718.864 571.668 718.864 546.502V493.709C718.864 468.542 697.565 447.955 671.538 447.955Z" fill="#FFDF5A"/>
<path d="M566.33 514.732H452.528C450.166 514.732 448.231 512.868 448.231 510.584C448.231 508.301 450.166 506.43 452.528 506.43H566.33C568.692 506.43 570.626 508.301 570.626 510.584C570.626 512.868 568.692 514.732 566.33 514.732Z" fill="#EAEAEA"/>
<path d="M661.075 532.954H572.983C571.555 532.954 570.39 531.821 570.39 530.44V529.307C570.39 527.926 571.555 526.793 572.983 526.793H661.075C662.503 526.793 663.669 527.926 663.669 529.307V530.44C663.669 531.821 662.503 532.954 661.075 532.954Z" fill="#D6CCE2"/>
<path d="M538.917 555.831H450.831C449.403 555.831 448.231 554.698 448.231 553.317V552.184C448.231 550.798 449.403 549.671 450.831 549.671H538.917C540.345 549.671 541.516 550.798 541.516 552.184V553.317C541.516 554.698 540.345 555.831 538.917 555.831Z" fill="#EAEAEA"/>
<path d="M640.639 575.575L617.028 552.751L593.423 575.575V529.927H640.639V575.575Z" fill="#F95428"/>
<path d="M1274.46 974.163H840.123C816.79 974.163 797.705 955.712 797.705 933.154V893.779C797.705 871.22 816.79 852.763 840.123 852.763H1274.46C1297.78 852.763 1316.87 871.22 1316.87 893.779V933.154C1316.87 955.712 1297.78 974.163 1274.46 974.163Z" fill="#FF6C3C"/>
<path d="M1021.97 947.468C1014.32 947.315 996.932 946.743 985.558 935.154C978.592 928.05 976.219 919.199 974.644 906.996C972.994 894.309 971.925 875.864 975.104 852.763H840.131C816.793 852.763 797.703 871.22 797.703 893.778V933.153C797.703 955.712 816.793 974.163 840.131 974.163H1274.46C1291.35 974.163 1306.01 964.486 1312.82 950.578C1158.58 949.528 1049.11 948.011 1021.97 947.468Z" fill="#F95428"/>
<path d="M900.939 852.765H512.072C511.185 852.765 510.298 852.806 509.426 852.865C530.185 854.217 546.751 871.329 546.751 892.07V934.867C546.751 955.608 530.185 972.72 509.426 974.071C510.298 974.129 511.185 974.165 512.072 974.165H900.939C922.926 974.165 940.911 956.481 940.911 934.867V892.07C940.911 870.449 922.926 852.765 900.939 852.765Z" fill="white"/>
<path d="M900.939 852.765H512.072C511.185 852.765 510.298 852.807 509.426 852.866C525.084 853.881 538.351 863.876 543.927 877.625C561.146 876.492 809.176 868.184 870.063 889.479C930.12 910.486 920.272 954.982 922.032 968.2C933.341 961.237 940.911 948.881 940.911 934.867V892.07C940.911 870.449 922.926 852.765 900.939 852.765Z" fill="#E7DFEF"/>
<path d="M907.577 852.763H512.117C511.218 852.763 510.318 852.804 509.426 852.863C519.478 853.506 528.553 857.726 535.314 864.204H904.5C922.084 864.204 936.392 876.702 936.392 892.067V934.865C936.392 950.23 922.084 962.728 904.5 962.728H535.314C528.553 969.207 519.478 973.426 509.426 974.069C510.318 974.128 511.218 974.163 512.117 974.163H907.577C929.931 974.163 948.222 956.479 948.222 934.865V892.067C948.222 870.447 929.931 852.763 907.577 852.763Z" fill="#FFA75F"/>
<path d="M682.333 907.02H568.525C566.163 907.02 564.234 905.15 564.234 902.866C564.234 900.583 566.163 898.718 568.525 898.718H682.333C684.694 898.718 686.623 900.583 686.623 902.866C686.623 905.15 684.694 907.02 682.333 907.02Z" fill="#EAEAEA"/>
<path d="M874.91 945.098H720.472C718.108 945.098 716.181 943.233 716.181 940.95C716.181 938.666 718.108 936.796 720.472 936.796H874.91C877.274 936.796 879.208 938.666 879.208 940.95C879.208 943.233 877.274 945.098 874.91 945.098Z" fill="#EAEAEA"/>
<path d="M710.997 928.192H645.808C644.576 928.192 643.562 927.212 643.562 926.02V924.203C643.562 923.011 644.576 922.031 645.808 922.031H710.997C712.229 922.031 713.242 923.011 713.242 924.203V926.02C713.242 927.212 712.229 928.192 710.997 928.192Z" fill="#EAEAEA"/>
<path d="M859.185 901.794H770.628C769.2 901.794 768.023 900.661 768.023 899.28V898.153C768.023 896.773 769.2 895.639 770.628 895.639H859.185C860.62 895.639 861.789 896.773 861.789 898.153V899.28C861.789 900.661 860.62 901.794 859.185 901.794Z" fill="#EAEAEA"/>
<path d="M852.696 922.031H777.16V898.717H852.696V922.031Z" fill="#669CDD"/>
<path d="M498.692 736.561H1000.27C1016.76 736.561 1030.25 723.515 1030.25 707.577V621.239C1030.25 605.295 1016.76 592.255 1000.27 592.255H498.692C482.209 592.255 468.723 605.295 468.723 621.239V707.577C468.723 723.515 482.209 736.561 498.692 736.561Z" fill="#A4A3FA"/>
<path d="M984.535 592.255H874.288C879.111 619.091 882.091 665.316 853.049 690.377C839.773 701.835 821.599 707.311 812.099 710.173C782.399 719.124 538.104 717.402 470.407 717.118C478.621 729.002 477.901 737.824 514.438 736.561H984.535C1009.67 736.561 1030.25 716.67 1030.25 692.359V636.456C1030.25 612.145 1009.67 592.255 984.535 592.255Z" fill="#8989EF"/>
<path d="M941.044 592.256H1200.12C1202.53 592.256 1204.91 592.439 1207.22 592.787C1188.96 595.791 1174.93 611.416 1174.93 630.091V698.722C1174.93 717.404 1188.96 733.028 1207.22 736.031C1204.91 736.38 1202.53 736.562 1200.12 736.562H941.044C915.321 736.562 894.268 715.969 894.268 690.803V638.01C894.268 612.85 915.321 592.256 941.044 592.256Z" fill="#F4EBFF"/>
<path d="M941.044 592.256H1200.12C1202.53 592.256 1204.91 592.439 1207.22 592.787C1191.7 595.343 1179.24 607.014 1175.85 621.925C1151.52 621.583 1122.41 621.228 1089.37 620.945C1089.37 620.945 1074.9 620.822 1010.21 623.583C980.697 624.846 966.313 625.772 950.147 634.145C950.147 634.145 929.313 644.938 914.657 667.136C906.13 680.058 905.143 700.374 911.026 725.818C900.805 717.409 894.268 704.818 894.268 690.803V638.01C894.268 612.85 915.321 592.256 941.044 592.256Z" fill="#D4CBEF"/>
<path d="M937.952 592.256H1200.03C1202.48 592.256 1204.87 592.439 1207.22 592.787C1198.88 594.145 1191.42 598.074 1185.74 603.698H941.068C919.779 603.698 902.453 619.092 902.453 638.01V690.803C902.453 709.727 919.779 725.122 941.068 725.122H1185.74C1191.42 730.739 1198.88 734.674 1207.22 736.031C1204.87 736.38 1202.48 736.562 1200.03 736.562H937.952C911.924 736.562 890.635 715.969 890.635 690.803V638.01C890.635 612.85 911.924 592.256 937.952 592.256Z" fill="#8080DD"/>
<path d="M1043.16 659.039H1156.97C1159.33 659.039 1161.26 657.169 1161.26 654.884C1161.26 652.601 1159.33 650.731 1156.97 650.731H1043.16C1040.8 650.731 1038.87 652.601 1038.87 654.884C1038.87 657.169 1040.8 659.039 1043.16 659.039Z" fill="#E3DFE8"/>
<path d="M948.422 677.252H1036.51C1037.94 677.252 1039.11 676.125 1039.11 674.739V673.605C1039.11 672.225 1037.94 671.092 1036.51 671.092H948.422C946.998 671.092 945.828 672.225 945.828 673.605V674.739C945.828 676.125 946.998 677.252 948.422 677.252Z" fill="#D6CCE2"/>
<path d="M1070.58 700.132H1158.67C1160.1 700.132 1161.26 698.999 1161.26 697.618V696.485C1161.26 695.104 1160.1 693.971 1158.67 693.971H1070.58C1069.15 693.971 1067.99 695.104 1067.99 696.485V697.618C1067.99 698.999 1069.15 700.132 1070.58 700.132Z" fill="#E3DFE8"/>
<path d="M996.156 710.111L1019.76 687.288L1043.37 710.111V664.464H996.156V710.111Z" fill="#F95428"/>
<path d="M624.391 736.562C623.359 736.562 622.517 735.748 622.517 734.751V598.498C622.517 595.052 625.41 592.255 628.974 592.255H602.195C597.405 592.255 593.523 596.008 593.523 600.64V728.177C593.523 732.809 597.405 736.562 602.195 736.562H632.702H624.391Z" fill="#FFC71F"/>
<path d="M622.517 734.751V717.302L593.523 717.403V728.177C593.523 732.809 597.405 736.562 602.195 736.562H624.391C623.359 736.562 622.517 735.748 622.517 734.751Z" fill="#F9B408"/>
<path d="M1074.79 852.764H430.056C414.714 852.764 402.271 840.738 402.271 825.897V762.708C402.271 747.868 414.714 735.836 430.056 735.836H1074.79C1090.14 735.836 1102.57 747.868 1102.57 762.708V825.897C1102.57 840.738 1090.14 852.764 1074.79 852.764Z" fill="#FFC71F"/>
<path d="M1122.94 826.144V762.458C1122.94 750.244 1129.85 739.959 1139.28 736.826C1137.36 736.188 1135.34 735.834 1133.25 735.834H768.569C756.21 735.834 746.194 747.754 746.194 762.458V826.144C746.194 840.842 756.21 852.762 768.569 852.762H1133.25C1135.34 852.762 1137.36 852.414 1139.28 851.777C1129.85 848.643 1122.94 838.358 1122.94 826.144Z" fill="white"/>
<path d="M1077.53 735.836H740.233C739.553 747.826 736.941 764.661 728.556 781.909C725.256 788.694 712.528 814.055 687.606 825.22C675.646 830.577 665.497 830.607 662.125 830.636C636.256 830.884 542.758 836.076 409.531 843.942C414.072 849.389 420.363 852.764 427.321 852.764H1077.53C1091.36 852.764 1102.57 839.423 1102.57 822.959V765.64C1102.57 749.184 1091.36 735.836 1077.53 735.836Z" fill="#F7B000"/>
<path d="M1122.98 823.716V762.338C1122.09 748.837 1135.34 736.682 1133.26 736.682H769.703C757.388 736.682 747.401 748.17 747.401 762.338V823.716C747.401 837.884 757.388 849.372 769.703 849.372H1133.26C1135.34 849.372 1122.09 843.064 1122.98 823.716Z" fill="#F4EBFF"/>
<path d="M839.818 774.325C879.282 763.042 982.921 755.655 1123.92 755.514C1125.95 746.473 1131.81 739.34 1139.28 736.826C1137.38 736.189 1135.39 735.834 1133.32 735.834H773.3C761.107 735.834 751.216 747.754 751.216 762.459V826.145C751.216 840.56 760.716 852.29 772.585 852.745C775.777 836.73 782.11 818.008 794.902 802.483C801.842 794.051 814.908 781.447 839.818 774.325Z" fill="#D4CBEF"/>
<path d="M1126.11 839.769H773.24C766.358 839.769 760.756 833.655 760.756 826.144V762.458C760.756 754.947 766.358 748.833 773.24 748.833H1126.11C1129.02 743.051 1133.7 738.678 1139.28 736.826C1137.36 736.188 1135.34 735.834 1133.25 735.834H768.569C756.21 735.834 746.194 747.754 746.194 762.458V826.144C746.194 840.842 756.21 852.762 768.569 852.762H1133.25C1135.34 852.762 1137.36 852.414 1139.28 851.777C1133.7 849.924 1129.02 845.552 1126.11 839.769Z" fill="#E88F00"/>
<path d="M939.803 823.053H806.711C804.77 823.053 803.178 821.519 803.178 819.637V818.893C803.178 817.011 804.77 815.477 806.711 815.477H939.803C941.751 815.477 943.336 817.011 943.336 818.893V819.637C943.336 821.519 941.751 823.053 939.803 823.053Z" fill="#E3DFE8"/>
<path d="M1001.35 794.294H932.614C929.998 794.294 927.854 792.217 927.854 789.686V788.677C927.854 786.145 929.998 784.074 932.614 784.074H1001.35C1003.97 784.074 1006.11 786.145 1006.11 788.677V789.686C1006.11 792.217 1003.97 794.294 1001.35 794.294Z" fill="#E3DFE8"/>
<path d="M1098.23 774.326H1047.76C1046.38 774.326 1045.24 773.229 1045.24 771.89V771.352C1045.24 770.013 1046.38 768.915 1047.76 768.915H1098.23C1099.61 768.915 1100.75 770.013 1100.75 771.352V771.89C1100.75 773.229 1099.61 774.326 1098.23 774.326Z" fill="#E3DFE8"/>
<path d="M1083.57 823.053H1040.59C1038.64 823.053 1037.05 821.519 1037.05 819.636V818.893C1037.05 817.011 1038.64 815.477 1040.59 815.477H1083.57C1085.51 815.477 1087.1 817.011 1087.1 818.893V819.636C1087.1 821.519 1085.51 823.053 1083.57 823.053Z" fill="#E3DFE8"/>
<path d="M489.579 818.186L458.188 792.86L489.579 767.535L520.972 792.86L489.579 818.186Z" fill="#8989EF"/>
<path d="M550.894 835.375C546.591 835.375 543.101 831.999 543.101 827.839V760.442C543.101 756.282 546.591 752.907 550.894 752.907C555.196 752.907 558.681 756.282 558.681 760.442V827.839C558.681 831.999 555.196 835.375 550.894 835.375Z" fill="#8989EF"/>
<path d="M1511.66 620.099C1500.92 635.276 1479.51 670.167 1482.01 671.766C1487.13 675.053 1559.63 581.215 1559.75 578.441C1559.82 577.019 1530.46 593.517 1511.66 620.099Z" fill="#8181E2"/>
<path d="M1523.98 623.07C1503.72 649.434 1491.45 643.663 1476.09 662.675C1463.9 677.763 1459.41 691.589 1450.7 718.46C1445.85 733.43 1442.66 750.383 1436.28 784.288C1431.28 810.84 1428.73 828.608 1428.78 850.67C1428.79 857.007 1428.84 876.715 1431.09 876.886C1435.07 877.199 1433.84 815.443 1461.09 745.237C1472.45 715.94 1485.23 694.332 1502.63 664.906C1531.03 616.874 1560.09 578.668 1559.74 578.443C1559.5 578.278 1543.3 597.91 1523.98 623.07Z" fill="#A4A3FA"/>
<path d="M1265.84 585.258C1265.63 588.031 1326.01 689.57 1331.5 686.896C1334.16 685.598 1317.23 648.49 1308.44 632.18C1293.05 603.609 1265.94 583.841 1265.84 585.258Z" fill="#8181E2"/>
<path d="M1356.81 736.868C1351.47 709.188 1348.73 694.938 1338.49 678.551C1325.6 657.899 1312.7 662.218 1295.85 633.7C1279.76 606.481 1266.12 585.12 1265.85 585.255C1265.47 585.445 1289.61 626.732 1311.87 677.702C1325.51 708.928 1335.52 731.853 1343.18 762.252C1361.56 835.108 1352.72 896.28 1356.7 896.428C1358.96 896.517 1361.43 876.955 1362.24 870.665C1365.01 848.768 1364.67 830.83 1363 803.893C1360.85 769.493 1359.78 752.292 1356.81 736.868Z" fill="#A4A3FA"/>
<path d="M1353.1 549.052C1349.82 535.545 1351.39 537.764 1339.25 475.973C1331.82 438.196 1329.56 428.885 1327.13 408.475C1324.49 386.412 1324.21 372.805 1322.52 372.775C1320 372.723 1316.78 402.603 1315.59 427.44C1314.5 450.133 1314.13 488.806 1323.09 546.261C1329.22 585.542 1332.45 587.105 1349.63 672.895C1352.49 687.175 1356.71 708.275 1360.6 729.795C1381.92 848.179 1377.71 896.134 1384.82 896.588C1397.04 897.373 1454.48 758.708 1401.56 655.6C1388.36 629.914 1365.83 601.568 1353.1 549.052Z" fill="#8181E2"/>
<path d="M1464.47 394.955C1463.61 383.732 1463.53 378.392 1462.17 378.222C1458.82 377.802 1453.13 409.093 1443.71 445.164C1430.37 496.217 1423.94 501.882 1415.43 535.533C1409.82 557.79 1405.6 583.145 1403.9 640.972C1401.28 729.647 1406.15 841.682 1414.28 841.795C1420.96 841.883 1413.02 766.307 1443.13 651.569C1454.06 609.94 1465.63 579.735 1469.67 528.841C1471.9 500.795 1471.95 464.879 1469.67 440.142C1468.19 424.146 1466.32 418.977 1464.47 394.955Z" fill="#9494ED"/>
<path d="M1497.27 465.667C1496.23 465.508 1490.33 499.219 1485.9 521.263C1468.73 606.711 1450.32 633.223 1430.94 700.868C1402.47 800.271 1401.66 884.603 1405.1 885.157C1407.35 885.524 1412.09 850.385 1431.94 792.782C1443.74 758.535 1446.69 757.58 1459.96 719.544C1474.72 677.236 1482.1 656.082 1486.27 626.567C1490.92 593.653 1485.53 593.234 1489.52 538.93C1492.66 496.15 1498.25 465.815 1497.27 465.667Z" fill="#C0C0FC"/>
<path d="M1391.18 519.481C1386.94 485.423 1381.35 475.976 1380.79 448.078C1380.51 433.686 1381.76 424.339 1380.22 424.092C1377.09 423.596 1368.31 461.195 1366.95 467.048C1348.67 545.309 1354.37 632.114 1355.41 646.677C1361.13 726.967 1367.24 808.974 1375.02 897.148L1379.06 922.81C1391.48 734.502 1396.31 595.725 1394.06 556.302C1392.63 531.136 1391.18 519.481 1391.18 519.481Z" fill="#9494ED"/>
<path d="M1373.86 619.34C1365.83 596.847 1359.86 582.219 1347.9 552.957C1341.04 536.176 1336.64 525.944 1330.01 513.352C1328.9 511.228 1305.48 466.956 1299.44 469.281C1296.28 470.496 1300.9 483.312 1304.63 510.562C1308.63 539.788 1306.11 545.387 1309.83 584.756C1311.8 605.715 1312.8 616.195 1315.02 627.152C1322.3 663.005 1333.01 674.11 1348.48 719.197C1352.47 730.786 1355.61 742.145 1361.75 764.378C1392.93 877.293 1395.47 914.184 1401.56 913.884C1412.2 913.358 1426.33 799.705 1400.99 704.693C1397.45 691.452 1387.66 657.978 1373.86 619.34Z" fill="#9494ED"/>
<path d="M1425.88 516.138C1422.04 477.271 1423.15 467.411 1420.6 467.051C1413.46 466.03 1399.93 543.017 1393.67 578.621C1391.75 589.566 1388.33 609.959 1389.98 636.635C1390.62 647.039 1391.66 652.378 1392.62 660.062C1397.37 698.18 1389.35 707.798 1389.98 747.645C1390.32 769.454 1393.72 788.772 1400.54 827.415C1402.71 839.724 1407.37 866.183 1409.51 865.911C1411.8 865.617 1407.29 835.251 1410.04 793.947C1411.76 768.091 1414.18 770.238 1421.67 719.198C1429.35 666.759 1431.12 634.978 1431.7 622.687C1432.46 606.56 1433 594.139 1432.22 576.945C1431.22 555.007 1429.14 548.999 1425.88 516.138Z" fill="#A4A3FA"/>
<path d="M1366.37 611.533C1365.49 604.801 1365.11 597.667 1364.64 588.656C1363.54 568.009 1364.11 559.784 1362.91 559.649C1361.25 559.466 1359.28 574.896 1353.67 595.908C1345.11 628.025 1340.06 628.232 1335.21 652.254C1333.89 658.815 1330.56 677.184 1331.75 700.786C1332.43 714.157 1334.32 724.649 1335.79 732.585C1339.13 750.741 1343.35 764.1 1345.02 769.399C1368.12 842.797 1377 876.655 1380.21 875.947C1382.39 875.475 1378.54 859.885 1377.91 834.112C1377 796.796 1384.17 792.128 1386.56 754.895C1387.1 746.404 1391.03 685.338 1376.17 647.232C1374.13 641.998 1368.67 629.335 1366.37 611.533Z" fill="#A4A3FA"/>
<path d="M1361.01 974.46L1441 975.581C1478.93 957.141 1480.02 812.358 1480.02 812.358H1324.25C1324.25 812.358 1322.71 954.793 1361.01 974.46Z" fill="#B6D5F2"/>
<path d="M1362.9 559.649C1361.25 559.466 1359.28 574.897 1353.67 595.909C1345.11 628.026 1340.05 628.233 1335.21 652.254C1333.89 658.816 1330.56 677.184 1331.75 700.787C1332.38 713.279 1334.08 723.25 1335.49 730.981C1334.94 716.659 1335.52 704.28 1336.43 694.272C1337.13 686.589 1338.91 670.759 1343.65 651.162C1348 633.171 1351.41 626.202 1355.45 612.489C1358.54 601.974 1361.96 587.641 1363.9 569.651C1363.7 562.753 1363.63 559.732 1362.9 559.649Z" fill="#C0C0FC"/>
<path d="M1393.68 578.618C1391.75 589.564 1388.33 609.956 1389.99 636.634C1390.62 647.036 1391.66 652.377 1392.62 660.059C1397.37 698.178 1389.35 707.796 1389.99 747.643C1390.06 752.765 1390.31 757.75 1390.74 762.879C1391.1 747.678 1392.19 734.733 1393.48 724.07C1396.74 696.956 1401.65 680.381 1398.07 654.967C1397.2 648.724 1394.84 635.111 1395.45 616.294C1395.8 605.531 1396.97 597.566 1398.07 590.296C1405.15 543.657 1412.9 502.754 1414.46 494.563C1415.88 487.116 1417.63 477.924 1419.67 467.337C1412.34 472.46 1399.67 544.518 1393.68 578.618Z" fill="#C0C0FC"/>
<path d="M1300.81 469.379C1300.29 469.172 1299.83 469.131 1299.45 469.278C1296.29 470.494 1300.91 483.31 1304.63 510.56C1308.63 539.785 1306.12 545.385 1309.83 584.754C1310.41 590.961 1310.92 596.249 1311.39 600.905C1312.95 590.755 1314.93 580.028 1315.46 559.866C1315.81 546.164 1316.13 531.023 1312.84 511.681C1309.92 494.569 1305.21 480.271 1300.81 469.379Z" fill="#A4A3FA"/>
<path d="M1455.99 893.574C1447.56 912.762 1437.8 935.073 1414.9 951.158C1395.36 964.883 1373.34 969.208 1354.59 969.644C1356.6 971.628 1358.75 973.262 1361.01 974.43L1441.01 975.368C1478.93 956.929 1480.02 811.95 1480.02 811.95H1472.26C1472.56 830.974 1470.34 860.914 1455.99 893.574Z" fill="#8EB7E8"/>
<path d="M1477.93 832.407H1326C1325.09 832.407 1324.36 833.121 1324.36 833.994C1324.36 834.867 1325.09 835.581 1326 835.581H1477.93C1478.84 835.581 1479.57 834.867 1479.57 833.994C1479.57 833.121 1478.84 832.407 1477.93 832.407Z" fill="white"/>
<path d="M1477.28 842.525H1326.71C1325.8 842.525 1325.07 843.233 1325.07 844.113C1325.07 844.986 1325.8 845.695 1326.71 845.695H1477.28C1478.18 845.695 1478.92 844.986 1478.92 844.113C1478.92 843.233 1478.18 842.525 1477.28 842.525Z" fill="white"/>
<path d="M403.594 798.366C393.051 794.725 383.274 794.571 377.91 794.483C369.176 794.347 365.591 795.486 354.353 794.878C348.751 794.571 345.55 794.064 340.439 793.433C322.222 791.184 312.389 789.969 303.507 790.819C285.722 792.512 273.215 802.325 269.739 805.128C252.943 818.658 248.169 836.602 246.067 844.975C241.24 864.217 244.689 879.665 248.592 897.137C253.59 919.518 261.701 934.104 269.854 948.773C274.492 957.111 281.645 968.794 293.329 976.265C298.019 979.262 304.172 983.192 310.978 982.024C314.037 981.493 315.925 980.159 320.085 980.171C324.77 980.189 327.974 981.894 330.783 983.103C334.632 984.762 351.106 989.99 372.014 979.528C374.681 978.194 376.695 979.941 378.972 980.248C387.314 981.38 394.636 975.911 399.335 972.4C424.893 953.323 438.074 906.666 438.074 906.666C442.267 896.712 447.161 880.774 445.703 861.107C444.812 849.029 443.353 829.374 428.176 813.784C418.644 804.001 407.494 799.711 403.594 798.366Z" fill="#FF6C3C"/>
<path d="M361.294 800.33C347.58 798.277 339.631 798.655 333.459 799.552C329.293 800.153 321.777 801.251 321.67 803.428C321.536 806.154 333.056 808.987 335.571 809.606C347.452 812.527 356.873 811.648 359.656 811.335C367.785 810.426 379.673 807.641 379.482 805.051C379.333 803.033 371.91 801.924 361.294 800.33Z" fill="#F95428"/>
<path d="M272.219 713.478C270.222 713.85 268.641 715.319 268.181 717.261C266.738 723.356 265.121 738.763 275.57 763.9C276.77 766.785 282.621 778.026 294.95 787.945C297.551 790.04 304.565 795.38 314.903 799.203C322.511 802.018 327.368 803.812 333.275 802.177C342.389 799.646 346.266 791.09 346.693 790.099C347.936 787.237 348.571 783.974 348.158 777.512C347.662 769.771 347.011 759.598 340.57 748.363C333.059 735.258 322.243 729.109 314.943 724.489C294.281 711.425 278.589 712.298 272.219 713.478Z" fill="#94CE02"/>
<path d="M403.595 798.366C393.052 794.725 383.275 794.571 377.911 794.483C377.678 794.483 377.45 794.477 377.225 794.477C386.345 798.43 395.509 804.508 402.186 813.955C426.102 847.778 403.76 904.341 375.344 931.927C351.319 955.258 315.618 964.988 277.141 960.427C281.269 966.139 286.527 971.916 293.33 976.265C298.02 979.262 304.173 983.192 310.979 982.024C314.038 981.493 315.927 980.159 320.086 980.171C324.771 980.189 327.974 981.894 330.784 983.103C334.633 984.762 351.107 989.99 372.015 979.528C374.682 978.194 376.695 979.941 378.973 980.248C387.315 981.38 394.637 975.911 399.336 972.4C424.894 953.323 438.075 906.666 438.075 906.666C442.268 896.712 447.162 880.774 445.704 861.107C444.813 849.029 443.354 829.374 428.177 813.784C418.645 804.001 407.495 799.711 403.595 798.366Z" fill="#F95428"/>
<path d="M294.841 810.468C290.837 810.828 288.171 812.769 285.388 814.799C281.668 817.513 273.416 823.538 272.924 833.817C272.517 842.361 277.536 852.268 286.461 855.767C298.658 860.547 312.696 851.212 316.135 839.8C319.097 829.976 313.378 821.331 312.899 820.629C312.543 820.11 305.099 809.559 294.841 810.468Z" fill="#FFA75F"/>
<path d="M324.489 743.731C324.784 742.191 324.913 741.217 324.818 741.199C324.735 741.182 324.611 742.12 324.489 743.731Z" fill="#ABDD0E"/>
<path d="M305.061 724.07C305.044 724.07 305.114 724.678 305.258 725.722C305.162 724.696 305.08 724.07 305.061 724.07Z" fill="#ABDD0E"/>
<path d="M331.13 779.259C328.347 779.512 324.903 772.744 324.73 770.921C323.746 760.53 324.108 748.788 324.489 743.731C323.561 748.587 320.965 759.12 318.327 763.64C316.992 765.929 312.267 758.884 311.39 756.081C308.359 746.404 305.939 730.791 305.254 725.722C305.696 730.49 306.459 744.008 302.857 745.053C299.981 745.885 294.979 738.574 292.716 734.508C287.928 725.911 287.536 717.733 287.144 717.78C286.777 717.821 288.315 724.961 287.914 729.109C286.774 740.916 313.527 760.17 337.562 791.302C343.138 798.524 339.728 757.916 337.617 757.869C335.763 757.822 335.902 778.822 331.13 779.259Z" fill="#ABDD0E"/>
<path d="M289.278 771.76C289.285 771.854 290.288 771.86 291.887 771.772C290.236 771.678 289.272 771.678 289.278 771.76Z" fill="#94C106"/>
<path d="M285.019 732.485C281.126 730.703 270.566 731.765 270.477 732.113C270.383 732.49 278.605 733.93 286.682 739.701C290.5 742.427 297.249 748.239 296.034 750.924C294.511 754.287 280.931 751.792 276.166 750.741C281.206 752.069 296.684 756.447 306.081 760.648C308.802 761.864 315.318 767.369 312.83 768.372C307.916 770.349 296.92 771.5 291.887 771.771C297.048 772.054 308.978 773.234 319.367 775.536C321.19 775.943 327.589 780.168 326.97 782.841C325.908 787.42 304.679 784.558 304.483 786.363C304.26 788.423 341.557 798.501 336.006 791.261C317.163 766.679 292.577 735.942 285.019 732.485Z" fill="#94C106"/>
<path d="M276.163 750.741C275.12 750.47 274.514 750.322 274.512 750.34C274.51 750.358 275.135 750.517 276.163 750.741Z" fill="#94C106"/>
<path d="M298.339 743.908C290.513 735.199 282.477 726.418 274.439 717.792C274.015 717.337 273.309 717.302 272.861 717.715C272.415 718.122 272.396 718.824 272.819 719.279C280.847 727.888 288.874 736.662 296.691 745.36C310.921 761.191 318.759 769.918 327.026 780.681C333.975 789.733 340.54 799.197 346.555 808.839C346.882 809.358 347.565 809.535 348.085 809.222C348.609 808.91 348.77 808.225 348.44 807.7C342.388 797.999 335.78 788.476 328.787 779.365C320.466 768.526 312.607 759.781 298.339 743.908Z" fill="#8AB20D"/>
<path d="M358.909 762.041C358.909 762.041 356.383 761.056 354.803 762.843C352.98 764.903 350.458 777.772 348.478 790.152C347.115 798.66 346.757 805.552 346.664 808.863C346.631 810.025 347.541 811.011 348.679 811.046C349.728 811.075 350.606 810.279 350.698 809.205C351.004 805.676 351.893 797.551 354.195 787.744C356.578 777.589 357.771 772.515 360.138 769.039C360.688 768.231 362.725 765.363 361.76 763.587C361.119 762.407 359.371 762.118 358.909 762.041Z" fill="#996633"/>
<path d="M358.484 766.874C356.116 770.343 354.924 775.424 352.54 785.579C350.239 795.38 349.349 803.511 349.044 807.039C348.951 808.107 348.074 808.904 347.025 808.875C346.901 808.875 346.782 808.851 346.665 808.827C346.665 808.839 346.664 808.851 346.664 808.863C346.631 810.025 347.541 811.011 348.679 811.046C349.728 811.075 350.606 810.279 350.698 809.205C351.004 805.676 351.893 797.551 354.195 787.744C356.578 777.589 357.77 772.515 360.138 769.039C360.688 768.231 362.725 765.363 361.76 763.587C361.456 763.026 360.903 762.672 360.356 762.442C360.396 764.142 358.936 766.207 358.484 766.874Z" fill="#935D2C"/>
</g>
<defs>
<filter id="filter0_diii_118_2" x="-5.14092" y="-4.79982" width="1706.2" height="1069.2" filterUnits="userSpaceOnUse" color-interpolation-filters="sRGB">
<feFlood flood-opacity="0" result="BackgroundImageFix"/>
<feColorMatrix in="SourceAlpha" type="matrix" values="0 0 0 0 0 0 0 0 0 0 0 0 0 0 0 0 0 0 127 0" result="hardAlpha"/>
<feOffset dx="10.4001" dy="10.4001"/>
<feGaussianBlur stdDeviation="6.50008"/>
<feComposite in2="hardAlpha" operator="out"/>
<feColorMatrix type="matrix" values="0 0 0 0 0 0 0 0 0 0 0 0 0 0 0 0 0 0 0.25 0"/>
<feBlend mode="normal" in2="BackgroundImageFix" result="effect1_dropShadow_118_2"/>
<feBlend mode="normal" in="SourceGraphic" in2="effect1_dropShadow_118_2" result="shape"/>
<feColorMatrix in="SourceAlpha" type="matrix" values="0 0 0 0 0 0 0 0 0 0 0 0 0 0 0 0 0 0 127 0" result="hardAlpha"/>
<feOffset dx="-7.8001" dy="-7.8001"/>
<feGaussianBlur stdDeviation="17.1602"/>
<feComposite in2="hardAlpha" operator="arithmetic" k2="-1" k3="1"/>
<feColorMatrix type="matrix" values="0 0 0 0 0 0 0 0 0 0 0 0 0 0 0 0 0 0 0.24 0"/>
<feBlend mode="normal" in2="shape" result="effect2_innerShadow_118_2"/>
<feColorMatrix in="SourceAlpha" type="matrix" values="0 0 0 0 0 0 0 0 0 0 0 0 0 0 0 0 0 0 127 0" result="hardAlpha"/>
<feOffset dx="7.8001" dy="7.8001"/>
<feGaussianBlur stdDeviation="4.29005"/>
<feComposite in2="hardAlpha" operator="arithmetic" k2="-1" k3="1"/>
<feColorMatrix type="matrix" values="0 0 0 0 1 0 0 0 0 1 0 0 0 0 1 0 0 0 0.5 0"/>
<feBlend mode="normal" in2="effect2_innerShadow_118_2" result="effect3_innerShadow_118_2"/>
<feColorMatrix in="SourceAlpha" type="matrix" values="0 0 0 0 0 0 0 0 0 0 0 0 0 0 0 0 0 0 127 0" result="hardAlpha"/>
<feOffset dx="13.0002" dy="13.0002"/>
<feGaussianBlur stdDeviation="22.1003"/>
<feComposite in2="hardAlpha" operator="arithmetic" k2="-1" k3="1"/>
<feColorMatrix type="matrix" values="0 0 0 0 1 0 0 0 0 1 0 0 0 0 1 0 0 0 0.15 0"/>
<feBlend mode="normal" in2="effect3_innerShadow_118_2" result="effect4_innerShadow_118_2"/>
</filter>
</defs>
</svg>
