<svg width="13059" height="8323" viewBox="0 0 13059 8323" fill="none" xmlns="http://www.w3.org/2000/svg">
<mask id="mask0_97_5" style="mask-type:alpha" maskUnits="userSpaceOnUse" x="0" y="0" width="13059" height="8323">
<rect x="0.400391" y="0.678711" width="13057.7" height="8322" rx="586.731" fill="#035A9C"/>
</mask>
<g mask="url(#mask0_97_5)">
<g filter="url(#filter0_iii_97_5)">
<path fill-rule="evenodd" clip-rule="evenodd" d="M14672.3 2393.22C14751.7 2292.99 14790.1 2180.84 14775.7 2064.83C14730.7 1700.25 14182.1 1435.64 13550.2 1473.8C13191.9 1495.44 12883.8 1609.83 12692.4 1771.31C12487.5 1667.34 12209.6 1611.62 11911.4 1629.63C11516.5 1653.48 11188.3 1800.46 11033.2 1997.55C10950.2 1990.7 10864 1989.6 10776.1 1994.91C10198.2 2029.81 9763.14 2328.43 9804.31 2661.9C9845.49 2995.37 10347.3 3237.41 10925.2 3202.51C11117 3190.93 11293.1 3150.3 11441.3 3088.98C11644.2 3259.44 11998.3 3361.11 12386.7 3337.65C12604.4 3324.5 12801.9 3273.92 12961.2 3198.15C13144.9 3440.46 13582.2 3595.79 14070.2 3566.32C14687.8 3529.02 15152.8 3209.89 15108.8 2853.52C15085 2661.28 14918 2497.47 14672.3 2393.22Z" fill="#1863A9"/>
</g>
<g filter="url(#filter1_diii_97_5)">
<path d="M6683.24 4643.61C6063.74 4587.88 5438.82 4531.18 4846.03 4361C3913.64 4093.34 3111.55 3561.06 2277.79 3102.11C1947.83 2920.47 1594.1 2744.79 1207 2727.56C470.934 2694.81 -156.684 3233.85 -889.918 3300.11L-907.094 4945.16V6678.48C1047.75 6940.26 3150.18 7205.65 5117.06 7038.3C5418.11 7012.69 5725.93 6985.48 6000.08 6871.47C6272.14 6758.32 6492.37 6567.45 6707 6380.1C7307.41 5855.98 7907.82 5331.87 8508.23 4807.76C7899.9 4753.04 7291.57 4698.33 6683.24 4643.61Z" fill="#5B8B3D"/>
<mask id="mask1_97_5" style="mask-type:luminance" maskUnits="userSpaceOnUse" x="362" y="2726" width="6003" height="3171">
<path d="M362.656 2726.15H6364.92V5896.24H362.656V2726.15Z" fill="white"/>
</mask>
<g mask="url(#mask1_97_5)">
<g opacity="0.320007">
<path d="M4842.99 4361C3910.6 4093.33 3108.51 3561.05 2274.75 3102.09C1944.79 2920.46 1591.06 2744.78 1203.96 2727.55C910.827 2714.5 634.906 2792.17 362.656 2894.52C594.495 2888.7 847.258 2987.7 1028.07 3128.94C1310.01 3349.16 1502.48 3652.55 1799.86 3855.92C1965.39 3969.12 2159.06 4048.05 2315.34 4171.31C2802.17 4555.26 2790.39 5229.83 3080.29 5748.94C3110.23 5802.55 3147.55 5858.03 3208.84 5882.38C3270.9 5907.04 3342.7 5894.04 3408.74 5879.86C4479.11 5650.19 5493.6 5215.49 6364.91 4614.62C5849.77 4565.38 5335.3 4502.33 4842.99 4361Z" fill="#0A445F"/>
</g>
</g>
<path d="M-907.014 5211.3C-656.367 5341 -437.202 5518.98 -268.833 5729.53C-220.5 5505.51 -75.7286 5299.22 128.925 5162.73C141.623 5291.66 154.326 5420.59 167.024 5549.51C244.957 5402.84 429.039 5306.98 610.316 5318.64C542.906 5400.87 492.065 5493.9 460.956 5591.95C537.398 5580.97 617.349 5590.27 688.093 5618.37C652.374 5655.53 628.566 5701.73 620.189 5750.13C826.197 5590.36 1114.28 5518.71 1383.07 5560.4C1322.62 5591.19 1346.28 5691.86 1415.49 5698.33C1514.1 5553.6 1550.38 5375.91 1515.32 5209.4C1644.46 5210.72 1770.76 5273.93 1839.47 5371.61C1858.91 5399.23 1877.57 5432.02 1912.59 5441.28C1957.27 5453.1 1999.55 5420.2 2033.77 5391.94C2244.33 5218.07 2538.55 5127.96 2824.23 5149.84C2847.73 5151.64 2872.48 5154.63 2891.03 5167.63C2926.66 5192.62 2923.55 5240.77 2917.08 5280.82C2893.4 5427.3 2869.71 5573.77 2846.03 5720.25C2833.04 5800.61 2816.78 5886.99 2752.28 5944.19C2689.57 5999.81 2596.03 6014.64 2508.65 6026.48C1376.49 6179.94 236.199 6285.59 -907.121 6342.96L-907.014 5211.3Z" fill="#F9A137"/>
<path d="M13636 5266.33C12752.1 4258.03 11116.2 4056.83 9942.36 3321.61C9722.99 3184.2 9501.38 3027.82 9236.02 2994.75C8892.62 2951.96 8567.33 3124.55 8269.94 3283.77C7677.52 3600.94 7063.83 3892.67 6409.9 4091.22C5954.99 4229.35 5483.83 4321.4 5028.9 4459.49C4285.93 4685.02 3596.48 5030.03 2918.71 5383.26C2737.55 5477.67 2555.76 5573.28 2359.52 5639.37C2113.89 5722.1 1851.78 5756.55 1592.04 5790.47C774.749 5897.18 -89.621 5992.54 -907.094 6099.21V7804.65L5341.61 10364L13737.7 9613.92V5909.29C13737.7 5909.29 13742.6 5387.84 13636 5266.33Z" fill="#A3D8D9"/>
<mask id="mask2_97_5" style="mask-type:luminance" maskUnits="userSpaceOnUse" x="-912" y="2988" width="10591" height="4603">
<path d="M-912 2988.13H9678.89V7590.45H-912V2988.13Z" fill="white"/>
</mask>
<g mask="url(#mask2_97_5)">
<g opacity="0.410004">
<path d="M8318.56 4060.02C8719.11 3720.3 9018.21 3192 9567.92 3143.98L9574.26 3161.85C9611.13 3169.26 9646.44 3166.51 9678.88 3156.15C9542.51 3078.52 9399.37 3014.54 9240.55 2994.75C8897.15 2951.95 8571.85 3124.55 8274.47 3283.77C7682.05 3600.94 7068.36 3892.67 6414.43 4091.22C5959.52 4229.35 5488.36 4321.4 5033.43 4459.49C4290.46 4685.02 3601.02 5030.03 2923.24 5383.26C2742.08 5477.67 2560.3 5573.28 2364.05 5639.37C2118.42 5722.1 1856.31 5756.55 1596.57 5790.46C777.657 5897.39 -93.0904 5992.92 -912 6099.84V7549.08C-791.999 7609.46 -633.983 7592.2 -494.06 7569.52C742.54 7369.09 1955.7 7053.46 3119.4 6629.42C3366.02 6539.55 3621.84 6437.06 3782.12 6247.03C3884.17 6126.02 3938.77 5979.15 4018 5845.2C4397.71 5203.26 5268.37 4946.26 6065.84 4806C6863.31 4665.73 7729.14 4559.94 8318.56 4060.02Z" fill="#0A445F"/>
</g>
</g>
<path d="M8691.02 6327.33L8685.87 6328.47C8687.79 6326.38 8689.7 6324.31 8691.62 6322.22L8691.02 6327.33ZM9569.8 6342.93L9564.64 6344.06C9566.56 6341.97 9568.48 6339.9 9570.4 6337.81C9570.2 6339.52 9570 6341.22 9569.8 6342.93ZM11193 6665.85C10842.9 6672.11 10507 6790.74 10160.7 6839.15C10022.8 6858.42 9883.29 6866.57 9743.23 6870.33V6810.82C9745.68 6808.57 9747.85 6806.1 9749.63 6803.53C9756.51 6793.61 9759.84 6782.13 9766.95 6772.32C9768.42 6770.3 9770.24 6768.23 9772.92 6767.55C9773.22 6767.47 9773.51 6767.49 9773.8 6767.45C9778.18 6768.14 9781.72 6772.45 9784.35 6776.02C9790.26 6784.04 9799.53 6791.11 9810.65 6791.84C9811.43 6791.89 9812.21 6791.89 9812.98 6791.86C9823.47 6792.5 9834.63 6785.32 9834.45 6776.66C9853.61 6789.05 9872.76 6801.46 9891.92 6813.86C9895.72 6816.31 9899.68 6818.84 9904.34 6819.67C9905.58 6819.89 9906.8 6819.91 9907.99 6819.82C9918.17 6820.65 9926.84 6810.79 9925.01 6802.59C9933.07 6810.24 9943.09 6817.13 9953.96 6816.68C9956.27 6816.79 9958.62 6816.62 9961.01 6816.03C9972.78 6813.12 9978.85 6801.36 9977.67 6791.01C9976.49 6780.66 9969.9 6771.41 9963.69 6762.45C9930.48 6714.58 9903.19 6663.79 9882.25 6611.19C9886.69 6612.29 9891.22 6613.11 9895.8 6613.53C9908.01 6614.67 9923.95 6610.43 9924.58 6599.47C9924.63 6598.77 9924.59 6598.06 9924.5 6597.34C9924.53 6597.1 9924.59 6596.88 9924.61 6596.64C9925.02 6589.42 9918.47 6581.6 9917.59 6575.13C9917.88 6573.61 9918.64 6572.2 9920.11 6570.92C9932.46 6567.97 9943.13 6581.52 9955.89 6580.89C9966.32 6580.38 9972.67 6570.14 9972.05 6560.67C9972.25 6558.16 9972 6555.62 9971.21 6553.26C9967.72 6542.86 9957.81 6535.37 9948.55 6528.33C9907.5 6497.1 9869.79 6462.37 9836.03 6424.81C9836.45 6411.39 9829.38 6396.84 9821.36 6384.82C9809.89 6367.63 9796.17 6348.75 9800.42 6329.31C9818.25 6342.7 9836.07 6356.09 9853.9 6369.48C9857.55 6372.22 9861.85 6375.12 9866.54 6374.6C9867.39 6374.7 9868.23 6374.72 9869.1 6374.6C9875.59 6373.67 9880.64 6371.8 9878.62 6366.21C9876.61 6360.62 9876.61 6360.62 9864.29 6347.16C9797.68 6274.35 9752.02 6197.44 9728.48 6110.87C9739.53 6124.31 9749.95 6138.19 9759.6 6152.48C9759.64 6152.48 9759.66 6152.46 9759.68 6152.45C9759.69 6152.46 9759.7 6152.47 9759.71 6152.48C9763.53 6151.84 9763.31 6146.9 9762.1 6143.6C9750.94 6113.17 9739.77 6082.74 9728.61 6052.31C9745.23 6068.34 9763.33 6083.14 9782.66 6096.52C9782.69 6096.51 9782.69 6096.5 9782.72 6096.48C9782.73 6096.5 9782.75 6096.51 9782.77 6096.52C9788.73 6094 9786.31 6085.99 9783.02 6080.89C9765.04 6052.97 9747.06 6025.05 9729.08 5997.13C9730.05 5997.01 9731 5996.94 9731.96 5996.93C9746.31 5996.73 9758.35 6008.12 9766.39 6019.24C9774.96 6031.11 9783.42 6044.89 9798.48 6049.22C9798.48 6049.2 9798.48 6049.19 9798.48 6049.17C9798.52 6049.19 9798.55 6049.2 9798.59 6049.22C9793.05 6001.57 9750.36 5965.43 9720.32 5925.76C9698.79 5897.32 9683.18 5865.71 9667.69 5834.3C9650.54 5799.52 9633.4 5764.75 9616.25 5729.98L9616.16 5730.01C9616.15 5730 9616.14 5729.99 9616.14 5729.98L9605.78 5733.53C9593.82 5858.64 9547.53 5981.02 9472.08 6086.98C9474.7 6087.33 9477.33 6087.51 9479.95 6087.53C9498.18 6087.71 9516.17 6080.19 9530.24 6069.55C9546.22 6057.45 9558.01 6041.63 9569.55 6026.02C9561.32 6056.9 9549.23 6086.96 9533.56 6115.45C9533.6 6115.44 9533.64 6115.43 9533.68 6115.42C9533.68 6115.43 9533.67 6115.44 9533.66 6115.45C9543.57 6113.21 9552.67 6109.55 9561.13 6104.9C9517.11 6212.34 9470.5 6322.19 9384.3 6406.67C9385.38 6406.34 9386.45 6405.98 9387.53 6405.65C9387.19 6405.99 9386.87 6406.34 9386.53 6406.68C9432.85 6393.13 9474.03 6366.08 9502.47 6330.73C9500.78 6363.96 9466.29 6388.94 9452.45 6420.33C9451.25 6423.06 9450.19 6425.98 9450.8 6428.85C9451.95 6434.21 9458.69 6437.16 9464.87 6436.72C9466.5 6436.82 9468.14 6436.71 9469.68 6436.35C9476.42 6434.74 9481.58 6430.03 9486.33 6425.46C9497.28 6414.95 9507.9 6404.17 9518.4 6393.3C9493.05 6455.17 9455.88 6513.18 9408.86 6563.95C9393.35 6580.69 9375.94 6598.42 9374.46 6620.12C9374.56 6620.08 9374.66 6620.03 9374.78 6620C9374.63 6620.98 9374.5 6621.96 9374.43 6622.95C9391.75 6617.03 9408.5 6609.84 9424.57 6601.58C9391.91 6658.02 9348.83 6710.14 9297.13 6755.22C9287 6764.05 9275.65 6775.41 9280.07 6787.14C9280.75 6786.94 9281.42 6786.7 9282.11 6786.5C9282.18 6786.72 9282.22 6786.93 9282.3 6787.15C9348.02 6768.63 9398.72 6725.07 9446.39 6682.35C9436.43 6705.29 9426.47 6728.23 9416.52 6751.16C9417.47 6750.73 9418.39 6750.25 9419.34 6749.81C9419.15 6750.26 9418.95 6750.72 9418.75 6751.18C9439.88 6741.7 9458.6 6728.42 9473.37 6712.5C9482.25 6719.93 9472.49 6733.6 9462.99 6741.53C9423.8 6774.22 9390.98 6812.39 9366.28 6854.02C9367.16 6853.85 9368.01 6853.61 9368.88 6853.43C9368.76 6853.63 9368.63 6853.83 9368.51 6854.03C9437.45 6840.84 9490.45 6795.87 9539.06 6752.21C9530.31 6775.33 9527.7 6800.1 9531.65 6824.15C9532.36 6823.79 9533.04 6823.4 9533.75 6823.02C9533.8 6823.4 9533.83 6823.78 9533.89 6824.16C9554.66 6813.61 9572.84 6799.45 9587.05 6782.84C9595.42 6796.89 9603.79 6810.93 9612.15 6824.98C9613.71 6827.59 9615.51 6830.41 9618.69 6831.56C9620.03 6832.04 9621.4 6832.14 9622.76 6832.01C9624.28 6832.21 9625.82 6832 9627.33 6831.55V6872.57C9371.56 6875.94 9115.03 6870.89 8864.46 6898.1V6795.22C8866.91 6792.98 8869.08 6790.51 8870.86 6787.94C8877.74 6778.02 8881.07 6766.53 8888.18 6756.73C8889.65 6754.71 8891.46 6752.64 8894.15 6751.96C8894.45 6751.88 8894.73 6751.9 8895.03 6751.86C8899.41 6752.55 8902.95 6756.86 8905.58 6760.43C8911.48 6768.45 8920.76 6775.52 8931.88 6776.25C8932.66 6776.3 8933.43 6776.3 8934.21 6776.27C8944.7 6776.9 8955.86 6769.73 8955.68 6761.06C8974.84 6773.46 8993.99 6785.87 9013.15 6798.27C9016.94 6800.72 9020.9 6803.24 9025.57 6804.08C9026.81 6804.3 9028.03 6804.32 9029.22 6804.23C9039.39 6805.06 9048.06 6795.2 9046.24 6787C9054.3 6794.64 9064.31 6801.54 9075.19 6801.09C9077.5 6801.2 9079.85 6801.03 9082.23 6800.44C9094.01 6797.53 9100.07 6785.76 9098.89 6775.41C9097.71 6765.07 9091.13 6755.82 9084.92 6746.86C9051.71 6698.99 9024.41 6648.2 9003.48 6595.6C9007.92 6596.7 9012.44 6597.52 9017.02 6597.94C9029.24 6599.08 9045.18 6594.84 9045.81 6583.89C9045.85 6583.18 9045.81 6582.46 9045.73 6581.74C9045.76 6581.51 9045.82 6581.29 9045.83 6581.05C9046.25 6573.83 9039.7 6566.01 9038.82 6559.54C9039.11 6558.02 9039.87 6556.61 9041.34 6555.34C9053.68 6552.38 9064.36 6565.93 9077.12 6565.3C9087.55 6564.79 9093.9 6554.55 9093.28 6545.08C9093.47 6542.56 9093.22 6540.03 9092.44 6537.67C9088.94 6527.27 9079.04 6519.78 9069.78 6512.74C9028.72 6481.51 8991.02 6446.78 8957.26 6409.22C8957.67 6395.8 8950.6 6381.25 8942.59 6369.23C8931.11 6352.04 8917.39 6333.16 8921.66 6313.72C8939.48 6327.1 8957.3 6340.5 8975.12 6353.89C8978.78 6356.63 8983.08 6359.52 8987.77 6359.01C8988.62 6359.1 8989.47 6359.13 8990.33 6359.01C8996.82 6358.08 9001.87 6356.21 8999.86 6350.62C8997.83 6345.03 8997.83 6345.03 8985.52 6331.57C8918.9 6258.76 8873.25 6181.85 8849.7 6095.27C8860.77 6108.72 8871.18 6122.59 8880.83 6136.89C8880.86 6136.89 8880.89 6136.87 8880.92 6136.86C8880.93 6136.87 8880.93 6136.88 8880.94 6136.89C8884.76 6136.25 8884.54 6131.3 8883.33 6128.01C8872.17 6097.58 8861 6067.15 8849.84 6036.72C8866.46 6052.74 8884.55 6067.55 8903.89 6080.93C8903.91 6080.92 8903.92 6080.9 8903.94 6080.89C8903.96 6080.9 8903.98 6080.91 8903.99 6080.93C8909.96 6078.41 8907.54 6070.41 8904.25 6065.3L8850.31 5981.54C8851.27 5981.42 8852.23 5981.35 8853.18 5981.33C8867.54 5981.14 8879.58 5992.53 8887.61 6003.64C8896.2 6015.52 8904.65 6029.29 8919.71 6033.62C8919.71 6033.61 8919.7 6033.6 8919.7 6033.58C8919.74 6033.59 8919.78 6033.61 8919.82 6033.62C8914.27 5985.98 8871.59 5949.85 8841.54 5910.17C8820.02 5881.73 8804.41 5850.12 8788.91 5818.71C8771.77 5783.93 8754.62 5749.16 8737.48 5714.38L8737.38 5714.42C8737.37 5714.41 8737.37 5714.39 8737.36 5714.38L8727.01 5717.94C8715.05 5843.05 8668.76 5965.43 8593.31 6071.38C8595.92 6071.74 8598.55 6071.92 8601.18 6071.94C8619.41 6072.12 8637.4 6064.59 8651.46 6053.96C8667.45 6041.86 8679.23 6026.04 8690.78 6010.43C8682.55 6041.31 8670.46 6071.37 8654.78 6099.86C8654.83 6099.85 8654.87 6099.83 8654.91 6099.83C8654.9 6099.84 8654.89 6099.85 8654.89 6099.86C8664.8 6097.62 8673.89 6093.96 8682.36 6089.31C8638.33 6196.75 8591.73 6306.6 8505.52 6391.07C8506.61 6390.75 8507.68 6390.39 8508.76 6390.06C8508.42 6390.4 8508.1 6390.75 8507.76 6391.09C8554.07 6377.54 8595.26 6350.49 8623.7 6315.14C8622.01 6348.37 8587.51 6373.35 8573.67 6404.74C8572.47 6407.46 8571.42 6410.39 8572.03 6413.26C8573.17 6418.62 8579.92 6421.56 8586.1 6421.13C8587.73 6421.22 8589.37 6421.12 8590.91 6420.76C8597.65 6419.15 8602.81 6414.43 8607.56 6409.87C8618.51 6399.36 8629.13 6388.58 8639.63 6377.71C8614.27 6439.58 8577.11 6497.59 8530.09 6548.36C8514.58 6565.1 8497.17 6582.83 8495.68 6604.52C8495.79 6604.49 8495.89 6604.45 8496 6604.41C8495.86 6605.39 8495.73 6606.36 8495.66 6607.36C8512.97 6601.44 8529.72 6594.25 8545.79 6585.99C8513.14 6642.43 8470.05 6694.54 8418.35 6739.63C8408.23 6748.46 8396.88 6759.81 8401.29 6771.54C8401.98 6771.35 8402.65 6771.11 8403.34 6770.91C8403.41 6771.13 8403.45 6771.34 8403.53 6771.56C8469.25 6753.04 8519.95 6709.48 8567.62 6666.76C8557.66 6689.7 8547.7 6712.64 8537.74 6735.57C8538.7 6735.14 8539.62 6734.66 8540.57 6734.21C8540.37 6734.68 8540.17 6735.13 8539.98 6735.58C8561.11 6726.11 8579.82 6712.82 8594.6 6696.9C8603.48 6704.33 8593.72 6718.01 8584.21 6725.94C8545.03 6758.63 8512.21 6796.8 8487.5 6838.43C8488.39 6838.26 8489.24 6838.02 8490.12 6837.84C8489.99 6838.04 8489.86 6838.24 8489.74 6838.44C8558.68 6825.25 8611.68 6780.28 8660.29 6736.62C8651.54 6759.74 8648.93 6784.51 8652.88 6808.56C8653.59 6808.2 8654.27 6807.8 8654.97 6807.43C8655.03 6807.81 8655.06 6808.19 8655.11 6808.57C8675.89 6798.02 8694.07 6783.86 8708.28 6767.25C8716.65 6781.3 8725.01 6795.34 8733.38 6809.39C8734.93 6812 8736.74 6814.82 8739.92 6815.96C8741.25 6816.45 8742.63 6816.55 8743.99 6816.42C8745.51 6816.62 8747.05 6816.41 8748.56 6815.96V6906.82H8792.76C8692.09 6920.45 8592.49 6939.95 8494.42 6968.05C7857.88 7150.47 7319.32 7683.02 6655.49 7631.99L6911.78 7651.05C7220.35 7928.2 7528.91 8205.35 7837.48 8482.5C7872.38 8513.85 7920.08 8547.68 7964.52 8529.56C8003.46 8513.69 8013.69 8467.98 8036.44 8434.58C8085.15 8363.09 8189.82 8350.8 8280.63 8344.84C9859.59 8241.16 11417.2 7862.33 12848.5 7233.86C12981.4 7175.5 13683.8 6825.96 13740.1 6699.7C13081.9 6724.91 11869 6653.78 11193 6665.85Z" fill="#0A445F"/>
<mask id="mask3_97_5" style="mask-type:luminance" maskUnits="userSpaceOnUse" x="7147" y="6699" width="6594" height="2995">
<path d="M7147.3 6699.74H13740.1V9693.31H7147.3V6699.74Z" fill="white"/>
</mask>
<g mask="url(#mask3_97_5)">
<g opacity="0.800003">
<path d="M11470.5 6704.77C11215.8 6705.34 10956.3 6706.53 10713.7 6775.72C10525.7 6829.33 10354.9 6921.85 10188.6 7016.77C9714.33 7287.41 9245.83 7590.1 8700.05 7712.68C8164.87 7832.89 7532.59 7793.66 7147.33 8146.6C7975.67 8823.2 8876.87 9531.5 9988.78 9668.49C11262.8 9825.44 12472.7 9197.13 13723.5 8929.96L13740.1 7685.25V6699.74C12983.6 6701.42 12227 6703.09 11470.5 6704.77Z" fill="#EC4825"/>
</g>
</g>
<path d="M7400.69 7659.79C7415.92 7685.37 7431.15 7710.95 7446.39 7736.53C7449.23 7741.29 7452.5 7746.42 7458.29 7748.51C7460.73 7749.38 7463.22 7749.58 7465.71 7749.34C7468.48 7749.7 7471.28 7749.31 7474.03 7748.48V7766.61C7423.78 7752.29 7373.05 7738.45 7321.89 7725.1C7352.24 7707.28 7379.01 7685.12 7400.69 7659.79ZM7313.12 7604.18C7299.19 7641.04 7293.92 7680.23 7297.69 7718.81C7266.55 7710.79 7235.22 7702.98 7203.77 7695.32C7242.31 7667.01 7278.34 7635.42 7313.12 7604.18ZM7144.52 7476.82C7126.38 7518.58 7108.25 7560.34 7090.11 7602.1C7091.85 7601.32 7093.54 7600.44 7095.27 7599.64C7094.9 7600.46 7094.54 7601.3 7094.18 7602.12C7132.66 7584.86 7166.75 7560.67 7193.65 7531.69C7209.83 7545.22 7192.05 7570.13 7174.75 7584.56C7143.53 7610.61 7114.52 7638.57 7088 7668.13C7036.09 7656.36 6983.79 7645.07 6931.15 7634.28C7011.47 7594.1 7079.54 7535.03 7144.52 7476.82ZM7369.25 6858.68L7359.91 6860.73C7363.38 6856.95 7366.87 6853.16 7370.34 6849.37L7369.25 6858.68ZM8737.09 8252.03C8748.69 8271.51 8760.29 8290.99 8771.9 8310.48C8774.05 8314.1 8776.55 8318.01 8780.96 8319.6C8782.82 8320.27 8784.72 8320.41 8786.61 8320.23C8788.72 8320.51 8790.86 8320.21 8792.95 8319.58V8329.11C8765.69 8312.08 8738.01 8295.28 8709.91 8278.72C8719.82 8270.48 8728.94 8261.55 8737.09 8252.03ZM8670.52 8209.56C8665.55 8222.65 8662.05 8236.12 8659.99 8249.77C8652.9 8245.73 8645.76 8241.71 8638.62 8237.7C8649.44 8228.39 8660.05 8218.96 8670.52 8209.56ZM8541.98 8112.65C8533.44 8132.32 8524.9 8152 8516.35 8171.67C8507.54 8167.08 8498.67 8162.53 8489.79 8158C8507.65 8143.2 8524.96 8127.9 8541.98 8112.65ZM8579.4 8154.46C8591.72 8164.77 8578.18 8183.73 8565 8194.73C8564.37 8195.25 8563.78 8195.81 8563.16 8196.33C8556.52 8192.78 8549.88 8189.24 8543.22 8185.72C8556.56 8176.44 8568.72 8165.95 8579.4 8154.46ZM8713.14 7641.86L8705.99 7643.43C8708.65 7640.54 8711.32 7637.65 8713.98 7634.76C8713.71 7637.13 8713.43 7639.49 8713.14 7641.86ZM5590.95 7431.76L5654.25 7472.74C5619.8 7470.92 5585.32 7469.32 5550.82 7467.89C5572.09 7464.56 5591.3 7449.47 5590.95 7431.76ZM5427.73 7421.28C5431.27 7416.4 5435.67 7411.39 5442.15 7409.74C5442.89 7409.55 5443.6 7409.44 5444.32 7409.34C5454.9 7411.02 5463.44 7421.58 5469.81 7430.23C5482 7446.79 5500.13 7461.64 5521.91 7466.73C5482.82 7465.24 5443.71 7464.02 5404.58 7463.04C5411.49 7448.76 5418.22 7434.4 5427.73 7421.28ZM4992.77 7446.72C4995.81 7451.83 4998.85 7456.94 5001.89 7462.05C4994.07 7462.2 4986.25 7462.35 4978.43 7462.53C4983.37 7457.36 4988.16 7452.1 4992.77 7446.72ZM4876.5 7372.88C4865.07 7403.11 4858.01 7434.51 4855.48 7466.19C4824.48 7467.33 4793.5 7468.64 4762.54 7470.11C4802.13 7439.01 4839.84 7405.8 4876.5 7372.88ZM4951.03 6383.06L4938.62 6385.78C4943.24 6380.76 4947.86 6375.73 4952.48 6370.7C4952 6374.82 4951.51 6378.94 4951.03 6383.06ZM11837.9 10096.9C11358.8 9917.11 10800.7 9803.6 10369.8 9588.36C9813.3 9310.36 9537.62 8898.85 9111.76 8554.93C9061.26 8514.15 9008.51 8474.44 8953.71 8435.78V8290.85C8957.11 8287.73 8960.11 8284.29 8962.58 8280.73C8972.13 8266.97 8976.74 8251.04 8986.61 8237.43C8988.64 8234.63 8991.16 8231.76 8994.88 8230.81C8995.3 8230.71 8995.7 8230.73 8996.11 8230.67C9002.18 8231.64 9007.09 8237.61 9010.75 8242.57C9018.94 8253.7 9031.79 8263.5 9047.22 8264.51C9048.3 8264.59 9049.38 8264.58 9050.46 8264.53C9065.01 8265.42 9080.48 8255.46 9080.24 8243.45C9106.81 8260.65 9133.38 8277.85 9159.94 8295.05C9165.21 8298.45 9170.7 8301.95 9177.18 8303.11C9178.89 8303.42 9180.58 8303.44 9182.23 8303.32C9196.35 8304.47 9208.37 8290.79 9205.83 8279.42C9217.02 8290.03 9230.91 8299.59 9245.99 8298.95C9249.2 8299.12 9252.45 8298.88 9255.77 8298.06C9272.1 8294.02 9280.51 8277.7 9278.87 8263.36C9277.23 8249 9268.11 8236.17 9259.49 8223.74C9213.43 8157.35 9175.57 8086.9 9146.53 8013.95C9152.69 8015.47 9158.96 8016.6 9165.32 8017.19C9182.26 8018.77 9204.37 8012.89 9205.25 7997.69C9205.31 7996.72 9205.25 7995.72 9205.13 7994.73C9205.17 7994.41 9205.26 7994.1 9205.28 7993.77C9205.86 7983.76 9196.77 7972.9 9195.55 7963.93C9195.95 7961.83 9197 7959.87 9199.04 7958.09C9216.17 7954 9230.97 7972.78 9248.67 7971.92C9263.14 7971.22 9271.94 7957.01 9271.08 7943.87C9271.35 7940.38 9271.01 7936.87 9269.91 7933.6C9265.07 7919.16 9251.34 7908.79 9238.49 7899.01C9181.54 7855.7 9129.25 7807.52 9082.42 7755.43C9082.99 7736.82 9073.19 7716.64 9062.07 7699.97C9046.16 7676.12 9027.13 7649.93 9033.04 7622.97C9057.76 7641.53 9082.48 7660.11 9107.2 7678.68C9112.27 7682.49 9118.23 7686.5 9124.74 7685.79C9125.91 7685.92 9127.09 7685.96 9128.3 7685.79C9137.3 7684.49 9144.3 7681.9 9141.5 7674.15C9138.7 7666.4 9138.7 7666.4 9121.63 7647.73C9029.19 7546.71 8965.85 7440 8933.2 7319.87C8948.57 7338.56 8963 7357.85 8976.41 7377.7C8976.46 7377.7 8976.49 7377.67 8976.53 7377.66C8976.54 7377.67 8976.55 7377.69 8976.57 7377.7C8981.86 7376.81 8981.55 7369.96 8979.88 7365.38C8964.4 7323.17 8948.91 7280.97 8933.43 7238.76C8956.48 7260.99 8981.58 7281.53 9008.39 7300.08C9008.42 7300.07 9008.44 7300.05 9008.47 7300.03C9008.5 7300.05 9008.52 7300.07 9008.54 7300.08C9016.81 7296.58 9013.46 7285.49 9008.89 7278.4L8934.07 7162.23C8935.42 7162.06 8936.75 7161.96 8938.07 7161.94C8957.98 7161.68 8974.68 7177.47 8985.82 7192.88C8997.72 7209.36 9009.45 7228.46 9030.34 7234.47C9030.34 7234.45 9030.33 7234.44 9030.33 7234.42C9030.39 7234.44 9030.44 7234.45 9030.49 7234.47C9022.8 7168.39 8963.59 7118.27 8921.92 7063.23C8892.06 7023.79 8870.41 6979.95 8848.93 6936.37C8825.14 6888.14 8801.36 6839.91 8777.58 6791.68L8777.45 6791.72C8777.44 6791.71 8777.43 6791.69 8777.42 6791.68L8763.07 6796.6C8746.48 6970.14 8682.26 7139.89 8577.6 7286.84C8581.24 7287.34 8584.89 7287.58 8588.52 7287.62C8613.82 7287.87 8638.77 7277.43 8658.28 7262.67C8680.45 7245.9 8696.79 7223.95 8712.81 7202.3C8701.39 7245.13 8684.62 7286.82 8662.88 7326.34C8662.94 7326.33 8663 7326.31 8663.05 7326.29C8663.04 7326.31 8663.04 7326.32 8663.03 7326.34C8676.78 7323.23 8689.39 7318.15 8701.13 7311.7C8640.07 7460.73 8575.43 7613.1 8455.85 7730.26C8457.37 7729.82 8458.88 7729.31 8460.39 7728.84C8459.91 7729.32 8459.44 7729.8 8458.95 7730.28C8523.27 7711.46 8580.45 7673.88 8619.9 7624.77C8617.68 7670.96 8569.6 7705.62 8550.38 7749.22C8548.72 7752.99 8547.25 7757.05 8548.1 7761.03C8549.69 7768.47 8559.04 7772.55 8567.61 7771.95C8569.87 7772.08 8572.15 7771.94 8574.28 7771.44C8583.63 7769.21 8590.79 7762.66 8597.38 7756.33C8612.56 7741.75 8627.29 7726.8 8641.86 7711.73C8606.69 7797.54 8555.14 7878 8489.93 7948.42C8468.42 7971.64 8444.26 7996.24 8442.2 8026.32C8442.35 8026.27 8442.49 8026.22 8442.64 8026.17C8442.46 8027.52 8442.26 8028.88 8442.17 8030.25C8466.16 8022.05 8489.4 8012.14 8511.66 8000.7C8486.54 8044.11 8457.01 8085.69 8423.4 8124.77C8195.88 8013.24 7947.99 7914.97 7685.09 7830.53V7710.76C7689.56 7706.67 7693.5 7702.15 7696.74 7697.48C7709.28 7679.41 7715.34 7658.49 7728.28 7640.63C7730.95 7636.95 7734.27 7633.18 7739.15 7631.94C7739.7 7631.8 7740.24 7631.71 7740.78 7631.64C7748.75 7632.9 7755.18 7640.86 7759.98 7647.37C7770.73 7661.98 7787.61 7674.85 7807.87 7676.18C7809.29 7676.27 7810.71 7676.27 7812.13 7676.21C7831.23 7677.37 7851.53 7664.29 7851.22 7648.53C7886.1 7671.11 7920.98 7693.69 7955.87 7716.27C7962.78 7720.74 7969.99 7725.34 7978.49 7726.86C7980.75 7727.26 7982.96 7727.29 7985.13 7727.13C8003.66 7728.64 8019.45 7710.68 8016.12 7695.75C8030.8 7709.68 8049.03 7722.23 8068.84 7721.4C8073.05 7721.61 8077.32 7721.31 8081.67 7720.24C8103.12 7714.93 8114.16 7693.5 8112.01 7674.66C8109.87 7655.83 8097.88 7638.97 8086.55 7622.65C8026.1 7535.5 7976.4 7443.03 7938.28 7347.27C7946.35 7349.26 7954.59 7350.7 7962.92 7351.47C7985.17 7353.53 8014.19 7345.82 8015.35 7325.87C8015.42 7324.58 8015.35 7323.28 8015.2 7321.98C8015.25 7321.55 8015.36 7321.15 8015.39 7320.71C8016.14 7307.57 8004.21 7293.31 8002.62 7281.54C8003.14 7278.78 8004.52 7276.2 8007.2 7273.88C8029.68 7268.5 8049.12 7293.17 8072.36 7292.03C8091.36 7291.1 8102.92 7272.45 8101.78 7255.2C8102.14 7250.62 8101.69 7246.01 8100.25 7241.72C8093.89 7222.77 8075.86 7209.14 8059 7196.31C7984.23 7139.44 7915.56 7076.19 7854.09 7007.79C7854.84 6983.36 7841.97 6956.86 7827.37 6934.97C7806.47 6903.67 7781.49 6869.29 7789.25 6833.88C7821.71 6858.26 7854.16 6882.64 7886.62 6907.03C7893.27 6912.03 7901.1 6917.29 7909.65 6916.36C7911.18 6916.53 7912.73 6916.59 7914.32 6916.35C7926.14 6914.66 7935.33 6911.26 7931.65 6901.08C7927.98 6890.9 7927.98 6890.9 7905.56 6866.39C7784.2 6733.76 7701.04 6593.66 7658.17 6435.94C7678.34 6460.47 7697.31 6485.8 7714.9 6511.86C7714.97 6511.85 7715 6511.82 7715.06 6511.81C7715.07 6511.83 7715.09 6511.84 7715.1 6511.87C7722.06 6510.7 7721.65 6501.7 7719.45 6495.69C7699.12 6440.28 7678.8 6384.86 7658.47 6329.45C7688.73 6358.63 7721.68 6385.6 7756.89 6409.96C7756.93 6409.94 7756.96 6409.92 7757 6409.9C7757.03 6409.92 7757.06 6409.93 7757.09 6409.96C7767.95 6405.36 7763.54 6390.8 7757.55 6381.49L7659.32 6228.96C7661.08 6228.74 7662.83 6228.62 7664.55 6228.59C7690.7 6228.23 7712.62 6248.97 7727.25 6269.21C7742.88 6290.84 7758.28 6315.92 7785.71 6323.81C7785.7 6323.79 7785.7 6323.76 7785.7 6323.74C7785.77 6323.76 7785.84 6323.79 7785.9 6323.81C7775.8 6237.04 7698.07 6171.25 7643.36 6098.99C7604.16 6047.21 7575.73 5989.65 7547.52 5932.44C7516.29 5869.11 7485.07 5805.78 7453.84 5742.46L7453.68 5742.51C7453.67 5742.49 7453.66 5742.48 7453.65 5742.46L7434.8 5748.92C7413.01 5976.77 7328.7 6199.63 7191.3 6392.57C7196.08 6393.22 7200.86 6393.55 7205.63 6393.59C7238.84 6393.92 7271.6 6380.22 7297.21 6360.83C7326.32 6338.81 7347.78 6310 7368.81 6281.57C7353.83 6337.81 7331.8 6392.55 7303.26 6444.43C7303.34 6444.42 7303.41 6444.39 7303.49 6444.38C7303.48 6444.39 7303.47 6444.42 7303.46 6444.43C7321.47 6440.37 7338.04 6433.78 7353.43 6425.34C7273.28 6620.96 7188.4 6820.96 7031.45 6974.75C7033.45 6974.16 7035.42 6973.5 7037.41 6972.88C7036.77 6973.51 7036.15 6974.15 7035.51 6974.77C7119.95 6950.07 7195.04 6900.73 7246.83 6836.25C7243.91 6896.89 7180.79 6942.4 7155.56 6999.65C7153.37 7004.59 7151.45 7009.93 7152.56 7015.15C7154.62 7024.81 7166.67 7030.16 7177.84 7029.5C7180.92 7029.71 7184.02 7029.51 7186.94 7028.81C7199.21 7025.88 7208.6 7017.29 7217.26 7008.99C7237.12 6989.91 7256.48 6970.43 7275.54 6950.72C7229.37 7063.27 7161.73 7168.8 7076.18 7261.17C7047.94 7291.66 7016.23 7323.95 7013.52 7363.46C7013.72 7363.39 7013.91 7363.32 7014.1 7363.26C7013.86 7365.03 7013.61 7366.81 7013.49 7368.62C7044.98 7357.85 7075.49 7344.83 7104.72 7329.81C7045.27 7432.55 6966.83 7527.42 6872.7 7609.5C6868.82 7612.88 6864.85 7616.48 6861.07 7620.23C6560.64 7561.43 6249.67 7518.41 5934.26 7491.88C5937.11 7483.65 5938.17 7474.87 5937.21 7466.46C5934.36 7441.46 5918.45 7419.07 5903.41 7397.4C5823.15 7281.69 5757.16 7158.92 5706.54 7031.77C5717.26 7034.42 5728.21 7036.32 5739.27 7037.35C5768.8 7040.1 5807.34 7029.85 5808.87 7003.36C5808.97 7001.63 5808.88 6999.89 5808.68 6998.13C5808.75 6997.58 5808.89 6997.07 5808.92 6996.51C5809.93 6979.1 5794.1 6960.21 5791.92 6944.6C5792.6 6940.89 5794.47 6937.43 5798.05 6934.33C5827.91 6927.19 5853.71 6959.94 5884.57 6958.43C5909.78 6957.2 5925.14 6932.43 5923.64 6909.53C5924.11 6903.45 5923.51 6897.33 5921.6 6891.63C5913.15 6866.47 5889.21 6848.37 5866.82 6831.34C5767.56 6755.83 5676.39 6671.87 5594.77 6581.05C5595.78 6548.61 5578.67 6513.42 5559.28 6484.35C5531.54 6442.79 5498.37 6397.15 5508.67 6350.12L5637.95 6447.25C5646.78 6453.89 5657.18 6460.88 5668.53 6459.64C5670.57 6459.87 5672.62 6459.94 5674.73 6459.64C5690.42 6457.39 5702.62 6452.86 5697.75 6439.35C5692.87 6425.84 5692.87 6425.84 5663.1 6393.3C5501.97 6217.19 5391.55 6031.18 5334.63 5821.77C5361.42 5854.34 5386.59 5887.97 5409.96 5922.57C5410.04 5922.56 5410.09 5922.52 5410.17 5922.5C5410.19 5922.53 5410.21 5922.55 5410.22 5922.58C5419.46 5921.03 5418.92 5909.08 5416 5901.1C5389.01 5827.53 5362.02 5753.96 5335.04 5680.39C5375.21 5719.14 5418.97 5754.93 5465.71 5787.27C5465.76 5787.25 5465.8 5787.21 5465.86 5787.2C5465.9 5787.22 5465.93 5787.24 5465.97 5787.28C5480.39 5781.17 5474.54 5761.83 5466.58 5749.48C5423.11 5681.97 5379.63 5614.46 5336.16 5546.96C5338.51 5546.66 5340.82 5546.5 5343.12 5546.47C5377.83 5546 5406.94 5573.53 5426.36 5600.4C5447.11 5629.12 5467.55 5662.42 5503.97 5672.9L5503.96 5672.81C5504.05 5672.83 5504.14 5672.87 5504.24 5672.9C5490.82 5557.69 5387.61 5470.33 5314.97 5374.39C5262.92 5305.64 5225.18 5229.21 5187.72 5153.25C5146.27 5069.17 5104.8 4985.09 5063.34 4901.01L5063.12 4901.09C5063.11 4901.06 5063.09 4901.04 5063.08 4901.01L5038.05 4909.59C5009.13 5212.11 4897.19 5508.02 4714.75 5764.19C4721.09 5765.04 4727.45 5765.48 4733.79 5765.54C4777.87 5765.98 4821.37 5747.79 4855.38 5722.05C4894.03 5692.81 4922.52 5654.56 4950.44 5616.81C4930.55 5691.48 4901.3 5764.16 4863.41 5833.04C4863.51 5833.02 4863.61 5832.99 4863.71 5832.97C4863.7 5833 4863.68 5833.02 4863.67 5833.04C4887.58 5827.64 4909.58 5818.9 4930.02 5807.7C4823.6 6067.43 4710.91 6332.98 4502.51 6537.17C4505.17 6536.39 4507.78 6535.5 4510.42 6534.68C4509.58 6535.52 4508.76 6536.37 4507.92 6537.2C4620.03 6504.4 4719.72 6438.89 4788.48 6353.27C4784.61 6433.79 4700.8 6494.22 4667.29 6570.22C4664.4 6576.8 4661.85 6583.87 4663.32 6590.81C4666.06 6603.64 4682.06 6610.74 4696.89 6609.86C4700.97 6610.14 4705.09 6609.86 4708.96 6608.94C4725.25 6605.06 4737.74 6593.65 4749.22 6582.62C4775.59 6557.29 4801.3 6531.43 4826.61 6505.26C4765.31 6654.7 4675.5 6794.82 4561.91 6917.45C4524.42 6957.94 4482.3 7000.82 4478.72 7053.27C4478.98 7053.18 4479.22 7053.09 4479.48 7053C4479.16 7055.36 4478.83 7057.72 4478.66 7060.12C4520.52 7045.81 4561.08 7028.49 4599.93 7008.53C4520.99 7144.98 4416.75 7270.94 4291.74 7379.94C4267.26 7401.28 4239.82 7428.74 4250.49 7457.1C4252.16 7456.63 4253.79 7456.12 4255.45 7455.63C4255.62 7456.13 4255.71 7456.63 4255.89 7457.14C4414.79 7412.36 4537.38 7307.05 4652.64 7203.78C4628.56 7259.22 4604.48 7314.67 4580.4 7370.12C4582.72 7369.08 4584.95 7367.92 4587.25 7366.85C4586.76 7367.95 4586.29 7369.05 4585.81 7370.15C4636.93 7347.23 4682.21 7315.09 4717.94 7276.57C4739.47 7294.54 4715.77 7327.66 4692.78 7346.83C4642.75 7388.56 4597.08 7434.02 4556.27 7482.41C4503.38 7486.2 4450.62 7490.47 4398.02 7495.25C2661.2 7653.14 926.923 8330.49 -874.734 8012.96C-874.783 8012.95 -802.031 10665.2 -802.031 10665.2C1463.47 10783.3 3734.79 10865.5 6008.39 10911.8C8181.4 10956 10502.4 11073.6 12665.7 10938.1C12756.5 10587.9 12333.4 10282.9 11837.9 10096.9Z" fill="#5B8B3D"/>
<mask id="mask4_97_5" style="mask-type:luminance" maskUnits="userSpaceOnUse" x="-511" y="7856" width="9994" height="2174">
<path d="M-510.443 7856.69H9482.83V10029.2H-510.443V7856.69Z" fill="white"/>
</mask>
<g mask="url(#mask4_97_5)">
<g opacity="0.289993">
<path d="M8729.98 9964.49C8982.11 9937.82 9232.97 9902.21 9482.85 9862.02C8610.32 9304.18 7597.14 8922.94 6540.76 8754.98C6060.55 8678.63 5573.21 8645.88 5087.37 8607.23C4396.64 8552.29 3705.26 8484.96 3028.88 8348.29C2760.07 8293.98 2478.86 8220.88 2292.01 8039.91C2238.43 7988.01 2196.87 7924.52 2169.82 7856.68C1286.38 8021.25 395.979 8153.42 -510.443 8057.56C-505.746 8123.55 -487.735 8190.78 -469.402 8254.81L-303.355 8834.73C-280.051 8916.12 -255.202 9000.33 -195.813 9065.47C-118.75 9150 3.48474 9188.76 120.47 9219.8C776.505 9393.87 1463.88 9445.43 2143.54 9516.97C4336.55 9747.83 6537.12 10196.4 8729.98 9964.49Z" fill="#0A445F"/>
</g>
</g>
<path d="M13740.1 8218.47C13378.1 8728.52 12576.5 9006.68 11900.5 9008.57C11224.4 9010.47 10540.1 8891.5 9877.57 9011.99C9585.78 9065.06 9307.18 9163.32 9028.28 9256.51C6881.66 9973.77 4511.04 10413 2301.72 9868.39L2075.1 10441.5L13740.1 11541.1V8218.47Z" fill="#F9A137"/>
<path d="M10074.1 7562.07C9866.89 8088.54 9517.97 8574.56 9061.47 8972.63C8998.58 9027.46 8928.1 9097.97 8955.5 9170.84C9374.16 9052.87 9694.72 8771.29 9997.45 8499.58C9932.63 8648.85 9867.81 8798.13 9802.98 8947.39C9936.97 8887.3 10055.5 8802.69 10148.1 8701.05C10217.2 8745.44 10153.4 8836.1 10091.7 8887.58C9848.23 9090.65 9644.43 9327.7 9490.98 9586.26C9928.91 9502.43 10263.4 9212.11 10571 8935.28C10510.8 9084.06 10492.5 9244.91 10518.1 9400.74C10651.1 9333.21 10767.2 9241.97 10856.6 9134.72C10910.4 9225.11 10964.3 9315.5 11018.1 9405.9C11027.8 9422.14 11039 9439.62 11058.7 9446.75C11089.6 9457.9 11123.4 9438.46 11147.7 9418.87C11243.4 9341.82 11314.7 9243.34 11352.5 9136.2C11481.4 9185.83 11514.6 9357.8 11654.4 9376.91C11737.7 9388.3 11815.4 9334.23 11858.1 9272.6C11900.9 9210.98 11921.5 9139.64 11965.7 9078.72C11974.8 9066.18 11986.1 9053.34 12002.7 9049.09C12039.1 9039.81 12067.6 9074.52 12087.7 9101.81C12124.3 9151.63 12181.9 9195.55 12251 9200.07C12320.1 9204.59 12394.2 9154.31 12384.2 9096.25C12508 9176.43 12631.9 9256.62 12755.8 9336.81C12779.3 9352.05 12803.9 9367.71 12832.9 9372.91C12913 9387.27 12982.9 9291.36 12931.8 9237.2C12992.4 9301.59 13077.7 9373.3 13171 9350.23C13244.1 9332.13 13281.8 9259.05 13274.5 9194.81C13267.1 9130.56 13226.2 9073.07 13187.6 9017.39C12899.8 8602.48 12683 8152.33 12546.1 7685.39L10074.1 7562.07Z" fill="#5B8B3D"/>
<mask id="mask5_97_5" style="mask-type:luminance" maskUnits="userSpaceOnUse" x="8935" y="7583" width="2751" height="2004">
<path d="M8935.53 7583.06H11685.1V9586.17H8935.53V7583.06Z" fill="white"/>
</mask>
<g mask="url(#mask5_97_5)">
<g opacity="0.289993">
<path d="M10591 7588.45C10455.1 7619.52 10316.8 7624.56 10184.6 7583.06L10138.5 7607.45C10010.5 7845.13 9854 8070.36 9673.22 8278.85C9497.68 8529.77 9287.51 8763.31 9047.57 8972.54C8984.7 9027.37 8914.21 9097.88 8941.61 9170.75C9360.27 9052.78 9680.83 8771.2 9983.56 8499.48C9918.74 8648.76 9853.91 8798.03 9789.09 8947.3C9923.07 8887.21 10041.6 8802.6 10134.2 8700.96C10203.3 8745.35 10139.5 8836 10077.8 8887.49C9834.33 9090.55 9630.54 9327.6 9477.09 9586.16C9915.01 9502.33 10249.5 9212.02 10557.1 8935.18C10496.9 9083.97 10478.6 9244.82 10504.3 9400.64C10637.2 9333.11 10753.3 9241.88 10842.7 9134.62C10896.6 9225.02 10950.4 9315.41 11004.2 9405.8C11009.8 9415.13 11015.9 9424.8 11023.8 9432.74C11382.7 8901.19 11558.4 8272.9 11685.1 7643.03L10591 7588.45Z" fill="#0A445F"/>
</g>
</g>
<path d="M10517.3 6460.95C10365.7 6943.95 10099.6 7398 9741.59 7784.52C9645.27 7888.52 9537.09 7998.65 9527.89 8133.39C9797.72 8041.13 10046.9 7901.06 10256.8 7723.7L10190.2 8010.99C10174.6 8078.31 10256.1 8130 10322.2 8094.82C10468 8017.24 10587.4 7895.01 10699 7777.34C10680.2 7943.65 10675.8 8111.26 10685.7 8278.18C10689.2 8336.82 10770.6 8362.39 10814.3 8318.45C10927.2 8204.63 11009.7 8065.39 11089.2 7929.36C11070.8 8074.07 11094.3 8222.92 11157.1 8357.33C11165.9 8376.08 11181 8392.3 11201.2 8401.73C11254.3 8426.6 11294.5 8390.83 11322.7 8356.71C11417.4 8241.74 11473.3 8101.62 11481.4 7959.05C11536.1 8109.84 11628 8249.77 11748.8 8365.85C11758 8374.66 11770.2 8380.84 11783.6 8382.31C11822.6 8386.58 11836.9 8353.12 11845.3 8325.17C11879.9 8209.38 11914.5 8093.59 11949.1 7977.8C12034 8080.42 12153.9 8159.67 12288.6 8202.29C12319 8211.91 12351.6 8219.78 12383.2 8214.36C12445.1 8203.75 12484 8144 12485.5 8087.72C12487 8031.44 12460.3 7977.98 12434.2 7926.77C12520.1 8009.55 12640.4 8063.23 12766.1 8074.9C12842 8081.95 12941 8055.63 12944.9 7987.59C12948.5 7924.65 12866.4 7854.11 12917.1 7810.27C12993.8 7791.92 13060.1 7876.05 13139.4 7872.17C13214.8 7868.49 13256 7782.81 13234.3 7718.18C13212.6 7653.54 13151.1 7607.05 13093.6 7563.3C12583 7174.89 12155.7 6699.29 11841.8 6169.84L10517.3 6460.95Z" fill="#5B8B3D"/>
<mask id="mask6_97_5" style="mask-type:luminance" maskUnits="userSpaceOnUse" x="9527" y="6285" width="1883" height="1900">
<path d="M9527.77 6285.72H11409.4V8184.48H9527.77V6285.72Z" fill="white"/>
</mask>
<g mask="url(#mask6_97_5)">
<g opacity="0.289993">
<path d="M9741.45 7802.11C9645.12 7906.11 9536.95 8016.24 9527.74 8150.98C9797.57 8058.72 10046.8 7918.65 10256.7 7741.29L10190.1 8028.58C10179.3 8075.05 10214.8 8114.06 10259.5 8122.2C10397.2 8047.44 10519.5 7954.03 10617.7 7835.24C10614.3 7852.31 10611.7 7869.51 10609.9 7886.76C10640.3 7856.42 10669.8 7825.52 10698.8 7794.93C10684.2 7924.31 10678.3 8054.46 10681.1 8184.48C11211 7683.9 11477.4 6970.17 11394.6 6285.7L10517.2 6478.55C10365.5 6961.54 10099.4 7415.6 9741.45 7802.11Z" fill="#0A445F"/>
</g>
</g>
<path d="M10832.4 4502.57C10808 4638.47 10754.7 4768.71 10701.8 4897.99C10424.1 5576.52 10133.9 6273.74 9588.98 6807.63C9884.7 6721.11 10147 6546.16 10324 6317.5C10326 6533.3 10100.8 6691.75 10012.3 6892.55C10004.8 6909.42 9998.26 6927.61 10002.1 6945.43C10010.2 6983.44 10063.6 7001.9 10105.4 6991.92C10147.3 6981.95 10179.3 6952.64 10208.8 6924.3C10396.7 6743.83 10571.9 6553.14 10746.9 6362.6C10720.5 6587.85 10694 6813.11 10667.6 7038.37C10665.2 7058.63 10664.1 7082.04 10680.6 7096.11C10711 7122.03 10758.5 7089.62 10783.3 7059.31C10929.1 6881.56 11056.6 6691.8 11163.5 6493.22C11173.5 6622.48 11198.3 6750.83 11237.4 6875.61C11245.7 6902.14 11264.3 6934.51 11294.9 6930.85C11312.3 6928.76 11324.7 6914.99 11334.7 6902.05C11410.6 6803.85 11462.8 6691.06 11486.7 6573.62C11526.9 6791.73 11640.1 6998.68 11808 7161C11862.3 6963.22 11861.8 6753.65 11806.6 6556.08C11985.3 6713.98 12164.1 6871.88 12342.9 7029.78C12423.2 6924.53 12362.7 6781.3 12289.7 6671.88C12216.7 6562.47 12128.7 6442.07 12161.6 6318.12L12505.7 6576.67C12528.9 6594.11 12556.3 6612.68 12586.3 6608.39C12626.6 6602.61 12657.9 6590.99 12645.4 6556.27C12632.9 6521.56 12632.9 6521.56 12556.4 6437.97C12003.1 5833.25 11682.5 5183.06 11611.9 4404.61L10832.4 4502.57Z" fill="#5B8B3D"/>
<mask id="mask7_97_5" style="mask-type:luminance" maskUnits="userSpaceOnUse" x="9602" y="4471" width="1808" height="2524">
<path d="M9602.87 4471.33H11410V6994.66H9602.87V4471.33Z" fill="white"/>
</mask>
<g mask="url(#mask7_97_5)">
<g opacity="0.289993">
<path d="M10714.2 6759.39C10747.3 6676.45 10777.5 6592.7 10806.5 6509.8C11040.9 5838.64 11242.3 5158.28 11409.9 4471.33L11353.4 4553.27C11256.2 4473.49 11101.1 4474.33 10981.4 4524.17C10920.3 4549.63 10866.4 4585.46 10816.5 4626.14C10789.2 4718.29 10752.4 4808.43 10715.7 4898.09C10438 5576.61 10147.8 6273.84 9602.87 6807.73C9898.59 6721.2 10160.9 6546.26 10337.9 6317.6C10339.9 6533.4 10114.7 6691.85 10026.2 6892.65C10018.7 6909.52 10012.1 6927.71 10016 6945.53C10024 6983.54 10077.5 7002 10119.3 6992.02C10161.2 6982.04 10193.2 6952.74 10222.7 6924.4C10410.6 6743.93 10585.8 6553.24 10760.8 6362.7C10745.3 6494.93 10729.8 6627.16 10714.2 6759.39Z" fill="#0A445F"/>
</g>
</g>
<path d="M10964.7 2626.75C10890.4 3403.84 10602.8 4163.98 10134.2 4822.03C10263.5 4839.5 10395 4789.26 10494.8 4713.77C10594.5 4638.29 10668 4539.41 10740 4441.96C10688.9 4634.29 10613.6 4821.49 10516.1 4998.9C10785.7 4937.98 10961.5 4712.95 11112.6 4504.32L11363.8 5117.52C11450.3 5008.33 11507.1 4880.46 11527.8 4747.98C11673.8 4897.73 11805.2 5058.84 11920 5228.89C11943.7 5224.91 11942.4 5194.21 11934.9 5173.72C11865.4 4984.41 11796 4795.09 11726.5 4605.78C11830 4705.7 11942.8 4797.96 12063.2 4881.32C12100.3 4865.64 12085.2 4815.96 12064.8 4784.23C11953.1 4610.82 11841.5 4437.41 11729.8 4264C11827.1 4251.79 11908.8 4327.53 11962.2 4401.3C12015.5 4475.06 12068 4560.6 12161.5 4587.51C12127.1 4291.58 11861.9 4067.16 11675.3 3820.71C11541.6 3644.1 11444.7 3447.77 11348.5 3252.65C11242 3036.67 11135.5 2820.69 11029 2604.7L10964.7 2626.75Z" fill="#5B8B3D"/>
<mask id="mask8_97_5" style="mask-type:luminance" maskUnits="userSpaceOnUse" x="10134" y="2604" width="1133" height="2395">
<path d="M10134.9 2604.72H11266.9V4998.89H10134.9V2604.72Z" fill="white"/>
</mask>
<g mask="url(#mask8_97_5)">
<g opacity="0.289993">
<path d="M11232.1 3015.3L11029.7 2604.7L10965.4 2626.75C10891.1 3403.84 10603.5 4163.98 10134.9 4822.03C10264.2 4839.51 10395.7 4789.26 10495.4 4713.78C10595.2 4638.29 10668.7 4539.41 10740.7 4441.96C10689.6 4634.29 10614.3 4821.49 10516.7 4998.9C10786.4 4937.98 10962.2 4712.95 11113.3 4504.32C11115.9 4510.6 11118.5 4516.88 11121 4523.16C11207.9 4286.66 11253 4033.57 11263.6 3787.81C11274.7 3530.05 11256.2 3272.65 11232.1 3015.3Z" fill="#0A445F"/>
</g>
</g>
<path d="M13724.2 11294.8C13061.8 10943.1 12278.9 10835.5 11538 10646.3C10437.2 10365.2 9400.29 9893.48 8280.07 9682.25C7024.79 9445.55 5721.59 9546.18 4446.85 9416.82C2465.01 9215.71 561.219 8441.19 -909.547 7237.68L-901.248 11541.1H13740.1V11429.4L13724.2 11294.8Z" fill="#0A445F"/>
<path d="M12515.3 1108.54C12515.3 1640.58 12032.4 2071.88 11436.8 2071.88C10841.2 2071.88 10358.4 1640.58 10358.4 1108.54C10358.4 576.506 10841.2 145.204 11436.8 145.204C12032.4 145.204 12515.3 576.506 12515.3 1108.54Z" fill="#F9A137"/>
</g>
<g filter="url(#filter2_iii_97_5)">
<path fill-rule="evenodd" clip-rule="evenodd" d="M8602.67 -153C8919.95 -153 9196.42 0.399155 9341.16 227.346C9437.46 193.876 9542.43 175.483 9652.29 175.483C10061.7 175.483 10403.1 430.852 10481.3 770.076C10615.7 884.573 10699.1 1044.84 10699.1 1222.24C10699.1 1570.19 10377.9 1852.25 9981.72 1852.25C9853.91 1852.25 9733.91 1822.9 9629.97 1771.46C9479.68 1891.7 9279.84 1965.01 9060.51 1965.01C8790.44 1965.01 8549.94 1853.87 8395.08 1680.82C8248.51 1787.87 8060.09 1852.25 7854.55 1852.25C7387.4 1852.25 7008.71 1519.7 7008.71 1109.48C7008.71 716.831 7355.64 395.342 7795 368.51C7902.23 66.3491 8223.28 -153 8602.67 -153Z" fill="#2BB3C5"/>
</g>
</g>
<defs>
<filter id="filter0_iii_97_5" x="9757.61" y="1426.13" width="5427.37" height="2217.1" filterUnits="userSpaceOnUse" color-interpolation-filters="sRGB">
<feFlood flood-opacity="0" result="BackgroundImageFix"/>
<feBlend mode="normal" in="SourceGraphic" in2="BackgroundImageFix" result="shape"/>
<feColorMatrix in="SourceAlpha" type="matrix" values="0 0 0 0 0 0 0 0 0 0 0 0 0 0 0 0 0 0 127 0" result="hardAlpha"/>
<feOffset dx="-44.0036" dy="-44.0036"/>
<feGaussianBlur stdDeviation="96.8078"/>
<feComposite in2="hardAlpha" operator="arithmetic" k2="-1" k3="1"/>
<feColorMatrix type="matrix" values="0 0 0 0 0 0 0 0 0 0 0 0 0 0 0 0 0 0 0.24 0"/>
<feBlend mode="normal" in2="shape" result="effect1_innerShadow_97_5"/>
<feColorMatrix in="SourceAlpha" type="matrix" values="0 0 0 0 0 0 0 0 0 0 0 0 0 0 0 0 0 0 127 0" result="hardAlpha"/>
<feOffset dx="44.0036" dy="44.0036"/>
<feGaussianBlur stdDeviation="24.202"/>
<feComposite in2="hardAlpha" operator="arithmetic" k2="-1" k3="1"/>
<feColorMatrix type="matrix" values="0 0 0 0 1 0 0 0 0 1 0 0 0 0 1 0 0 0 0.5 0"/>
<feBlend mode="normal" in2="effect1_innerShadow_97_5" result="effect2_innerShadow_97_5"/>
<feColorMatrix in="SourceAlpha" type="matrix" values="0 0 0 0 0 0 0 0 0 0 0 0 0 0 0 0 0 0 127 0" result="hardAlpha"/>
<feOffset dx="73.3393" dy="73.3393"/>
<feGaussianBlur stdDeviation="124.677"/>
<feComposite in2="hardAlpha" operator="arithmetic" k2="-1" k3="1"/>
<feColorMatrix type="matrix" values="0 0 0 0 1 0 0 0 0 1 0 0 0 0 1 0 0 0 0.15 0"/>
<feBlend mode="normal" in2="effect2_innerShadow_97_5" result="effect3_innerShadow_97_5"/>
</filter>
<filter id="filter1_diii_97_5" x="-956.004" y="101.201" width="14828.1" height="11571.9" filterUnits="userSpaceOnUse" color-interpolation-filters="sRGB">
<feFlood flood-opacity="0" result="BackgroundImageFix"/>
<feColorMatrix in="SourceAlpha" type="matrix" values="0 0 0 0 0 0 0 0 0 0 0 0 0 0 0 0 0 0 127 0" result="hardAlpha"/>
<feOffset dx="58.6714" dy="58.6714"/>
<feGaussianBlur stdDeviation="36.6696"/>
<feComposite in2="hardAlpha" operator="out"/>
<feColorMatrix type="matrix" values="0 0 0 0 0 0 0 0 0 0 0 0 0 0 0 0 0 0 0.25 0"/>
<feBlend mode="normal" in2="BackgroundImageFix" result="effect1_dropShadow_97_5"/>
<feBlend mode="normal" in="SourceGraphic" in2="effect1_dropShadow_97_5" result="shape"/>
<feColorMatrix in="SourceAlpha" type="matrix" values="0 0 0 0 0 0 0 0 0 0 0 0 0 0 0 0 0 0 127 0" result="hardAlpha"/>
<feOffset dx="-44.0036" dy="-44.0036"/>
<feGaussianBlur stdDeviation="96.8078"/>
<feComposite in2="hardAlpha" operator="arithmetic" k2="-1" k3="1"/>
<feColorMatrix type="matrix" values="0 0 0 0 0 0 0 0 0 0 0 0 0 0 0 0 0 0 0.24 0"/>
<feBlend mode="normal" in2="shape" result="effect2_innerShadow_97_5"/>
<feColorMatrix in="SourceAlpha" type="matrix" values="0 0 0 0 0 0 0 0 0 0 0 0 0 0 0 0 0 0 127 0" result="hardAlpha"/>
<feOffset dx="44.0036" dy="44.0036"/>
<feGaussianBlur stdDeviation="24.202"/>
<feComposite in2="hardAlpha" operator="arithmetic" k2="-1" k3="1"/>
<feColorMatrix type="matrix" values="0 0 0 0 1 0 0 0 0 1 0 0 0 0 1 0 0 0 0.5 0"/>
<feBlend mode="normal" in2="effect2_innerShadow_97_5" result="effect3_innerShadow_97_5"/>
<feColorMatrix in="SourceAlpha" type="matrix" values="0 0 0 0 0 0 0 0 0 0 0 0 0 0 0 0 0 0 127 0" result="hardAlpha"/>
<feOffset dx="73.3393" dy="73.3393"/>
<feGaussianBlur stdDeviation="124.677"/>
<feComposite in2="hardAlpha" operator="arithmetic" k2="-1" k3="1"/>
<feColorMatrix type="matrix" values="0 0 0 0 1 0 0 0 0 1 0 0 0 0 1 0 0 0 0.15 0"/>
<feBlend mode="normal" in2="effect3_innerShadow_97_5" result="effect4_innerShadow_97_5"/>
</filter>
<filter id="filter2_iii_97_5" x="6964.7" y="-197.004" width="3807.78" height="2235.36" filterUnits="userSpaceOnUse" color-interpolation-filters="sRGB">
<feFlood flood-opacity="0" result="BackgroundImageFix"/>
<feBlend mode="normal" in="SourceGraphic" in2="BackgroundImageFix" result="shape"/>
<feColorMatrix in="SourceAlpha" type="matrix" values="0 0 0 0 0 0 0 0 0 0 0 0 0 0 0 0 0 0 127 0" result="hardAlpha"/>
<feOffset dx="-44.0036" dy="-44.0036"/>
<feGaussianBlur stdDeviation="96.8078"/>
<feComposite in2="hardAlpha" operator="arithmetic" k2="-1" k3="1"/>
<feColorMatrix type="matrix" values="0 0 0 0 0 0 0 0 0 0 0 0 0 0 0 0 0 0 0.24 0"/>
<feBlend mode="normal" in2="shape" result="effect1_innerShadow_97_5"/>
<feColorMatrix in="SourceAlpha" type="matrix" values="0 0 0 0 0 0 0 0 0 0 0 0 0 0 0 0 0 0 127 0" result="hardAlpha"/>
<feOffset dx="44.0036" dy="44.0036"/>
<feGaussianBlur stdDeviation="24.202"/>
<feComposite in2="hardAlpha" operator="arithmetic" k2="-1" k3="1"/>
<feColorMatrix type="matrix" values="0 0 0 0 1 0 0 0 0 1 0 0 0 0 1 0 0 0 0.5 0"/>
<feBlend mode="normal" in2="effect1_innerShadow_97_5" result="effect2_innerShadow_97_5"/>
<feColorMatrix in="SourceAlpha" type="matrix" values="0 0 0 0 0 0 0 0 0 0 0 0 0 0 0 0 0 0 127 0" result="hardAlpha"/>
<feOffset dx="73.3393" dy="73.3393"/>
<feGaussianBlur stdDeviation="124.677"/>
<feComposite in2="hardAlpha" operator="arithmetic" k2="-1" k3="1"/>
<feColorMatrix type="matrix" values="0 0 0 0 1 0 0 0 0 1 0 0 0 0 1 0 0 0 0.15 0"/>
<feBlend mode="normal" in2="effect2_innerShadow_97_5" result="effect3_innerShadow_97_5"/>
</filter>
</defs>
</svg>
